G75*
%MOIN*%
%OFA0B0*%
%FSLAX25Y25*%
%IPPOS*%
%LPD*%
%AMOC8*
5,1,8,0,0,1.08239X$1,22.5*
%
%ADD10R,0.00110X0.00107*%
%ADD11R,0.00210X0.00107*%
%ADD12R,0.00740X0.00107*%
%ADD13R,0.00320X0.00107*%
%ADD14R,0.00540X0.00107*%
%ADD15R,0.00220X0.00107*%
%ADD16R,0.00100X0.00107*%
%ADD17R,0.00310X0.00107*%
%ADD18R,0.00420X0.00107*%
%ADD19R,0.03090X0.00106*%
%ADD20R,0.01380X0.00106*%
%ADD21R,0.01270X0.00106*%
%ADD22R,0.01390X0.00106*%
%ADD23R,0.01280X0.00106*%
%ADD24R,0.04040X0.00106*%
%ADD25R,0.01600X0.00106*%
%ADD26R,0.01710X0.00106*%
%ADD27R,0.01700X0.00106*%
%ADD28R,0.01810X0.00106*%
%ADD29R,0.04790X0.00107*%
%ADD30R,0.01910X0.00107*%
%ADD31R,0.02020X0.00107*%
%ADD32R,0.02030X0.00107*%
%ADD33R,0.01920X0.00107*%
%ADD34R,0.05430X0.00106*%
%ADD35R,0.02240X0.00106*%
%ADD36R,0.02230X0.00106*%
%ADD37R,0.05960X0.00107*%
%ADD38R,0.02440X0.00107*%
%ADD39R,0.02450X0.00107*%
%ADD40R,0.02340X0.00107*%
%ADD41R,0.02560X0.00107*%
%ADD42R,0.02550X0.00107*%
%ADD43R,0.02340X0.00107*%
%ADD44R,0.06380X0.00106*%
%ADD45R,0.02660X0.00106*%
%ADD46R,0.02550X0.00106*%
%ADD47R,0.02560X0.00106*%
%ADD48R,0.02770X0.00106*%
%ADD49R,0.07020X0.00106*%
%ADD50R,0.02770X0.00106*%
%ADD51R,0.02770X0.00106*%
%ADD52R,0.02760X0.00106*%
%ADD53R,0.02660X0.00106*%
%ADD54R,0.02880X0.00106*%
%ADD55R,0.07340X0.00107*%
%ADD56R,0.02880X0.00107*%
%ADD57R,0.02770X0.00107*%
%ADD58R,0.02870X0.00107*%
%ADD59R,0.02870X0.00107*%
%ADD60R,0.03080X0.00107*%
%ADD61R,0.07770X0.00106*%
%ADD62R,0.02980X0.00106*%
%ADD63R,0.03090X0.00106*%
%ADD64R,0.03300X0.00106*%
%ADD65R,0.08090X0.00106*%
%ADD66R,0.02980X0.00106*%
%ADD67R,0.03080X0.00106*%
%ADD68R,0.03510X0.00106*%
%ADD69R,0.08410X0.00107*%
%ADD70R,0.02980X0.00107*%
%ADD71R,0.03090X0.00107*%
%ADD72R,0.03190X0.00107*%
%ADD73R,0.03620X0.00107*%
%ADD74R,0.08720X0.00106*%
%ADD75R,0.03080X0.00106*%
%ADD76R,0.03190X0.00106*%
%ADD77R,0.03720X0.00106*%
%ADD78R,0.09040X0.00107*%
%ADD79R,0.03940X0.00107*%
%ADD80R,0.03300X0.00107*%
%ADD81R,0.09360X0.00106*%
%ADD82R,0.03190X0.00106*%
%ADD83R,0.04040X0.00106*%
%ADD84R,0.03290X0.00106*%
%ADD85R,0.09570X0.00106*%
%ADD86R,0.03290X0.00106*%
%ADD87R,0.04260X0.00106*%
%ADD88R,0.09890X0.00107*%
%ADD89R,0.03290X0.00107*%
%ADD90R,0.04260X0.00107*%
%ADD91R,0.10210X0.00106*%
%ADD92R,0.04580X0.00106*%
%ADD93R,0.10320X0.00106*%
%ADD94R,0.03300X0.00106*%
%ADD95R,0.04580X0.00106*%
%ADD96R,0.10640X0.00107*%
%ADD97R,0.04680X0.00107*%
%ADD98R,0.10850X0.00106*%
%ADD99R,0.04790X0.00106*%
%ADD100R,0.11170X0.00107*%
%ADD101R,0.04780X0.00107*%
%ADD102R,0.11280X0.00106*%
%ADD103R,0.05000X0.00106*%
%ADD104R,0.11490X0.00106*%
%ADD105R,0.05000X0.00106*%
%ADD106R,0.11700X0.00107*%
%ADD107R,0.05000X0.00107*%
%ADD108R,0.11910X0.00106*%
%ADD109R,0.05100X0.00106*%
%ADD110R,0.12020X0.00107*%
%ADD111R,0.05210X0.00107*%
%ADD112R,0.12230X0.00106*%
%ADD113R,0.05220X0.00106*%
%ADD114R,0.12340X0.00106*%
%ADD115R,0.05100X0.00106*%
%ADD116R,0.12660X0.00107*%
%ADD117R,0.05960X0.00106*%
%ADD118R,0.00100X0.00106*%
%ADD119R,0.00210X0.00106*%
%ADD120R,0.05850X0.00106*%
%ADD121R,0.05210X0.00106*%
%ADD122R,0.05320X0.00106*%
%ADD123R,0.00110X0.00106*%
%ADD124R,0.05220X0.00106*%
%ADD125R,0.05110X0.00107*%
%ADD126R,0.04790X0.00106*%
%ADD127R,0.04780X0.00106*%
%ADD128R,0.05110X0.00106*%
%ADD129R,0.04690X0.00107*%
%ADD130R,0.04570X0.00106*%
%ADD131R,0.04470X0.00106*%
%ADD132R,0.04360X0.00106*%
%ADD133R,0.05110X0.00106*%
%ADD134R,0.05100X0.00107*%
%ADD135R,0.04150X0.00106*%
%ADD136R,0.04250X0.00106*%
%ADD137R,0.05220X0.00106*%
%ADD138R,0.04140X0.00107*%
%ADD139R,0.04150X0.00107*%
%ADD140R,0.04150X0.00106*%
%ADD141R,0.03940X0.00106*%
%ADD142R,0.03930X0.00107*%
%ADD143R,0.05220X0.00107*%
%ADD144R,0.03830X0.00106*%
%ADD145R,0.03940X0.00106*%
%ADD146R,0.05210X0.00106*%
%ADD147R,0.03830X0.00106*%
%ADD148R,0.03720X0.00107*%
%ADD149R,0.03720X0.00106*%
%ADD150R,0.03730X0.00106*%
%ADD151R,0.03620X0.00107*%
%ADD152R,0.03620X0.00106*%
%ADD153R,0.03610X0.00106*%
%ADD154R,0.03620X0.00106*%
%ADD155R,0.03610X0.00106*%
%ADD156R,0.03510X0.00107*%
%ADD157R,0.03510X0.00106*%
%ADD158R,0.03400X0.00106*%
%ADD159R,0.03400X0.00106*%
%ADD160R,0.08510X0.00106*%
%ADD161R,0.03400X0.00107*%
%ADD162R,0.03410X0.00107*%
%ADD163R,0.08290X0.00107*%
%ADD164R,0.03410X0.00106*%
%ADD165R,0.08190X0.00106*%
%ADD166R,0.03410X0.00106*%
%ADD167R,0.07970X0.00106*%
%ADD168R,0.07980X0.00107*%
%ADD169R,0.07870X0.00106*%
%ADD170R,0.07770X0.00107*%
%ADD171R,0.07440X0.00106*%
%ADD172R,0.07450X0.00106*%
%ADD173R,0.07230X0.00107*%
%ADD174R,0.07130X0.00106*%
%ADD175R,0.03200X0.00106*%
%ADD176R,0.06910X0.00106*%
%ADD177R,0.03200X0.00107*%
%ADD178R,0.06910X0.00107*%
%ADD179R,0.03200X0.00106*%
%ADD180R,0.06810X0.00106*%
%ADD181R,0.06700X0.00107*%
%ADD182R,0.03190X0.00106*%
%ADD183R,0.06380X0.00106*%
%ADD184R,0.03190X0.00107*%
%ADD185R,0.06170X0.00107*%
%ADD186R,0.06060X0.00106*%
%ADD187R,0.05850X0.00107*%
%ADD188R,0.05740X0.00106*%
%ADD189R,0.06170X0.00106*%
%ADD190R,0.06280X0.00106*%
%ADD191R,0.06270X0.00107*%
%ADD192R,0.06490X0.00106*%
%ADD193R,0.06590X0.00107*%
%ADD194R,0.06800X0.00106*%
%ADD195R,0.07020X0.00107*%
%ADD196R,0.07130X0.00106*%
%ADD197R,0.07340X0.00106*%
%ADD198R,0.07550X0.00106*%
%ADD199R,0.03730X0.00107*%
%ADD200R,0.07660X0.00107*%
%ADD201R,0.07760X0.00106*%
%ADD202R,0.03620X0.00106*%
%ADD203R,0.07980X0.00106*%
%ADD204R,0.04040X0.00107*%
%ADD205R,0.08080X0.00107*%
%ADD206R,0.04040X0.00106*%
%ADD207R,0.08080X0.00106*%
%ADD208R,0.08400X0.00107*%
%ADD209R,0.04260X0.00106*%
%ADD210R,0.04470X0.00106*%
%ADD211R,0.04570X0.00107*%
%ADD212R,0.04680X0.00106*%
%ADD213R,0.03610X0.00107*%
%ADD214R,0.04050X0.00106*%
%ADD215R,0.03720X0.00106*%
%ADD216R,0.03620X0.00106*%
%ADD217R,0.04250X0.00106*%
%ADD218R,0.05320X0.00107*%
%ADD219R,0.03720X0.00107*%
%ADD220R,0.03820X0.00106*%
%ADD221R,0.04470X0.00106*%
%ADD222R,0.03720X0.00106*%
%ADD223R,0.03820X0.00106*%
%ADD224R,0.04580X0.00107*%
%ADD225R,0.03830X0.00107*%
%ADD226R,0.03820X0.00107*%
%ADD227R,0.03930X0.00106*%
%ADD228R,0.03940X0.00106*%
%ADD229R,0.06070X0.00106*%
%ADD230R,0.04890X0.00107*%
%ADD231R,0.04040X0.00107*%
%ADD232R,0.03940X0.00107*%
%ADD233R,0.06380X0.00107*%
%ADD234R,0.04900X0.00106*%
%ADD235R,0.04040X0.00106*%
%ADD236R,0.06600X0.00106*%
%ADD237R,0.04050X0.00106*%
%ADD238R,0.04250X0.00107*%
%ADD239R,0.04140X0.00107*%
%ADD240R,0.07130X0.00107*%
%ADD241R,0.07440X0.00106*%
%ADD242R,0.05430X0.00106*%
%ADD243R,0.04470X0.00106*%
%ADD244R,0.04360X0.00106*%
%ADD245R,0.07770X0.00106*%
%ADD246R,0.05740X0.00107*%
%ADD247R,0.04470X0.00107*%
%ADD248R,0.04460X0.00107*%
%ADD249R,0.05860X0.00106*%
%ADD250R,0.04570X0.00106*%
%ADD251R,0.06170X0.00107*%
%ADD252R,0.08940X0.00107*%
%ADD253R,0.04790X0.00107*%
%ADD254R,0.04900X0.00107*%
%ADD255R,0.06490X0.00106*%
%ADD256R,0.09580X0.00106*%
%ADD257R,0.06810X0.00106*%
%ADD258R,0.05320X0.00106*%
%ADD259R,0.05320X0.00106*%
%ADD260R,0.10210X0.00106*%
%ADD261R,0.00110X0.00106*%
%ADD262R,0.05310X0.00106*%
%ADD263R,0.07450X0.00107*%
%ADD264R,0.05740X0.00107*%
%ADD265R,0.11600X0.00107*%
%ADD266R,0.05640X0.00107*%
%ADD267R,0.14250X0.00106*%
%ADD268R,0.12660X0.00106*%
%ADD269R,0.25320X0.00106*%
%ADD270R,0.14050X0.00107*%
%ADD271R,0.12560X0.00107*%
%ADD272R,0.12450X0.00107*%
%ADD273R,0.12550X0.00107*%
%ADD274R,0.08190X0.00107*%
%ADD275R,0.14040X0.00106*%
%ADD276R,0.12340X0.00106*%
%ADD277R,0.12350X0.00106*%
%ADD278R,0.08610X0.00106*%
%ADD279R,0.13930X0.00106*%
%ADD280R,0.12120X0.00106*%
%ADD281R,0.12130X0.00106*%
%ADD282R,0.07020X0.00106*%
%ADD283R,0.08830X0.00106*%
%ADD284R,0.13830X0.00107*%
%ADD285R,0.12020X0.00107*%
%ADD286R,0.11910X0.00107*%
%ADD287R,0.09150X0.00107*%
%ADD288R,0.13730X0.00106*%
%ADD289R,0.11810X0.00106*%
%ADD290R,0.11710X0.00106*%
%ADD291R,0.07240X0.00106*%
%ADD292R,0.09250X0.00106*%
%ADD293R,0.13720X0.00106*%
%ADD294R,0.11590X0.00106*%
%ADD295R,0.11600X0.00106*%
%ADD296R,0.07030X0.00106*%
%ADD297R,0.09360X0.00106*%
%ADD298R,0.13520X0.00107*%
%ADD299R,0.11280X0.00107*%
%ADD300R,0.11380X0.00107*%
%ADD301R,0.09580X0.00107*%
%ADD302R,0.13510X0.00106*%
%ADD303R,0.11170X0.00106*%
%ADD304R,0.04890X0.00106*%
%ADD305R,0.11270X0.00106*%
%ADD306R,0.09690X0.00106*%
%ADD307R,0.13400X0.00107*%
%ADD308R,0.10950X0.00107*%
%ADD309R,0.10960X0.00107*%
%ADD310R,0.09790X0.00107*%
%ADD311R,0.13200X0.00106*%
%ADD312R,0.10750X0.00106*%
%ADD313R,0.10740X0.00106*%
%ADD314R,0.10630X0.00106*%
%ADD315R,0.09890X0.00106*%
%ADD316R,0.12980X0.00106*%
%ADD317R,0.10530X0.00106*%
%ADD318R,0.06700X0.00106*%
%ADD319R,0.10000X0.00106*%
%ADD320R,0.13080X0.00107*%
%ADD321R,0.10220X0.00107*%
%ADD322R,0.10210X0.00107*%
%ADD323R,0.10000X0.00107*%
%ADD324R,0.12770X0.00106*%
%ADD325R,0.10000X0.00106*%
%ADD326R,0.09900X0.00106*%
%ADD327R,0.06590X0.00106*%
%ADD328R,0.09890X0.00106*%
%ADD329R,0.12760X0.00107*%
%ADD330R,0.09680X0.00107*%
%ADD331R,0.06480X0.00107*%
%ADD332R,0.09790X0.00107*%
%ADD333R,0.09470X0.00106*%
%ADD334R,0.06270X0.00106*%
%ADD335R,0.09150X0.00106*%
%ADD336R,0.09040X0.00106*%
%ADD337R,0.08720X0.00107*%
%ADD338R,0.08830X0.00107*%
%ADD339R,0.08410X0.00106*%
%ADD340R,0.08400X0.00106*%
%ADD341R,0.08510X0.00106*%
%ADD342R,0.05850X0.00106*%
%ADD343R,0.08090X0.00106*%
%ADD344R,0.08190X0.00106*%
%ADD345R,0.05640X0.00106*%
%ADD346R,0.08090X0.00106*%
%ADD347R,0.07770X0.00107*%
%ADD348R,0.07880X0.00107*%
%ADD349R,0.07760X0.00107*%
%ADD350R,0.05430X0.00107*%
%ADD351R,0.09790X0.00106*%
%ADD352R,0.06920X0.00107*%
%ADD353R,0.06920X0.00107*%
%ADD354R,0.07030X0.00107*%
%ADD355R,0.09690X0.00107*%
%ADD356R,0.02760X0.00106*%
%ADD357R,0.06490X0.00106*%
%ADD358R,0.02770X0.00106*%
%ADD359R,0.09580X0.00106*%
%ADD360R,0.02560X0.00106*%
%ADD361R,0.05950X0.00106*%
%ADD362R,0.02550X0.00106*%
%ADD363R,0.05530X0.00107*%
%ADD364R,0.05310X0.00107*%
%ADD365R,0.05420X0.00107*%
%ADD366R,0.04780X0.00106*%
%ADD367R,0.02120X0.00106*%
%ADD368R,0.08940X0.00106*%
%ADD369R,0.04050X0.00107*%
%ADD370R,0.01810X0.00107*%
%ADD371R,0.01700X0.00106*%
%ADD372R,0.02230X0.00106*%
%ADD373R,0.01490X0.00106*%
%ADD374R,0.02970X0.00106*%
%ADD375R,0.01810X0.00106*%
%ADD376R,0.01180X0.00106*%
%ADD377R,0.01490X0.00106*%
%ADD378R,0.01280X0.00106*%
%ADD379R,0.01270X0.00106*%
%ADD380R,0.00960X0.00106*%
%ADD381R,0.01270X0.00106*%
%ADD382R,0.07870X0.00106*%
%ADD383R,0.00220X0.00107*%
%ADD384R,0.00950X0.00106*%
%ADD385R,0.00960X0.00106*%
%ADD386R,0.01490X0.00107*%
%ADD387R,0.01910X0.00106*%
%ADD388R,0.02130X0.00107*%
%ADD389R,0.02450X0.00106*%
%ADD390R,0.02660X0.00107*%
%ADD391R,0.02870X0.00106*%
%ADD392R,0.02870X0.00106*%
%ADD393R,0.02870X0.00106*%
%ADD394R,0.02870X0.00106*%
%ADD395R,0.02760X0.00107*%
%ADD396R,0.02240X0.00107*%
%ADD397R,0.02230X0.00107*%
%ADD398R,0.02340X0.00106*%
%ADD399R,0.02020X0.00106*%
%ADD400R,0.02340X0.00106*%
%ADD401R,0.02030X0.00106*%
%ADD402R,0.01920X0.00106*%
%ADD403R,0.02020X0.00106*%
%ADD404R,0.01590X0.00107*%
%ADD405R,0.01380X0.00107*%
%ADD406R,0.01390X0.00107*%
%ADD407R,0.01170X0.00106*%
%ADD408R,0.00740X0.00106*%
%ADD409R,0.00750X0.00106*%
%ADD410R,0.00850X0.00107*%
%ADD411C,0.00600*%
D10*
X0038875Y0122914D03*
X0040365Y0122914D03*
X0039725Y0135467D03*
X0033555Y0143446D03*
X0052705Y0122914D03*
X0058235Y0135467D03*
X0058555Y0135467D03*
X0059085Y0135467D03*
X0059295Y0135467D03*
X0071745Y0138765D03*
X0081425Y0138233D03*
X0083875Y0135467D03*
X0084405Y0135467D03*
X0077595Y0122914D03*
X0071215Y0122914D03*
X0096425Y0135467D03*
X0097275Y0135467D03*
X0103445Y0122914D03*
X0128875Y0122914D03*
X0135895Y0122914D03*
X0141535Y0135467D03*
X0141955Y0135467D03*
X0142385Y0135467D03*
X0148555Y0122914D03*
X0154295Y0122914D03*
X0164295Y0122914D03*
X0166215Y0138765D03*
X0166425Y0138765D03*
X0167065Y0138765D03*
X0167595Y0138765D03*
X0162065Y0138765D03*
X0161535Y0138765D03*
X0161215Y0138765D03*
X0160785Y0138765D03*
X0160575Y0138765D03*
X0154935Y0138765D03*
X0154295Y0138765D03*
D11*
X0161795Y0138765D03*
X0077865Y0122914D03*
X0039245Y0122914D03*
X0040095Y0135467D03*
D12*
X0039830Y0122914D03*
D13*
X0052380Y0122914D03*
X0071530Y0122914D03*
X0103130Y0122914D03*
X0113340Y0122914D03*
X0119720Y0122914D03*
X0129190Y0122914D03*
X0148230Y0122914D03*
X0154620Y0138765D03*
X0163980Y0122914D03*
D14*
X0065150Y0122914D03*
D15*
X0071480Y0138765D03*
X0078180Y0122914D03*
X0167330Y0138765D03*
D16*
X0166640Y0138765D03*
X0166000Y0138765D03*
X0161000Y0138765D03*
X0141320Y0135467D03*
X0129510Y0122914D03*
X0113660Y0122914D03*
X0107490Y0135467D03*
X0102810Y0122914D03*
X0090150Y0122914D03*
X0039510Y0135467D03*
X0033340Y0143446D03*
D17*
X0090575Y0122914D03*
D18*
X0135520Y0122914D03*
X0154670Y0122914D03*
D19*
X0154615Y0123977D03*
X0148235Y0128552D03*
X0154615Y0141424D03*
X0164085Y0124828D03*
X0164085Y0123977D03*
X0071425Y0123977D03*
X0071425Y0141424D03*
X0071425Y0142488D03*
X0058765Y0138552D03*
X0039725Y0138552D03*
X0039725Y0123020D03*
D20*
X0052490Y0123020D03*
X0103130Y0123020D03*
X0113340Y0123020D03*
D21*
X0154565Y0123020D03*
X0065095Y0123020D03*
D22*
X0071425Y0123020D03*
X0090575Y0123020D03*
X0164085Y0123020D03*
D23*
X0148290Y0123020D03*
X0135630Y0123020D03*
X0129140Y0123020D03*
X0119670Y0123020D03*
X0077860Y0123020D03*
D24*
X0044880Y0127275D03*
X0044780Y0127169D03*
X0039780Y0123126D03*
D25*
X0052490Y0123126D03*
D26*
X0065095Y0123126D03*
X0084245Y0138658D03*
X0096905Y0138658D03*
X0154565Y0123126D03*
D27*
X0148290Y0123126D03*
X0164140Y0123126D03*
X0129140Y0123126D03*
X0119670Y0123126D03*
X0113290Y0123126D03*
X0103180Y0123126D03*
X0090520Y0123126D03*
X0077860Y0123126D03*
X0071480Y0123126D03*
D28*
X0071425Y0140573D03*
X0129195Y0143126D03*
X0135575Y0123126D03*
X0141955Y0138658D03*
X0164085Y0143126D03*
D29*
X0108025Y0137914D03*
X0090575Y0133446D03*
X0079935Y0135148D03*
X0063025Y0135148D03*
X0039725Y0123233D03*
D30*
X0052435Y0123233D03*
X0065095Y0123233D03*
X0154565Y0123233D03*
X0154565Y0138446D03*
X0154565Y0143233D03*
D31*
X0148230Y0123233D03*
X0129190Y0123233D03*
X0119720Y0123233D03*
X0113340Y0123233D03*
X0071430Y0123233D03*
X0071430Y0138446D03*
X0071430Y0140680D03*
D32*
X0077915Y0123233D03*
X0090575Y0123233D03*
X0164085Y0123233D03*
D33*
X0135630Y0123233D03*
X0103180Y0123233D03*
D34*
X0090575Y0133871D03*
X0043555Y0126211D03*
X0039725Y0123339D03*
D35*
X0052490Y0123339D03*
X0065150Y0123339D03*
X0113340Y0123339D03*
X0129190Y0123339D03*
D36*
X0135575Y0123339D03*
X0148235Y0123339D03*
X0154615Y0123339D03*
X0164085Y0123339D03*
X0154615Y0138339D03*
X0154615Y0140786D03*
X0119725Y0123339D03*
X0103235Y0123339D03*
X0090575Y0123339D03*
X0077915Y0123339D03*
X0071425Y0123339D03*
X0071425Y0138339D03*
D37*
X0090520Y0134084D03*
X0127860Y0130999D03*
X0039780Y0123446D03*
D38*
X0052490Y0123446D03*
X0065150Y0123446D03*
X0113340Y0123446D03*
D39*
X0103235Y0123446D03*
X0129195Y0123446D03*
X0148235Y0123446D03*
X0154615Y0123446D03*
X0164085Y0123446D03*
X0154615Y0142914D03*
X0071425Y0142914D03*
X0071425Y0138233D03*
X0071425Y0123446D03*
X0033445Y0142914D03*
D40*
X0077860Y0123446D03*
X0154560Y0138233D03*
D41*
X0090520Y0123446D03*
D42*
X0119775Y0123446D03*
D43*
X0119780Y0138233D03*
X0135630Y0123446D03*
D44*
X0127650Y0130360D03*
X0039780Y0123552D03*
D45*
X0052490Y0123552D03*
X0090570Y0123552D03*
X0113340Y0123552D03*
X0129190Y0123552D03*
X0148230Y0123552D03*
X0154620Y0123552D03*
X0164090Y0123552D03*
D46*
X0154565Y0140892D03*
X0135625Y0123552D03*
X0077865Y0123552D03*
X0065095Y0123552D03*
D47*
X0071480Y0123552D03*
X0071480Y0140892D03*
X0103180Y0123552D03*
D48*
X0119775Y0123552D03*
X0119775Y0138020D03*
D49*
X0039780Y0123658D03*
D50*
X0052435Y0123658D03*
X0135625Y0123658D03*
D51*
X0154565Y0123658D03*
X0065095Y0123658D03*
D52*
X0071480Y0123658D03*
X0077860Y0123658D03*
X0090520Y0123658D03*
X0103180Y0123658D03*
X0129140Y0142594D03*
X0164140Y0142594D03*
D53*
X0154620Y0142807D03*
X0154620Y0138126D03*
X0148230Y0123658D03*
X0164090Y0123658D03*
X0129190Y0123658D03*
X0113340Y0123658D03*
X0071430Y0142807D03*
D54*
X0052490Y0123871D03*
X0113340Y0123871D03*
X0119830Y0123658D03*
D55*
X0127170Y0132063D03*
X0039720Y0123765D03*
D56*
X0052490Y0123765D03*
X0113340Y0123765D03*
D57*
X0154565Y0140999D03*
X0154565Y0142701D03*
X0065095Y0123765D03*
D58*
X0071425Y0123765D03*
X0071425Y0137914D03*
X0090575Y0123765D03*
X0103235Y0123765D03*
X0135575Y0123765D03*
X0148235Y0123765D03*
X0164085Y0123765D03*
D59*
X0154615Y0123765D03*
X0129195Y0123765D03*
X0107595Y0138446D03*
X0077915Y0123765D03*
D60*
X0052490Y0124084D03*
X0113340Y0124084D03*
X0119830Y0123765D03*
X0129190Y0124084D03*
X0129190Y0125999D03*
X0129190Y0139616D03*
X0129190Y0142063D03*
X0129190Y0142382D03*
D61*
X0039725Y0123871D03*
D62*
X0065100Y0123871D03*
X0071480Y0137807D03*
X0071480Y0141211D03*
X0077860Y0123871D03*
X0090520Y0123871D03*
X0103180Y0123871D03*
X0129140Y0123871D03*
X0135630Y0123871D03*
X0148290Y0123871D03*
X0154560Y0123871D03*
X0164140Y0123871D03*
X0154560Y0137807D03*
D63*
X0154615Y0137594D03*
X0148235Y0130573D03*
X0148235Y0124190D03*
X0164085Y0135041D03*
X0164085Y0142169D03*
X0164085Y0142275D03*
X0090575Y0124190D03*
X0071425Y0124190D03*
X0071425Y0123871D03*
X0071425Y0137594D03*
X0033445Y0142169D03*
X0033445Y0142275D03*
D64*
X0033450Y0141637D03*
X0033450Y0140254D03*
X0033450Y0140041D03*
X0033450Y0139722D03*
X0033450Y0138339D03*
X0033450Y0138126D03*
X0033450Y0137807D03*
X0033550Y0132169D03*
X0033450Y0131743D03*
X0033450Y0131105D03*
X0033450Y0130786D03*
X0033450Y0130254D03*
X0033550Y0129722D03*
X0033550Y0129509D03*
X0033660Y0129190D03*
X0033770Y0128871D03*
X0045890Y0129509D03*
X0046000Y0130041D03*
X0046000Y0131743D03*
X0045890Y0132169D03*
X0045890Y0132275D03*
X0052490Y0131743D03*
X0052700Y0132594D03*
X0052490Y0130786D03*
X0052490Y0130254D03*
X0052490Y0130041D03*
X0052490Y0129190D03*
X0052490Y0128339D03*
X0052490Y0128126D03*
X0052490Y0127169D03*
X0052490Y0126743D03*
X0052490Y0126105D03*
X0052490Y0125573D03*
X0052490Y0124722D03*
X0052490Y0124509D03*
X0065150Y0124722D03*
X0065150Y0125254D03*
X0065150Y0126637D03*
X0065150Y0126743D03*
X0065150Y0127169D03*
X0065150Y0127807D03*
X0065150Y0128871D03*
X0065150Y0129722D03*
X0065150Y0130573D03*
X0065150Y0130786D03*
X0065150Y0131211D03*
X0065040Y0131743D03*
X0064940Y0132169D03*
X0064940Y0132275D03*
X0078020Y0132275D03*
X0078020Y0132169D03*
X0078130Y0132594D03*
X0103020Y0132275D03*
X0103020Y0132169D03*
X0103130Y0131743D03*
X0107700Y0138339D03*
X0113020Y0132807D03*
X0113130Y0132275D03*
X0113340Y0131637D03*
X0113340Y0131211D03*
X0113340Y0130786D03*
X0113340Y0130573D03*
X0113340Y0130254D03*
X0113340Y0129509D03*
X0113340Y0128871D03*
X0113340Y0128339D03*
X0113340Y0127807D03*
X0113340Y0127594D03*
X0113340Y0127275D03*
X0113340Y0127169D03*
X0113340Y0126743D03*
X0113340Y0126105D03*
X0113340Y0125254D03*
X0113340Y0125041D03*
X0113340Y0124722D03*
X0113340Y0124509D03*
X0119830Y0123871D03*
X0129190Y0124509D03*
X0129190Y0124722D03*
X0129190Y0125041D03*
X0129190Y0125573D03*
X0129190Y0125786D03*
X0129190Y0126105D03*
X0129190Y0126637D03*
X0129190Y0126743D03*
X0129190Y0127169D03*
X0129190Y0127594D03*
X0129190Y0127807D03*
X0129190Y0133339D03*
X0129190Y0133658D03*
X0129190Y0133871D03*
X0129190Y0134190D03*
X0129190Y0135254D03*
X0129190Y0135573D03*
X0129190Y0135786D03*
X0129190Y0136105D03*
X0129190Y0136211D03*
X0129190Y0136743D03*
X0129190Y0137169D03*
X0129190Y0137807D03*
X0129190Y0138126D03*
X0129190Y0138339D03*
X0129190Y0138658D03*
X0129190Y0139190D03*
X0129190Y0139509D03*
X0129190Y0139722D03*
X0129190Y0140041D03*
X0129190Y0140573D03*
X0129190Y0140786D03*
X0129190Y0141211D03*
X0129190Y0141637D03*
X0129190Y0141743D03*
X0135790Y0132275D03*
X0135790Y0132169D03*
X0135680Y0131743D03*
X0148130Y0132169D03*
X0148130Y0132275D03*
X0154620Y0132275D03*
X0154620Y0131637D03*
X0154620Y0131211D03*
X0154620Y0130786D03*
X0154620Y0129509D03*
X0154620Y0129190D03*
X0154620Y0128871D03*
X0154620Y0127169D03*
X0154620Y0126743D03*
X0154620Y0126105D03*
X0154620Y0125041D03*
X0154620Y0124722D03*
X0154620Y0124509D03*
X0154620Y0133339D03*
X0154620Y0133658D03*
X0154620Y0135254D03*
X0154620Y0135573D03*
X0154620Y0136105D03*
X0154620Y0136743D03*
X0154620Y0137169D03*
D65*
X0039775Y0123977D03*
D66*
X0052440Y0123977D03*
X0033500Y0142488D03*
X0077860Y0123977D03*
X0090520Y0123977D03*
X0103180Y0123977D03*
X0135630Y0123977D03*
X0148290Y0123977D03*
X0154560Y0142488D03*
D67*
X0129190Y0123977D03*
X0113340Y0123977D03*
X0113340Y0124403D03*
X0113340Y0125360D03*
X0096850Y0138552D03*
X0084190Y0138552D03*
X0065150Y0123977D03*
D68*
X0064725Y0133020D03*
X0052915Y0133020D03*
X0033875Y0128552D03*
X0090575Y0131956D03*
X0112915Y0133020D03*
X0119935Y0123977D03*
D69*
X0039725Y0124084D03*
D70*
X0065100Y0124084D03*
X0071480Y0141318D03*
X0119780Y0137914D03*
X0154560Y0137914D03*
X0154560Y0141318D03*
D71*
X0154615Y0141531D03*
X0154615Y0142382D03*
X0154615Y0137701D03*
X0148235Y0129084D03*
X0148235Y0124084D03*
X0154615Y0124084D03*
X0164085Y0124084D03*
X0164085Y0129084D03*
X0164085Y0142382D03*
X0135575Y0124084D03*
X0103235Y0124084D03*
X0077915Y0124084D03*
X0077915Y0124297D03*
X0071425Y0124084D03*
X0071425Y0137701D03*
X0071425Y0141531D03*
X0071425Y0142382D03*
X0033445Y0142382D03*
D72*
X0052435Y0130999D03*
X0052545Y0131318D03*
X0052545Y0131850D03*
X0052435Y0130148D03*
X0052435Y0129935D03*
X0052435Y0129297D03*
X0052435Y0129084D03*
X0052435Y0128446D03*
X0052435Y0128233D03*
X0052435Y0127382D03*
X0052435Y0127063D03*
X0052435Y0126850D03*
X0052435Y0125999D03*
X0052435Y0125467D03*
X0052435Y0124616D03*
X0052435Y0124297D03*
X0065095Y0124297D03*
X0065095Y0124616D03*
X0065095Y0124935D03*
X0065095Y0125467D03*
X0065095Y0125680D03*
X0065095Y0125999D03*
X0065095Y0126531D03*
X0065095Y0126850D03*
X0065095Y0127914D03*
X0065095Y0128233D03*
X0065095Y0128765D03*
X0065095Y0129084D03*
X0065095Y0129616D03*
X0065095Y0130148D03*
X0065095Y0130467D03*
X0065095Y0130680D03*
X0065095Y0130999D03*
X0065095Y0131318D03*
X0065095Y0131531D03*
X0071475Y0131850D03*
X0071475Y0132063D03*
X0071475Y0132914D03*
X0071475Y0134084D03*
X0071475Y0134616D03*
X0071475Y0135148D03*
X0071475Y0135467D03*
X0071475Y0135680D03*
X0071475Y0137382D03*
X0071475Y0141850D03*
X0071475Y0142063D03*
X0071475Y0130999D03*
X0071475Y0130148D03*
X0071475Y0129935D03*
X0071475Y0129297D03*
X0071475Y0129084D03*
X0071475Y0128446D03*
X0071475Y0128233D03*
X0071475Y0127382D03*
X0071475Y0126531D03*
X0071475Y0126318D03*
X0071475Y0125680D03*
X0071475Y0125467D03*
X0071475Y0124616D03*
X0071475Y0124297D03*
X0077865Y0125148D03*
X0077865Y0125467D03*
X0077865Y0125999D03*
X0077865Y0126318D03*
X0077865Y0127063D03*
X0077865Y0127914D03*
X0077865Y0128446D03*
X0077865Y0128765D03*
X0077865Y0129297D03*
X0077865Y0129616D03*
X0077865Y0130148D03*
X0077865Y0130467D03*
X0077865Y0130999D03*
X0077965Y0131850D03*
X0090525Y0131318D03*
X0090525Y0130999D03*
X0090525Y0130680D03*
X0090525Y0130467D03*
X0090525Y0130148D03*
X0090525Y0128765D03*
X0090525Y0127914D03*
X0090525Y0126850D03*
X0090525Y0125999D03*
X0090525Y0125467D03*
X0090525Y0125148D03*
X0090525Y0124616D03*
X0090525Y0124297D03*
X0090525Y0124084D03*
X0103185Y0124297D03*
X0103185Y0124616D03*
X0103185Y0124935D03*
X0103185Y0125148D03*
X0103185Y0125680D03*
X0103185Y0125999D03*
X0103185Y0126318D03*
X0103185Y0126531D03*
X0103185Y0126850D03*
X0103185Y0127063D03*
X0103185Y0127382D03*
X0103185Y0127701D03*
X0103185Y0127914D03*
X0103185Y0128233D03*
X0103185Y0128446D03*
X0103185Y0128765D03*
X0103185Y0129084D03*
X0103185Y0129616D03*
X0103185Y0130148D03*
X0103185Y0130467D03*
X0103185Y0130680D03*
X0103185Y0130999D03*
X0103185Y0131318D03*
X0103185Y0131531D03*
X0113285Y0131531D03*
X0113285Y0131318D03*
X0113285Y0130999D03*
X0113285Y0130680D03*
X0113285Y0130467D03*
X0113285Y0130148D03*
X0113395Y0129616D03*
X0113285Y0129084D03*
X0113285Y0128765D03*
X0113285Y0128446D03*
X0113285Y0128233D03*
X0113285Y0127701D03*
X0113285Y0127063D03*
X0113285Y0125148D03*
X0113395Y0124935D03*
X0113285Y0124616D03*
X0113285Y0124297D03*
X0129135Y0124616D03*
X0129135Y0124935D03*
X0129135Y0125467D03*
X0129135Y0126850D03*
X0129135Y0127063D03*
X0129135Y0127914D03*
X0129135Y0133446D03*
X0129135Y0133765D03*
X0129135Y0134084D03*
X0129135Y0135680D03*
X0129135Y0135999D03*
X0129135Y0136318D03*
X0129245Y0137063D03*
X0129135Y0137914D03*
X0129135Y0138233D03*
X0129135Y0139084D03*
X0129135Y0140467D03*
X0129135Y0140680D03*
X0129135Y0141318D03*
X0129135Y0141531D03*
X0129135Y0141850D03*
X0135625Y0131531D03*
X0135625Y0131318D03*
X0135625Y0130999D03*
X0135625Y0130680D03*
X0135625Y0130148D03*
X0135625Y0129935D03*
X0135625Y0129297D03*
X0135625Y0129084D03*
X0135625Y0128446D03*
X0135625Y0128233D03*
X0135625Y0127914D03*
X0135625Y0126531D03*
X0135625Y0126318D03*
X0135625Y0125999D03*
X0135625Y0125680D03*
X0135625Y0125467D03*
X0135625Y0124616D03*
X0135625Y0124297D03*
X0148185Y0125680D03*
X0148285Y0125467D03*
X0148285Y0124935D03*
X0148285Y0124616D03*
X0148285Y0124297D03*
X0148285Y0126850D03*
X0148285Y0127063D03*
X0148285Y0127382D03*
X0148285Y0127701D03*
X0148285Y0127914D03*
X0148285Y0128233D03*
X0148285Y0128765D03*
X0148285Y0129616D03*
X0148285Y0129935D03*
X0148285Y0130467D03*
X0148285Y0130999D03*
X0148185Y0131850D03*
X0154565Y0131531D03*
X0154565Y0131318D03*
X0154565Y0130680D03*
X0154565Y0129935D03*
X0154565Y0129616D03*
X0154565Y0129297D03*
X0154565Y0129084D03*
X0154565Y0128765D03*
X0154565Y0128446D03*
X0154565Y0127701D03*
X0154565Y0127382D03*
X0154565Y0127063D03*
X0154565Y0126850D03*
X0154565Y0125999D03*
X0154565Y0125467D03*
X0154565Y0125148D03*
X0154565Y0124935D03*
X0154565Y0124616D03*
X0154565Y0124297D03*
X0154565Y0132382D03*
X0154565Y0132914D03*
X0154565Y0133233D03*
X0154565Y0133446D03*
X0154565Y0133765D03*
X0154565Y0134084D03*
X0154565Y0135148D03*
X0154565Y0135467D03*
X0154565Y0135680D03*
X0154565Y0135999D03*
X0154565Y0136850D03*
X0154565Y0137063D03*
X0154565Y0137382D03*
X0154565Y0142063D03*
X0164135Y0142063D03*
X0164135Y0141531D03*
X0164135Y0140467D03*
X0164135Y0140148D03*
X0164135Y0139935D03*
X0164035Y0139297D03*
X0164135Y0139084D03*
X0164135Y0135467D03*
X0164135Y0133446D03*
X0164035Y0132701D03*
X0164135Y0132382D03*
X0164135Y0132063D03*
X0164135Y0131850D03*
X0164135Y0130999D03*
X0164135Y0130467D03*
X0164135Y0129935D03*
X0164135Y0129616D03*
X0164135Y0128765D03*
X0164035Y0128446D03*
X0164135Y0127914D03*
X0164135Y0127382D03*
X0164135Y0126318D03*
X0164135Y0125467D03*
X0164035Y0124297D03*
D73*
X0119990Y0124084D03*
X0045520Y0133233D03*
X0034140Y0127914D03*
D74*
X0039780Y0124190D03*
D75*
X0052490Y0124190D03*
X0113340Y0124190D03*
X0113340Y0128126D03*
X0129190Y0124190D03*
X0129190Y0142169D03*
X0129190Y0142275D03*
D76*
X0129135Y0141105D03*
X0129135Y0140254D03*
X0129135Y0138871D03*
X0129135Y0137594D03*
X0129135Y0137275D03*
X0129135Y0136637D03*
X0129135Y0135041D03*
X0129135Y0134722D03*
X0129245Y0134509D03*
X0129135Y0133126D03*
X0129135Y0128339D03*
X0129135Y0128126D03*
X0129135Y0127275D03*
X0129135Y0126211D03*
X0129135Y0125254D03*
X0135625Y0125254D03*
X0135625Y0125041D03*
X0135625Y0124722D03*
X0135625Y0124509D03*
X0135625Y0124190D03*
X0135625Y0126105D03*
X0135625Y0126637D03*
X0135625Y0126743D03*
X0135625Y0127169D03*
X0135625Y0127275D03*
X0135625Y0127594D03*
X0135625Y0127807D03*
X0135625Y0128658D03*
X0135625Y0128871D03*
X0135625Y0129509D03*
X0135625Y0129722D03*
X0135625Y0130041D03*
X0135625Y0130573D03*
X0135625Y0131105D03*
X0135625Y0131211D03*
X0135625Y0131637D03*
X0148185Y0131637D03*
X0148285Y0131211D03*
X0148285Y0130786D03*
X0148285Y0130254D03*
X0148285Y0129722D03*
X0148285Y0128871D03*
X0148285Y0127275D03*
X0148185Y0127169D03*
X0148285Y0126637D03*
X0148285Y0126211D03*
X0148285Y0125786D03*
X0148185Y0124509D03*
X0154565Y0124190D03*
X0154565Y0125254D03*
X0154565Y0125573D03*
X0154565Y0125786D03*
X0154565Y0126211D03*
X0154565Y0126637D03*
X0154565Y0127275D03*
X0154565Y0127594D03*
X0154565Y0127807D03*
X0154565Y0128126D03*
X0154565Y0128339D03*
X0154565Y0128658D03*
X0154565Y0129722D03*
X0154565Y0130041D03*
X0154565Y0130254D03*
X0154565Y0130573D03*
X0154565Y0131105D03*
X0154565Y0131743D03*
X0154565Y0132169D03*
X0154565Y0132594D03*
X0154565Y0132807D03*
X0154565Y0133126D03*
X0154565Y0133871D03*
X0154565Y0134190D03*
X0154565Y0134509D03*
X0154565Y0134722D03*
X0154565Y0135041D03*
X0154565Y0135786D03*
X0154565Y0136211D03*
X0154565Y0136637D03*
X0154565Y0137275D03*
X0154565Y0141637D03*
X0154565Y0141743D03*
X0154565Y0142169D03*
X0154565Y0142275D03*
X0164135Y0141637D03*
X0164135Y0141105D03*
X0164135Y0140786D03*
X0164135Y0134509D03*
X0164135Y0134190D03*
X0164135Y0133871D03*
X0164035Y0133339D03*
X0164135Y0133126D03*
X0164135Y0131743D03*
X0164035Y0131211D03*
X0164135Y0130573D03*
X0164135Y0128871D03*
X0164135Y0128339D03*
X0164135Y0127275D03*
X0164135Y0126743D03*
X0164135Y0126637D03*
X0164035Y0126105D03*
X0164135Y0125786D03*
X0164135Y0124509D03*
X0164135Y0124190D03*
X0119885Y0137807D03*
X0113285Y0131743D03*
X0113395Y0131105D03*
X0113395Y0130041D03*
X0113285Y0129722D03*
X0113395Y0129190D03*
X0113395Y0128658D03*
X0113285Y0126637D03*
X0113285Y0126211D03*
X0113285Y0125786D03*
X0113285Y0125573D03*
X0103185Y0125573D03*
X0103185Y0125786D03*
X0103185Y0126211D03*
X0103185Y0126637D03*
X0103185Y0127275D03*
X0103185Y0127594D03*
X0103185Y0128126D03*
X0103185Y0129190D03*
X0103185Y0129509D03*
X0103185Y0130041D03*
X0103185Y0130786D03*
X0103185Y0131105D03*
X0103185Y0131211D03*
X0103185Y0131637D03*
X0103185Y0125254D03*
X0103185Y0124722D03*
X0103185Y0124509D03*
X0103185Y0124190D03*
X0090525Y0125786D03*
X0090525Y0126211D03*
X0090525Y0126637D03*
X0090525Y0127275D03*
X0090525Y0127594D03*
X0090525Y0128126D03*
X0090525Y0128339D03*
X0090525Y0129190D03*
X0090525Y0129509D03*
X0090525Y0130041D03*
X0090525Y0131105D03*
X0077865Y0131105D03*
X0077865Y0131211D03*
X0077865Y0130573D03*
X0077865Y0130041D03*
X0077865Y0129722D03*
X0077865Y0129190D03*
X0077865Y0128871D03*
X0077865Y0128339D03*
X0077865Y0127594D03*
X0077865Y0127275D03*
X0077865Y0127169D03*
X0077865Y0126743D03*
X0077865Y0126637D03*
X0077865Y0126211D03*
X0077865Y0125786D03*
X0077865Y0124722D03*
X0077865Y0124509D03*
X0077865Y0124190D03*
X0071475Y0125041D03*
X0071475Y0125254D03*
X0071475Y0126105D03*
X0071475Y0126743D03*
X0071475Y0127169D03*
X0071475Y0127594D03*
X0071475Y0127807D03*
X0071475Y0128658D03*
X0071475Y0128871D03*
X0071475Y0129509D03*
X0071475Y0129722D03*
X0071475Y0130573D03*
X0071475Y0130786D03*
X0071475Y0131211D03*
X0071475Y0131637D03*
X0071475Y0132275D03*
X0071475Y0132594D03*
X0071475Y0132807D03*
X0071475Y0133126D03*
X0071475Y0133339D03*
X0071475Y0133871D03*
X0071475Y0134190D03*
X0071475Y0136105D03*
X0071475Y0136637D03*
X0071475Y0136743D03*
X0071475Y0137275D03*
X0071475Y0141637D03*
X0071475Y0142169D03*
X0071475Y0142275D03*
X0065095Y0131637D03*
X0065095Y0131105D03*
X0065095Y0130254D03*
X0065095Y0130041D03*
X0065095Y0129509D03*
X0065095Y0129190D03*
X0065095Y0128658D03*
X0065095Y0128339D03*
X0065095Y0128126D03*
X0065095Y0127594D03*
X0065095Y0127275D03*
X0065095Y0126211D03*
X0065095Y0126105D03*
X0065095Y0125786D03*
X0065095Y0125573D03*
X0065095Y0125041D03*
X0065095Y0124509D03*
X0065095Y0124190D03*
X0052545Y0131637D03*
X0052435Y0131211D03*
X0052435Y0131105D03*
X0052435Y0130573D03*
X0052435Y0129722D03*
X0052435Y0129509D03*
X0052435Y0128871D03*
X0052435Y0128658D03*
X0052435Y0127807D03*
X0052435Y0127594D03*
X0052435Y0127275D03*
X0052435Y0126637D03*
X0052435Y0126211D03*
X0052435Y0125786D03*
X0052435Y0125254D03*
X0052435Y0125041D03*
X0045945Y0129722D03*
X0045945Y0131637D03*
D77*
X0053340Y0133871D03*
X0112490Y0133871D03*
X0120040Y0124190D03*
X0147380Y0133871D03*
D78*
X0039720Y0124297D03*
D79*
X0034510Y0127382D03*
X0033870Y0133446D03*
X0045040Y0134084D03*
X0053660Y0134297D03*
X0102170Y0134084D03*
X0112170Y0134297D03*
X0120040Y0124297D03*
D80*
X0113340Y0125467D03*
X0113340Y0125680D03*
X0113340Y0125999D03*
X0113340Y0126318D03*
X0113340Y0126531D03*
X0113340Y0126850D03*
X0113340Y0127382D03*
X0113340Y0127914D03*
X0113340Y0129297D03*
X0113340Y0129935D03*
X0113130Y0132382D03*
X0103130Y0132063D03*
X0103130Y0131850D03*
X0103020Y0132382D03*
X0129190Y0133233D03*
X0129190Y0134297D03*
X0129190Y0134616D03*
X0129190Y0134935D03*
X0129190Y0135148D03*
X0129190Y0135467D03*
X0129190Y0136531D03*
X0129190Y0136850D03*
X0129190Y0137382D03*
X0129190Y0137701D03*
X0129190Y0138446D03*
X0129190Y0138765D03*
X0129190Y0139297D03*
X0129190Y0139935D03*
X0129190Y0140148D03*
X0129190Y0140999D03*
X0135890Y0132701D03*
X0135790Y0132382D03*
X0135680Y0132063D03*
X0135680Y0131850D03*
X0129190Y0128446D03*
X0129190Y0128233D03*
X0129190Y0127701D03*
X0129190Y0127382D03*
X0129190Y0126531D03*
X0129190Y0126318D03*
X0129190Y0125680D03*
X0129190Y0125148D03*
X0129190Y0124297D03*
X0148130Y0132063D03*
X0148020Y0132382D03*
X0154620Y0132701D03*
X0154620Y0132063D03*
X0154620Y0131850D03*
X0154620Y0130999D03*
X0154620Y0130467D03*
X0154620Y0130148D03*
X0154620Y0128233D03*
X0154620Y0127914D03*
X0154620Y0126531D03*
X0154620Y0126318D03*
X0154620Y0125680D03*
X0154620Y0134297D03*
X0154620Y0134616D03*
X0154620Y0134935D03*
X0154620Y0136318D03*
X0154620Y0136531D03*
X0154620Y0141850D03*
X0078020Y0132063D03*
X0065040Y0132063D03*
X0065040Y0131850D03*
X0064940Y0132382D03*
X0064830Y0132701D03*
X0065150Y0129935D03*
X0065150Y0129297D03*
X0065150Y0128446D03*
X0065150Y0127701D03*
X0065150Y0127382D03*
X0065150Y0127063D03*
X0065150Y0126318D03*
X0065150Y0125148D03*
X0052700Y0132382D03*
X0052490Y0131531D03*
X0052490Y0130680D03*
X0052490Y0130467D03*
X0052490Y0129616D03*
X0052490Y0128765D03*
X0052490Y0127914D03*
X0052490Y0127701D03*
X0052490Y0126531D03*
X0052490Y0126318D03*
X0052490Y0125680D03*
X0052490Y0125148D03*
X0052490Y0124935D03*
X0045790Y0129084D03*
X0045890Y0129297D03*
X0045890Y0129616D03*
X0046000Y0129935D03*
X0046000Y0130148D03*
X0046000Y0131531D03*
X0046000Y0131850D03*
X0045890Y0132063D03*
X0033550Y0131850D03*
X0033450Y0131318D03*
X0033450Y0130680D03*
X0033550Y0129616D03*
X0033660Y0129297D03*
X0033660Y0129084D03*
X0033450Y0137701D03*
X0033450Y0138446D03*
X0033450Y0138765D03*
X0033450Y0139084D03*
X0033450Y0139616D03*
X0033450Y0140680D03*
X0033450Y0140999D03*
X0033450Y0141318D03*
X0033450Y0141531D03*
X0033450Y0141850D03*
X0033450Y0142063D03*
D81*
X0039780Y0124403D03*
D82*
X0033395Y0130360D03*
X0052435Y0130360D03*
X0052545Y0131956D03*
X0052435Y0128020D03*
X0052435Y0126424D03*
X0052435Y0124828D03*
X0052435Y0124403D03*
X0065095Y0124403D03*
X0065095Y0125360D03*
X0065095Y0126424D03*
X0065095Y0126956D03*
X0065095Y0127488D03*
X0065095Y0128020D03*
X0065095Y0128552D03*
X0065095Y0128977D03*
X0065095Y0129403D03*
X0065095Y0129828D03*
X0065095Y0130892D03*
X0065095Y0131424D03*
X0071475Y0131424D03*
X0071475Y0130360D03*
X0071475Y0128020D03*
X0071475Y0126956D03*
X0071475Y0125892D03*
X0071475Y0124828D03*
X0071475Y0124403D03*
X0071475Y0133552D03*
X0071475Y0134403D03*
X0071475Y0134828D03*
X0071475Y0135360D03*
X0071475Y0135892D03*
X0071475Y0136424D03*
X0071475Y0136956D03*
X0071475Y0137488D03*
X0071375Y0141956D03*
X0077965Y0131956D03*
X0077865Y0131424D03*
X0077865Y0130892D03*
X0077865Y0129828D03*
X0077865Y0128552D03*
X0077865Y0128020D03*
X0077865Y0127488D03*
X0077865Y0125892D03*
X0077865Y0125360D03*
X0077865Y0124828D03*
X0077865Y0124403D03*
X0090525Y0124403D03*
X0090525Y0124828D03*
X0090525Y0125360D03*
X0090525Y0126424D03*
X0090525Y0126956D03*
X0090525Y0127488D03*
X0090525Y0128552D03*
X0090525Y0128977D03*
X0090525Y0129403D03*
X0090525Y0129828D03*
X0090525Y0130892D03*
X0103075Y0131956D03*
X0103185Y0131424D03*
X0103185Y0130360D03*
X0103185Y0129828D03*
X0103185Y0129403D03*
X0103185Y0128977D03*
X0103185Y0128552D03*
X0103185Y0126956D03*
X0103185Y0125360D03*
X0103185Y0124403D03*
X0113395Y0126424D03*
X0113395Y0126956D03*
X0113285Y0127488D03*
X0113285Y0129403D03*
X0113395Y0130360D03*
X0113285Y0131424D03*
X0113285Y0131956D03*
X0129135Y0134403D03*
X0129135Y0135360D03*
X0129135Y0136956D03*
X0129135Y0138552D03*
X0129135Y0139403D03*
X0129135Y0139828D03*
X0135735Y0131956D03*
X0135625Y0131424D03*
X0135625Y0130892D03*
X0135625Y0130360D03*
X0135625Y0129403D03*
X0135625Y0128552D03*
X0135625Y0128020D03*
X0135625Y0127488D03*
X0135625Y0126956D03*
X0135625Y0125892D03*
X0135625Y0125360D03*
X0135625Y0124828D03*
X0135625Y0124403D03*
X0129135Y0124403D03*
X0129135Y0126424D03*
X0129135Y0127488D03*
X0148285Y0128020D03*
X0148285Y0129403D03*
X0148185Y0131424D03*
X0148285Y0125892D03*
X0148285Y0125360D03*
X0148285Y0124403D03*
X0154565Y0124403D03*
X0154565Y0124828D03*
X0154565Y0126424D03*
X0154565Y0128020D03*
X0154565Y0128977D03*
X0154565Y0129403D03*
X0154565Y0130360D03*
X0154565Y0130892D03*
X0154565Y0131956D03*
X0154565Y0133552D03*
X0154565Y0134403D03*
X0154565Y0134828D03*
X0154565Y0135360D03*
X0154565Y0136424D03*
X0154565Y0137488D03*
X0154565Y0141956D03*
X0164035Y0141424D03*
X0164135Y0141956D03*
X0164135Y0139828D03*
X0164135Y0139403D03*
X0164135Y0134828D03*
X0164035Y0134403D03*
X0164135Y0133977D03*
X0164135Y0133020D03*
X0164135Y0132488D03*
X0164135Y0131424D03*
X0164135Y0130892D03*
X0164135Y0129403D03*
X0164135Y0128020D03*
X0164135Y0126956D03*
X0164135Y0125892D03*
X0164135Y0125360D03*
D83*
X0147010Y0134403D03*
X0120200Y0124403D03*
X0112120Y0134403D03*
X0079140Y0134403D03*
X0063820Y0134403D03*
X0053710Y0134403D03*
D84*
X0071425Y0133977D03*
X0071425Y0133020D03*
X0071425Y0132488D03*
X0071425Y0131956D03*
X0071425Y0130892D03*
X0071425Y0129828D03*
X0071425Y0129403D03*
X0071425Y0128977D03*
X0071425Y0128552D03*
X0071425Y0127488D03*
X0071425Y0126424D03*
X0071425Y0125360D03*
X0077915Y0126424D03*
X0077915Y0126956D03*
X0077915Y0128977D03*
X0077915Y0129403D03*
X0077915Y0130360D03*
X0090575Y0130360D03*
X0090575Y0131424D03*
X0090575Y0128020D03*
X0090575Y0125892D03*
X0103235Y0125892D03*
X0103235Y0126424D03*
X0103235Y0127488D03*
X0103235Y0128020D03*
X0103235Y0130892D03*
X0103235Y0124828D03*
X0135575Y0126424D03*
X0135575Y0128977D03*
X0135575Y0129828D03*
X0148235Y0129828D03*
X0148235Y0130360D03*
X0148235Y0130892D03*
X0148235Y0128977D03*
X0148235Y0127488D03*
X0148235Y0126956D03*
X0148235Y0126424D03*
X0148235Y0124828D03*
X0164085Y0124403D03*
X0164085Y0126424D03*
X0164085Y0127488D03*
X0164085Y0128552D03*
X0164085Y0128977D03*
X0164085Y0129828D03*
X0164085Y0130360D03*
X0164085Y0131956D03*
X0164085Y0133552D03*
X0164085Y0135360D03*
X0164085Y0138977D03*
X0164085Y0140360D03*
X0164085Y0140892D03*
D85*
X0039775Y0124509D03*
D86*
X0052595Y0132169D03*
X0052595Y0132275D03*
X0071425Y0132169D03*
X0071425Y0131743D03*
X0071425Y0131105D03*
X0071425Y0130254D03*
X0071425Y0130041D03*
X0071425Y0129190D03*
X0071425Y0128339D03*
X0071425Y0128126D03*
X0071425Y0127275D03*
X0071425Y0126637D03*
X0071425Y0126211D03*
X0071425Y0125786D03*
X0071425Y0125573D03*
X0071425Y0124722D03*
X0071425Y0124509D03*
X0071425Y0133658D03*
X0071425Y0134509D03*
X0071425Y0134722D03*
X0071425Y0135041D03*
X0071425Y0135254D03*
X0071425Y0135573D03*
X0071425Y0135786D03*
X0071425Y0136211D03*
X0071425Y0137169D03*
X0071425Y0141743D03*
X0077915Y0131743D03*
X0077915Y0131637D03*
X0077915Y0130786D03*
X0077915Y0130254D03*
X0077915Y0129509D03*
X0077915Y0128658D03*
X0077915Y0128126D03*
X0077915Y0127807D03*
X0077915Y0126105D03*
X0077915Y0125573D03*
X0077915Y0125254D03*
X0077915Y0125041D03*
X0090575Y0125041D03*
X0090575Y0125254D03*
X0090575Y0125573D03*
X0090575Y0126105D03*
X0090575Y0126743D03*
X0090575Y0127169D03*
X0090575Y0127807D03*
X0090575Y0128658D03*
X0090575Y0128871D03*
X0090575Y0129722D03*
X0090575Y0130254D03*
X0090575Y0130573D03*
X0090575Y0130786D03*
X0090575Y0131211D03*
X0090575Y0131637D03*
X0090575Y0124722D03*
X0090575Y0124509D03*
X0103235Y0125041D03*
X0103235Y0126105D03*
X0103235Y0126743D03*
X0103235Y0127169D03*
X0103235Y0127807D03*
X0103235Y0128339D03*
X0103235Y0128658D03*
X0103235Y0128871D03*
X0103235Y0129722D03*
X0103235Y0130254D03*
X0103235Y0130573D03*
X0113235Y0132169D03*
X0135575Y0130786D03*
X0135575Y0130254D03*
X0135575Y0129190D03*
X0135575Y0128339D03*
X0135575Y0128126D03*
X0135575Y0126211D03*
X0135575Y0125786D03*
X0135575Y0125573D03*
X0148235Y0125573D03*
X0148235Y0125254D03*
X0148235Y0125041D03*
X0148235Y0124722D03*
X0148235Y0126105D03*
X0148235Y0126743D03*
X0148235Y0127594D03*
X0148235Y0127807D03*
X0148235Y0128126D03*
X0148235Y0128339D03*
X0148235Y0128658D03*
X0148235Y0129190D03*
X0148235Y0129509D03*
X0148235Y0130041D03*
X0148235Y0131105D03*
X0148235Y0131743D03*
X0164085Y0131637D03*
X0164085Y0131105D03*
X0164085Y0130786D03*
X0164085Y0130254D03*
X0164085Y0130041D03*
X0164085Y0129722D03*
X0164085Y0129509D03*
X0164085Y0129190D03*
X0164085Y0128658D03*
X0164085Y0128126D03*
X0164085Y0127807D03*
X0164085Y0127594D03*
X0164085Y0127169D03*
X0164085Y0126211D03*
X0164085Y0125573D03*
X0164085Y0125254D03*
X0164085Y0125041D03*
X0164085Y0124722D03*
X0164085Y0132169D03*
X0164085Y0132275D03*
X0164085Y0132594D03*
X0164085Y0132807D03*
X0164085Y0133658D03*
X0164085Y0134722D03*
X0164085Y0135254D03*
X0164085Y0138871D03*
X0164085Y0139190D03*
X0164085Y0139509D03*
X0164085Y0139722D03*
X0164085Y0140041D03*
X0164085Y0140254D03*
X0164085Y0140573D03*
X0164085Y0141211D03*
X0164085Y0141743D03*
D87*
X0146690Y0134722D03*
X0120200Y0124509D03*
X0111800Y0134722D03*
X0107860Y0138126D03*
X0101690Y0134722D03*
X0079460Y0134722D03*
X0054030Y0134722D03*
X0044460Y0134722D03*
D88*
X0039725Y0124616D03*
D89*
X0052595Y0132063D03*
X0071425Y0132382D03*
X0071425Y0132701D03*
X0071425Y0133233D03*
X0071425Y0133446D03*
X0071425Y0133765D03*
X0071425Y0134297D03*
X0071425Y0134935D03*
X0071425Y0135999D03*
X0071425Y0136318D03*
X0071425Y0136531D03*
X0071425Y0136850D03*
X0071425Y0137063D03*
X0071425Y0131531D03*
X0071425Y0131318D03*
X0071425Y0130680D03*
X0071425Y0130467D03*
X0071425Y0129616D03*
X0071425Y0128765D03*
X0071425Y0127914D03*
X0071425Y0127701D03*
X0071425Y0127063D03*
X0071425Y0126850D03*
X0071425Y0125999D03*
X0071425Y0125148D03*
X0071425Y0124935D03*
X0077915Y0124935D03*
X0077915Y0124616D03*
X0077915Y0125680D03*
X0077915Y0126531D03*
X0077915Y0126850D03*
X0077915Y0127382D03*
X0077915Y0127701D03*
X0077915Y0128233D03*
X0077915Y0129084D03*
X0077915Y0129935D03*
X0077915Y0130680D03*
X0077915Y0131318D03*
X0077915Y0131531D03*
X0090575Y0129935D03*
X0090575Y0129616D03*
X0090575Y0129297D03*
X0090575Y0129084D03*
X0090575Y0128446D03*
X0090575Y0128233D03*
X0090575Y0127701D03*
X0090575Y0127382D03*
X0090575Y0127063D03*
X0090575Y0126531D03*
X0090575Y0126318D03*
X0090575Y0125680D03*
X0090575Y0124935D03*
X0102915Y0132701D03*
X0103235Y0129935D03*
X0103235Y0129297D03*
X0103235Y0125467D03*
X0113235Y0131850D03*
X0113235Y0132063D03*
X0135575Y0130467D03*
X0135575Y0129616D03*
X0135575Y0128765D03*
X0135575Y0127701D03*
X0135575Y0127382D03*
X0135575Y0127063D03*
X0135575Y0126850D03*
X0135575Y0125148D03*
X0135575Y0124935D03*
X0148235Y0125148D03*
X0148235Y0125999D03*
X0148235Y0126318D03*
X0148235Y0126531D03*
X0148235Y0128446D03*
X0148235Y0129297D03*
X0148235Y0130148D03*
X0148235Y0130680D03*
X0148235Y0131318D03*
X0148235Y0131531D03*
X0164085Y0131531D03*
X0164085Y0131318D03*
X0164085Y0130680D03*
X0164085Y0130148D03*
X0164085Y0129297D03*
X0164085Y0128233D03*
X0164085Y0127701D03*
X0164085Y0127063D03*
X0164085Y0126850D03*
X0164085Y0126531D03*
X0164085Y0125999D03*
X0164085Y0125680D03*
X0164085Y0125148D03*
X0164085Y0124935D03*
X0164085Y0124616D03*
X0164085Y0132914D03*
X0164085Y0133233D03*
X0164085Y0133765D03*
X0164085Y0134084D03*
X0164085Y0134297D03*
X0164085Y0134616D03*
X0164085Y0134935D03*
X0164085Y0135148D03*
X0164085Y0139616D03*
X0164085Y0140680D03*
X0164085Y0140999D03*
X0164085Y0141318D03*
X0164085Y0141850D03*
D90*
X0146800Y0134616D03*
X0120200Y0137063D03*
X0120310Y0124616D03*
X0079350Y0134616D03*
X0044460Y0126850D03*
X0034990Y0126850D03*
X0034030Y0133765D03*
D91*
X0039775Y0124722D03*
D92*
X0034190Y0134190D03*
X0120470Y0136743D03*
X0120360Y0124722D03*
X0146320Y0135041D03*
D93*
X0039720Y0124828D03*
D94*
X0045790Y0128977D03*
X0045890Y0129403D03*
X0046000Y0129828D03*
X0046000Y0130360D03*
X0046000Y0130892D03*
X0046000Y0131424D03*
X0045890Y0131956D03*
X0045790Y0132488D03*
X0052490Y0131424D03*
X0052490Y0130892D03*
X0052490Y0129828D03*
X0052490Y0129403D03*
X0052490Y0128977D03*
X0052490Y0128552D03*
X0052490Y0127488D03*
X0052490Y0126956D03*
X0052490Y0125892D03*
X0052490Y0125360D03*
X0052700Y0132488D03*
X0065150Y0130360D03*
X0065150Y0125892D03*
X0065150Y0124828D03*
X0078130Y0132488D03*
X0113130Y0132488D03*
X0113340Y0130892D03*
X0113340Y0129828D03*
X0113340Y0128977D03*
X0113340Y0128552D03*
X0113340Y0128020D03*
X0113340Y0125892D03*
X0113340Y0124828D03*
X0129190Y0124828D03*
X0129190Y0125360D03*
X0129190Y0125892D03*
X0129190Y0126956D03*
X0129190Y0128020D03*
X0129190Y0128552D03*
X0129190Y0133020D03*
X0129190Y0133552D03*
X0129190Y0133977D03*
X0129190Y0134828D03*
X0129190Y0135892D03*
X0129190Y0136424D03*
X0129190Y0137488D03*
X0129190Y0138020D03*
X0129190Y0138977D03*
X0129190Y0140360D03*
X0129190Y0140892D03*
X0129190Y0141424D03*
X0129190Y0141956D03*
X0148020Y0132488D03*
X0148130Y0131956D03*
X0154620Y0131424D03*
X0154620Y0132488D03*
X0154620Y0133020D03*
X0154620Y0133977D03*
X0154620Y0135892D03*
X0154620Y0136956D03*
X0154620Y0129828D03*
X0154620Y0128552D03*
X0154620Y0127488D03*
X0154620Y0126956D03*
X0154620Y0125892D03*
X0154620Y0125360D03*
X0033550Y0129403D03*
X0033450Y0131424D03*
X0033450Y0137488D03*
X0033450Y0138977D03*
X0033450Y0139403D03*
X0033450Y0140360D03*
X0033450Y0140892D03*
D95*
X0108020Y0138020D03*
X0120470Y0124828D03*
D96*
X0039780Y0124935D03*
D97*
X0044140Y0126531D03*
X0120520Y0124935D03*
X0120630Y0136531D03*
D98*
X0039775Y0125041D03*
D99*
X0039725Y0138339D03*
X0058765Y0138339D03*
X0084195Y0138339D03*
X0120575Y0125041D03*
D100*
X0039725Y0125148D03*
D101*
X0120680Y0125148D03*
D102*
X0039780Y0125254D03*
D103*
X0043770Y0135254D03*
X0054720Y0135254D03*
X0080150Y0135254D03*
X0111110Y0135254D03*
X0120890Y0136211D03*
X0121000Y0136105D03*
X0122060Y0135254D03*
X0123770Y0133871D03*
X0124090Y0133658D03*
X0120790Y0125254D03*
X0146000Y0135254D03*
D104*
X0039775Y0125360D03*
D105*
X0090570Y0133552D03*
X0120890Y0125360D03*
X0122600Y0134828D03*
X0121960Y0135360D03*
D106*
X0039780Y0125467D03*
D107*
X0043770Y0126318D03*
X0121000Y0125467D03*
X0124620Y0133233D03*
X0121530Y0135680D03*
D108*
X0039775Y0125573D03*
D109*
X0034350Y0134509D03*
X0090520Y0133658D03*
X0121160Y0125573D03*
X0122970Y0134509D03*
X0122330Y0135041D03*
X0121690Y0135573D03*
D110*
X0084190Y0135999D03*
X0058770Y0135999D03*
X0039720Y0125680D03*
D111*
X0034405Y0134616D03*
X0121215Y0125680D03*
X0121535Y0125999D03*
X0121955Y0126318D03*
X0122275Y0126531D03*
X0122915Y0127063D03*
X0124405Y0128233D03*
D112*
X0039725Y0125786D03*
D113*
X0121320Y0125786D03*
D114*
X0039780Y0125892D03*
D115*
X0121480Y0125892D03*
X0124140Y0128020D03*
X0123180Y0134403D03*
D116*
X0039720Y0125999D03*
D117*
X0036370Y0126105D03*
X0039780Y0138126D03*
X0058820Y0138126D03*
D118*
X0040680Y0138658D03*
X0039830Y0126105D03*
X0039510Y0126105D03*
D119*
X0040095Y0126105D03*
D120*
X0043235Y0126105D03*
X0127915Y0130786D03*
D121*
X0124725Y0133126D03*
X0124295Y0128126D03*
X0123875Y0127807D03*
X0123555Y0127594D03*
X0123235Y0127275D03*
X0122385Y0126637D03*
X0121745Y0126105D03*
X0108125Y0137807D03*
D122*
X0035950Y0126211D03*
X0034560Y0134722D03*
D123*
X0038875Y0138658D03*
X0039085Y0138658D03*
X0038765Y0126211D03*
X0057915Y0138658D03*
X0059725Y0138658D03*
X0083235Y0138658D03*
D124*
X0121850Y0126211D03*
X0124510Y0128339D03*
D125*
X0123715Y0127701D03*
X0123925Y0133765D03*
X0123285Y0134297D03*
X0122865Y0134616D03*
X0122225Y0135148D03*
X0121795Y0135467D03*
X0035735Y0126318D03*
D126*
X0035575Y0126424D03*
D127*
X0043980Y0126424D03*
D128*
X0121265Y0135892D03*
X0123715Y0133977D03*
X0124245Y0133552D03*
X0124885Y0133020D03*
X0124775Y0128552D03*
X0122115Y0126424D03*
D129*
X0035415Y0126531D03*
D130*
X0035255Y0126637D03*
X0054405Y0135041D03*
D131*
X0044355Y0126743D03*
X0044245Y0126637D03*
D132*
X0035150Y0126743D03*
X0033980Y0133871D03*
X0063550Y0134722D03*
X0137170Y0134722D03*
D133*
X0137865Y0135254D03*
X0124455Y0133339D03*
X0123395Y0134190D03*
X0122755Y0134722D03*
X0121375Y0135786D03*
X0123075Y0127169D03*
X0122545Y0126743D03*
X0100945Y0135254D03*
X0062865Y0135254D03*
D134*
X0121160Y0135999D03*
X0123500Y0134084D03*
X0124350Y0133446D03*
X0124670Y0128446D03*
X0122650Y0126850D03*
D135*
X0136855Y0134403D03*
X0034935Y0126956D03*
D136*
X0044565Y0126956D03*
D137*
X0122810Y0126956D03*
D138*
X0034830Y0127063D03*
D139*
X0044725Y0127063D03*
X0090575Y0132914D03*
X0101745Y0134616D03*
X0137065Y0134616D03*
X0141955Y0138446D03*
D140*
X0136955Y0134509D03*
X0120145Y0137169D03*
X0111955Y0134509D03*
X0101855Y0134509D03*
X0079195Y0134509D03*
X0063765Y0134509D03*
X0034725Y0127169D03*
D141*
X0034620Y0127275D03*
X0147170Y0134190D03*
D142*
X0058765Y0138446D03*
X0044935Y0127382D03*
X0033765Y0133233D03*
D143*
X0122490Y0134935D03*
X0123980Y0127914D03*
X0123340Y0127382D03*
D144*
X0112435Y0133977D03*
X0090525Y0132488D03*
X0078815Y0133977D03*
X0053395Y0133977D03*
X0045095Y0133977D03*
X0034455Y0127488D03*
X0033715Y0133020D03*
X0136585Y0133977D03*
D145*
X0045040Y0127488D03*
D146*
X0080365Y0135360D03*
X0123445Y0127488D03*
D147*
X0136695Y0134190D03*
X0102115Y0134190D03*
X0090525Y0132594D03*
X0064245Y0133871D03*
X0045095Y0127594D03*
X0034455Y0127594D03*
D148*
X0034300Y0127701D03*
X0045150Y0127701D03*
X0064300Y0133765D03*
X0078660Y0133765D03*
D149*
X0045150Y0133871D03*
X0034300Y0127807D03*
D150*
X0033765Y0133126D03*
X0045255Y0127807D03*
X0053235Y0133658D03*
X0064405Y0133658D03*
X0078765Y0133871D03*
X0112595Y0133658D03*
X0136425Y0133871D03*
D151*
X0147650Y0133446D03*
X0078500Y0133446D03*
X0045310Y0127914D03*
X0033710Y0132914D03*
X0033610Y0132701D03*
D152*
X0034140Y0128020D03*
X0053180Y0133552D03*
X0102540Y0133552D03*
X0119990Y0137488D03*
X0147540Y0133552D03*
D153*
X0136265Y0133552D03*
X0045415Y0128020D03*
D154*
X0034030Y0128126D03*
X0090520Y0132169D03*
X0090520Y0132275D03*
X0136370Y0133658D03*
X0147540Y0133658D03*
D155*
X0102435Y0133658D03*
X0045415Y0128126D03*
D156*
X0045465Y0128233D03*
X0045575Y0128446D03*
X0045685Y0132914D03*
X0052915Y0133233D03*
X0064515Y0133446D03*
X0064615Y0133233D03*
X0078235Y0132914D03*
X0078345Y0133233D03*
X0090575Y0132063D03*
X0102595Y0133446D03*
X0102705Y0133233D03*
X0112805Y0133233D03*
X0136105Y0133233D03*
X0136215Y0133446D03*
X0147705Y0133233D03*
X0034085Y0128233D03*
X0033875Y0128446D03*
X0033555Y0132382D03*
D157*
X0033975Y0128339D03*
X0045575Y0128339D03*
X0045575Y0133126D03*
X0045465Y0133339D03*
X0052915Y0133126D03*
X0053025Y0133339D03*
X0064515Y0133339D03*
X0078345Y0133126D03*
X0078445Y0133339D03*
X0112805Y0133339D03*
X0112915Y0133126D03*
X0119935Y0137594D03*
X0147705Y0133339D03*
X0147805Y0133126D03*
D158*
X0147860Y0133020D03*
X0135840Y0132488D03*
X0102970Y0132488D03*
X0078290Y0133020D03*
X0045630Y0133020D03*
X0045630Y0128552D03*
X0033500Y0131956D03*
D159*
X0033820Y0128658D03*
X0045630Y0128658D03*
X0045840Y0129190D03*
X0064670Y0133126D03*
X0078180Y0132807D03*
X0090520Y0131743D03*
X0102860Y0132807D03*
X0102970Y0132594D03*
X0135840Y0132594D03*
X0147970Y0132594D03*
X0147970Y0132807D03*
D160*
X0126585Y0128658D03*
X0090525Y0135041D03*
D161*
X0090520Y0131850D03*
X0090520Y0131531D03*
X0078180Y0132701D03*
X0102860Y0132914D03*
X0112970Y0132914D03*
X0147860Y0132914D03*
X0147970Y0132701D03*
X0164030Y0138765D03*
X0052860Y0132914D03*
X0045840Y0132382D03*
X0033500Y0132063D03*
X0033820Y0128765D03*
D162*
X0045735Y0128765D03*
X0045735Y0132701D03*
X0052755Y0132701D03*
X0064775Y0132914D03*
X0078075Y0132382D03*
X0113075Y0132701D03*
X0119885Y0137701D03*
X0135945Y0132914D03*
D163*
X0126585Y0128765D03*
D164*
X0135945Y0132807D03*
X0136055Y0133126D03*
X0113075Y0132594D03*
X0102755Y0133126D03*
X0064885Y0132594D03*
X0064775Y0132807D03*
X0052755Y0132807D03*
X0045735Y0132807D03*
X0045735Y0132594D03*
X0045735Y0128871D03*
X0033605Y0132275D03*
D165*
X0084195Y0137594D03*
X0126745Y0128871D03*
D166*
X0136055Y0133020D03*
X0102755Y0133020D03*
X0064885Y0132488D03*
X0033605Y0132488D03*
X0033715Y0128977D03*
D167*
X0126745Y0128977D03*
D168*
X0126850Y0129084D03*
D169*
X0126905Y0129190D03*
D170*
X0126955Y0129297D03*
X0141955Y0137701D03*
D171*
X0127010Y0129403D03*
D172*
X0127115Y0129509D03*
X0096905Y0137807D03*
X0039775Y0137807D03*
D173*
X0127115Y0129616D03*
D174*
X0127275Y0129722D03*
X0109615Y0135786D03*
D175*
X0064990Y0131956D03*
X0033500Y0130892D03*
X0033500Y0129828D03*
X0033500Y0138020D03*
X0033500Y0138552D03*
X0033500Y0139828D03*
X0033500Y0141424D03*
X0033500Y0141956D03*
D176*
X0127275Y0129828D03*
D177*
X0033500Y0129935D03*
X0033500Y0130148D03*
X0033500Y0130467D03*
X0033500Y0130999D03*
X0033500Y0131531D03*
X0033500Y0137382D03*
X0033500Y0137914D03*
X0033500Y0138233D03*
X0033500Y0139297D03*
X0033500Y0139935D03*
X0033500Y0140148D03*
X0033500Y0140467D03*
D178*
X0039725Y0137914D03*
X0058765Y0137914D03*
X0127385Y0129935D03*
D179*
X0033500Y0130041D03*
X0033500Y0130573D03*
X0033500Y0131211D03*
X0033500Y0131637D03*
X0033500Y0137275D03*
X0033500Y0137594D03*
X0033500Y0138658D03*
X0033500Y0138871D03*
X0033500Y0139190D03*
X0033500Y0139509D03*
X0033500Y0140573D03*
X0033500Y0140786D03*
X0033500Y0141105D03*
X0033500Y0141211D03*
X0033500Y0141743D03*
D180*
X0090525Y0134509D03*
X0108925Y0136637D03*
X0127435Y0131637D03*
X0127435Y0130041D03*
D181*
X0127490Y0130148D03*
X0108770Y0136850D03*
D182*
X0046055Y0131211D03*
X0046055Y0131105D03*
X0046055Y0130786D03*
X0046055Y0130573D03*
X0046055Y0130254D03*
D183*
X0127540Y0130254D03*
D184*
X0046055Y0130467D03*
X0046055Y0130680D03*
X0046055Y0130999D03*
X0046055Y0131318D03*
D185*
X0127645Y0130467D03*
D186*
X0127810Y0130573D03*
D187*
X0127805Y0130680D03*
X0145465Y0135467D03*
X0108445Y0137382D03*
X0100365Y0135467D03*
X0080685Y0135467D03*
X0043235Y0135467D03*
D188*
X0090520Y0133977D03*
X0127860Y0130892D03*
D189*
X0127755Y0131105D03*
X0108505Y0137275D03*
D190*
X0127700Y0131211D03*
D191*
X0127595Y0131318D03*
D192*
X0127595Y0131424D03*
X0084195Y0138020D03*
X0058765Y0138020D03*
X0039725Y0138020D03*
D193*
X0127435Y0131531D03*
D194*
X0127330Y0131743D03*
X0109990Y0135573D03*
D195*
X0109780Y0135680D03*
X0109140Y0136318D03*
X0109030Y0136531D03*
X0127330Y0131850D03*
D196*
X0127275Y0131956D03*
X0109085Y0136424D03*
D197*
X0127060Y0132169D03*
X0141960Y0137807D03*
X0084190Y0137807D03*
X0058770Y0137807D03*
D198*
X0127065Y0132275D03*
D199*
X0136425Y0133765D03*
X0090575Y0132382D03*
X0053235Y0133765D03*
X0045255Y0133765D03*
D200*
X0126900Y0132382D03*
D201*
X0126850Y0132488D03*
D202*
X0136160Y0133339D03*
X0102650Y0133339D03*
X0078610Y0133658D03*
X0045310Y0133658D03*
X0033710Y0132807D03*
X0033610Y0132594D03*
D203*
X0126850Y0132594D03*
D204*
X0136800Y0134297D03*
X0147120Y0134297D03*
X0102010Y0134297D03*
X0090520Y0132701D03*
D205*
X0090520Y0134935D03*
X0126800Y0132701D03*
D206*
X0090520Y0132807D03*
X0053820Y0134509D03*
X0044670Y0134509D03*
X0033820Y0133339D03*
D207*
X0058820Y0137594D03*
X0126690Y0132807D03*
D208*
X0126640Y0132914D03*
D209*
X0090520Y0133020D03*
D210*
X0090525Y0133126D03*
D211*
X0090575Y0133233D03*
X0101425Y0134935D03*
X0137385Y0134935D03*
X0146425Y0134935D03*
D212*
X0141900Y0138339D03*
X0137540Y0135041D03*
X0120520Y0136637D03*
X0101270Y0135041D03*
X0090520Y0133339D03*
X0079780Y0135041D03*
X0063180Y0135041D03*
X0044140Y0135041D03*
D213*
X0045415Y0133446D03*
X0053075Y0133446D03*
X0112755Y0133446D03*
D214*
X0101905Y0134403D03*
X0033925Y0133552D03*
D215*
X0045360Y0133552D03*
D216*
X0064460Y0133552D03*
X0078500Y0133552D03*
X0112650Y0133552D03*
D217*
X0033925Y0133658D03*
D218*
X0090520Y0133765D03*
D219*
X0102380Y0133765D03*
X0112490Y0133765D03*
X0120040Y0137382D03*
X0147490Y0133765D03*
D220*
X0102330Y0133871D03*
D221*
X0054135Y0134828D03*
X0034035Y0133977D03*
D222*
X0064190Y0133977D03*
X0102280Y0133977D03*
D223*
X0147330Y0133977D03*
D224*
X0111530Y0134935D03*
X0063340Y0134935D03*
X0034190Y0134084D03*
D225*
X0053505Y0134084D03*
X0064135Y0134084D03*
X0078925Y0134084D03*
X0107755Y0138233D03*
X0136585Y0134084D03*
X0147225Y0134084D03*
D226*
X0112330Y0134084D03*
D227*
X0112275Y0134190D03*
X0053555Y0134190D03*
X0044935Y0134190D03*
D228*
X0063980Y0134190D03*
X0078980Y0134190D03*
D229*
X0090575Y0134190D03*
D230*
X0111265Y0135148D03*
X0054565Y0135148D03*
X0043925Y0135148D03*
X0034245Y0134297D03*
D231*
X0044880Y0134297D03*
X0079030Y0134297D03*
D232*
X0063980Y0134297D03*
D233*
X0090520Y0134297D03*
D234*
X0034350Y0134403D03*
D235*
X0044780Y0134403D03*
D236*
X0090520Y0134403D03*
D237*
X0120095Y0137275D03*
X0146905Y0134509D03*
D238*
X0111905Y0134616D03*
X0053925Y0134616D03*
X0044565Y0134616D03*
X0039775Y0138446D03*
D239*
X0063660Y0134616D03*
D240*
X0090575Y0134616D03*
X0109405Y0135999D03*
D241*
X0090520Y0134722D03*
X0164140Y0135573D03*
D242*
X0043555Y0135360D03*
X0034615Y0134828D03*
D243*
X0044355Y0134828D03*
X0079565Y0134828D03*
D244*
X0063450Y0134828D03*
X0101530Y0134828D03*
X0111640Y0134828D03*
X0120360Y0136956D03*
X0137280Y0134828D03*
X0146640Y0134828D03*
D245*
X0090575Y0134828D03*
D246*
X0110520Y0135467D03*
X0055200Y0135467D03*
X0034670Y0134935D03*
D247*
X0044245Y0134935D03*
X0054245Y0134935D03*
X0120415Y0136850D03*
D248*
X0079670Y0134935D03*
D249*
X0034830Y0135041D03*
D250*
X0111425Y0135041D03*
D251*
X0034885Y0135148D03*
D252*
X0090520Y0135148D03*
D253*
X0101105Y0135148D03*
X0137705Y0135148D03*
D254*
X0146160Y0135148D03*
X0120840Y0136318D03*
D255*
X0035045Y0135254D03*
D256*
X0090520Y0135254D03*
D257*
X0035305Y0135360D03*
D258*
X0054990Y0135360D03*
X0100730Y0135360D03*
X0110840Y0135360D03*
X0145730Y0135360D03*
D259*
X0062650Y0135360D03*
D260*
X0090525Y0135360D03*
D261*
X0095785Y0135360D03*
D262*
X0138075Y0135360D03*
D263*
X0035625Y0135467D03*
D264*
X0062330Y0135467D03*
D265*
X0090470Y0135467D03*
D266*
X0138340Y0135467D03*
D267*
X0038925Y0135573D03*
D268*
X0038130Y0137169D03*
X0058770Y0135573D03*
X0141960Y0135573D03*
D269*
X0090520Y0135573D03*
D270*
X0038925Y0135680D03*
D271*
X0058820Y0135680D03*
D272*
X0084195Y0135680D03*
D273*
X0096905Y0135680D03*
X0141905Y0135680D03*
D274*
X0164085Y0135680D03*
D275*
X0038820Y0135786D03*
D276*
X0058820Y0135786D03*
X0096900Y0135786D03*
X0141900Y0135786D03*
D277*
X0084245Y0135786D03*
D278*
X0164085Y0135786D03*
D279*
X0038765Y0135892D03*
D280*
X0058820Y0135892D03*
D281*
X0084245Y0135892D03*
X0096905Y0135892D03*
X0141905Y0135892D03*
D282*
X0109560Y0135892D03*
D283*
X0164085Y0135892D03*
D284*
X0038815Y0135999D03*
D285*
X0096850Y0135999D03*
D286*
X0141905Y0135999D03*
D287*
X0164135Y0135999D03*
X0164135Y0138233D03*
D288*
X0038765Y0136105D03*
D289*
X0058765Y0136105D03*
X0084195Y0136105D03*
X0141955Y0136105D03*
D290*
X0096905Y0136105D03*
D291*
X0109350Y0136105D03*
D292*
X0164085Y0136105D03*
D293*
X0038660Y0136211D03*
D294*
X0058765Y0136211D03*
D295*
X0084190Y0136211D03*
X0096850Y0136211D03*
X0141960Y0136211D03*
D296*
X0109245Y0136211D03*
D297*
X0164140Y0136211D03*
X0164140Y0138126D03*
D298*
X0038660Y0136318D03*
D299*
X0058820Y0136318D03*
D300*
X0084190Y0136318D03*
X0096850Y0136318D03*
X0141960Y0136318D03*
D301*
X0164140Y0136318D03*
D302*
X0038555Y0136424D03*
D303*
X0058765Y0136424D03*
X0084195Y0136424D03*
X0096855Y0136424D03*
D304*
X0120735Y0136424D03*
D305*
X0141905Y0136424D03*
D306*
X0164085Y0136424D03*
D307*
X0038500Y0136531D03*
D308*
X0058765Y0136531D03*
D309*
X0084190Y0136531D03*
X0096850Y0136531D03*
X0141960Y0136531D03*
D310*
X0164135Y0136531D03*
X0164135Y0137701D03*
X0084245Y0137063D03*
D311*
X0038500Y0136637D03*
D312*
X0058765Y0136637D03*
D313*
X0084190Y0136637D03*
X0096850Y0136637D03*
D314*
X0141905Y0136637D03*
D315*
X0164085Y0136637D03*
D316*
X0038390Y0136743D03*
D317*
X0058765Y0136743D03*
X0084195Y0136743D03*
X0096855Y0136743D03*
X0141955Y0136743D03*
D318*
X0108870Y0136743D03*
D319*
X0164140Y0136743D03*
X0164140Y0137169D03*
X0164140Y0137275D03*
X0164140Y0137594D03*
D320*
X0038340Y0136850D03*
D321*
X0058820Y0136850D03*
D322*
X0084245Y0136850D03*
X0096905Y0136850D03*
X0141905Y0136850D03*
D323*
X0164140Y0136850D03*
X0164140Y0137063D03*
X0164140Y0137382D03*
D324*
X0038285Y0136956D03*
D325*
X0058820Y0136956D03*
X0096900Y0136956D03*
X0164140Y0136956D03*
X0164140Y0137488D03*
D326*
X0084190Y0136956D03*
D327*
X0108715Y0136956D03*
D328*
X0141955Y0136956D03*
D329*
X0038180Y0137063D03*
D330*
X0058770Y0137063D03*
X0096850Y0137063D03*
D331*
X0108660Y0137063D03*
D332*
X0141905Y0137063D03*
D333*
X0141955Y0137169D03*
X0096855Y0137169D03*
X0084195Y0137169D03*
X0058765Y0137169D03*
D334*
X0108555Y0137169D03*
D335*
X0096905Y0137275D03*
X0058815Y0137275D03*
X0039775Y0137275D03*
X0141905Y0137275D03*
D336*
X0084190Y0137275D03*
D337*
X0039780Y0137382D03*
X0164140Y0138446D03*
D338*
X0141955Y0137382D03*
X0096855Y0137382D03*
X0084195Y0137382D03*
X0058765Y0137382D03*
D339*
X0058765Y0137488D03*
X0039725Y0137488D03*
X0164085Y0138552D03*
D340*
X0084190Y0137488D03*
D341*
X0096905Y0137488D03*
X0141905Y0137488D03*
D342*
X0108345Y0137488D03*
D343*
X0039775Y0137594D03*
D344*
X0096855Y0137594D03*
D345*
X0108340Y0137594D03*
D346*
X0141905Y0137594D03*
D347*
X0039725Y0137701D03*
D348*
X0058820Y0137701D03*
D349*
X0084190Y0137701D03*
X0096850Y0137701D03*
D350*
X0108235Y0137701D03*
X0141955Y0138233D03*
X0058765Y0138233D03*
D351*
X0164135Y0137807D03*
D352*
X0084190Y0137914D03*
D353*
X0096850Y0137914D03*
D354*
X0141905Y0137914D03*
D355*
X0164085Y0137914D03*
D356*
X0071480Y0138020D03*
D357*
X0096855Y0138020D03*
X0141955Y0138020D03*
D358*
X0154565Y0138020D03*
D359*
X0164140Y0138020D03*
D360*
X0071480Y0138126D03*
X0033500Y0142807D03*
D361*
X0084245Y0138126D03*
X0096905Y0138126D03*
X0141905Y0138126D03*
D362*
X0119775Y0138126D03*
D363*
X0039775Y0138233D03*
D364*
X0084245Y0138233D03*
D365*
X0096850Y0138233D03*
D366*
X0096850Y0138339D03*
D367*
X0119670Y0138339D03*
D368*
X0164140Y0138339D03*
D369*
X0096905Y0138446D03*
X0084245Y0138446D03*
D370*
X0071425Y0143233D03*
X0119725Y0138446D03*
D371*
X0071480Y0138552D03*
D372*
X0107385Y0138552D03*
X0033445Y0143020D03*
D373*
X0119675Y0138552D03*
D374*
X0141905Y0138552D03*
D375*
X0154615Y0138552D03*
D376*
X0039830Y0138658D03*
D377*
X0058815Y0138658D03*
X0071475Y0143339D03*
X0154565Y0143339D03*
D378*
X0071480Y0138658D03*
D379*
X0107225Y0138658D03*
D380*
X0119720Y0138658D03*
D381*
X0154565Y0138658D03*
D382*
X0164135Y0138658D03*
D383*
X0071160Y0138765D03*
D384*
X0071425Y0140360D03*
D385*
X0154620Y0140360D03*
D386*
X0154565Y0140467D03*
X0071475Y0140467D03*
D387*
X0154565Y0140573D03*
D388*
X0154565Y0140680D03*
D389*
X0164085Y0142807D03*
X0129195Y0142807D03*
X0071425Y0140786D03*
D390*
X0071430Y0140999D03*
X0033450Y0142701D03*
X0129190Y0142701D03*
X0164090Y0142701D03*
D391*
X0071425Y0142594D03*
X0071425Y0141105D03*
D392*
X0033445Y0142594D03*
X0154615Y0142594D03*
X0154615Y0141211D03*
X0154615Y0141105D03*
D393*
X0129195Y0142488D03*
D394*
X0164085Y0142488D03*
D395*
X0071480Y0142701D03*
D396*
X0129190Y0142914D03*
D397*
X0164085Y0142914D03*
D398*
X0071480Y0143020D03*
D399*
X0129190Y0143020D03*
D400*
X0154560Y0143020D03*
D401*
X0164085Y0143020D03*
D402*
X0033500Y0143126D03*
D403*
X0071430Y0143126D03*
X0154620Y0143126D03*
D404*
X0033445Y0143233D03*
D405*
X0129190Y0143233D03*
D406*
X0164085Y0143233D03*
D407*
X0033445Y0143339D03*
D408*
X0129190Y0143339D03*
D409*
X0164085Y0143339D03*
D410*
X0154565Y0143446D03*
X0071475Y0143446D03*
D411*
X0007587Y0010594D02*
X0008443Y0009451D01*
X0009451Y0008443D01*
X0010594Y0007587D01*
X0011846Y0006904D01*
X0013183Y0006405D01*
X0014577Y0006102D01*
X0016000Y0006000D01*
X0186000Y0006000D01*
X0187423Y0006102D01*
X0188817Y0006405D01*
X0190154Y0006904D01*
X0191406Y0007587D01*
X0192549Y0008443D01*
X0193557Y0009451D01*
X0194413Y0010594D01*
X0195096Y0011846D01*
X0195595Y0013183D01*
X0195898Y0014577D01*
X0196000Y0016000D01*
X0196000Y0311000D01*
X0195898Y0312423D01*
X0195595Y0313817D01*
X0195096Y0315154D01*
X0194413Y0316406D01*
X0193557Y0317549D01*
X0192549Y0318557D01*
X0191406Y0319413D01*
X0190154Y0320096D01*
X0188817Y0320595D01*
X0187423Y0320898D01*
X0186000Y0321000D01*
X0016000Y0321000D01*
X0014577Y0320898D01*
X0013183Y0320595D01*
X0011846Y0320096D01*
X0010594Y0319413D01*
X0009451Y0318557D01*
X0008443Y0317549D01*
X0007587Y0316406D01*
X0006904Y0315154D01*
X0006405Y0313817D01*
X0006102Y0312423D01*
X0006000Y0311000D01*
X0006000Y0016000D01*
X0006102Y0014577D01*
X0006405Y0013183D01*
X0006904Y0011846D01*
X0007587Y0010594D01*
X0007481Y0010788D02*
X0194519Y0010788D01*
X0194846Y0011387D02*
X0007154Y0011387D01*
X0006852Y0011985D02*
X0195148Y0011985D01*
X0195371Y0012584D02*
X0006628Y0012584D01*
X0006405Y0013182D02*
X0195595Y0013182D01*
X0195725Y0013781D02*
X0006275Y0013781D01*
X0006145Y0014379D02*
X0195855Y0014379D01*
X0195927Y0014978D02*
X0006073Y0014978D01*
X0006030Y0015576D02*
X0195970Y0015576D01*
X0196000Y0016175D02*
X0006000Y0016175D01*
X0006000Y0016773D02*
X0196000Y0016773D01*
X0196000Y0017372D02*
X0006000Y0017372D01*
X0006000Y0017970D02*
X0196000Y0017970D01*
X0196000Y0018569D02*
X0006000Y0018569D01*
X0006000Y0019167D02*
X0196000Y0019167D01*
X0196000Y0019766D02*
X0006000Y0019766D01*
X0006000Y0020364D02*
X0196000Y0020364D01*
X0196000Y0020963D02*
X0006000Y0020963D01*
X0006000Y0021561D02*
X0196000Y0021561D01*
X0196000Y0022160D02*
X0006000Y0022160D01*
X0006000Y0022758D02*
X0196000Y0022758D01*
X0196000Y0023357D02*
X0006000Y0023357D01*
X0006000Y0023955D02*
X0196000Y0023955D01*
X0196000Y0024554D02*
X0006000Y0024554D01*
X0006000Y0025152D02*
X0196000Y0025152D01*
X0196000Y0025751D02*
X0006000Y0025751D01*
X0006000Y0026349D02*
X0196000Y0026349D01*
X0196000Y0026948D02*
X0006000Y0026948D01*
X0006000Y0027546D02*
X0196000Y0027546D01*
X0196000Y0028145D02*
X0006000Y0028145D01*
X0006000Y0028743D02*
X0196000Y0028743D01*
X0196000Y0029342D02*
X0006000Y0029342D01*
X0006000Y0029940D02*
X0196000Y0029940D01*
X0196000Y0030539D02*
X0006000Y0030539D01*
X0006000Y0031137D02*
X0196000Y0031137D01*
X0196000Y0031736D02*
X0006000Y0031736D01*
X0006000Y0032334D02*
X0196000Y0032334D01*
X0196000Y0032933D02*
X0006000Y0032933D01*
X0006000Y0033532D02*
X0196000Y0033532D01*
X0196000Y0034130D02*
X0006000Y0034130D01*
X0006000Y0034729D02*
X0196000Y0034729D01*
X0196000Y0035327D02*
X0006000Y0035327D01*
X0006000Y0035926D02*
X0196000Y0035926D01*
X0196000Y0036524D02*
X0006000Y0036524D01*
X0006000Y0037123D02*
X0196000Y0037123D01*
X0196000Y0037721D02*
X0006000Y0037721D01*
X0006000Y0038320D02*
X0196000Y0038320D01*
X0196000Y0038918D02*
X0006000Y0038918D01*
X0006000Y0039517D02*
X0196000Y0039517D01*
X0196000Y0040115D02*
X0006000Y0040115D01*
X0006000Y0040714D02*
X0196000Y0040714D01*
X0196000Y0041312D02*
X0006000Y0041312D01*
X0006000Y0041911D02*
X0196000Y0041911D01*
X0196000Y0042509D02*
X0006000Y0042509D01*
X0006000Y0043108D02*
X0196000Y0043108D01*
X0196000Y0043706D02*
X0006000Y0043706D01*
X0006000Y0044305D02*
X0196000Y0044305D01*
X0196000Y0044903D02*
X0006000Y0044903D01*
X0006000Y0045502D02*
X0196000Y0045502D01*
X0196000Y0046100D02*
X0006000Y0046100D01*
X0006000Y0046699D02*
X0196000Y0046699D01*
X0196000Y0047297D02*
X0006000Y0047297D01*
X0006000Y0047896D02*
X0196000Y0047896D01*
X0196000Y0048494D02*
X0006000Y0048494D01*
X0006000Y0049093D02*
X0196000Y0049093D01*
X0196000Y0049691D02*
X0006000Y0049691D01*
X0006000Y0050290D02*
X0196000Y0050290D01*
X0196000Y0050888D02*
X0006000Y0050888D01*
X0006000Y0051487D02*
X0196000Y0051487D01*
X0196000Y0052085D02*
X0006000Y0052085D01*
X0006000Y0052684D02*
X0196000Y0052684D01*
X0196000Y0053282D02*
X0006000Y0053282D01*
X0006000Y0053881D02*
X0196000Y0053881D01*
X0196000Y0054479D02*
X0006000Y0054479D01*
X0006000Y0055078D02*
X0196000Y0055078D01*
X0196000Y0055676D02*
X0006000Y0055676D01*
X0006000Y0056275D02*
X0196000Y0056275D01*
X0196000Y0056873D02*
X0006000Y0056873D01*
X0006000Y0057472D02*
X0196000Y0057472D01*
X0196000Y0058070D02*
X0006000Y0058070D01*
X0006000Y0058669D02*
X0196000Y0058669D01*
X0196000Y0059268D02*
X0006000Y0059268D01*
X0006000Y0059866D02*
X0196000Y0059866D01*
X0196000Y0060465D02*
X0006000Y0060465D01*
X0006000Y0061063D02*
X0196000Y0061063D01*
X0196000Y0061662D02*
X0006000Y0061662D01*
X0006000Y0062260D02*
X0196000Y0062260D01*
X0196000Y0062859D02*
X0006000Y0062859D01*
X0006000Y0063457D02*
X0196000Y0063457D01*
X0196000Y0064056D02*
X0006000Y0064056D01*
X0006000Y0064654D02*
X0196000Y0064654D01*
X0196000Y0065253D02*
X0006000Y0065253D01*
X0006000Y0065851D02*
X0196000Y0065851D01*
X0196000Y0066450D02*
X0006000Y0066450D01*
X0006000Y0067048D02*
X0196000Y0067048D01*
X0196000Y0067647D02*
X0006000Y0067647D01*
X0006000Y0068245D02*
X0196000Y0068245D01*
X0196000Y0068844D02*
X0006000Y0068844D01*
X0006000Y0069442D02*
X0196000Y0069442D01*
X0196000Y0070041D02*
X0006000Y0070041D01*
X0006000Y0070639D02*
X0196000Y0070639D01*
X0196000Y0071238D02*
X0006000Y0071238D01*
X0006000Y0071836D02*
X0196000Y0071836D01*
X0196000Y0072435D02*
X0006000Y0072435D01*
X0006000Y0073033D02*
X0196000Y0073033D01*
X0196000Y0073632D02*
X0006000Y0073632D01*
X0006000Y0074230D02*
X0196000Y0074230D01*
X0196000Y0074829D02*
X0006000Y0074829D01*
X0006000Y0075427D02*
X0196000Y0075427D01*
X0196000Y0076026D02*
X0006000Y0076026D01*
X0006000Y0076624D02*
X0196000Y0076624D01*
X0196000Y0077223D02*
X0006000Y0077223D01*
X0006000Y0077821D02*
X0196000Y0077821D01*
X0196000Y0078420D02*
X0006000Y0078420D01*
X0006000Y0079018D02*
X0196000Y0079018D01*
X0196000Y0079617D02*
X0006000Y0079617D01*
X0006000Y0080215D02*
X0196000Y0080215D01*
X0196000Y0080814D02*
X0006000Y0080814D01*
X0006000Y0081412D02*
X0196000Y0081412D01*
X0196000Y0082011D02*
X0006000Y0082011D01*
X0006000Y0082609D02*
X0196000Y0082609D01*
X0196000Y0083208D02*
X0006000Y0083208D01*
X0006000Y0083806D02*
X0196000Y0083806D01*
X0196000Y0084405D02*
X0006000Y0084405D01*
X0006000Y0085003D02*
X0196000Y0085003D01*
X0196000Y0085602D02*
X0006000Y0085602D01*
X0006000Y0086201D02*
X0196000Y0086201D01*
X0196000Y0086799D02*
X0006000Y0086799D01*
X0006000Y0087398D02*
X0196000Y0087398D01*
X0196000Y0087996D02*
X0006000Y0087996D01*
X0006000Y0088595D02*
X0196000Y0088595D01*
X0196000Y0089193D02*
X0006000Y0089193D01*
X0006000Y0089792D02*
X0196000Y0089792D01*
X0196000Y0090390D02*
X0006000Y0090390D01*
X0006000Y0090989D02*
X0196000Y0090989D01*
X0196000Y0091587D02*
X0006000Y0091587D01*
X0006000Y0092186D02*
X0196000Y0092186D01*
X0196000Y0092784D02*
X0006000Y0092784D01*
X0006000Y0093383D02*
X0196000Y0093383D01*
X0196000Y0093981D02*
X0006000Y0093981D01*
X0006000Y0094580D02*
X0196000Y0094580D01*
X0196000Y0095178D02*
X0006000Y0095178D01*
X0006000Y0095777D02*
X0196000Y0095777D01*
X0196000Y0096375D02*
X0006000Y0096375D01*
X0006000Y0096974D02*
X0196000Y0096974D01*
X0196000Y0097572D02*
X0006000Y0097572D01*
X0006000Y0098171D02*
X0196000Y0098171D01*
X0196000Y0098769D02*
X0006000Y0098769D01*
X0006000Y0099368D02*
X0196000Y0099368D01*
X0196000Y0099966D02*
X0006000Y0099966D01*
X0006000Y0100565D02*
X0196000Y0100565D01*
X0196000Y0101163D02*
X0006000Y0101163D01*
X0006000Y0101762D02*
X0196000Y0101762D01*
X0196000Y0102360D02*
X0006000Y0102360D01*
X0006000Y0102959D02*
X0196000Y0102959D01*
X0196000Y0103557D02*
X0006000Y0103557D01*
X0006000Y0104156D02*
X0196000Y0104156D01*
X0196000Y0104754D02*
X0006000Y0104754D01*
X0006000Y0105353D02*
X0196000Y0105353D01*
X0196000Y0105951D02*
X0006000Y0105951D01*
X0006000Y0106550D02*
X0196000Y0106550D01*
X0196000Y0107148D02*
X0006000Y0107148D01*
X0006000Y0107747D02*
X0196000Y0107747D01*
X0196000Y0108345D02*
X0006000Y0108345D01*
X0006000Y0108944D02*
X0196000Y0108944D01*
X0196000Y0109542D02*
X0006000Y0109542D01*
X0006000Y0110141D02*
X0196000Y0110141D01*
X0196000Y0110739D02*
X0006000Y0110739D01*
X0006000Y0111338D02*
X0196000Y0111338D01*
X0196000Y0111937D02*
X0006000Y0111937D01*
X0006000Y0112535D02*
X0196000Y0112535D01*
X0196000Y0113134D02*
X0006000Y0113134D01*
X0006000Y0113732D02*
X0196000Y0113732D01*
X0196000Y0114331D02*
X0006000Y0114331D01*
X0006000Y0114929D02*
X0196000Y0114929D01*
X0196000Y0115528D02*
X0006000Y0115528D01*
X0006000Y0116126D02*
X0196000Y0116126D01*
X0196000Y0116725D02*
X0006000Y0116725D01*
X0006000Y0117323D02*
X0196000Y0117323D01*
X0196000Y0117922D02*
X0006000Y0117922D01*
X0006000Y0118520D02*
X0196000Y0118520D01*
X0196000Y0119119D02*
X0006000Y0119119D01*
X0006000Y0119717D02*
X0196000Y0119717D01*
X0196000Y0120316D02*
X0006000Y0120316D01*
X0006000Y0120914D02*
X0196000Y0120914D01*
X0196000Y0121513D02*
X0006000Y0121513D01*
X0006000Y0122111D02*
X0196000Y0122111D01*
X0196000Y0122710D02*
X0006000Y0122710D01*
X0006000Y0123308D02*
X0196000Y0123308D01*
X0196000Y0123907D02*
X0006000Y0123907D01*
X0006000Y0124505D02*
X0196000Y0124505D01*
X0196000Y0125104D02*
X0006000Y0125104D01*
X0006000Y0125702D02*
X0196000Y0125702D01*
X0196000Y0126301D02*
X0006000Y0126301D01*
X0006000Y0126899D02*
X0196000Y0126899D01*
X0196000Y0127498D02*
X0006000Y0127498D01*
X0006000Y0128096D02*
X0196000Y0128096D01*
X0196000Y0128695D02*
X0006000Y0128695D01*
X0006000Y0129293D02*
X0196000Y0129293D01*
X0196000Y0129892D02*
X0006000Y0129892D01*
X0006000Y0130490D02*
X0196000Y0130490D01*
X0196000Y0131089D02*
X0006000Y0131089D01*
X0006000Y0131687D02*
X0196000Y0131687D01*
X0196000Y0132286D02*
X0006000Y0132286D01*
X0006000Y0132884D02*
X0196000Y0132884D01*
X0196000Y0133483D02*
X0006000Y0133483D01*
X0006000Y0134081D02*
X0196000Y0134081D01*
X0196000Y0134680D02*
X0006000Y0134680D01*
X0006000Y0135278D02*
X0196000Y0135278D01*
X0196000Y0135877D02*
X0006000Y0135877D01*
X0006000Y0136475D02*
X0196000Y0136475D01*
X0196000Y0137074D02*
X0006000Y0137074D01*
X0006000Y0137672D02*
X0196000Y0137672D01*
X0196000Y0138271D02*
X0006000Y0138271D01*
X0006000Y0138870D02*
X0196000Y0138870D01*
X0196000Y0139468D02*
X0006000Y0139468D01*
X0006000Y0140067D02*
X0196000Y0140067D01*
X0196000Y0140665D02*
X0006000Y0140665D01*
X0006000Y0141264D02*
X0196000Y0141264D01*
X0196000Y0141862D02*
X0006000Y0141862D01*
X0006000Y0142461D02*
X0196000Y0142461D01*
X0196000Y0143059D02*
X0006000Y0143059D01*
X0006000Y0143658D02*
X0196000Y0143658D01*
X0196000Y0144256D02*
X0006000Y0144256D01*
X0006000Y0144855D02*
X0196000Y0144855D01*
X0196000Y0145453D02*
X0006000Y0145453D01*
X0006000Y0146052D02*
X0196000Y0146052D01*
X0196000Y0146650D02*
X0006000Y0146650D01*
X0006000Y0147249D02*
X0196000Y0147249D01*
X0196000Y0147847D02*
X0006000Y0147847D01*
X0006000Y0148446D02*
X0196000Y0148446D01*
X0196000Y0149044D02*
X0006000Y0149044D01*
X0006000Y0149643D02*
X0196000Y0149643D01*
X0196000Y0150241D02*
X0006000Y0150241D01*
X0006000Y0150840D02*
X0196000Y0150840D01*
X0196000Y0151438D02*
X0006000Y0151438D01*
X0006000Y0152037D02*
X0196000Y0152037D01*
X0196000Y0152635D02*
X0006000Y0152635D01*
X0006000Y0153234D02*
X0196000Y0153234D01*
X0196000Y0153832D02*
X0006000Y0153832D01*
X0006000Y0154431D02*
X0196000Y0154431D01*
X0196000Y0155029D02*
X0006000Y0155029D01*
X0006000Y0155628D02*
X0196000Y0155628D01*
X0196000Y0156226D02*
X0006000Y0156226D01*
X0006000Y0156825D02*
X0196000Y0156825D01*
X0196000Y0157423D02*
X0006000Y0157423D01*
X0006000Y0158022D02*
X0196000Y0158022D01*
X0196000Y0158620D02*
X0006000Y0158620D01*
X0006000Y0159219D02*
X0196000Y0159219D01*
X0196000Y0159817D02*
X0006000Y0159817D01*
X0006000Y0160416D02*
X0196000Y0160416D01*
X0196000Y0161014D02*
X0006000Y0161014D01*
X0006000Y0161613D02*
X0196000Y0161613D01*
X0196000Y0162211D02*
X0006000Y0162211D01*
X0006000Y0162810D02*
X0196000Y0162810D01*
X0196000Y0163408D02*
X0006000Y0163408D01*
X0006000Y0164007D02*
X0196000Y0164007D01*
X0196000Y0164605D02*
X0006000Y0164605D01*
X0006000Y0165204D02*
X0196000Y0165204D01*
X0196000Y0165803D02*
X0006000Y0165803D01*
X0006000Y0166401D02*
X0196000Y0166401D01*
X0196000Y0167000D02*
X0006000Y0167000D01*
X0006000Y0167598D02*
X0196000Y0167598D01*
X0196000Y0168197D02*
X0006000Y0168197D01*
X0006000Y0168795D02*
X0196000Y0168795D01*
X0196000Y0169394D02*
X0006000Y0169394D01*
X0006000Y0169992D02*
X0196000Y0169992D01*
X0196000Y0170591D02*
X0006000Y0170591D01*
X0006000Y0171189D02*
X0196000Y0171189D01*
X0196000Y0171788D02*
X0006000Y0171788D01*
X0006000Y0172386D02*
X0196000Y0172386D01*
X0196000Y0172985D02*
X0006000Y0172985D01*
X0006000Y0173583D02*
X0196000Y0173583D01*
X0196000Y0174182D02*
X0006000Y0174182D01*
X0006000Y0174780D02*
X0196000Y0174780D01*
X0196000Y0175379D02*
X0006000Y0175379D01*
X0006000Y0175977D02*
X0196000Y0175977D01*
X0196000Y0176576D02*
X0006000Y0176576D01*
X0006000Y0177174D02*
X0196000Y0177174D01*
X0196000Y0177773D02*
X0006000Y0177773D01*
X0006000Y0178371D02*
X0196000Y0178371D01*
X0196000Y0178970D02*
X0006000Y0178970D01*
X0006000Y0179568D02*
X0196000Y0179568D01*
X0196000Y0180167D02*
X0006000Y0180167D01*
X0006000Y0180765D02*
X0196000Y0180765D01*
X0196000Y0181364D02*
X0006000Y0181364D01*
X0006000Y0181962D02*
X0196000Y0181962D01*
X0196000Y0182561D02*
X0006000Y0182561D01*
X0006000Y0183159D02*
X0196000Y0183159D01*
X0196000Y0183758D02*
X0006000Y0183758D01*
X0006000Y0184356D02*
X0196000Y0184356D01*
X0196000Y0184955D02*
X0006000Y0184955D01*
X0006000Y0185553D02*
X0196000Y0185553D01*
X0196000Y0186152D02*
X0006000Y0186152D01*
X0006000Y0186750D02*
X0196000Y0186750D01*
X0196000Y0187349D02*
X0006000Y0187349D01*
X0006000Y0187947D02*
X0196000Y0187947D01*
X0196000Y0188546D02*
X0006000Y0188546D01*
X0006000Y0189144D02*
X0196000Y0189144D01*
X0196000Y0189743D02*
X0006000Y0189743D01*
X0006000Y0190341D02*
X0196000Y0190341D01*
X0196000Y0190940D02*
X0006000Y0190940D01*
X0006000Y0191539D02*
X0196000Y0191539D01*
X0196000Y0192137D02*
X0006000Y0192137D01*
X0006000Y0192736D02*
X0196000Y0192736D01*
X0196000Y0193334D02*
X0006000Y0193334D01*
X0006000Y0193933D02*
X0196000Y0193933D01*
X0196000Y0194531D02*
X0006000Y0194531D01*
X0006000Y0195130D02*
X0196000Y0195130D01*
X0196000Y0195728D02*
X0006000Y0195728D01*
X0006000Y0196327D02*
X0196000Y0196327D01*
X0196000Y0196925D02*
X0006000Y0196925D01*
X0006000Y0197524D02*
X0196000Y0197524D01*
X0196000Y0198122D02*
X0006000Y0198122D01*
X0006000Y0198721D02*
X0196000Y0198721D01*
X0196000Y0199319D02*
X0006000Y0199319D01*
X0006000Y0199918D02*
X0196000Y0199918D01*
X0196000Y0200516D02*
X0006000Y0200516D01*
X0006000Y0201115D02*
X0196000Y0201115D01*
X0196000Y0201713D02*
X0006000Y0201713D01*
X0006000Y0202312D02*
X0196000Y0202312D01*
X0196000Y0202910D02*
X0006000Y0202910D01*
X0006000Y0203509D02*
X0196000Y0203509D01*
X0196000Y0204107D02*
X0006000Y0204107D01*
X0006000Y0204706D02*
X0196000Y0204706D01*
X0196000Y0205304D02*
X0006000Y0205304D01*
X0006000Y0205903D02*
X0196000Y0205903D01*
X0196000Y0206501D02*
X0006000Y0206501D01*
X0006000Y0207100D02*
X0196000Y0207100D01*
X0196000Y0207698D02*
X0006000Y0207698D01*
X0006000Y0208297D02*
X0196000Y0208297D01*
X0196000Y0208895D02*
X0006000Y0208895D01*
X0006000Y0209494D02*
X0196000Y0209494D01*
X0196000Y0210092D02*
X0006000Y0210092D01*
X0006000Y0210691D02*
X0196000Y0210691D01*
X0196000Y0211289D02*
X0006000Y0211289D01*
X0006000Y0211888D02*
X0196000Y0211888D01*
X0196000Y0212486D02*
X0006000Y0212486D01*
X0006000Y0213085D02*
X0196000Y0213085D01*
X0196000Y0213683D02*
X0006000Y0213683D01*
X0006000Y0214282D02*
X0196000Y0214282D01*
X0196000Y0214880D02*
X0006000Y0214880D01*
X0006000Y0215479D02*
X0196000Y0215479D01*
X0196000Y0216077D02*
X0006000Y0216077D01*
X0006000Y0216676D02*
X0196000Y0216676D01*
X0196000Y0217274D02*
X0006000Y0217274D01*
X0006000Y0217873D02*
X0196000Y0217873D01*
X0196000Y0218472D02*
X0006000Y0218472D01*
X0006000Y0219070D02*
X0196000Y0219070D01*
X0196000Y0219669D02*
X0006000Y0219669D01*
X0006000Y0220267D02*
X0196000Y0220267D01*
X0196000Y0220866D02*
X0006000Y0220866D01*
X0006000Y0221464D02*
X0196000Y0221464D01*
X0196000Y0222063D02*
X0006000Y0222063D01*
X0006000Y0222661D02*
X0196000Y0222661D01*
X0196000Y0223260D02*
X0006000Y0223260D01*
X0006000Y0223858D02*
X0196000Y0223858D01*
X0196000Y0224457D02*
X0006000Y0224457D01*
X0006000Y0225055D02*
X0196000Y0225055D01*
X0196000Y0225654D02*
X0006000Y0225654D01*
X0006000Y0226252D02*
X0196000Y0226252D01*
X0196000Y0226851D02*
X0006000Y0226851D01*
X0006000Y0227449D02*
X0196000Y0227449D01*
X0196000Y0228048D02*
X0006000Y0228048D01*
X0006000Y0228646D02*
X0196000Y0228646D01*
X0196000Y0229245D02*
X0006000Y0229245D01*
X0006000Y0229843D02*
X0196000Y0229843D01*
X0196000Y0230442D02*
X0006000Y0230442D01*
X0006000Y0231040D02*
X0196000Y0231040D01*
X0196000Y0231639D02*
X0006000Y0231639D01*
X0006000Y0232237D02*
X0196000Y0232237D01*
X0196000Y0232836D02*
X0006000Y0232836D01*
X0006000Y0233434D02*
X0196000Y0233434D01*
X0196000Y0234033D02*
X0006000Y0234033D01*
X0006000Y0234631D02*
X0196000Y0234631D01*
X0196000Y0235230D02*
X0006000Y0235230D01*
X0006000Y0235828D02*
X0196000Y0235828D01*
X0196000Y0236427D02*
X0006000Y0236427D01*
X0006000Y0237025D02*
X0196000Y0237025D01*
X0196000Y0237624D02*
X0006000Y0237624D01*
X0006000Y0238222D02*
X0196000Y0238222D01*
X0196000Y0238821D02*
X0006000Y0238821D01*
X0006000Y0239419D02*
X0196000Y0239419D01*
X0196000Y0240018D02*
X0006000Y0240018D01*
X0006000Y0240616D02*
X0196000Y0240616D01*
X0196000Y0241215D02*
X0006000Y0241215D01*
X0006000Y0241813D02*
X0196000Y0241813D01*
X0196000Y0242412D02*
X0006000Y0242412D01*
X0006000Y0243010D02*
X0196000Y0243010D01*
X0196000Y0243609D02*
X0006000Y0243609D01*
X0006000Y0244208D02*
X0196000Y0244208D01*
X0196000Y0244806D02*
X0006000Y0244806D01*
X0006000Y0245405D02*
X0196000Y0245405D01*
X0196000Y0246003D02*
X0006000Y0246003D01*
X0006000Y0246602D02*
X0196000Y0246602D01*
X0196000Y0247200D02*
X0006000Y0247200D01*
X0006000Y0247799D02*
X0196000Y0247799D01*
X0196000Y0248397D02*
X0006000Y0248397D01*
X0006000Y0248996D02*
X0196000Y0248996D01*
X0196000Y0249594D02*
X0006000Y0249594D01*
X0006000Y0250193D02*
X0196000Y0250193D01*
X0196000Y0250791D02*
X0006000Y0250791D01*
X0006000Y0251390D02*
X0196000Y0251390D01*
X0196000Y0251988D02*
X0006000Y0251988D01*
X0006000Y0252587D02*
X0196000Y0252587D01*
X0196000Y0253185D02*
X0006000Y0253185D01*
X0006000Y0253784D02*
X0196000Y0253784D01*
X0196000Y0254382D02*
X0006000Y0254382D01*
X0006000Y0254981D02*
X0196000Y0254981D01*
X0196000Y0255579D02*
X0006000Y0255579D01*
X0006000Y0256178D02*
X0196000Y0256178D01*
X0196000Y0256776D02*
X0006000Y0256776D01*
X0006000Y0257375D02*
X0196000Y0257375D01*
X0196000Y0257973D02*
X0006000Y0257973D01*
X0006000Y0258572D02*
X0196000Y0258572D01*
X0196000Y0259170D02*
X0006000Y0259170D01*
X0006000Y0259769D02*
X0196000Y0259769D01*
X0196000Y0260367D02*
X0006000Y0260367D01*
X0006000Y0260966D02*
X0196000Y0260966D01*
X0196000Y0261564D02*
X0006000Y0261564D01*
X0006000Y0262163D02*
X0196000Y0262163D01*
X0196000Y0262761D02*
X0006000Y0262761D01*
X0006000Y0263360D02*
X0196000Y0263360D01*
X0196000Y0263958D02*
X0006000Y0263958D01*
X0006000Y0264557D02*
X0196000Y0264557D01*
X0196000Y0265155D02*
X0006000Y0265155D01*
X0006000Y0265754D02*
X0196000Y0265754D01*
X0196000Y0266352D02*
X0006000Y0266352D01*
X0006000Y0266951D02*
X0196000Y0266951D01*
X0196000Y0267549D02*
X0006000Y0267549D01*
X0006000Y0268148D02*
X0196000Y0268148D01*
X0196000Y0268746D02*
X0006000Y0268746D01*
X0006000Y0269345D02*
X0196000Y0269345D01*
X0196000Y0269943D02*
X0006000Y0269943D01*
X0006000Y0270542D02*
X0196000Y0270542D01*
X0196000Y0271141D02*
X0006000Y0271141D01*
X0006000Y0271739D02*
X0196000Y0271739D01*
X0196000Y0272338D02*
X0006000Y0272338D01*
X0006000Y0272936D02*
X0196000Y0272936D01*
X0196000Y0273535D02*
X0006000Y0273535D01*
X0006000Y0274133D02*
X0196000Y0274133D01*
X0196000Y0274732D02*
X0006000Y0274732D01*
X0006000Y0275330D02*
X0196000Y0275330D01*
X0196000Y0275929D02*
X0006000Y0275929D01*
X0006000Y0276527D02*
X0196000Y0276527D01*
X0196000Y0277126D02*
X0006000Y0277126D01*
X0006000Y0277724D02*
X0196000Y0277724D01*
X0196000Y0278323D02*
X0006000Y0278323D01*
X0006000Y0278921D02*
X0196000Y0278921D01*
X0196000Y0279520D02*
X0006000Y0279520D01*
X0006000Y0280118D02*
X0196000Y0280118D01*
X0196000Y0280717D02*
X0006000Y0280717D01*
X0006000Y0281315D02*
X0196000Y0281315D01*
X0196000Y0281914D02*
X0006000Y0281914D01*
X0006000Y0282512D02*
X0196000Y0282512D01*
X0196000Y0283111D02*
X0006000Y0283111D01*
X0006000Y0283709D02*
X0196000Y0283709D01*
X0196000Y0284308D02*
X0006000Y0284308D01*
X0006000Y0284906D02*
X0196000Y0284906D01*
X0196000Y0285505D02*
X0006000Y0285505D01*
X0006000Y0286103D02*
X0196000Y0286103D01*
X0196000Y0286702D02*
X0006000Y0286702D01*
X0006000Y0287300D02*
X0196000Y0287300D01*
X0196000Y0287899D02*
X0006000Y0287899D01*
X0006000Y0288497D02*
X0196000Y0288497D01*
X0196000Y0289096D02*
X0006000Y0289096D01*
X0006000Y0289694D02*
X0196000Y0289694D01*
X0196000Y0290293D02*
X0006000Y0290293D01*
X0006000Y0290891D02*
X0196000Y0290891D01*
X0196000Y0291490D02*
X0006000Y0291490D01*
X0006000Y0292088D02*
X0196000Y0292088D01*
X0196000Y0292687D02*
X0006000Y0292687D01*
X0006000Y0293285D02*
X0196000Y0293285D01*
X0196000Y0293884D02*
X0006000Y0293884D01*
X0006000Y0294482D02*
X0196000Y0294482D01*
X0196000Y0295081D02*
X0006000Y0295081D01*
X0006000Y0295679D02*
X0196000Y0295679D01*
X0196000Y0296278D02*
X0006000Y0296278D01*
X0006000Y0296877D02*
X0196000Y0296877D01*
X0196000Y0297475D02*
X0006000Y0297475D01*
X0006000Y0298074D02*
X0196000Y0298074D01*
X0196000Y0298672D02*
X0006000Y0298672D01*
X0006000Y0299271D02*
X0196000Y0299271D01*
X0196000Y0299869D02*
X0006000Y0299869D01*
X0006000Y0300468D02*
X0196000Y0300468D01*
X0196000Y0301066D02*
X0006000Y0301066D01*
X0006000Y0301665D02*
X0196000Y0301665D01*
X0196000Y0302263D02*
X0006000Y0302263D01*
X0006000Y0302862D02*
X0196000Y0302862D01*
X0196000Y0303460D02*
X0006000Y0303460D01*
X0006000Y0304059D02*
X0196000Y0304059D01*
X0196000Y0304657D02*
X0006000Y0304657D01*
X0006000Y0305256D02*
X0196000Y0305256D01*
X0196000Y0305854D02*
X0006000Y0305854D01*
X0006000Y0306453D02*
X0196000Y0306453D01*
X0196000Y0307051D02*
X0006000Y0307051D01*
X0006000Y0307650D02*
X0196000Y0307650D01*
X0196000Y0308248D02*
X0006000Y0308248D01*
X0006000Y0308847D02*
X0196000Y0308847D01*
X0196000Y0309445D02*
X0006000Y0309445D01*
X0006000Y0310044D02*
X0196000Y0310044D01*
X0196000Y0310642D02*
X0006000Y0310642D01*
X0006017Y0311241D02*
X0195983Y0311241D01*
X0195940Y0311839D02*
X0006060Y0311839D01*
X0006105Y0312438D02*
X0195895Y0312438D01*
X0195765Y0313036D02*
X0006235Y0313036D01*
X0006365Y0313635D02*
X0195635Y0313635D01*
X0195440Y0314233D02*
X0006560Y0314233D01*
X0006783Y0314832D02*
X0195217Y0314832D01*
X0194946Y0315430D02*
X0007055Y0315430D01*
X0007381Y0316029D02*
X0194619Y0316029D01*
X0194247Y0316627D02*
X0007753Y0316627D01*
X0008201Y0317226D02*
X0193799Y0317226D01*
X0193282Y0317824D02*
X0008718Y0317824D01*
X0009317Y0318423D02*
X0192683Y0318423D01*
X0191929Y0319021D02*
X0010071Y0319021D01*
X0010973Y0319620D02*
X0191027Y0319620D01*
X0189827Y0320218D02*
X0012173Y0320218D01*
X0014203Y0320817D02*
X0187797Y0320817D01*
X0194110Y0010190D02*
X0007890Y0010190D01*
X0008338Y0009591D02*
X0193662Y0009591D01*
X0193099Y0008993D02*
X0008901Y0008993D01*
X0009516Y0008394D02*
X0192484Y0008394D01*
X0191684Y0007796D02*
X0010316Y0007796D01*
X0011309Y0007197D02*
X0190691Y0007197D01*
X0189336Y0006599D02*
X0012664Y0006599D01*
X0016000Y0006000D02*
X0041000Y0006000D01*
X0186000Y0006000D01*
M02*
