<svg xmlns="http://www.w3.org/2000/svg" xmlns:xlink="http://www.w3.org/1999/xlink" version="1.1" x="0px" y="0px" viewBox="0 0 100 125" enable-background="new 0 0 100 100" xml:space="preserve"><path fill="none" stroke="#000000" stroke-width="3" stroke-linecap="round" stroke-miterlimit="10" d="M42.937,19.4v-5.065  c0-0.552,0.448-1,1-1h10.848c0.552,0,1,0.448,1,1V19.4 M68.838,22.789c0-1.871-1.516-3.388-3.388-3.388H32.797  c-1.871,0-3.388,1.517-3.388,3.388V85.28c0,1.871,1.517,3.388,3.388,3.388H65.45c1.872,0,3.388-1.517,3.388-3.388V22.789z   M51.146,48.563l-5.935,5.472h8.587L42.199,65.704 M54.241,45.708l2.247-2.072"/><text x="0" y="115" fill="#000000" font-size="5px" font-weight="bold" font-family="'Helvetica Neue', Helvetica, Arial-Unicode, Arial, Sans-serif">Created by Suji</text><text x="0" y="120" fill="#000000" font-size="5px" font-weight="bold" font-family="'Helvetica Neue', Helvetica, Arial-Unicode, Arial, Sans-serif">from the Noun Project</text></svg>