<svg xmlns="http://www.w3.org/2000/svg" xmlns:xlink="http://www.w3.org/1999/xlink" version="1.2" baseProfile="tiny" x="0px" y="0px" viewBox="0 0 100 125" xml:space="preserve"><path d="M15.049,73.715c0.535,6.638,5.411,12.071,11.779,13.448C29.402,91.91,34.408,95,40,95c3.838,0,7.344-1.449,10-3.829  C52.656,93.551,56.162,95,60,95c5.592,0,10.598-3.09,13.173-7.838c6.368-1.377,11.244-6.809,11.779-13.448  C88.121,70.898,90,66.825,90,62.5c0-2.162-0.475-4.299-1.37-6.25C89.525,54.298,90,52.162,90,50c0-4.395-1.869-8.433-5.055-11.231  C84.982,38.348,85,37.924,85,37.5c0-4.326-1.879-8.399-5.05-11.216c-0.336-4.105-2.36-7.893-5.548-10.463C72.579,9.51,66.76,5,60,5  c-3.838,0-7.344,1.449-10,3.829C47.344,6.449,43.838,5,40,5c-6.76,0-12.579,4.51-14.403,10.822  c-3.188,2.57-5.212,6.357-5.548,10.463C16.879,29.101,15,33.174,15,37.5c0,0.424,0.018,0.848,0.055,1.269  C11.869,41.567,10,45.605,10,50c0,2.162,0.475,4.298,1.37,6.25C10.475,58.201,10,60.338,10,62.5  C10,66.825,11.879,70.898,15.049,73.715z M52.5,76.545l2.035-1.017C55.225,75.183,55.999,75,56.771,75H62.5v-5h-5.729  c-1.472,0-2.941,0.341-4.271,0.969V54.076c2.356-1.031,4.929-1.576,7.5-1.576v-5c-2.543,0-5.085,0.427-7.5,1.232V30.78  c1.642,1.117,3.577,1.72,5.606,1.72H62.5v-5h-4.394c-1.336,0-2.591-0.52-3.536-1.464L52.5,23.965V20c0-4.136,3.364-7.5,7.5-7.5  c2.425,0,4.604,1.164,5.979,2.986l-5.247,5.247l3.535,3.535l3.7-3.7l0.721,0.408C71.04,22.309,72.5,24.809,72.5,27.5  c0,0.101-0.007,0.212-0.013,0.322l-2.832,3.583c-1.368,1.73-2.127,3.89-2.151,6.095H57.5v5h10v5h5v-9.894  c0-1.121,0.383-2.222,1.078-3.101l1.773-2.243c1.354,1.384,2.15,3.256,2.15,5.237c0,0.887-0.164,1.771-0.486,2.629l-0.802,2.133  l2.051,0.995C80.876,44.526,82.5,47.109,82.5,50c0,0.866-0.146,1.707-0.428,2.5H72.5v5h8.097l0.252,0.314  c1.08,1.346,1.65,2.966,1.65,4.686c0,1.693-0.578,3.309-1.592,4.607c-1.781-2.767-4.88-4.607-8.408-4.607h-5c-2.757,0-5-2.243-5-5  h-5c0,5.514,4.486,10,10,10h5c2.757,0,5,2.243,5,5c0,3.255-2.088,6.024-5,7.058V75h-5v5.904l-0.246,0.959  C66.405,85.182,63.421,87.5,60,87.5c-0.457,0-0.903-0.048-1.338-0.126l3.106-3.106l-3.535-3.535l-4.025,4.025  C53.141,83.462,52.5,81.805,52.5,80V76.545z M17.928,52.5C17.646,51.707,17.5,50.866,17.5,50c0-2.891,1.624-5.474,4.237-6.743  l2.051-0.995l-0.802-2.133C22.664,39.271,22.5,38.387,22.5,37.5c0-1.699,0.583-3.319,1.603-4.62l6.693,8.366  c0.366,0.457,0.776,0.865,1.205,1.245l-4.081,6.122l4.16,2.773l4.411-6.616c0.687,0.147,1.394,0.23,2.114,0.23H42.5v-5h-3.896  c-1.527,0-2.95-0.684-3.904-1.876l-7.014-8.767l-0.114-0.883C27.523,28.09,27.5,27.781,27.5,27.5c0-2.691,1.46-5.191,3.812-6.524  l0.721-0.408l3.7,3.7l3.535-3.535l-5.247-5.247C35.397,13.664,37.575,12.5,40,12.5c4.136,0,7.5,3.364,7.5,7.5v9.22  c-1.642-1.117-3.577-1.72-5.606-1.72H37.5v5h4.394c1.336,0,2.591,0.52,3.536,1.464l2.071,2.071v14.76  c-2.1,0.628-4.397,0.461-6.382-0.531l-2.236,4.472c1.916,0.958,4.017,1.437,6.118,1.437c0.838,0,1.673-0.098,2.5-0.25V65h-5.365  c-1.906,0-3.62-1.059-4.472-2.764l-2.927-5.854l-4.472,2.236l2.927,5.854C34.896,67.882,38.323,70,42.135,70H47.5v10  c0,3.258-2.092,6.03-5,7.063v-3.956c0-2.671-1.04-5.182-2.929-7.071l-2.803-2.803l-3.535,3.535l2.803,2.803  c0.944,0.945,1.464,2.2,1.464,3.536v3.961c-2.301-0.816-4.121-2.731-4.754-5.204l-0.5-1.951l-2.012,0.072L30,80  c-4.136,0-7.5-3.364-7.5-7.5c0-0.016,0.002-0.034,0.002-0.05l6.604-5.534l-3.212-3.832l-5.916,4.958  C18.427,66.635,17.5,64.634,17.5,62.5c0-1.72,0.571-3.34,1.65-4.686l0.252-0.314H25v-5H17.928z"/><text x="0" y="115" fill="#000000" font-size="5px" font-weight="bold" font-family="'Helvetica Neue', Helvetica, Arial-Unicode, Arial, Sans-serif">Created by Arthur Shlain</text><text x="0" y="120" fill="#000000" font-size="5px" font-weight="bold" font-family="'Helvetica Neue', Helvetica, Arial-Unicode, Arial, Sans-serif">from the Noun Project</text></svg>