<svg xmlns:dc="http://purl.org/dc/elements/1.1/" xmlns:cc="http://creativecommons.org/ns#" xmlns:rdf="http://www.w3.org/1999/02/22-rdf-syntax-ns#" xmlns:svg="http://www.w3.org/2000/svg" xmlns="http://www.w3.org/2000/svg" version="1.1" x="0px" y="0px" viewBox="0 0 100 125"><g transform="translate(0,-952.36218)"><path d="m 44.597251,972.58944 c -3.852652,0.0407 -6.697064,0.83749 -11.094732,2.35349 -6.890454,4.09207 -5.23345,4.92382 -0.224136,4.48272 l 8.96544,0.22414 c 13.167482,-0.40046 10.761923,-6.5064 6.649368,-6.83621 -1.607658,-0.15337 -3.011718,-0.23753 -4.29594,-0.22414 z m 17.968236,2.65234 c -7.66355,-0.11715 -12.228848,2.9103 -4.557432,9.11486 l 13.709653,11.05738 c 2.805118,3.41906 0.43468,5.96078 -2.129292,3.84761 l -14.568841,-12.4022 c -9.200872,-9.21288 -24.807085,14.00367 -16.175148,17.74417 12.37832,5.2057 21.580257,10.7591 10.011408,18.0803 -5.430701,1.1394 -3.217481,-3.4281 -0.336204,-5.977 4.899601,-4.3346 -18.278392,-16.87077 -18.229728,3.6982 0.357028,6.5148 -0.711891,11.1788 5.267196,11.3189 l 18.229728,0.4109 c 4.373988,0.085 5.129619,-3.8242 5.97696,-7.6579 1.209618,-2.292 2.413915,-1.7491 3.623532,-0.4483 0.704373,2.7704 -1.351749,7.6952 3.623533,7.9195 16.362304,0.7374 15.215409,-22.8495 -1.681021,-20.5085 l -13.44816,-11.0947 c -1.972468,-3.08123 0.07184,-4.63883 2.98848,-2.98847 l 11.020021,8.18097 c 10.956682,7.4733 13.894824,-3.6954 12.252774,-8.62924 l -3.212622,-6.61207 c -1.547101,-2.33257 0.795491,-3.89459 2.353434,-1.04597 7.156034,11.64248 4.215215,11.17058 3.399396,16.84768 -1.037374,7.2186 0.605764,13.8641 1.905156,18.1549 2.760076,5.6059 7.804057,-2.0807 9.413707,-5.3419 2.29285,-5.4769 4.45345,-11.7965 1.71838,-17.0716 -0.97895,-2.83217 -2.799548,-3.07914 -4.295939,-0.2242 -1.831341,6.3731 -7.164869,3.9986 -4.893636,0.2242 12.214015,-17.47812 -9.19275,-26.40231 -21.965335,-26.59752 z m -34.516944,6.46253 c -2.655467,0.098 -5.29267,0.54737 -7.770048,1.64366 -3.209197,1.42025 -4.062205,5.0424 -4.48272,8.25574 -0.280044,2.13987 1.209486,2.06109 2.689632,1.90509 2.043057,-0.21529 6.082418,1.73918 4.445364,3.58618 -1.517096,1.71168 -4.328407,2.44613 -6.686724,1.45694 -1.718782,-0.72106 -2.588119,-3.04108 -4.408008,-2.95118 -2.5499621,0.12611 -3.8828001,2.87743 -4.7815681,4.96846 -2.102443,4.8911 -2.298643,10.4494 -1.8678,15.8014 0.437621,5.4364 3.260623,11.2505 8.5918801,13.1494 3.193765,1.1375 6.992589,1.2709 10.08612,-0.2615 4.111969,-2.2172 2.872193,-10.1779 3.474108,-15.0171 0.317293,-2.2067 0.931342,-5.6467 -1.830444,-6.3132 -2.162189,-0.5218 -4.48327,0.037 -6.612012,0.7098 -2.133715,0.6745 -3.849019,2.8986 -2.316072,4.9683 0.768841,1.0381 1.00028,1.9853 1.12068,3.3247 0.225427,2.5079 -2.38758,0.7559 -3.436752,0.037 -2.333345,-1.5981 -3.008443,-5.591 -1.045968,-7.8075 3.284268,-3.7092 8.451207,-4.8407 13.111956,-5.8647 2.09728,-0.4609 3.784862,-1.4405 5.04306,-2.9138 2.950335,-3.45484 4.81743,-8.21477 6.91086,-12.29022 1.197448,-2.33113 0.559683,-5.67476 -2.278716,-5.97696 -2.602284,-0.27697 -5.30136,-0.50828 -7.956828,-0.41085 z" style="" fill="#000000" fill-opacity="1" stroke="none"/></g><text x="0" y="115" fill="#000000" font-size="5px" font-weight="bold" font-family="'Helvetica Neue', Helvetica, Arial-Unicode, Arial, Sans-serif">Created by Sergey Patutin</text><text x="0" y="120" fill="#000000" font-size="5px" font-weight="bold" font-family="'Helvetica Neue', Helvetica, Arial-Unicode, Arial, Sans-serif">from the Noun Project</text></svg>