<svg xmlns="http://www.w3.org/2000/svg" xmlns:xlink="http://www.w3.org/1999/xlink" version="1.1" x="0px" y="0px" viewBox="0 0 24 30" enable-background="new 0 0 24 24" xml:space="preserve"><g><path d="M11.589,1.732c0-0.221-0.179-0.4-0.4-0.4H8.775c-0.221,0-0.4,0.18-0.4,0.4v3.185C8.19,4.984,8.004,5.06,7.817,5.144   L5.495,2.882c-0.155-0.152-0.403-0.152-0.559,0l-3.293,3.21C1.566,6.167,1.523,6.271,1.523,6.378c0,0.108,0.043,0.211,0.121,0.286   l2.312,2.252C3.872,9.092,3.796,9.269,3.729,9.445h-3.28c-0.221,0-0.4,0.18-0.4,0.4v4.539c0,0.221,0.179,0.4,0.4,0.4h3.28   c0.067,0.176,0.143,0.353,0.226,0.528l-2.312,2.253c-0.077,0.075-0.121,0.179-0.121,0.286s0.043,0.211,0.121,0.286l3.293,3.209   c0.155,0.152,0.403,0.152,0.559,0l2.321-2.261c0.186,0.083,0.372,0.159,0.558,0.228v3.184c0,0.221,0.179,0.4,0.4,0.4h2.414   c0.221,0,0.4-0.18,0.4-0.4s-0.179-0.4-0.4-0.4H9.175v-3.069c0-0.174-0.112-0.328-0.278-0.381c-0.327-0.104-0.658-0.239-0.983-0.399   C7.762,18.17,7.579,18.2,7.457,18.32l-2.241,2.183l-2.72-2.65l2.226-2.17c0.126-0.123,0.157-0.314,0.076-0.471   c-0.165-0.316-0.302-0.638-0.409-0.955c-0.055-0.162-0.207-0.272-0.379-0.272H0.848v-3.738H4.01c0.171,0,0.324-0.109,0.379-0.272   c0.107-0.316,0.245-0.638,0.409-0.956c0.081-0.156,0.05-0.347-0.076-0.47L2.496,6.378l2.72-2.651l2.241,2.184   C7.579,6.03,7.762,6.059,7.913,5.983c0.331-0.162,0.662-0.297,0.982-0.399c0.166-0.053,0.279-0.207,0.279-0.381v-3.07h2.014   C11.409,2.132,11.589,1.953,11.589,1.732z"/><path d="M10.974,8.097c0.221,0,0.4-0.18,0.4-0.4s-0.179-0.4-0.4-0.4c-2.679,0-4.858,2.129-4.858,4.745s2.179,4.745,4.858,4.745   c0.221,0,0.4-0.18,0.4-0.4s-0.179-0.4-0.4-0.4c-2.238,0-4.059-1.77-4.059-3.944S8.737,8.097,10.974,8.097z"/><path d="M23.951,12.07c0-0.94-0.478-1.77-1.203-2.262c0.157-0.375,0.264-0.77,0.264-1.181c0-1.253-0.755-2.329-1.832-2.809   c0.001-0.026,0.004-0.051,0.004-0.077c0-1.576-1.282-2.858-2.858-2.858c-0.327,0-0.644,0.076-0.949,0.184   c-0.257-1.25-1.365-2.193-2.69-2.193c-1.515,0-2.747,1.232-2.747,2.747v16.739c0,1.524,1.209,2.765,2.695,2.765   c0.867,0,1.653-0.424,2.154-1.112c0.026,0.01,0.049,0.025,0.078,0.029c0.164,0.027,0.332,0.041,0.503,0.041   c1.733,0,3.146-1.428,3.32-3.245c1.324-0.152,2.358-1.266,2.358-2.63c0-0.633-0.224-1.228-0.621-1.702   C23.326,14.06,23.951,13.14,23.951,12.07z M21.046,13.991c-0.226-0.024-0.416,0.141-0.437,0.36c-0.021,0.22,0.14,0.415,0.359,0.437   c0.083,0.008,0.167,0.012,0.253,0.012c0.115,0,0.224-0.02,0.335-0.034c0.438,0.355,0.691,0.878,0.691,1.443   c0,1.025-0.834,1.859-1.86,1.859c-0.566,0-1.094-0.253-1.449-0.694c-0.139-0.172-0.39-0.2-0.563-0.061   c-0.172,0.139-0.199,0.391-0.061,0.563c0.402,0.499,0.961,0.821,1.577,0.938c-0.157,1.388-1.222,2.47-2.523,2.47   c-0.05,0-0.099-0.009-0.148-0.012c0.1-0.292,0.16-0.596,0.16-0.91c0-1.524-1.208-2.765-2.694-2.765c-0.221,0-0.4,0.18-0.4,0.4   s0.179,0.4,0.4,0.4c1.044,0,1.895,0.881,1.895,1.964c0,0.212-0.04,0.416-0.103,0.613c-0.038,0.038-0.07,0.083-0.092,0.136   c-0.294,0.738-0.981,1.215-1.752,1.215c-1.045,0-1.895-0.881-1.895-1.964v-3.99c0.032-0.039,0.071-0.07,0.087-0.121   c0.234-0.74,0.92-1.299,1.745-1.425c0.219-0.033,0.369-0.237,0.335-0.456c-0.033-0.217-0.238-0.362-0.456-0.335   c-0.668,0.102-1.266,0.42-1.712,0.874V9.284c0.416,0.388,0.97,0.63,1.582,0.63c0.318,0,0.626-0.063,0.915-0.188   c0.203-0.087,0.297-0.321,0.21-0.524c-0.086-0.204-0.322-0.297-0.525-0.21c-0.188,0.08-0.391,0.121-0.6,0.121   c-0.843,0-1.53-0.686-1.53-1.529c0-0.069-0.022-0.13-0.052-0.187V3.622c0-1.073,0.874-1.946,1.947-1.946   c1.073,0,1.947,0.873,1.947,1.946s-0.874,1.946-1.947,1.946c-0.221,0-0.4,0.18-0.4,0.4s0.179,0.4,0.4,0.4   c1.416,0,2.572-1.082,2.718-2.46c0.284-0.144,0.601-0.225,0.922-0.225c1.085,0,1.966,0.845,2.044,1.91   c-0.143-0.02-0.285-0.044-0.434-0.044c-0.691,0-1.345,0.225-1.89,0.649c-0.174,0.136-0.206,0.387-0.07,0.562   c0.134,0.173,0.387,0.204,0.561,0.069c0.403-0.313,0.887-0.479,1.398-0.479c1.256,0,2.277,1.021,2.277,2.276   c0,0.295-0.075,0.579-0.184,0.848c-0.256-0.08-0.524-0.135-0.806-0.135c-0.082,0-0.163,0.004-0.243,0.011   c-0.22,0.019-0.384,0.212-0.365,0.433c0.018,0.22,0.212,0.379,0.432,0.364c1.096-0.098,2.104,0.799,2.105,1.922   C23.151,13.192,22.143,14.097,21.046,13.991z"/><path d="M16.146,11.323c1.342,0,2.434-1.093,2.434-2.435c0-0.165-0.016-0.325-0.048-0.48c-0.044-0.217-0.253-0.359-0.472-0.313   c-0.216,0.044-0.356,0.255-0.313,0.471c0.021,0.104,0.032,0.212,0.032,0.322c0,0.901-0.733,1.634-1.634,1.634   c-0.221,0-0.4,0.18-0.4,0.4S15.925,11.323,16.146,11.323z"/><path d="M16.146,12.921c-0.221,0-0.4,0.18-0.4,0.4s0.179,0.4,0.4,0.4c0.987,0,1.791,0.803,1.791,1.789c0,0.221,0.179,0.4,0.4,0.4   s0.4-0.18,0.4-0.4C18.736,14.083,17.574,12.921,16.146,12.921z"/></g><text x="0" y="39" fill="#000000" font-size="5px" font-weight="bold" font-family="'Helvetica Neue', Helvetica, Arial-Unicode, Arial, Sans-serif">Created by Atif Arshad</text><text x="0" y="44" fill="#000000" font-size="5px" font-weight="bold" font-family="'Helvetica Neue', Helvetica, Arial-Unicode, Arial, Sans-serif">from the Noun Project</text></svg>