<svg xmlns:dc="http://purl.org/dc/elements/1.1/" xmlns:cc="http://creativecommons.org/ns#" xmlns:rdf="http://www.w3.org/1999/02/22-rdf-syntax-ns#" xmlns:svg="http://www.w3.org/2000/svg" xmlns="http://www.w3.org/2000/svg" xmlns:sodipodi="http://sodipodi.sourceforge.net/DTD/sodipodi-0.dtd" xmlns:inkscape="http://www.inkscape.org/namespaces/inkscape" viewBox="0 0 455.7376 669.2151124999999" version="1.1" x="0px" y="0px"><g transform="translate(-175.57045,-272.94596)"><path style="" d="m 300.08865,272.94706 c 0,0 -4.1054,0.8859 -10.2758,4.4498 -5.8407,3.8111 -15.1186,9.4883 -22.4921,20.63179 -7.6223,10.6876 -13.1732,27.8155 -10.3563,45.7941 1.6588,8.8235 4.0226,17.6529 8.4144,25.6481 4.5151,7.5394 9.4131,15.1857 15.1296,21.4406 l 15.6964,16.4243 c 3.5221,4.8882 7.7408,8.3 10.5992,13.1881 6.0479,9.1965 9.4066,17.1579 8.4955,25.5672 -1.6553,17.8542 -16.0808,30.751 -15.2109,30.502 0,0 4.2077,0.037 11.0843,-2.4282 6.2966,-2.8183 17.0962,-7.3043 24.6768,-20.1461 8.4922,-12.5518 8.1342,-32.9674 1.1303,-48.6256 -3.1902,-7.8708 -7.9645,-16.0209 -13.3499,-22.8976 l -14.4828,-16.9908 c -18.3511,-19.0555 -25.8239,-38.8592 -21.7641,-58.5776 1.823,-9.5279 4.6996,-18.63649 7.8479,-24.35339 2.8183,-6.0067 4.8545,-9.6278 4.8545,-9.6278 z m 130.7478,0 c 0,0 -4.1053,0.8859 -10.2753,4.4498 -5.8412,3.8111 -15.119,9.4883 -22.4926,20.63179 -7.6218,10.6876 -13.1728,27.8155 -10.3562,45.7941 1.6551,8.8235 4.0221,17.6529 8.4144,25.6481 4.5155,7.5394 9.3716,15.1857 15.1299,21.4406 l 15.6156,16.4243 c 3.562,4.8882 7.78,8.3 10.6797,13.1881 6.0479,9.1965 9.4069,17.1579 8.4954,25.5672 -1.6589,17.8542 -16.0808,30.751 -15.2109,30.502 0,0 4.1688,0.037 11.0039,-2.4282 6.3381,-2.8183 17.1767,-7.3043 24.7577,-20.1461 8.4922,-12.5518 8.1338,-32.9674 1.1303,-48.6256 -3.1902,-7.8708 -7.9649,-16.0209 -13.3504,-22.8976 l -14.4823,-16.9908 c -18.3515,-19.0555 -25.8243,-38.8592 -21.7645,-58.5776 1.823,-9.5279 4.6996,-18.63649 7.8479,-24.35339 2.8183,-6.0067 4.8545,-9.6278 4.8545,-9.6278 z m -202.271,222.09359 c -19.7183,0 -35.5997,15.9226 -35.5997,35.5994 l 0,102.4303 c 0,68.0614 55.1619,123.2234 123.2233,123.2234 l 109.8742,0 c 42.4191,0 79.8629,-21.4845 102.0254,-54.1277 1.6991,0.4156 3.2778,1.0865 5.0162,1.3745 4.1837,0.7036 8.2777,0.9699 12.3791,0.9699 40.7623,0 77.2582,-32.3213 84.549,-77.2679 7.9948,-49.42 -22.4367,-95.4605 -67.963,-102.8345 -4.184,-0.7037 -8.3174,-0.9698 -12.46,-0.9698 -0.6197,0 -1.0754,0.3281 -1.699,0.3281 -3.3141,-16.2798 -17.0721,-28.7223 -34.305,-28.7223 l -285.0402,0 z m 321.0445,72.17 c 1.8231,0 3.5986,0.1824 5.4212,0.485 9.7763,1.575 18.5083,7.3918 24.515,16.5055 6.7523,10.232 9.3948,23.0759 7.282,36.166 -3.7283,22.8666 -21.3047,40.125 -40.94,40.3734 2.0709,-8.9064 3.3981,-18.1036 3.3981,-27.59 l 0,-65.8592 c 0.1088,0 0.2187,-0.073 0.3281,-0.073 z m -357.7767,203.323 c -8.9894,0 -16.2628,7.2737 -16.2628,16.2627 l 0,5.259 c 0,8.9894 7.2734,16.2627 16.2628,16.2627 l 358.5858,0 c 8.9895,0 16.2627,-7.2733 16.2627,-16.2627 l 0,-5.259 c 0,-8.989 -7.2732,-16.2627 -16.2627,-16.2627 l -358.5858,0 z" fill="#000000"/></g><text x="0" y="550.37209" fill="#000000" font-size="5px" font-weight="bold" font-family="'Helvetica Neue', Helvetica, Arial-Unicode, Arial, Sans-serif">Created by Hopkins</text><text x="0" y="555.37209" fill="#000000" font-size="5px" font-weight="bold" font-family="'Helvetica Neue', Helvetica, Arial-Unicode, Arial, Sans-serif">from the Noun Project</text></svg>