<svg xmlns="http://www.w3.org/2000/svg" xmlns:xlink="http://www.w3.org/1999/xlink" version="1.1" x="0px" y="0px" viewBox="0 0 100 125" enable-background="new 0 0 100 100" xml:space="preserve"><symbol viewBox="-0.55 -8.85 10.95 11.05"><g><path fill-rule="evenodd" clip-rule="evenodd" d="M2.4,2.2h5C9-1.5,10-5.183,10.4-8.85H-0.55C-0.15-5.283,0.833-1.6,2.4,2.2z"/></g></symbol><g><g><g><path d="M52.263,62.886c-0.346-2.984-1.073-5.734-2.182-8.251l-0.128,0.074c0.505-0.432,1.002-0.884,1.485-1.369     c0.443-0.441,0.849-0.898,1.248-1.358L52.676,52c2.452,1.071,5.195,1.809,8.232,2.214l1.863-3.227     c-1.779-2.396-3.771-4.401-5.971-6.02c0.408-1.16,0.721-2.36,0.935-3.601v0.159c2.658-0.298,5.404-1.031,8.236-2.199v-3.727     c-2.758-1.192-5.503-1.938-8.236-2.236v0.074c-0.211-1.271-0.536-2.493-0.954-3.678c2.122-1.578,4.106-3.561,5.952-5.958     l-1.863-3.228c-2.97,0.344-5.706,1.067-8.212,2.167c-0.386-0.443-0.792-0.877-1.22-1.303c-0.426-0.428-0.861-0.835-1.304-1.221     l0.036,0.021c1.071-2.451,1.809-5.195,2.214-8.232l-3.227-1.864c-2.393,1.777-4.395,3.766-6.013,5.962     c-1.183-0.42-2.405-0.747-3.675-0.959c-0.3-2.649-1.03-5.383-2.194-8.205h-3.727c-1.191,2.756-1.937,5.5-2.235,8.231     c-1.159,0.204-2.281,0.499-3.368,0.876c-1.585-2.147-3.588-4.152-6.009-6.017l-3.228,1.864c0.346,2.985,1.073,5.735,2.182,8.251     l0.022-0.013c-0.481,0.413-0.954,0.845-1.415,1.306c-0.446,0.445-0.853,0.907-1.253,1.372c-2.447-1.067-5.186-1.804-8.216-2.208     L8.164,23.83c1.783,2.4,3.778,4.409,5.984,6.03c-0.398,1.146-0.703,2.333-0.912,3.558v-0.165C10.577,33.55,7.832,34.283,5,35.451     v3.727c2.758,1.192,5.502,1.938,8.236,2.236v-0.071c0.213,1.294,0.546,2.539,0.974,3.744c-2.144,1.584-4.147,3.585-6.009,6.003     l1.864,3.228c2.985-0.347,5.735-1.073,8.251-2.182l-0.119-0.205c0.411,0.479,0.842,0.951,1.301,1.41     c0.566,0.566,1.154,1.083,1.75,1.576l-0.521-0.301c-1.071,2.452-1.809,5.195-2.213,8.232l3.228,1.863     c2.411-1.793,4.429-3.798,6.054-6.016l-0.139-0.08c1.214,0.441,2.468,0.786,3.773,1.009c0.299,2.651,1.031,5.39,2.195,8.214     h3.727c1.19-2.752,1.934-5.492,2.233-8.22c1.185-0.204,2.329-0.505,3.438-0.892c1.586,2.149,3.591,4.156,6.014,6.022     L52.263,62.886z M44.134,46.04c-2.393,2.395-5.274,3.592-8.647,3.592s-6.256-1.197-8.647-3.592     c-2.397-2.394-3.595-5.277-3.595-8.65s1.198-6.258,3.595-8.65c2.391-2.395,5.274-3.592,8.647-3.592s6.254,1.197,8.647,3.592     c2.397,2.392,3.595,5.277,3.595,8.65S46.531,43.646,44.134,46.04z M88.304,26.492c0.11-0.677,0.155-1.339,0.155-1.991     c2.244-1.198,4.426-2.773,6.541-4.754l-1.318-3.486c-2.874-0.134-5.588,0.123-8.15,0.748c-0.847-0.958-1.804-1.735-2.87-2.335     c0.09-2.557-0.186-5.25-0.847-8.088l-3.678-0.601c-1.551,2.418-2.685,4.894-3.424,7.422c-1.237,0.246-2.42,0.711-3.551,1.39     c-2.158-1.341-4.609-2.441-7.378-3.281l-2.359,2.885c1.319,2.552,2.896,4.771,4.716,6.675c-0.174,0.554-0.322,1.124-0.42,1.724     c-0.11,0.678-0.156,1.34-0.156,1.991c-2.244,1.198-4.426,2.773-6.54,4.753l1.318,3.486c2.864,0.134,5.57-0.122,8.125-0.742     c0.863,0.974,1.844,1.76,2.939,2.363c-0.083,2.537,0.19,5.208,0.847,8.022l3.678,0.601c1.548-2.414,2.68-4.884,3.419-7.406     c1.201-0.248,2.353-0.706,3.458-1.368c2.169,1.355,4.637,2.463,7.426,3.309l2.359-2.885c-1.32-2.554-2.898-4.774-4.721-6.68     C88.053,27.683,88.204,27.104,88.304,26.492z M81.051,25.307c-0.18,1.113-0.731,1.999-1.651,2.66     c-0.919,0.66-1.935,0.901-3.047,0.72c-1.114-0.182-2-0.733-2.66-1.652c-0.663-0.92-0.901-1.935-0.721-3.048     c0.183-1.113,0.734-2.002,1.653-2.662c0.919-0.661,1.936-0.899,3.047-0.717c1.114,0.182,2,0.73,2.661,1.649     C80.995,23.176,81.234,24.193,81.051,25.307z M82.586,63.053c1.588-2.038,2.953-4.409,4.086-7.13l-2.636-2.636     c-2.695,1.068-5.081,2.43-7.171,4.07c-1.197-0.7-2.469-1.221-3.814-1.562c-0.32-2.561-1.029-5.199-2.151-7.92h-3.727     c-1.148,2.655-1.871,5.297-2.19,7.93c-1.357,0.349-2.639,0.882-3.845,1.596c-2.029-1.572-4.384-2.928-7.086-4.053l-2.636,2.636     c1.062,2.677,2.412,5.047,4.038,7.128c-0.717,1.226-1.248,2.528-1.59,3.909c-2.531,0.326-5.137,1.028-7.824,2.137v3.727     c2.635,1.141,5.259,1.858,7.872,2.182c0.358,1.369,0.907,2.66,1.639,3.875c-1.565,2.023-2.916,4.371-4.037,7.064l2.636,2.636     c2.687-1.065,5.064-2.421,7.149-4.055c1.217,0.699,2.51,1.215,3.878,1.547c0.322,2.548,1.029,5.175,2.146,7.882h3.727     c1.154-2.667,1.88-5.322,2.196-7.967c1.334-0.358,2.594-0.897,3.78-1.612c2.033,1.581,4.396,2.941,7.108,4.07l2.636-2.636     c-1.072-2.705-2.438-5.099-4.087-7.194c0.682-1.188,1.187-2.448,1.52-3.781c2.578-0.316,5.237-1.029,7.979-2.16v-3.727     c-2.687-1.163-5.361-1.893-8.025-2.205C83.807,65.48,83.283,64.23,82.586,63.053z M74.624,76.574     c-1.559,1.557-3.431,2.331-5.625,2.331s-4.067-0.774-5.622-2.331c-1.559-1.559-2.337-3.437-2.337-5.631     c0-2.193,0.778-4.065,2.337-5.622c1.555-1.557,3.428-2.337,5.622-2.337s4.066,0.78,5.625,2.337s2.337,3.429,2.337,5.622     C76.961,73.138,76.183,75.016,74.624,76.574z"/></g></g></g><text x="0" y="115" fill="#000000" font-size="5px" font-weight="bold" font-family="'Helvetica Neue', Helvetica, Arial-Unicode, Arial, Sans-serif">Created by Rigo Peter</text><text x="0" y="120" fill="#000000" font-size="5px" font-weight="bold" font-family="'Helvetica Neue', Helvetica, Arial-Unicode, Arial, Sans-serif">from the Noun Project</text></svg>