<svg xmlns="http://www.w3.org/2000/svg" xmlns:xlink="http://www.w3.org/1999/xlink" version="1.1" x="0px" y="0px" viewBox="0 0 100 125" enable-background="new 0 0 100 100" xml:space="preserve"><g><path d="M52.154,40.833h4.311c1.792,0,3.491-0.778,4.662-2.134s1.692-3.151,1.432-4.924c-0.008-0.047-0.017-0.095-0.028-0.141   L59.319,20.64c-0.103-0.416-0.379-0.769-0.758-0.968l-5.709-3c-0.465-0.245-1.024-0.228-1.474,0.044   c-0.449,0.271-0.724,0.758-0.724,1.284v10.686c0,0.412,0.169,0.806,0.468,1.089c0.298,0.283,0.696,0.427,1.112,0.409   c0.027-0.001,0.104-0.01,0.162-0.017c1.169,0.03,2.111,0.99,2.111,2.166c0,1.175-0.939,2.134-2.107,2.166   c-0.06-0.007-0.142-0.015-0.178-0.017c-0.421-0.018-0.809,0.13-1.105,0.414s-0.464,0.675-0.464,1.085v3.352   C50.654,40.162,51.326,40.833,52.154,40.833z M53.655,37.331c2.215-0.582,3.854-2.603,3.854-4.998s-1.639-4.416-3.854-4.998v-6.853   l2.914,1.531l3.03,12.263c0.113,0.888-0.156,1.782-0.742,2.461c-0.601,0.696-1.473,1.095-2.392,1.095h-2.811V37.331z"/><circle cx="57.93" cy="74.506" r="1.162"/><path d="M91.279,65.97l-0.981-3.187c-0.117-0.38-0.381-0.698-0.732-0.885c-0.352-0.186-0.762-0.223-1.143-0.107L77.486,65.16   c5.335-5.653,7.018-12.433,3.782-15.668c-0.02-0.02-0.047-0.026-0.067-0.045c-0.007-0.006-0.013-0.013-0.02-0.019   c-0.476-0.462-1.181-0.547-1.739-0.255c-0.189-0.107-0.405-0.175-0.636-0.19c-0.777-0.051-1.477,0.508-1.587,1.287l-0.307,2.174   l-2.17,0.304c-0.663,0.093-1.185,0.614-1.277,1.276l-0.305,2.171l-2.169,0.304c-0.664,0.093-1.186,0.615-1.277,1.279l-0.301,2.162   l-2.17,0.306c-0.663,0.093-1.184,0.615-1.276,1.278l-0.303,2.167l-1.09,0.153l-0.587-14.636c0-4.25-3.458-7.708-7.708-7.708h-4.125   c-0.404,0-0.792,0.164-1.074,0.453s-0.436,0.681-0.425,1.085l1,39c0.021,0.813,0.686,1.462,1.5,1.462h2.519   c1.628,0,3.158-0.422,4.491-1.161h22.818c2.806,0,5.089-2.283,5.089-5.161c0-2.806-2.283-5.089-5.089-5.089h-5.083l12.433-4.259   C91.098,67.568,91.517,66.744,91.279,65.97z M65.031,66.809l2.172-0.305c0.663-0.093,1.184-0.614,1.276-1.278l0.303-2.167   l2.171-0.306c0.663-0.094,1.185-0.615,1.276-1.279l0.301-2.162l2.167-0.304c0.663-0.093,1.185-0.614,1.277-1.276l0.305-2.17   l2.169-0.304c0.662-0.093,1.184-0.613,1.277-1.275l0.125-0.885c0.438,2.457-1.17,6.656-5.011,10.497l-9.79,9.79l-0.131,0.076   l-0.013-1.372l-0.137-3.418L65.031,66.809z M55.672,80.5h-1.057l-0.923-36h2.587c2.596,0,4.708,2.112,4.709,4.768l0.999,24.917   C61.988,77.667,59.155,80.5,55.672,80.5z M82.982,75.089c1.151,0,2.089,0.938,2.089,2.161c0,1.151-0.938,2.089-2.089,2.089H63.416   c0.04-0.061,0.071-0.128,0.11-0.189l4.061-4.061H82.982z M71.602,71.075l1.392-1.392L87.872,65.1l0.112,0.363L71.602,71.075z"/><path d="M48.987,16.716c-0.45-0.272-1.01-0.289-1.474-0.044l-5.708,3c-0.379,0.199-0.656,0.552-0.758,0.968l-3.212,12.994   c-0.012,0.046-0.021,0.094-0.028,0.141c-0.262,1.772,0.26,3.567,1.431,4.924s2.87,2.134,4.662,2.134h4.311   c0.829,0,1.5-0.671,1.5-1.5v-3.352c0-0.41-0.167-0.802-0.464-1.085s-0.688-0.431-1.105-0.414c-0.03,0.001-0.112,0.01-0.174,0.017   c-1.168-0.03-2.11-0.99-2.11-2.167c0-1.175,0.94-2.134,2.107-2.166c0.056,0.006,0.134,0.014,0.166,0.016   c0.405,0.019,0.813-0.126,1.112-0.409c0.299-0.283,0.468-0.677,0.468-1.089V18C49.711,17.475,49.436,16.988,48.987,16.716z    M46.711,27.336c-2.215,0.582-3.854,2.602-3.854,4.998s1.639,4.416,3.854,4.998v0.502H43.9c-0.919,0-1.791-0.399-2.392-1.095   c-0.586-0.679-0.855-1.573-0.743-2.461l3.031-12.263l2.914-1.531V27.336z"/><path d="M48.211,41.5h-4.126c-4.25,0-7.708,3.458-7.707,7.647L35.786,63.96l-5.313-5.313c-3.683-3.684-8.203-5.971-11.794-5.971   c-1.811,0-3.343,0.575-4.481,1.713l-1.061,1.061l19.889,19.889H10.154c-0.829,0-1.5,0.672-1.5,1.5v3.333   c0,0.811,0.644,1.474,1.453,1.499l30.678,0.959c1.19,0.553,2.511,0.87,3.907,0.87h2.518c0.813,0,1.479-0.648,1.5-1.462l1-39   c0.01-0.404-0.143-0.796-0.425-1.085S48.615,41.5,48.211,41.5z M17.704,55.774c0.296-0.064,0.622-0.097,0.976-0.097   c2.782,0,6.579,1.998,9.673,5.092l7.271,7.271l-0.217,5.436L17.704,55.774z M11.654,78.718v-0.379h24.373l0.777,0.777   c0.084,0.134,0.168,0.267,0.258,0.396L11.654,78.718z M45.749,80.5h-1.056c-3.482,0-6.315-2.833-6.316-6.256l1.001-25.037   c0-2.596,2.112-4.708,4.708-4.708h2.587L45.749,80.5z"/><circle cx="42.435" cy="74.506" r="1.162"/></g><text x="0" y="115" fill="#000000" font-size="5px" font-weight="bold" font-family="'Helvetica Neue', Helvetica, Arial-Unicode, Arial, Sans-serif">Created by Cezary Lopacinski</text><text x="0" y="120" fill="#000000" font-size="5px" font-weight="bold" font-family="'Helvetica Neue', Helvetica, Arial-Unicode, Arial, Sans-serif">from the Noun Project</text></svg>