<svg xmlns="http://www.w3.org/2000/svg" xmlns:xlink="http://www.w3.org/1999/xlink" version="1.1" x="0px" y="0px" viewBox="0 0 64 80" enable-background="new 0 0 64 64" xml:space="preserve"><g><path d="M35.994,46.345c11.651-9.187,11.902-19.304,0-28.689l-3.993-2.781c-3.065-2.185-8.209-6.837-8.209-11.563   C23.792,2.035,22.757,1,21.481,1c-1.276,0-2.311,1.035-2.311,2.311c0,6.347,5.413,11.626,8.861,14.344l3.981,2.79   c10.479,7.532,9.952,13.79,3.706,19.99c-1.369,1.359-2.757,2.438-3.706,3.12l-3.981,2.789c-3.448,2.719-8.861,7.997-8.861,14.344   c0,1.276,1.035,2.311,2.311,2.311c1.276,0,2.311-1.035,2.311-2.311c0-4.468,4.573-8.934,8.22-11.555L35.994,46.345z"/><path d="M43.428,8.982c0.855-1.751,1.402-3.656,1.402-5.671C44.83,2.035,43.795,1,42.519,1c-1.276,0-2.311,1.035-2.311,2.311   c0,0.866-0.179,1.729-0.481,2.576H32h-5.127c0.766,1.596,2.114,3.205,3.614,4.622H32h4.855c-0.913,1.046-1.911,1.999-2.866,2.81   l3.498,2.441c0.126,0.099,0.242,0.199,0.365,0.298c1.872-1.699,3.904-3.93,5.291-6.526C43.264,9.364,43.357,9.179,43.428,8.982z"/><path d="M24.205,29.424H37.22c-0.647-1.473-1.852-3.016-3.623-4.622h-6.58c0.824-0.924,1.799-1.864,2.974-2.826l-3.455-2.425   c-0.128-0.101-0.265-0.214-0.398-0.322c-9.366,8.398-9.191,17.298,0,25.541c0.133-0.108,0.271-0.221,0.398-0.322l0.109-0.082   l3.367-2.359c-0.558-0.471-1.143-0.99-1.731-1.573c-0.415-0.412-0.797-0.824-1.16-1.237h6.39c0.169-0.158,0.337-0.309,0.506-0.476   c1.476-1.465,2.495-2.838,3.101-4.146H24.285C23.714,32.897,23.649,31.187,24.205,29.424z"/><path d="M43.426,55.014c-0.071-0.194-0.163-0.377-0.28-0.543c-1.387-2.597-3.42-4.829-5.293-6.529   c-0.123,0.099-0.239,0.199-0.365,0.298l-0.109,0.082l-3.39,2.375c0.991,0.839,1.979,1.782,2.866,2.794h-6.351   c-1.526,1.433-2.869,3.036-3.63,4.622H39.73c0.302,0.85,0.478,1.712,0.478,2.575c0,1.276,1.035,2.311,2.311,2.311   c1.277,0,2.311-1.035,2.311-2.311C44.83,58.673,44.282,56.766,43.426,55.014z"/></g><text x="0" y="79" fill="#000000" font-size="5px" font-weight="bold" font-family="'Helvetica Neue', Helvetica, Arial-Unicode, Arial, Sans-serif">Created by Arafat Uddin</text><text x="0" y="84" fill="#000000" font-size="5px" font-weight="bold" font-family="'Helvetica Neue', Helvetica, Arial-Unicode, Arial, Sans-serif">from the Noun Project</text></svg>