<svg xmlns="http://www.w3.org/2000/svg" xmlns:xlink="http://www.w3.org/1999/xlink" xml:space="preserve" version="1.1" style="shape-rendering:geometricPrecision;text-rendering:geometricPrecision;image-rendering:optimizeQuality;" viewBox="0 0 333 416.25" x="0px" y="0px" fill-rule="evenodd" clip-rule="evenodd"><defs><style type="text/css">
   
    .str0 {stroke:black;stroke-width:6.94488}
    .fil1 {fill:none}
    .fil0 {fill:black}
   
  </style></defs><g><path class="fil0" d="M121 55l0 0c1,1 1,3 0,5l-25 24c-1,-2 -2,-4 -5,-5l25 -24c1,-2 4,-2 5,0zm-40 45l-24 24c-2,1 -4,1 -5,0l0 0c-2,-1 -2,-3 0,-5l24 -24c1,2 3,4 5,5z"/><circle class="fil1 str0" cx="86" cy="89" r="11"/><path class="fil0" d="M212 55l0 0c-1,1 -1,3 0,5l25 24c1,-2 3,-4 5,-5l-25 -24c-1,-2 -3,-2 -5,0zm40 45l25 24c1,1 3,1 5,0l0 0c1,-1 1,-3 0,-5l-25 -24c-1,2 -3,4 -5,5z"/><path class="fil1 str0" d="M203 119l-5 0 0 95 5 0 34 25c1,-2 3,-4 6,-6l-28 -28 0 -1 0 -75 0 0 28 -29c-3,-1 -5,-3 -6,-6l-34 25zm-68 0l-5 0 -33 -25c-1,3 -4,5 -6,6l27 29 0 0 0 75 0 1 -27 28c2,2 5,4 6,6l33 -25 5 0 0 -95z"/><circle class="fil1 str0" cx="247" cy="89" r="11"/><path class="fil0" d="M121 279l0 0c1,-2 1,-4 0,-5l-25 -25c-1,2 -2,4 -5,5l25 25c1,1 4,1 5,0zm-40 -45l-24 -25c-2,-1 -4,-1 -5,0l0 0c-2,2 -2,4 0,5l24 25c1,-2 3,-4 5,-5z"/><circle class="fil1 str0" cx="86" cy="244" r="11"/><path class="fil0" d="M212 279l0 0c-1,-2 -1,-4 0,-5l25 -25c1,2 3,4 5,5l-25 25c-1,1 -3,1 -5,0zm40 -45l25 -25c1,-1 3,-1 5,0l0 0c1,2 1,4 0,5l-25 25c-1,-2 -3,-4 -5,-5z"/><circle class="fil1 str0" cx="247" cy="244" r="11"/><rect class="fil1 str0" x="135" y="97" width="62.5" height="135.421" rx="15" ry="15"/><polygon class="fil1 str0" points="179,97 180,96 180,85 177,82 155,82 152,85 152,96 154,97 "/><rect class="fil0" x="145" y="114" width="6.77165" height="101.047" rx="3" ry="3"/></g><text x="0" y="348" fill="#000000" font-size="5px" font-weight="bold" font-family="'Helvetica Neue', Helvetica, Arial-Unicode, Arial, Sans-serif">Created by novita dian</text><text x="0" y="353" fill="#000000" font-size="5px" font-weight="bold" font-family="'Helvetica Neue', Helvetica, Arial-Unicode, Arial, Sans-serif">from the Noun Project</text></svg>