<svg xmlns="http://www.w3.org/2000/svg" xmlns:xlink="http://www.w3.org/1999/xlink" version="1.1" x="0px" y="0px" viewBox="0 0 90 112.5" enable-background="new 0 0 90 90" xml:space="preserve"><path d="M-54.685,6.415c0.13,0,0.26,0,0.39,0c0.266,3.013,0.431,6.126,0.625,9.211c-0.095,0.088-0.142,0.222-0.391,0.156  c-0.182,1.382-0.591,2.962-0.156,4.527c0.339,0.286,0.985,0.264,1.483,0.391c-0.032,0.775,0.326,1.573,0.233,2.576  c-0.024,0.277-0.705,2.046,0.391,1.717c0.63-0.188,0.182-1.206,0.156-1.717c-0.045-0.925,0.217-1.804,0.234-2.498  c0.288-0.206,1.039,0.051,1.327-0.156c0.522-1.127,0.344-2.418,0.233-3.825c-0.197-0.303-0.41-0.43-0.233-0.937  c-0.05-0.159-0.365-0.052-0.392-0.234c0.174-3.08,0.291-6.214,0.547-9.211c0.053,0,0.336-0.01,0.39-0.01  c0,0,2.505,10.526,2.733,14.216c0.146,2.364,0.344,5.062,0.156,7.416c-0.08,0.996-0.49,1.983-0.078,2.966  c0.437,0.045,0.602-0.179,1.016-0.156c1.109,0.188,1.312,2.422,1.639,3.903c0.312,1.434,5.094,25.323,5.776,26.618  c2.208-8.045,1.173-19.745,7.805-23.104c-0.129,2.892-0.272,5.563-0.389,8.118c-0.378,8.311-2.642,15.725-3.591,23.65  c2.645-2.09,5.343-5.469,7.727-8.195c0.16-0.182,1.02-1.238,1.094-1.248c0.28-0.035,1.016,0.877,1.172,1.014  c0.412,0.367,0.808,0.688,1.17,1.016c-1.338,1.646-3.297,3.715-4.918,5.543c-0.361,0.408-1.574,1.49-1.562,1.951  c0.015,0.494,0.761,0.533,0.703,0.938c-0.234,0.566-0.849,0.15-1.327,0.232c-0.926,0.16-1.949,1.154-1.562,2.107  c5.408-0.396,10.58-1.025,16.004-1.404c0.052,0.467,0.203,0.836,0.232,1.326c-3.596,0.678-8.254,1.303-12.255,2.031  c-0.918,0.166-3.499,0.287-3.591,1.17c-0.062,0.59,0.57,0.709,0.547,1.172c-1.242,0.102-2.732,0.143-4.216,0.076  c-1.13-0.049-2.407,0.209-3.356,0c-0.918-0.201-3.436-2.221-3.669-2.652c-0.259-0.479-0.403-1.371-0.624-2.107  c-0.21-0.705-5.138-23.965-6.713-30.365c-0.533-2.162-1.23-4.332-1.64-6.479c-0.166-0.869-0.017-1.818-0.703-2.341  c-1.234,2.738-1.824,5.754-2.653,8.743c-1.85,6.663-7.476,32.108-7.807,32.708c-0.563,1.021-2.442,2.068-3.98,1.717  c-0.359,0.031-0.277,0.502-0.625,0.545c-3.437-0.053-6.634,0.133-10.069,0.078c0.905,1.631,2.029,3.576,3.279,4.996  c0.426,0.486,1.211,0.887,1.093,1.639c-0.491,0.385-0.814-0.213-1.093-0.467c-1.02-0.932-2.876-3.031-2.889-3.279  c-1.397-1.205-2.317-3.025-3.825-4.137c-0.549-0.402-1.325-0.445-1.717-1.092c-1.62-0.338-3.476-0.703-5.23-1.094  c-1.652-0.367-3.704-0.473-4.449-1.873c2.421,0.129,4.856,0.244,7.338,0.311c-1.115-1.174-2.562-2.701-3.825-3.9  c-0.435-0.414-1.1-0.727-1.171-1.328c1.724,0.357,2.968,1.5,4.293,2.342c1.361,0.865,2.717,1.713,4.06,2.654  c1.488,0.074,1.983,1.205,3.435,1.404c1.135,0.156,2.157-0.027,3.356-0.391c-1.209-1.072-3.168-1.6-4.371-2.965  c-1.281-1.457-1.932-4.725-0.547-6.713c1.501,1.42,2.611,4.947,4.06,6.398c0.426,0.426,1.724,1.273,2.186,1.25  c0.917-0.051,1.368-1.688,0.702-2.576c-0.375-0.5-0.696-0.328-1.093-0.781c0.885-0.477,1.609,0.373,2.186,0.703  c0.17-0.326-0.268-0.721-0.233-1.172c0.504-0.293,0.462,0.561,1.093,0.393c0.627-0.846,0.17-2.053,0-3.045  c-0.361-2.104-0.697-4.199-1.015-6.322c-0.167-1.111-0.515-2.268-0.469-3.201c0.019-0.398,0.242-1.467,0.702-1.561  c0.497-0.104,1.163,0.777,1.327,1.17c0.364,0.867,0.436,2.225,0.624,3.279c0.606,3.387,1.017,7.082,2.03,9.834  c1.003-1.34,2.555-9.1,2.731-11.396c0.079-1.012,1.895-9.078,2.107-11.161c0.123-1.19,0.566-2.479,0.859-3.746  c0.632-2.74,1.054-4.792,1.717-7.572c0.406-1.702,0.524-4.084,2.498-3.278c0.146-0.504,0.487-1.051,0.469-1.562  c-0.018-0.464-0.248-4.138-0.234-5.464C-57.381,20.254-55.181,8.078-54.685,6.415z"/><g><path fill-rule="evenodd" clip-rule="evenodd" d="M44.188,8.548c0.134-0.513,0.262-0.976,0.381-1.377c0.132,0,0.263,0,0.394,0   c0.268,3.038,0.434,6.176,0.63,9.286c-0.095,0.089-0.394,0.157-0.394,0.157c-0.184,1.394-0.596,2.986-0.157,4.564   c0.342,0.288,0.992,0.266,1.495,0.394c-0.032,0.782,0.328,1.585,0.236,2.596c-0.026,0.279-0.76,1.72,0.393,1.731   c1.099,0.011,0.304-1.445,0.24-1.802c-0.163-0.919,0.135-1.748,0.154-2.447c0.364-0.085,1.047,0.051,1.337-0.157   c0.526-1.136,0-4.8,0-4.8s-0.367-0.051-0.394-0.236c0.175-3.104,0.294-6.264,0.552-9.286c0.052,0,0.366,0.015,0.366,0.015   s0.338,1.091,0.42,1.48c0.122,0.574,2.13,9.107,2.36,12.827c0.148,2.383,0.347,5.103,0.158,7.476   c-0.039,0.485-0.614,0.78-0.631,1.379s0.338,1.099,0.552,1.611c2.379-0.057,2.021,1.126,2.676,3.777   c0.354,1.436,5.823,26.833,5.823,26.833s1.507-8.076,2.468-12.488c1.26-5.791,1.494-9.511,5.401-10.803   c-0.131,2.916-0.276,5.608-0.394,8.184c-0.381,8.379-2.663,15.852-3.62,23.842c2.666-2.105,8.817-9.512,8.893-9.52   c0.282-0.037,1.994,1.713,2.36,2.045c-1.348,1.66-6.545,7.09-6.531,7.555c0.015,0.498,0.766,0.537,0.708,0.943   c-0.236,0.572-0.854,0.154-1.338,0.236c-0.932,0.16-1.965,1.164-1.573,2.125c5.451-0.398,10.663-1.035,16.131-1.416   c0.053,0.471,0.206,0.842,0.236,1.338c-3.626,0.682-8.321,1.312-12.354,2.045c-0.925,0.168-3.527,0.293-3.62,1.182   c-0.062,0.594,0.576,0.713,0.552,1.18c-1.253,0.104-6.654,0.082-7.634,0.078c-2.718-0.012-2.459-0.746-2.754-1.574   c-0.13-0.434-10.009-42.2-10.702-42.728c-1.244,2.761-10.211,41.181-10.544,41.785c-0.569,1.033-0.603,1.447-2.114,1.578   c-0.79,0.068-3.27,0.293-5.951,0.486c-0.161,0.01-0.025-0.371,0.168-0.83c0,0-0.124-0.031-6.483-0.629   c-2.828-0.266,1.632,5.359,2.892,6.791c0.43,0.488,1.222,0.895,1.102,1.652c-0.494,0.385-0.82-0.215-1.102-0.471   c-1.026-0.939-5.247-6.357-6.768-7.477c-0.553-0.406-1.73-1.102-1.73-1.102c-1.633-0.34-3.504-0.709-5.272-1.102   C9.539,75.104,7.47,75,6.72,73.586c2.44,0.129,4.896,0.246,7.396,0.314c-1.124-1.184-4.965-4.666-5.036-5.271   c1.737,0.361,2.992,1.51,4.328,2.359c1.372,0.873,4.092,2.676,4.092,2.676s2,1.215,3.463,1.416c0.391,0.055,4.886,0.402,5.05,0.354   c-1.219-1.082-4.86-2.359-6.073-3.736c-1.291-1.467-1.946-4.762-0.551-6.768c1.514,1.434,2.633,4.988,4.092,6.453   c0.43,0.43,1.738,1.283,2.204,1.258c0.924-0.049,1.379-1.701,0.708-2.596c-0.378-0.504-0.702-0.33-1.102-0.787   c0.891-0.482,2.433,0.092,3.068-0.078c0.633-0.854,0.172-2.07,0-3.07c-0.363-2.121-0.702-4.234-1.022-6.373   c-0.168-1.119-0.518-2.285-0.473-3.227c0.02-0.402,0.245-1.479,0.708-1.574c0.501-0.104,1.172,0.785,1.338,1.182   c0.367,0.873,0.439,2.24,0.63,3.305c0.61,3.412,1.024,7.141,2.046,9.914c1.011-1.352,6.937-31.321,7.476-34.151   c0.422-2.217,0.282-3.802,2.519-3.305c0.146-0.508,0.49-1.06,0.472-1.574c-0.017-0.468-0.429-0.951-0.472-1.417   c-0.108-1.161,0.301-6.293,0.39-7.334C42.169,19.215,43.763,10.182,44.188,8.548z"/></g><text x="0" y="105" fill="#000000" font-size="5px" font-weight="bold" font-family="'Helvetica Neue', Helvetica, Arial-Unicode, Arial, Sans-serif">Created by david</text><text x="0" y="110" fill="#000000" font-size="5px" font-weight="bold" font-family="'Helvetica Neue', Helvetica, Arial-Unicode, Arial, Sans-serif">from the Noun Project</text></svg>