<svg xmlns="http://www.w3.org/2000/svg" xmlns:xlink="http://www.w3.org/1999/xlink" version="1.1" x="0px" y="0px" viewBox="0 0 24 30" enable-background="new 0 0 24 24" xml:space="preserve"><g><path d="M5.124,1.673c-2.199,2.2-2.199,5.781,0.001,7.982c0.349,0.348,0.738,0.648,1.162,0.894v10.773   c0,1.46,1.188,2.647,2.647,2.647s2.648-1.188,2.648-2.647V10.737c0.568-0.276,1.081-0.639,1.524-1.083   c1.528-1.529,2.048-3.838,1.321-5.883c-0.046-0.129-0.155-0.226-0.289-0.256c-0.133-0.031-0.273,0.01-0.371,0.107L11.481,5.91   c-0.697,0.699-1.915,0.698-2.612,0C8.52,5.561,8.328,5.097,8.328,4.604c0-0.494,0.191-0.958,0.541-1.307l2.288-2.287   c0.097-0.097,0.137-0.237,0.107-0.371c-0.03-0.134-0.127-0.243-0.257-0.289C8.982-0.369,6.648,0.148,5.124,1.673z M8.304,2.731   c-0.501,0.5-0.776,1.165-0.776,1.873c0,0.707,0.275,1.372,0.775,1.872c0.998,1,2.743,1.001,3.745,0l1.804-1.804   c0.329,1.583-0.153,3.261-1.311,4.418c-0.433,0.433-0.943,0.777-1.516,1.023c-0.147,0.063-0.243,0.208-0.243,0.368v10.842   c0,1.019-0.829,1.848-1.848,1.848s-1.847-0.829-1.847-1.848V10.313c0-0.149-0.083-0.285-0.215-0.354   C6.438,9.73,6.039,9.438,5.69,9.089c-1.889-1.889-1.889-4.962,0-6.851c0.912-0.913,2.126-1.415,3.417-1.415   c0.339,0,0.673,0.035,1.002,0.104L8.304,2.731z"/><circle cx="8.954" cy="21.322" r="0.749"/><path d="M20.408,13.144c0.164-0.337,0.155-0.696-0.024-0.986c-0.177-0.287-0.491-0.454-0.86-0.457   c-0.228-0.002-0.728-0.004-1.223-0.005l0.001-8.127l0.347-0.977c0.026-0.075,0.03-0.155,0.011-0.232l-0.503-1.989   c-0.045-0.177-0.204-0.302-0.388-0.302h-1.257c-0.184,0-0.343,0.125-0.388,0.302l-0.503,1.989c-0.02,0.077-0.016,0.157,0.011,0.231   l0.348,0.982l-0.001,8.122c-0.494,0.001-0.994,0.003-1.223,0.005c-0.369,0.003-0.683,0.17-0.86,0.458   c-0.18,0.29-0.188,0.649-0.024,0.985c0.185,0.38,0.465,0.71,0.842,0.965c-0.005,0.156-0.005,0.311-0.003,0.467   c0,0.125,0.001,0.249-0.002,0.375l-0.007,0.442c-0.007,0.509-0.015,1.017-0.042,1.524c-0.021,0.373-0.116,0.689-0.284,0.94   c-0.233,0.35-0.346,0.729-0.344,1.157l0.003,0.382c0.005,0.712,0.01,1.423-0.006,2.134c-0.027,1.254,0.649,2.126,1.811,2.332   c0.317,0.056,1.076,0.06,1.301,0.06c0.226,0,0.984-0.004,1.301-0.06c1.16-0.205,1.837-1.077,1.811-2.332   c-0.016-0.736-0.01-1.472-0.005-2.208l0.003-0.308c0.002-0.428-0.11-0.806-0.345-1.157c-0.167-0.25-0.263-0.567-0.283-0.94   c-0.027-0.492-0.035-0.985-0.042-1.479l-0.009-0.838c0.001-0.164,0.002-0.328-0.019-0.448   C19.942,13.856,20.223,13.526,20.408,13.144z M16.823,0.87h0.634l0.396,1.57l-0.33,0.931c-0.009,0.026-0.008,0.053-0.011,0.079   c-0.003,0.019-0.011,0.035-0.011,0.055v0.023v0.001L17.5,11.696h-0.721l0.001-8.191c0-0.032-0.011-0.06-0.018-0.089   c-0.003-0.015-0.001-0.029-0.006-0.044L16.75,3.354c-0.001-0.003-0.002-0.005-0.003-0.008L16.426,2.44L16.823,0.87z M15.458,16.961   c0.028-0.518,0.036-1.037,0.044-1.557l0.007-0.438c0.002-0.132,0.002-0.263,0.001-0.395c0-0.06,0.001-0.119,0.001-0.178h3.259   c0,0.067,0.002,0.134,0.001,0.201l0.009,0.856c0.007,0.504,0.015,1.009,0.043,1.512c0.028,0.501,0.165,0.936,0.397,1.3h-4.16   C15.293,17.897,15.43,17.462,15.458,16.961z M14.832,19.061h4.616l-0.002,0.255c-0.004,0.504,0,1.007,0.003,1.51h-4.619   c0.003-0.478,0.006-0.957,0.003-1.436L14.832,19.061z M18.302,23.074c-0.136,0.024-0.548,0.048-1.162,0.048   s-1.026-0.024-1.162-0.048c-0.932-0.165-1.142-0.861-1.147-1.448h4.618C19.444,22.213,19.234,22.909,18.302,23.074z M19.689,12.795   c-0.13,0.266-0.332,0.501-0.621,0.72c-0.03,0.023-0.041,0.054-0.067,0.079h-3.723c-0.026-0.025-0.037-0.056-0.067-0.079   c-0.289-0.22-0.492-0.455-0.621-0.72c-0.041-0.085-0.046-0.163-0.015-0.215c0.031-0.049,0.1-0.078,0.188-0.079   c0.33-0.003,1.223-0.006,1.85-0.006l0.529,0.001l0.524-0.001c0.627,0,1.52,0.003,1.849,0.006c0.089,0.001,0.158,0.029,0.188,0.079   C19.735,12.631,19.731,12.71,19.689,12.795z"/></g><text x="0" y="39" fill="#000000" font-size="5px" font-weight="bold" font-family="'Helvetica Neue', Helvetica, Arial-Unicode, Arial, Sans-serif">Created by Atif Arshad</text><text x="0" y="44" fill="#000000" font-size="5px" font-weight="bold" font-family="'Helvetica Neue', Helvetica, Arial-Unicode, Arial, Sans-serif">from the Noun Project</text></svg>