<svg xmlns="http://www.w3.org/2000/svg" xmlns:xlink="http://www.w3.org/1999/xlink" xml:space="preserve" version="1.1" style="shape-rendering:geometricPrecision;text-rendering:geometricPrecision;image-rendering:optimizeQuality;" viewBox="0 0 185 312.5" x="0px" y="0px" fill-rule="evenodd" clip-rule="evenodd"><defs><style type="text/css">
   
    .fil0 {fill:black}
    .fil1 {fill:black}
   
  </style></defs><g><path class="fil0" d="M84 110l0 107c0,18 -13,33 -30,33 -16,0 -30,-15 -30,-33l0 -107c-15,-11 -24,-30 -24,-50 0,-23 11,-43 28,-54l10 -6 0 43c0,9 7,17 16,17 9,0 16,-8 16,-17l0 -43 10 6c17,11 28,31 28,54 0,20 -9,39 -24,50zm-7 -4l0 111c0,14 -10,25 -23,25l0 0c-12,0 -23,-11 -23,-25l0 -111c-14,-9 -24,-27 -24,-46 0,-20 10,-38 24,-47l0 30c0,14 11,25 23,25l0 0c13,0 23,-11 23,-25l0 -30c14,9 24,27 24,47 0,19 -10,37 -24,46zm-23 95c6,0 11,5 11,12 0,6 -5,12 -11,12 -6,0 -11,-6 -11,-12 0,-7 5,-12 11,-12zm0 8c-2,0 -4,2 -4,4 0,2 2,4 4,4 2,0 4,-2 4,-4 0,-2 -2,-4 -4,-4z"/><path class="fil1" d="M137 130l3 0 0 -53 -9 -7 0 -3c0,-18 0,-36 0,-55l0 -3 3 -2c12,-7 27,-7 39,0l3 2 0 61 -9 7 0 53 3 0c9,0 15,7 15,15l0 90c0,8 -6,15 -15,15l-33 0c-9,0 -15,-7 -15,-15l0 -90c0,-8 6,-15 15,-15zm9 0l15 0 0 -56 9 -7 0 -55c-10,-6 -23,-6 -33,0 0,19 0,37 0,55l9 7 0 56zm21 15l0 0c-3,0 -5,2 -5,5l0 80c0,3 2,5 5,5l0 0c3,0 6,-2 6,-5l0 -80c0,-3 -3,-5 -6,-5zm-27 0l0 0c3,0 5,2 5,5l0 80c0,3 -2,5 -5,5l0 0c-3,0 -6,-2 -6,-5l0 -80c0,-3 3,-5 6,-5z"/></g><text x="0" y="265" fill="#000000" font-size="5px" font-weight="bold" font-family="'Helvetica Neue', Helvetica, Arial-Unicode, Arial, Sans-serif">Created by Chrystina Angeline</text><text x="0" y="270" fill="#000000" font-size="5px" font-weight="bold" font-family="'Helvetica Neue', Helvetica, Arial-Unicode, Arial, Sans-serif">from the Noun Project</text></svg>