<svg xmlns="http://www.w3.org/2000/svg" xmlns:xlink="http://www.w3.org/1999/xlink" version="1.1" x="0px" y="0px" viewBox="0 0 150 187.5" style="enable-background:new 0 0 150 150;" xml:space="preserve"><style type="text/css">
	.st0{fill:#030000;}
</style><g><path class="st0" d="M138.7,3.9c-4.4-2.5-10-1.3-12.9,2.8L74.3,78.5l35.2,20.1l33.4-82.4C144.8,11.6,142.9,6.4,138.7,3.9z"/><path class="st0" d="M74.5,100.3l16.6,9.5c10.2-2.8,16.4-7.8,16.4-7.8L72.3,81.9C69.9,89.5,74.5,100.3,74.5,100.3z"/><path class="st0" d="M28.9,136.6c-0.4-0.2-0.8-0.4-1.2-0.6C27.7,136,28.1,136.3,28.9,136.6z"/><path class="st0" d="M71.8,102.9c-10.6,0-15.3,6.8-20.5,17.4c-9.5,19.4-19.1,17.7-22.3,16.3c15.8,8.3,29.2,1.1,29.2,1.1   c-4.2,5.4-17.2,5.9-17.2,5.9c8.6,4.5,16.2,4,16.2,4c17.6,0.3,28.5-7.7,32.9-16.7c4.4-9.1,0-17.6,0-17.6L71.8,102.9z"/><path class="st0" d="M31.1,68.3c0,1.7,1.4,3,3,3h9.9c1.7,0,3-1.4,3-3V47.5h20.9c1.7,0,3-1.4,3-3v-9.9c0-1.7-1.4-3-3-3H47.1V10.6   c0-1.7-1.4-3-3-3h-9.9c-1.7,0-3,1.4-3,3v20.9H10.2c-1.7,0-3,1.4-3,3v9.9c0,1.7,1.4,3,3,3h20.9V68.3z"/></g><text x="0" y="165" fill="#000000" font-size="5px" font-weight="bold" font-family="'Helvetica Neue', Helvetica, Arial-Unicode, Arial, Sans-serif">Created by parkjisun</text><text x="0" y="170" fill="#000000" font-size="5px" font-weight="bold" font-family="'Helvetica Neue', Helvetica, Arial-Unicode, Arial, Sans-serif">from the Noun Project</text></svg>