<svg xmlns="http://www.w3.org/2000/svg" xmlns:xlink="http://www.w3.org/1999/xlink" version="1.1" x="0px" y="0px" viewBox="0 0 595.3 744.125" style="enable-background:new 0 0 595.3 595.3;" xml:space="preserve"><path d="M378.4,65.3h-8.1v24.3c0,6.4-5.2,11.6-11.6,11.6s-11.6-5.2-11.6-11.6V65.3h-60.3v79.3c0,6.4-5.2,11.6-11.6,11.6  s-11.6-5.2-11.6-11.6V65.3h-13.9v39.3c0,6.4-5.2,11.6-11.6,11.6l0,0c-6.4,0-11.6-5.2-11.6-11.6V65.3h-10.7c-6.1,0-11,4.2-11,9.4  v162.2c0,14.1,13.4,25.7,29.9,25.7h29v236.8c0,18.1,14.9,33,33,33h1.1c18.1,0,33-14.9,33-33V262.5h29c16.4,0,29.9-11.5,29.9-25.7  V74.7C389.3,69.5,384.4,65.3,378.4,65.3z M314.5,496.5c-1.6,6.1-6.6,11-12.7,12.6c-13.9,3.6-26.2-8.7-22.6-22.6  c1.6-6.1,6.6-11.1,12.7-12.7C305.9,470.2,318.3,482.6,314.5,496.5z M376.1,229.6c0,8.8-7.8,16-17.4,16H235.1  c-9.6,0-17.4-7.2-17.4-16v-1.2c0-8.8,7.8-16,17.4-16h123.5c9.6,0,17.4,7.2,17.4,16v1.2H376.1z"/><text x="0" y="610.3" fill="#000000" font-size="5px" font-weight="bold" font-family="'Helvetica Neue', Helvetica, Arial-Unicode, Arial, Sans-serif">Created by Hayley</text><text x="0" y="615.3" fill="#000000" font-size="5px" font-weight="bold" font-family="'Helvetica Neue', Helvetica, Arial-Unicode, Arial, Sans-serif">from the Noun Project</text></svg>