<svg xmlns="http://www.w3.org/2000/svg" xmlns:xlink="http://www.w3.org/1999/xlink" version="1.1" x="0px" y="0px" viewBox="0 0 100 125" style="enable-background:new 0 0 100 100;" xml:space="preserve"><style type="text/css">
	.st0{fill:#FFFFFF;stroke:#000000;stroke-width:3;stroke-miterlimit:10;}
	.st1{stroke:#000000;stroke-width:3;stroke-miterlimit:10;}
	.st2{fill:none;stroke:#000000;stroke-width:3;stroke-miterlimit:10;}
	.st3{stroke:#FFFFFF;stroke-width:3;stroke-miterlimit:10;}
	.st4{fill:#FFFFFF;stroke:#000000;stroke-width:4;stroke-miterlimit:10;}
	.st5{fill:#FFFFFF;stroke:#000000;stroke-width:2;stroke-miterlimit:10;}
	.st6{stroke:#000000;stroke-width:2;stroke-miterlimit:10;}
	.st7{fill:none;stroke:#000000;stroke-width:2;stroke-miterlimit:10;}
	.st8{stroke:#FFFFFF;stroke-width:2;stroke-miterlimit:10;}
	.st9{fill:none;stroke:#000000;stroke-width:5;stroke-miterlimit:10;}
	.st10{fill:none;}
	.st11{stroke:#000000;stroke-width:4;stroke-miterlimit:10;}
	.st12{fill:none;stroke:#000000;stroke-width:4;stroke-miterlimit:10;}
	.st13{fill:#FFFFFF;stroke:#000000;stroke-width:4;stroke-linecap:round;stroke-miterlimit:10;}
	.st14{fill:#FFFFFF;}
	.st15{fill:none;stroke:#000000;stroke-width:4;stroke-linecap:round;stroke-miterlimit:10;}
	.st16{fill:#FFFFFF;stroke:#000000;stroke-width:3;stroke-linecap:round;stroke-miterlimit:10;}
	.st17{fill:none;stroke:#000000;stroke-width:5;stroke-linecap:round;stroke-miterlimit:10;}
	.st18{fill:none;stroke:#000000;stroke-miterlimit:10;}
	.st19{fill:none;stroke:#FFFFFF;stroke-width:3;stroke-miterlimit:10;}
	.st20{stroke:#FFFFFF;stroke-width:1.5;stroke-miterlimit:10;}
	.st21{stroke:#FFFFFF;stroke-miterlimit:10;}
	.st22{fill:#FFFFFF;stroke:#000000;stroke-width:5;stroke-miterlimit:10;}
	.st23{fill:#FFFFFF;stroke:#000000;stroke-width:5;stroke-linecap:round;stroke-miterlimit:10;}
	.st24{fill:none;stroke:#000000;stroke-width:2;stroke-linecap:round;stroke-miterlimit:10;}
	.st25{fill:none;stroke:#FFFFFF;stroke-width:2;stroke-miterlimit:10;}
	.st26{fill:#FFFFFF;stroke:#FFFFFF;stroke-width:2;stroke-miterlimit:10;}
</style><g><polygon points="8.9,85.6 14.4,91.1 29.4,87.6 12.7,71  "/><path d="M55.2,27.7c-0.6-0.6-1-1.3-1.2-2.1L14.6,64.9c-0.5,0.5-0.8,1.1-0.8,1.8s0.3,1.3,0.8,1.8l17.1,17.1c1,1,2.7,1,3.7,0   l39.3-39.3c-0.8-0.2-1.5-0.7-2.1-1.2L55.2,27.7z"/><path d="M81,39.7c-0.7-0.2-1.4-0.6-2-1.2L61.6,21c-0.5-0.5-0.9-1.1-1.1-1.7l-3.2,3.2c-0.8,0.8-0.8,2.2,0,3L74.7,43   c0.8,0.8,2.2,0.8,3,0L81,39.7z"/><path d="M63.1,17.4c0,0.6,0.2,1.1,0.6,1.5l17.4,17.4c0.8,0.8,2.2,0.8,3,0l7.9-7.9c0.8-0.8,0.8-2.2,0-3L92,25.3L74.9,8.3L74.6,8   c-0.4-0.4-1-0.6-1.5-0.6S72,7.6,71.6,8l-7.9,7.9C63.3,16.3,63.1,16.8,63.1,17.4z"/><path d="M12.3,91.9l-4.2-4.3l-1.3,4.7C6.7,92.7,6.9,92.9,7,93C7,93,7.2,93.2,7.5,93.1L12.3,91.9z"/></g><text x="0" y="115" fill="#000000" font-size="5px" font-weight="bold" font-family="'Helvetica Neue', Helvetica, Arial-Unicode, Arial, Sans-serif">Created by Anastasia Latysheva</text><text x="0" y="120" fill="#000000" font-size="5px" font-weight="bold" font-family="'Helvetica Neue', Helvetica, Arial-Unicode, Arial, Sans-serif">from the Noun Project</text></svg>