<svg xmlns="http://www.w3.org/2000/svg" xmlns:xlink="http://www.w3.org/1999/xlink" version="1.1" x="0px" y="0px" viewBox="0 0 100 125" style="enable-background:new 0 0 100 100;" xml:space="preserve"><style type="text/css">
	.st0{fill:#FFFFFF;stroke:#000000;stroke-miterlimit:10;}
	.st1{fill-rule:evenodd;clip-rule:evenodd;}
</style><path class="st0" d="M1271.1,845.2"/><path class="st1" d="M10.9,73.8h43.3c1.8,0,3.3,1.5,3.3,3.3v11.1H7.6V77.1C7.6,75.3,9.1,73.8,10.9,73.8L10.9,73.8z M42.6,22.6  c1.7,0,3.2,1.4,3.2,3.2s-1.4,3.2-3.2,3.2c-1.7,0-3.2-1.4-3.2-3.2S40.9,22.6,42.6,22.6L42.6,22.6z M42.6,12.5  c-7.3,0-13.3,5.9-13.3,13.3C29.3,33,35.3,39,42.6,39c7.3,0,13.3-6,13.3-13.3C55.9,18.4,49.9,12.5,42.6,12.5L42.6,12.5z M42.6,19.1  c-3.7,0-6.6,3-6.6,6.6c0,3.7,3,6.6,6.6,6.6c3.7,0,6.6-3,6.6-6.6C49.2,22.1,46.3,19.1,42.6,19.1L42.6,19.1z M30.2,34.9  c2.8,3.8,7.3,6.2,12.4,6.2c2.8,0,5.4-0.7,7.6-2L46,71.4H19.5L30.2,34.9L30.2,34.9z M82.5,31.4c-1.3-4.4-5.9-7-10.3-5.7  c-4.4,1.3-7,5.9-5.7,10.3c0.9,3.1,3.4,5.2,6.3,5.9l3.9,10.4l5.8-1.7l-2.2-10.8C82.4,37.6,83.3,34.5,82.5,31.4L82.5,31.4z M81,51.9  l2.5,10.3l-1.5,0.4l-3.4-10.1L81,51.9L81,51.9z M66.2,38.5l-11.8-3c1.4-1.7,2.5-3.7,3.1-6c0.6-2.3,0.6-4.6,0.2-6.8l11.8,3  c-2,1.3-3.6,3.3-4.2,5.8C64.6,33.9,65,36.4,66.2,38.5z"/><path class="st1" d="M73.4,88.3H93V68.7H73.4V88.3L73.4,88.3z M85.1,64.7l3.3-4l0.7,0.6l-3.7,3.8L85.1,64.7L85.1,64.7z M85.8,65.9  l0.2,0.6l3.9-1.4l-0.3-0.9L85.8,65.9L85.8,65.9z M81.6,66.6l-5-2.6l0.5-0.8l4.8,3L81.6,66.6L81.6,66.6z M81.1,67.9l-3.6-0.2l0.1-0.9  l3.5,0.5L81.1,67.9L81.1,67.9z M86.3,67.2l2.9,0.2L89,68.3l-2.8-0.5L86.3,67.2z"/><text x="0" y="115" fill="#000000" font-size="5px" font-weight="bold" font-family="'Helvetica Neue', Helvetica, Arial-Unicode, Arial, Sans-serif">Created by jipangan</text><text x="0" y="120" fill="#000000" font-size="5px" font-weight="bold" font-family="'Helvetica Neue', Helvetica, Arial-Unicode, Arial, Sans-serif">from the Noun Project</text></svg>