<svg xmlns="http://www.w3.org/2000/svg" data-name="Layer 1" viewBox="0 0 5 6.25" x="0px" y="0px"><title>tools</title><path d="M2.30062,2.23269h0l.50625.50646a.04991.04991,0,0,1,0,.07082l-.00034.00034L2.73505,2.882l-.57742-.57739.07182-.07192a.05057.05057,0,0,1,.07116,0m.05662-.05663a.13065.13065,0,0,0-.18445.00008l-.12838.12853.69065.69062s.07742-.07731.12829-.12861a.13.13,0,0,0,.00012-.18418L2.8634,2.68242l-.50616-.50636Z"/><path d="M2.2274,2.51684l.29545.29563-.7514.67144L1.55567,3.268l.67173-.75119m-.00324-.11652-.77866.87078.32284.323.871-.77832-.41519-.41544Z"/><path d="M1.52976,3.37011l.13948.13951-.43838.39293-.09411-.09421.393-.43823M1.5266,3.25368l-.50009.55762.20129.20151.55785-.5L1.5266,3.25368Z"/><path d="M2.8839,2.48027,2.78725,2.577l-.32464-.3247.09667-.0966.32463.32456m.11324,0-.43784-.43775-.21.20979.43793.438.20987-.21006Z"/><path d="M3.90078,1.28707,2.86749,2.32032l-.14822-.14816L3.75251,1.13894l.14827.14813m.11328,0-.26157-.26133L2.606,2.17217l.26148.2614L4.01405,1.287Z"/><polygon points="4.214 0.741 3.841 1.114 3.926 1.199 4.187 0.938 4.214 0.741 4.214 0.741"/><path d="M1.86525,3.047a.04.04,0,0,1-.00118-.05535l.30109-.32848a.04.04,0,0,1,.059.05411l-.30109.32848a.04.04,0,0,1-.05657.00246Z"/><path d="M.78649,4.20256l.34239-.34239a.04.04,0,1,1,.05662.05662l-.34239.34239Z"/><text x="0" y="20" fill="#000000" font-size="5px" font-weight="bold" font-family="'Helvetica Neue', Helvetica, Arial-Unicode, Arial, Sans-serif">Created by Alice Noir</text><text x="0" y="25" fill="#000000" font-size="5px" font-weight="bold" font-family="'Helvetica Neue', Helvetica, Arial-Unicode, Arial, Sans-serif">from the Noun Project</text></svg>