<svg xmlns:dc="http://purl.org/dc/elements/1.1/" xmlns:cc="http://creativecommons.org/ns#" xmlns:rdf="http://www.w3.org/1999/02/22-rdf-syntax-ns#" xmlns:svg="http://www.w3.org/2000/svg" xmlns="http://www.w3.org/2000/svg" xmlns:sodipodi="http://sodipodi.sourceforge.net/DTD/sodipodi-0.dtd" xmlns:inkscape="http://www.inkscape.org/namespaces/inkscape" version="1.1" x="0px" y="0px" viewBox="0 0 100 125"><g transform="translate(0,-952.36218)"><path style="font-size:medium;font-style:normal;font-variant:normal;font-weight:normal;font-stretch:normal;text-indent:0;text-align:start;text-decoration:none;line-height:normal;letter-spacing:normal;word-spacing:normal;text-transform:none;direction:ltr;block-progression:tb;writing-mode:lr-tb;text-anchor:start;baseline-shift:baseline;opacity:1;color:#000000;fill:#000000;fill-opacity:1;stroke:none;stroke-width:2;marker:none;visibility:visible;display:inline;overflow:visible;enable-background:accumulate;font-family:Sans;-inkscape-font-specification:Sans" d="M 44 7 C 43.471536 7 43.109387 7.4422369 43.03125 7.78125 L 41.09375 16.1875 C 38.005657 16.99938 35.096461 18.24201 32.40625 19.8125 L 25.0625 15.21875 C 24.683642 14.970869 24.134771 15.025756 23.8125 15.34375 L 15.34375 23.8125 C 15.025756 24.134771 14.970869 24.683642 15.21875 25.0625 L 19.8125 32.40625 C 18.242011 35.09646 16.999383 38.00566 16.1875 41.09375 L 7.78125 43.03125 C 7.3443568 43.129217 7.0031861 43.552269 7 44 L 7 56 C 7.00319 56.447731 7.3443568 56.870783 7.78125 56.96875 L 16.1875 58.90625 C 16.842876 61.399055 17.800576 63.765177 18.96875 66 L 11.3125 73.25 C 11.29077 73.27 11.26991 73.2905 11.25 73.3125 C 10.32144 74.3323 10.000002 75.7384 10 77 C 10 78.7149 10.507887 79.8218 11.4375 80.875 L 19.28125 88.6875 C 20.206792 89.6132 21.450093 90 22.5 90 C 23.499293 90 24.729176 89.6459 25.6875 88.6875 L 33.5625 80.8125 C 35.927753 82.07987 38.439266 83.114602 41.09375 83.8125 L 43.03125 92.21875 C 43.129217 92.655643 43.552269 92.996814 44 93 L 50 93 L 56 93 C 56.44773 92.9968 56.87075 92.65565 56.96875 92.21875 L 58.90625 83.8125 C 61.99434 83.0006 64.90354 81.758 67.59375 80.1875 L 74.9375 84.78125 C 75.316358 85.02915 75.86523 84.97425 76.1875 84.65625 L 84.65625 76.1875 C 84.97424 75.8652 85.02913 75.3163 84.78125 74.9375 L 80.1875 67.59375 C 81.75799 64.90355 83.00062 61.99435 83.8125 58.90625 L 92.21875 56.96875 C 92.65564 56.87085 92.997 56.4477 93 56 L 93 44 C 92.99681 43.55227 92.65564 43.12925 92.21875 43.03125 L 83.8125 41.09375 C 83.00062 38.00566 81.75799 35.09646 80.1875 32.40625 L 84.78125 25.0625 C 85.02913 24.68364 84.97424 24.13477 84.65625 23.8125 L 76.1875 15.34375 C 75.86523 15.02576 75.316358 14.97087 74.9375 15.21875 L 67.59375 19.8125 C 64.90354 18.24201 61.99434 16.99938 58.90625 16.1875 L 56.96875 7.78125 C 56.89061 7.44224 56.52846 7 56 7 L 50 7 L 44 7 z M 44.78125 9 L 50 9 L 55.21875 9 L 57.09375 17.1875 C 57.17251 17.54297 57.4607 17.8437 57.8125 17.9375 C 61.12892 18.74445 64.18532 20.16777 67.09375 21.78125 C 67.49153 22.00192 67.739626 22.06019 68.1875 21.78125 L 75.3125 17.34375 L 82.65625 24.6875 L 78.21875 31.8125 C 77.95614 32.23416 78.00854 32.55081 78.28125 33 C 79.99073 35.81578 81.2634 38.90335 82.0625 42.1875 C 82.15631 42.5393 82.45703 42.82745 82.8125 42.90625 L 91 44.78125 L 91 55.21875 L 82.8125 57.09375 C 82.45703 57.17255 82.1563 57.4607 82.0625 57.8125 C 81.26294 61.0985 79.89165 64.1243 78.28125 67 C 78.03897 67.4326 77.90087 67.6771 78.21875 68.1875 L 82.65625 75.3125 L 75.3125 82.65625 L 68.1875 78.21875 C 67.818474 77.98895 67.49945 77.97335 67.09375 78.21875 C 64.24811 79.94055 61.12892 81.2555 57.8125 82.0625 C 57.4607 82.1563 57.17255 82.457 57.09375 82.8125 L 55.21875 91 L 50 91 L 44.78125 91 L 42.90625 82.8125 C 42.82749 82.457026 42.539302 82.156307 42.1875 82.0625 C 39.668012 81.449422 37.285258 80.505071 35.03125 79.34375 L 43.3125 71.09375 C 45.516289 71.74395 47.750079 72 50 72 C 55.630671 72 61.463632 69.9426 65.71875 65.6875 C 69.999983 61.4071 72 55.678 72 50 C 72 47.55716 71.733202 45.02778 70.9375 42.65625 C 70.715821 42.01749 69.756452 41.80028 69.28125 42.28125 L 56.65625 54.90625 L 46.84375 53.125 L 45.0625 43.34375 L 57.71875 30.6875 C 58.196084 30.19532 57.939375 29.2235 57.28125 29.03125 C 54.581981 28.21492 51.743374 28 49 28 C 43.680614 28 38.49043 30.07209 34.28125 34.28125 C 30.032259 38.53023 28.071544 44.39471 28 49.96875 C 27.97098 52.22995 28.262138 54.4371 28.90625 56.625 L 20.5 64.59375 C 19.437198 62.438056 18.519277 60.203471 17.9375 57.8125 C 17.84369 57.460698 17.542974 57.172509 17.1875 57.09375 L 9 55.21875 L 9 44.78125 L 17.1875 42.90625 C 17.542974 42.82749 17.843693 42.539302 17.9375 42.1875 C 18.736602 38.903353 20.00927 35.815777 21.71875 33 C 21.991458 32.550809 22.043866 32.234162 21.78125 31.8125 L 17.34375 24.6875 L 24.6875 17.34375 L 31.8125 21.78125 C 32.260374 22.060189 32.508471 22.001922 32.90625 21.78125 C 35.814681 20.167767 38.871079 18.74445 42.1875 17.9375 C 42.539302 17.84369 42.827491 17.542974 42.90625 17.1875 L 44.78125 9 z M 49 30 C 51.022753 30 53.034091 30.19963 54.96875 30.59375 L 43.28125 42.28125 C 43.066445 42.51154 42.97053 42.84724 43.03125 43.15625 L 45.03125 54.15625 C 45.09762 54.54985 45.421801 54.88695 45.8125 54.96875 L 56.8125 56.96875 C 57.135919 57.03175 57.488026 56.9228 57.71875 56.6875 L 69.4375 44.96875 C 69.797226 46.59261 70 48.2856 70 50 C 70 55.2064 68.150937 60.41165 64.28125 64.28125 C 60.447022 68.11555 55.146875 70 50 70 C 47.669255 70 45.445652 69.74695 43.3125 69.03125 C 42.958751 68.91345 42.5418 69.01425 42.28125 69.28125 L 24.25 87.28125 C 23.773576 87.75775 22.995501 88 22.5 88 C 22.059201 88 21.11202 87.67465 20.71875 87.28125 L 12.71875 79.3125 C 12.303826 78.8656 11.999998 77.6885 12 77 C 12.000002 76.1534 12.334666 75.11245 12.75 74.65625 L 30.6875 57.71875 C 30.965838 57.45295 31.068111 57.01835 30.9375 56.65625 C 30.212755 54.49635 29.970049 52.3337 30 50 C 30.06569 44.88177 31.905057 39.50118 35.71875 35.6875 C 39.58478 31.82148 44.197628 30 49 30 z " transform="translate(0,952.36218)"/></g><text x="0" y="115" fill="#000000" font-size="5px" font-weight="bold" font-family="'Helvetica Neue', Helvetica, Arial-Unicode, Arial, Sans-serif">Created by throwaway icons</text><text x="0" y="120" fill="#000000" font-size="5px" font-weight="bold" font-family="'Helvetica Neue', Helvetica, Arial-Unicode, Arial, Sans-serif">from the Noun Project</text></svg>