<svg xmlns:rdf="http://www.w3.org/1999/02/22-rdf-syntax-ns#" xmlns:dc="http://purl.org/dc/elements/1.1/" xmlns:sodipodi="http://sodipodi.sourceforge.net/DTD/sodipodi-0.dtd" xmlns:svg="http://www.w3.org/2000/svg" xmlns:cc="http://creativecommons.org/ns#" xmlns:inkscape="http://www.inkscape.org/namespaces/inkscape" xmlns="http://www.w3.org/2000/svg" xmlns:xlink="http://www.w3.org/1999/xlink" version="1.1" x="0px" y="0px" viewBox="0 0 800 1000" enable-background="new 0 0 800 800" xml:space="preserve"><g><path fill="#000000" d="M481.898,87.334V31.611c0-6.47-5.259-11.721-11.729-11.721c-6.471,0-11.712,5.251-11.712,11.721v53.318   c-6.851-0.433-13.736-0.744-20.69-0.744c-170.199,0-309.297,135.371-315.5,304.085H58.147c-6.479,0-11.721,5.25-11.721,11.721   c0,6.47,5.242,11.721,11.721,11.721h64.121c6.202,168.715,145.3,304.085,315.5,304.085c6.954,0,13.84-0.311,20.69-0.743v53.335   c0,6.47,5.241,11.721,11.712,11.721c6.47,0,11.729-5.251,11.729-11.721v-55.74c153.311-21.529,271.675-153.5,271.675-312.657   C753.573,240.843,635.209,108.88,481.898,87.334z M437.768,107.626c6.972,0,13.84,0.337,20.69,0.83v77.52L272.724,371.698v-76.05   c0-6.47-5.242-11.72-11.72-11.72c-6.47,0-11.721,5.25-11.721,11.72v92.623H145.709   C151.894,232.479,280.491,107.626,437.768,107.626z M458.458,691.543c-6.851,0.493-13.719,0.813-20.69,0.813   c-157.276,0-285.874-124.853-292.058-280.645h103.573v92.631c0,6.479,5.25,11.729,11.721,11.729c6.479,0,11.72-5.25,11.72-11.729   v-76.058l143.35,143.337h-54.022c-6.47,0-11.721,5.25-11.721,11.72c0,6.471,5.25,11.721,11.721,11.721h77.464l18.943,18.943   V691.543z M481.898,689.035v-79.891c0-3.097-1.245-6.089-3.442-8.286l-22.368-22.369v-77.45c0-6.471-5.242-11.721-11.729-11.721   c-6.47,0-11.712,5.25-11.712,11.721v54.01L277.585,399.991l200.871-200.867c2.197-2.197,3.442-5.19,3.442-8.287v-79.873   c140.353,21.339,248.233,142.826,248.233,289.026C730.132,546.208,622.251,667.687,481.898,689.035z"/></g><text x="0" y="815" fill="#000000" font-size="5px" font-weight="bold" font-family="'Helvetica Neue', Helvetica, Arial-Unicode, Arial, Sans-serif">Created by abderraouf omara</text><text x="0" y="820" fill="#000000" font-size="5px" font-weight="bold" font-family="'Helvetica Neue', Helvetica, Arial-Unicode, Arial, Sans-serif">from the Noun Project</text></svg>