<svg xmlns:rdf="http://www.w3.org/1999/02/22-rdf-syntax-ns#" xmlns:dc="http://purl.org/dc/elements/1.1/" xmlns:sodipodi="http://sodipodi.sourceforge.net/DTD/sodipodi-0.dtd" xmlns:svg="http://www.w3.org/2000/svg" xmlns:cc="http://creativecommons.org/ns#" xmlns:inkscape="http://www.inkscape.org/namespaces/inkscape" xmlns="http://www.w3.org/2000/svg" xmlns:xlink="http://www.w3.org/1999/xlink" version="1.1" x="0px" y="0px" viewBox="0 0 800 1000" enable-background="new 0 0 800 800" xml:space="preserve"><g><path fill="#000000" d="M411.528,203.402V38.117c0-8.49-6.881-15.38-15.375-15.38c-8.499,0-15.38,6.89-15.38,15.38v165.898   c-92.814,9.64-165.396,88.31-165.396,183.62c0,95.318,72.581,173.972,165.396,183.62v190.62c0,8.507,6.881,15.388,15.38,15.388   c8.494,0,15.375-6.881,15.375-15.388V571.868c96.451-5.979,173.095-86.301,173.095-184.233S507.979,209.38,411.528,203.402z    M400.002,541.483c-84.853,0-153.857-69.005-153.857-153.849c0-84.835,69.004-153.856,153.857-153.856   c84.814,0,153.844,69.021,153.844,153.856C553.847,472.479,484.816,541.483,400.002,541.483z"/><path fill="#000000" d="M493.741,308.505c-7.528-3.985-16.827-1.107-20.796,6.404l-72.943,137.787l-72.947-137.787   c-3.985-7.511-13.31-10.389-20.796-6.404c-7.511,3.985-10.381,13.302-6.404,20.796l86.547,163.471c0,0.017,0,0.017,0,0.017   c0.605,1.133,1.388,2.146,2.24,3.1c0.239,0.265,0.477,0.494,0.732,0.732c0.698,0.665,1.448,1.252,2.257,1.789   c0.272,0.161,0.528,0.374,0.809,0.545c0.119,0.06,0.23,0.161,0.366,0.221c0.673,0.358,1.396,0.554,2.104,0.81   c0.409,0.136,0.8,0.349,1.201,0.451c1.294,0.35,2.58,0.528,3.875,0.528c0,0,0,0,0.017,0c0,0,0,0,0.017,0   c1.294,0,2.58-0.179,3.857-0.528c0.418-0.103,0.788-0.298,1.196-0.451c0.716-0.256,1.431-0.435,2.129-0.81   c0.12-0.06,0.222-0.161,0.341-0.221c0.272-0.171,0.528-0.384,0.817-0.545c0.818-0.537,1.567-1.124,2.249-1.789   c0.238-0.238,0.493-0.468,0.732-0.732c0.868-0.953,1.651-1.967,2.23-3.1c0,0,0.018,0,0.018-0.017l86.538-163.471   C504.097,321.807,501.252,312.491,493.741,308.505z"/></g><text x="0" y="815" fill="#000000" font-size="5px" font-weight="bold" font-family="'Helvetica Neue', Helvetica, Arial-Unicode, Arial, Sans-serif">Created by abderraouf omara</text><text x="0" y="820" fill="#000000" font-size="5px" font-weight="bold" font-family="'Helvetica Neue', Helvetica, Arial-Unicode, Arial, Sans-serif">from the Noun Project</text></svg>