<svg xmlns="http://www.w3.org/2000/svg" xmlns:xlink="http://www.w3.org/1999/xlink" version="1.1" x="0px" y="0px" viewBox="0 0 100 125" enable-background="new 0 0 100 100" xml:space="preserve"><path fill-rule="evenodd" clip-rule="evenodd" d="M90.735,35.343c0.003-1.401-0.156-2.777-0.597-4.105  c-1.283-3.876-3.44-7.092-7.057-9.181c-8.4-4.852-16.809-9.691-25.19-14.576c-2.278-1.329-4.706-1.996-7.315-2.066  C47.701,5.34,44.968,5.86,42.438,7.33c-8.461,4.909-16.972,9.736-25.395,14.711C12.022,25.009,9.38,29.57,9.318,35.4  c-0.103,9.745-0.024,19.489-0.032,29.235c-0.001,1.5,0.185,2.968,0.682,4.383c1.325,3.767,3.466,6.892,7.009,8.931  c8.335,4.802,16.673,9.6,24.98,14.448c2.182,1.274,4.482,2.028,6.989,2.164c3.063,0.168,5.977-0.329,8.675-1.896  c8.403-4.877,16.81-9.75,25.242-14.581c2.352-1.349,4.167-3.184,5.548-5.479c1.332-2.214,2.271-4.58,2.294-7.196  c0.043-5.134,0.013-10.269,0.013-15.402h0.013C90.73,45.119,90.726,40.229,90.735,35.343z M54.561,60.43l-8.627,8.626  c-2.002,2.002-4.663,3.105-7.495,3.105c-2.831,0-5.493-1.103-7.495-3.104c-4.133-4.133-4.133-10.857,0-14.991l8.627-8.626  c0.977-0.977,2.559-0.977,3.535,0c0.977,0.976,0.977,2.559,0,3.535l-8.627,8.626c-2.183,2.184-2.183,5.736,0,7.92  c1.059,1.058,2.465,1.64,3.96,1.64c1.496,0,2.902-0.583,3.96-1.64l8.627-8.626c0.977-0.977,2.559-0.977,3.535,0  C55.537,57.871,55.537,59.454,54.561,60.43z M57.566,38.898c0.977-0.977,2.559-0.977,3.535,0c0.977,0.976,0.977,2.559,0,3.535  L42.434,61.102c-0.488,0.488-1.128,0.732-1.768,0.732s-1.279-0.244-1.768-0.732c-0.977-0.976-0.977-2.559,0-3.535L57.566,38.898z   M69.057,45.934l-8.627,8.626c-0.488,0.488-1.128,0.732-1.768,0.732s-1.279-0.244-1.768-0.732c-0.977-0.976-0.977-2.559,0-3.535  l8.627-8.626c2.183-2.184,2.183-5.736,0-7.92c-1.059-1.058-2.465-1.64-3.96-1.64c-1.496,0-2.902,0.583-3.96,1.64l-8.627,8.626  c-0.977,0.977-2.559,0.977-3.535,0c-0.977-0.976-0.977-2.559,0-3.535l8.627-8.626c2.002-2.002,4.663-3.105,7.495-3.105  c2.831,0,5.493,1.103,7.495,3.104C73.189,35.076,73.189,41.801,69.057,45.934z"/><text x="0" y="115" fill="#000000" font-size="5px" font-weight="bold" font-family="'Helvetica Neue', Helvetica, Arial-Unicode, Arial, Sans-serif">Created by IconDots</text><text x="0" y="120" fill="#000000" font-size="5px" font-weight="bold" font-family="'Helvetica Neue', Helvetica, Arial-Unicode, Arial, Sans-serif">from the Noun Project</text></svg>