<svg xmlns="http://www.w3.org/2000/svg" xmlns:xlink="http://www.w3.org/1999/xlink" version="1.1" x="0px" y="0px" viewBox="0 0 100 125" enable-background="new 0 0 100 100" xml:space="preserve"><path d="M30.792,67.822h-2.279c-0.191-0.001-0.374,0.075-0.509,0.21l-1.611,1.612c-0.135,0.134-0.211,0.316-0.211,0.508v2.279  c0,0.189,0.076,0.373,0.21,0.507l1.612,1.612c0.134,0.135,0.318,0.211,0.508,0.211h2.28c0.19,0,0.374-0.076,0.507-0.21l1.613-1.612  c0.135-0.135,0.21-0.317,0.21-0.508l-0.001-2.28c0-0.19-0.076-0.374-0.21-0.509l-1.612-1.611  C31.166,67.897,30.981,67.821,30.792,67.822z M31.685,72.134l-1.19,1.19H28.81l-1.191-1.191l0.001-1.684l1.191-1.191h1.684  l1.191,1.191L31.685,72.134z"/><path d="M54.955,44.26L39.813,59.402c-0.414,0.414-0.414,1.087-0.001,1.5c0.414,0.414,1.087,0.413,1.501,0L56.455,45.76  c0.412-0.414,0.413-1.086-0.001-1.5C56.041,43.847,55.368,43.847,54.955,44.26z M56.019,45.324L40.876,60.467  c-0.174,0.174-0.454,0.174-0.629,0c-0.173-0.174-0.173-0.455,0.001-0.629l15.143-15.143c0.172-0.173,0.455-0.173,0.629,0  C56.193,44.869,56.192,45.15,56.019,45.324z"/><path d="M76.33,29.819c-0.09-0.224-0.286-0.39-0.523-0.438c-0.236-0.049-0.481,0.024-0.652,0.195l-5.25,5.25  c-0.92,0.921-2.418,0.921-3.338,0l-0.581-0.581c-0.919-0.919-0.92-2.417,0.001-3.338l5.249-5.249  c0.171-0.171,0.243-0.417,0.194-0.653c-0.049-0.238-0.213-0.434-0.438-0.523c-3.546-1.41-7.582-0.579-10.279,2.12  c-2.383,2.383-3.266,5.724-2.567,8.831c-0.091,1.538-1.489,3.343-2.213,4.079L33.02,62.424c-0.78,0.769-2.67,2.221-4.233,2.221  c-0.097,0-0.19,0.02-0.277,0.057c-1.369,0.226-2.61,0.863-3.598,1.85c-2.583,2.584-2.584,6.788,0.001,9.373  c2.583,2.583,6.787,2.583,9.371,0c0.988-0.988,1.625-2.229,1.852-3.6c0.035-0.086,0.055-0.18,0.055-0.275  c0-1.555,1.523-3.771,2.297-4.555l22.508-22.509c0.754-0.742,2.804-2.15,4.34-2.276c0.228,0.008,0.522,0.014,0.666,0.059h0.008  c3.003,0.461,6.045-0.513,8.202-2.669C76.908,37.401,77.74,33.366,76.33,29.819z M73.194,39.083  c-1.907,1.908-4.63,2.739-7.282,2.226c-0.024-0.005-0.257-0.062-0.359-0.062c-2.337,0-4.986,2.141-5.57,2.718L37.467,66.481  c-0.307,0.312-1.061,1.226-1.697,2.358c-0.328-0.846-0.825-1.628-1.485-2.288c-0.231-0.231-0.479-0.446-0.737-0.636  c-0.318-0.238-0.768-0.171-1.005,0.147c-0.236,0.317-0.17,0.768,0.148,1.005c0.202,0.15,0.395,0.317,0.577,0.5  c1.096,1.096,1.643,2.611,1.497,4.156c-0.001,0.014,0.006,0.025,0.005,0.039c-0.002,0.027-0.01,0.055-0.012,0.082  c-0.008,0.029-0.014,0.059-0.018,0.09c-0.154,1.134-0.662,2.161-1.473,2.972c-2.023,2.023-5.316,2.024-7.34,0.001  c-2.024-2.025-2.024-5.318-0.001-7.342c0.811-0.811,1.839-1.318,2.972-1.472c0.031-0.004,0.063-0.011,0.091-0.019  c2.423-0.122,4.772-2.366,5.042-2.633l22.922-22.92c0.175-0.178,1.281-1.352,2.004-2.85c0.212,0.415,0.448,0.822,0.727,1.212  c0.024,0.033,0.051,0.063,0.078,0.091c0.243,0.244,0.635,0.284,0.925,0.076c0.322-0.23,0.397-0.679,0.167-1.002  c-2.307-3.232-1.938-7.621,0.875-10.433c2.023-2.023,4.932-2.811,7.658-2.143l-4.417,4.417c-1.48,1.48-1.48,3.89,0,5.37l0.581,0.581  c1.48,1.48,3.889,1.48,5.369,0l4.418-4.417C76.005,34.151,75.218,37.06,73.194,39.083z"/><text x="0" y="115" fill="#000000" font-size="5px" font-weight="bold" font-family="'Helvetica Neue', Helvetica, Arial-Unicode, Arial, Sans-serif">Created by Gregory Sujkowski</text><text x="0" y="120" fill="#000000" font-size="5px" font-weight="bold" font-family="'Helvetica Neue', Helvetica, Arial-Unicode, Arial, Sans-serif">from the Noun Project</text></svg>