%
M48
METRIC,000.000
T01C0.50
%
T01
X049034Y081685
X049034Y082685
X049034Y083685
X049034Y084685
X049034Y085685
X049034Y086685
X051273Y086240
X051273Y085240
X051273Y084240
X051273Y083240
X051273Y082240
X049034Y033685
X049034Y034685
X049034Y035685
X049034Y036685
X049034Y037685
X049034Y038685
X051273Y038240
X051273Y037240
X051273Y036240
X051273Y035240
X051273Y034240
M30