%MOIN*%
%OFA0B0*%
%FSLAX44Y44*%
%IPPOS*%
%LPD*%
%ADD10C,0*%
D10*
X00019206Y00038186D02*
X00019206Y00038186D01*
X00019196Y00038328D01*
X00019165Y00038468D01*
X00019115Y00038602D01*
X00019047Y00038727D01*
X00018961Y00038841D01*
X00018861Y00038942D01*
X00018746Y00039027D01*
X00018621Y00039096D01*
X00018487Y00039146D01*
X00018348Y00039176D01*
X00018206Y00039186D01*
X00001206Y00039186D01*
X00001063Y00039176D01*
X00000924Y00039146D01*
X00000790Y00039096D01*
X00000665Y00039027D01*
X00000551Y00038942D01*
X00000450Y00038841D01*
X00000364Y00038727D01*
X00000296Y00038602D01*
X00000246Y00038468D01*
X00000216Y00038328D01*
X00000206Y00038186D01*
X00000206Y00008686D01*
X00000216Y00008544D01*
X00000246Y00008404D01*
X00000296Y00008271D01*
X00000364Y00008146D01*
X00000450Y00008031D01*
X00000551Y00007930D01*
X00000665Y00007845D01*
X00000790Y00007777D01*
X00000924Y00007727D01*
X00001063Y00007696D01*
X00001206Y00007686D01*
X00018206Y00007686D01*
X00018348Y00007696D01*
X00018487Y00007727D01*
X00018621Y00007777D01*
X00018746Y00007845D01*
X00018861Y00007930D01*
X00018961Y00008031D01*
X00019047Y00008146D01*
X00019115Y00008271D01*
X00019165Y00008404D01*
X00019196Y00008544D01*
X00019206Y00008686D01*
X00019206Y00013173D01*
X00019207Y00013203D01*
X00019210Y00013232D01*
X00019216Y00013262D01*
X00019224Y00013290D01*
X00019234Y00013318D01*
X00019246Y00013346D01*
X00019260Y00013372D01*
X00019276Y00013397D01*
X00019293Y00013421D01*
X00019313Y00013443D01*
X00019334Y00013464D01*
X00019357Y00013483D01*
X00019381Y00013501D01*
X00019407Y00013516D01*
X00019433Y00013530D01*
X00019460Y00013541D01*
X00019489Y00013551D01*
X00019517Y00013558D01*
X00019547Y00013563D01*
X00019576Y00013566D01*
X00019868Y00013583D01*
X00019900Y00013584D01*
X00019932Y00013582D01*
X00019964Y00013577D01*
X00019995Y00013570D01*
X00020025Y00013560D01*
X00020055Y00013548D01*
X00020084Y00013533D01*
X00020111Y00013517D01*
X00020137Y00013498D01*
X00020161Y00013477D01*
X00020183Y00013454D01*
X00020204Y00013429D01*
X00020222Y00013403D01*
X00020238Y00013375D01*
X00020252Y00013346D01*
X00020264Y00013316D01*
X00020273Y00013285D01*
X00020279Y00013254D01*
X00020283Y00013222D01*
X00020285Y00013190D01*
X00020285Y00008686D01*
X00020295Y00008544D01*
X00020325Y00008404D01*
X00020375Y00008271D01*
X00020443Y00008146D01*
X00020529Y00008031D01*
X00020630Y00007930D01*
X00020744Y00007845D01*
X00020869Y00007777D01*
X00021003Y00007727D01*
X00021142Y00007696D01*
X00021285Y00007686D01*
X00038285Y00007686D01*
X00038427Y00007696D01*
X00038566Y00007727D01*
X00038700Y00007777D01*
X00038825Y00007845D01*
X00038939Y00007930D01*
X00039040Y00008031D01*
X00039126Y00008146D01*
X00039194Y00008271D01*
X00039244Y00008404D01*
X00039274Y00008544D01*
X00039285Y00008686D01*
X00039285Y00038186D01*
X00039274Y00038328D01*
X00039244Y00038468D01*
X00039194Y00038602D01*
X00039126Y00038727D01*
X00039040Y00038841D01*
X00038939Y00038942D01*
X00038825Y00039027D01*
X00038700Y00039096D01*
X00038566Y00039146D01*
X00038427Y00039176D01*
X00038285Y00039186D01*
X00021285Y00039186D01*
X00021142Y00039176D01*
X00021003Y00039146D01*
X00020869Y00039096D01*
X00020744Y00039027D01*
X00020630Y00038942D01*
X00020529Y00038841D01*
X00020443Y00038727D01*
X00020375Y00038602D01*
X00020325Y00038468D01*
X00020295Y00038328D01*
X00020285Y00038186D01*
X00020285Y00034088D01*
X00020283Y00034053D01*
X00020278Y00034018D01*
X00020271Y00033984D01*
X00020260Y00033950D01*
X00020246Y00033918D01*
X00020230Y00033887D01*
X00020210Y00033858D01*
X00020189Y00033830D01*
X00020165Y00033805D01*
X00020138Y00033782D01*
X00020110Y00033761D01*
X00020080Y00033743D01*
X00020049Y00033727D01*
X00020016Y00033714D01*
X00019982Y00033705D01*
X00019948Y00033698D01*
X00019913Y00033695D01*
X00019878Y00033694D01*
X00019843Y00033697D01*
X00019808Y00033703D01*
X00019517Y00033765D01*
X00019491Y00033772D01*
X00019466Y00033780D01*
X00019441Y00033790D01*
X00019417Y00033801D01*
X00019393Y00033815D01*
X00019371Y00033829D01*
X00019350Y00033846D01*
X00019330Y00033863D01*
X00019311Y00033882D01*
X00019293Y00033903D01*
X00019277Y00033924D01*
X00019263Y00033946D01*
X00019250Y00033970D01*
X00019238Y00033994D01*
X00019228Y00034019D01*
X00019220Y00034044D01*
X00019214Y00034070D01*
X00019209Y00034097D01*
X00019207Y00034123D01*
X00019206Y00034150D01*
X00019206Y00038186D01*
X00019206Y00031991D02*
X00019206Y00031991D01*
X00019207Y00032017D01*
X00019209Y00032044D01*
X00019214Y00032070D01*
X00019220Y00032096D01*
X00019228Y00032122D01*
X00019238Y00032147D01*
X00019250Y00032171D01*
X00019263Y00032194D01*
X00019277Y00032217D01*
X00019293Y00032238D01*
X00019311Y00032258D01*
X00019330Y00032277D01*
X00019350Y00032295D01*
X00019371Y00032311D01*
X00019393Y00032326D01*
X00019417Y00032339D01*
X00019441Y00032351D01*
X00019466Y00032361D01*
X00019491Y00032369D01*
X00019517Y00032376D01*
X00019808Y00032438D01*
X00019843Y00032444D01*
X00019878Y00032447D01*
X00019913Y00032446D01*
X00019948Y00032443D01*
X00019982Y00032436D01*
X00020016Y00032426D01*
X00020049Y00032414D01*
X00020080Y00032398D01*
X00020110Y00032380D01*
X00020138Y00032359D01*
X00020165Y00032336D01*
X00020189Y00032310D01*
X00020210Y00032283D01*
X00020230Y00032254D01*
X00020246Y00032223D01*
X00020260Y00032190D01*
X00020271Y00032157D01*
X00020278Y00032123D01*
X00020283Y00032088D01*
X00020285Y00032053D01*
X00020285Y00015274D01*
X00020283Y00015242D01*
X00020279Y00015210D01*
X00020273Y00015179D01*
X00020264Y00015148D01*
X00020252Y00015118D01*
X00020238Y00015089D01*
X00020222Y00015062D01*
X00020204Y00015035D01*
X00020183Y00015011D01*
X00020161Y00014988D01*
X00020137Y00014967D01*
X00020111Y00014948D01*
X00020084Y00014931D01*
X00020055Y00014916D01*
X00020025Y00014904D01*
X00019995Y00014894D01*
X00019964Y00014887D01*
X00019932Y00014883D01*
X00019900Y00014881D01*
X00019868Y00014881D01*
X00019576Y00014898D01*
X00019547Y00014901D01*
X00019517Y00014906D01*
X00019489Y00014914D01*
X00019460Y00014923D01*
X00019433Y00014935D01*
X00019407Y00014948D01*
X00019381Y00014964D01*
X00019357Y00014981D01*
X00019334Y00015000D01*
X00019313Y00015021D01*
X00019293Y00015044D01*
X00019276Y00015067D01*
X00019260Y00015093D01*
X00019246Y00015119D01*
X00019234Y00015146D01*
X00019224Y00015174D01*
X00019216Y00015203D01*
X00019210Y00015232D01*
X00019207Y00015262D01*
X00019206Y00015291D01*
X00019206Y00031991D01*
M02*