%MOIN*%
%OFA0B0*%
%FSLAX25Y25*%
%IPPOS*%
%LPD*%
%AMOC8*
5,1,8,0,0,$1,22.5*%
%AMOC80*
5,1,8,0,0,$1,22.5*%
%ADD10R,0.0011X0.00107*%
%ADD11R,0.0021X0.00107*%
%ADD12R,0.0074X0.00107*%
%ADD13R,0.0032000000000000006X0.00107*%
%ADD14R,0.0054X0.00107*%
%ADD15R,0.0022X0.00107*%
%ADD16R,0.001X0.00107*%
%ADD17R,0.0031X0.00107*%
%ADD18R,0.0042X0.00107*%
%ADD19R,0.0309X0.00106*%
%ADD20R,0.013800000000000002X0.00106*%
%ADD21R,0.0127X0.00106*%
%ADD22R,0.013900000000000001X0.00106*%
%ADD23R,0.012800000000000002X0.00106*%
%ADD24R,0.0404X0.00106*%
%ADD25R,0.016X0.00106*%
%ADD26R,0.0171X0.00106*%
%ADD27R,0.017X0.00106*%
%ADD28R,0.0181X0.00106*%
%ADD29R,0.0479X0.00107*%
%ADD30R,0.0191X0.00107*%
%ADD31R,0.0202X0.00107*%
%ADD32R,0.0203X0.00107*%
%ADD33R,0.0192X0.00107*%
%ADD34R,0.0543X0.00106*%
%ADD35R,0.022399999999999996X0.00106*%
%ADD36R,0.022299999999999997X0.00106*%
%ADD37R,0.0596X0.00107*%
%ADD38R,0.0244X0.00107*%
%ADD39R,0.0245X0.00107*%
%ADD40R,0.0234X0.00107*%
%ADD41R,0.025600000000000005X0.00107*%
%ADD42R,0.0255X0.00107*%
%ADD43R,0.0234X0.00107*%
%ADD44R,0.0638X0.00106*%
%ADD45R,0.0266X0.00106*%
%ADD46R,0.0255X0.00106*%
%ADD47R,0.025600000000000005X0.00106*%
%ADD48R,0.027700000000000002X0.00106*%
%ADD49R,0.0702X0.00106*%
%ADD50R,0.027700000000000002X0.00106*%
%ADD51R,0.027700000000000002X0.00106*%
%ADD52R,0.027600000000000003X0.00106*%
%ADD53R,0.0266X0.00106*%
%ADD54R,0.0288X0.00106*%
%ADD55R,0.0734X0.00107*%
%ADD56R,0.0288X0.00107*%
%ADD57R,0.027700000000000002X0.00107*%
%ADD58R,0.0287X0.00107*%
%ADD59R,0.0287X0.00107*%
%ADD60R,0.0308X0.00107*%
%ADD61R,0.0777X0.00106*%
%ADD62R,0.0298X0.00106*%
%ADD63R,0.0309X0.00106*%
%ADD64R,0.033X0.00106*%
%ADD65R,0.080899999999999986X0.00106*%
%ADD66R,0.0298X0.00106*%
%ADD67R,0.0308X0.00106*%
%ADD68R,0.0351X0.00106*%
%ADD69R,0.0841X0.00107*%
%ADD70R,0.0298X0.00107*%
%ADD71R,0.0309X0.00107*%
%ADD72R,0.0319X0.00107*%
%ADD73R,0.0362X0.00107*%
%ADD74R,0.0872X0.00106*%
%ADD75R,0.0308X0.00106*%
%ADD76R,0.0319X0.00106*%
%ADD77R,0.0372X0.00106*%
%ADD78R,0.09039999999999998X0.00107*%
%ADD79R,0.0394X0.00107*%
%ADD80R,0.033X0.00107*%
%ADD81R,0.0936X0.00106*%
%ADD82R,0.0319X0.00106*%
%ADD83R,0.0404X0.00106*%
%ADD84R,0.0329X0.00106*%
%ADD85R,0.09569999999999998X0.00106*%
%ADD86R,0.0329X0.00106*%
%ADD87R,0.0426X0.00106*%
%ADD88R,0.0989X0.00107*%
%ADD89R,0.0329X0.00107*%
%ADD90R,0.0426X0.00107*%
%ADD91R,0.10210000000000001X0.00106*%
%ADD92R,0.0458X0.00106*%
%ADD93R,0.10320000000000001X0.00106*%
%ADD94R,0.033X0.00106*%
%ADD95R,0.0458X0.00106*%
%ADD96R,0.1064X0.00107*%
%ADD97R,0.0468X0.00107*%
%ADD98R,0.10850000000000001X0.00106*%
%ADD99R,0.0479X0.00106*%
%ADD100R,0.1117X0.00107*%
%ADD101R,0.047800000000000009X0.00107*%
%ADD102R,0.1128X0.00106*%
%ADD103R,0.05X0.00106*%
%ADD104R,0.1149X0.00106*%
%ADD105R,0.05X0.00106*%
%ADD106R,0.117X0.00107*%
%ADD107R,0.05X0.00107*%
%ADD108R,0.1191X0.00106*%
%ADD109R,0.051X0.00106*%
%ADD110R,0.1202X0.00107*%
%ADD111R,0.0521X0.00107*%
%ADD112R,0.1223X0.00106*%
%ADD113R,0.0522X0.00106*%
%ADD114R,0.1234X0.00106*%
%ADD115R,0.051X0.00106*%
%ADD116R,0.1266X0.00107*%
%ADD117R,0.0596X0.00106*%
%ADD118R,0.001X0.00106*%
%ADD119R,0.0021X0.00106*%
%ADD120R,0.0585X0.00106*%
%ADD121R,0.0521X0.00106*%
%ADD122R,0.0532X0.00106*%
%ADD123R,0.0011X0.00106*%
%ADD124R,0.0522X0.00106*%
%ADD125R,0.0511X0.00107*%
%ADD126R,0.0479X0.00106*%
%ADD127R,0.047800000000000009X0.00106*%
%ADD128R,0.0511X0.00106*%
%ADD129R,0.04689999999999999X0.00107*%
%ADD130R,0.0457X0.00106*%
%ADD131R,0.0447X0.00106*%
%ADD132R,0.0436X0.00106*%
%ADD133R,0.0511X0.00106*%
%ADD134R,0.051X0.00107*%
%ADD135R,0.0415X0.00106*%
%ADD136R,0.04250000000000001X0.00106*%
%ADD137R,0.0522X0.00106*%
%ADD138R,0.041399999999999992X0.00107*%
%ADD139R,0.0415X0.00107*%
%ADD140R,0.0415X0.00106*%
%ADD141R,0.0394X0.00106*%
%ADD142R,0.0393X0.00107*%
%ADD143R,0.0522X0.00107*%
%ADD144R,0.0383X0.00106*%
%ADD145R,0.0394X0.00106*%
%ADD146R,0.0521X0.00106*%
%ADD147R,0.0383X0.00106*%
%ADD148R,0.0372X0.00107*%
%ADD149R,0.0372X0.00106*%
%ADD150R,0.0373X0.00106*%
%ADD151R,0.0362X0.00107*%
%ADD152R,0.0362X0.00106*%
%ADD153R,0.0361X0.00106*%
%ADD154R,0.0362X0.00106*%
%ADD155R,0.0361X0.00106*%
%ADD156R,0.0351X0.00107*%
%ADD157R,0.0351X0.00106*%
%ADD158R,0.034X0.00106*%
%ADD159R,0.034X0.00106*%
%ADD160R,0.085099999999999981X0.00106*%
%ADD161R,0.034X0.00107*%
%ADD162R,0.0341X0.00107*%
%ADD163R,0.0829X0.00107*%
%ADD164R,0.0341X0.00106*%
%ADD165R,0.0819X0.00106*%
%ADD166R,0.0341X0.00106*%
%ADD167R,0.0797X0.00106*%
%ADD168R,0.0798X0.00107*%
%ADD169R,0.0787X0.00106*%
%ADD170R,0.0777X0.00107*%
%ADD171R,0.0744X0.00106*%
%ADD172R,0.0745X0.00106*%
%ADD173R,0.0723X0.00107*%
%ADD174R,0.0713X0.00106*%
%ADD175R,0.032X0.00106*%
%ADD176R,0.0691X0.00106*%
%ADD177R,0.032X0.00107*%
%ADD178R,0.0691X0.00107*%
%ADD179R,0.032X0.00106*%
%ADD180R,0.0681X0.00106*%
%ADD181R,0.067X0.00107*%
%ADD182R,0.0319X0.00106*%
%ADD183R,0.0638X0.00106*%
%ADD184R,0.0319X0.00107*%
%ADD185R,0.0617X0.00107*%
%ADD186R,0.0606X0.00106*%
%ADD187R,0.0585X0.00107*%
%ADD188R,0.0574X0.00106*%
%ADD189R,0.0617X0.00106*%
%ADD190R,0.0628X0.00106*%
%ADD191R,0.0627X0.00107*%
%ADD192R,0.0649X0.00106*%
%ADD193R,0.0659X0.00107*%
%ADD194R,0.068X0.00106*%
%ADD195R,0.0702X0.00107*%
%ADD196R,0.0713X0.00106*%
%ADD197R,0.0734X0.00106*%
%ADD198R,0.0755X0.00106*%
%ADD199R,0.0373X0.00107*%
%ADD200R,0.0766X0.00107*%
%ADD201R,0.0776X0.00106*%
%ADD202R,0.0362X0.00106*%
%ADD203R,0.0798X0.00106*%
%ADD204R,0.0404X0.00107*%
%ADD205R,0.0808X0.00107*%
%ADD206R,0.0404X0.00106*%
%ADD207R,0.0808X0.00106*%
%ADD208R,0.084X0.00107*%
%ADD209R,0.0426X0.00106*%
%ADD210R,0.0447X0.00106*%
%ADD211R,0.0457X0.00107*%
%ADD212R,0.0468X0.00106*%
%ADD213R,0.0361X0.00107*%
%ADD214R,0.0405X0.00106*%
%ADD215R,0.0372X0.00106*%
%ADD216R,0.0362X0.00106*%
%ADD217R,0.04250000000000001X0.00106*%
%ADD218R,0.0532X0.00107*%
%ADD219R,0.0372X0.00107*%
%ADD220R,0.0382X0.00106*%
%ADD221R,0.0447X0.00106*%
%ADD222R,0.0372X0.00106*%
%ADD223R,0.0382X0.00106*%
%ADD224R,0.0458X0.00107*%
%ADD225R,0.0383X0.00107*%
%ADD226R,0.0382X0.00107*%
%ADD227R,0.0393X0.00106*%
%ADD228R,0.0394X0.00106*%
%ADD229R,0.060700000000000004X0.00106*%
%ADD230R,0.0489X0.00107*%
%ADD231R,0.0404X0.00107*%
%ADD232R,0.0394X0.00107*%
%ADD233R,0.0638X0.00107*%
%ADD234R,0.049X0.00106*%
%ADD235R,0.0404X0.00106*%
%ADD236R,0.066X0.00106*%
%ADD237R,0.0405X0.00106*%
%ADD238R,0.04250000000000001X0.00107*%
%ADD239R,0.041399999999999992X0.00107*%
%ADD240R,0.0713X0.00107*%
%ADD241R,0.0744X0.00106*%
%ADD242R,0.0543X0.00106*%
%ADD243R,0.0447X0.00106*%
%ADD244R,0.0436X0.00106*%
%ADD245R,0.0777X0.00106*%
%ADD246R,0.0574X0.00107*%
%ADD247R,0.0447X0.00107*%
%ADD248R,0.044599999999999994X0.00107*%
%ADD249R,0.0586X0.00106*%
%ADD250R,0.0457X0.00106*%
%ADD251R,0.0617X0.00107*%
%ADD252R,0.0894X0.00107*%
%ADD253R,0.0479X0.00107*%
%ADD254R,0.049X0.00107*%
%ADD255R,0.0649X0.00106*%
%ADD256R,0.0958X0.00106*%
%ADD257R,0.0681X0.00106*%
%ADD258R,0.0532X0.00106*%
%ADD259R,0.0532X0.00106*%
%ADD260R,0.10210000000000001X0.00106*%
%ADD261R,0.0011X0.00106*%
%ADD262R,0.053100000000000008X0.00106*%
%ADD263R,0.0745X0.00107*%
%ADD264R,0.0574X0.00107*%
%ADD265R,0.116X0.00107*%
%ADD266R,0.0564X0.00107*%
%ADD267R,0.1425X0.00106*%
%ADD268R,0.1266X0.00106*%
%ADD269R,0.2532X0.00106*%
%ADD270R,0.1405X0.00107*%
%ADD271R,0.1256X0.00107*%
%ADD272R,0.1245X0.00107*%
%ADD273R,0.1255X0.00107*%
%ADD274R,0.0819X0.00107*%
%ADD275R,0.1404X0.00106*%
%ADD276R,0.1234X0.00106*%
%ADD277R,0.1235X0.00106*%
%ADD278R,0.0861X0.00106*%
%ADD279R,0.1393X0.00106*%
%ADD280R,0.1212X0.00106*%
%ADD281R,0.1213X0.00106*%
%ADD282R,0.0702X0.00106*%
%ADD283R,0.0883X0.00106*%
%ADD284R,0.1383X0.00107*%
%ADD285R,0.1202X0.00107*%
%ADD286R,0.1191X0.00107*%
%ADD287R,0.091499999999999984X0.00107*%
%ADD288R,0.1373X0.00106*%
%ADD289R,0.1181X0.00106*%
%ADD290R,0.1171X0.00106*%
%ADD291R,0.0724X0.00106*%
%ADD292R,0.0925X0.00106*%
%ADD293R,0.1372X0.00106*%
%ADD294R,0.1159X0.00106*%
%ADD295R,0.116X0.00106*%
%ADD296R,0.0703X0.00106*%
%ADD297R,0.0936X0.00106*%
%ADD298R,0.1352X0.00107*%
%ADD299R,0.1128X0.00107*%
%ADD300R,0.11380000000000001X0.00107*%
%ADD301R,0.0958X0.00107*%
%ADD302R,0.1351X0.00106*%
%ADD303R,0.1117X0.00106*%
%ADD304R,0.0489X0.00106*%
%ADD305R,0.11270000000000001X0.00106*%
%ADD306R,0.0969X0.00106*%
%ADD307R,0.134X0.00107*%
%ADD308R,0.1095X0.00107*%
%ADD309R,0.1096X0.00107*%
%ADD310R,0.097900000000000015X0.00107*%
%ADD311R,0.132X0.00106*%
%ADD312R,0.1075X0.00106*%
%ADD313R,0.10740000000000001X0.00106*%
%ADD314R,0.1063X0.00106*%
%ADD315R,0.0989X0.00106*%
%ADD316R,0.1298X0.00106*%
%ADD317R,0.1053X0.00106*%
%ADD318R,0.067X0.00106*%
%ADD319R,0.1X0.00106*%
%ADD320R,0.1308X0.00107*%
%ADD321R,0.1022X0.00107*%
%ADD322R,0.10210000000000001X0.00107*%
%ADD323R,0.1X0.00107*%
%ADD324R,0.1277X0.00106*%
%ADD325R,0.1X0.00106*%
%ADD326R,0.099000000000000019X0.00106*%
%ADD327R,0.0659X0.00106*%
%ADD328R,0.0989X0.00106*%
%ADD329R,0.1276X0.00107*%
%ADD330R,0.096799999999999983X0.00107*%
%ADD331R,0.0648X0.00107*%
%ADD332R,0.097900000000000015X0.00107*%
%ADD333R,0.0947X0.00106*%
%ADD334R,0.0627X0.00106*%
%ADD335R,0.091499999999999984X0.00106*%
%ADD336R,0.09039999999999998X0.00106*%
%ADD337R,0.0872X0.00107*%
%ADD338R,0.0883X0.00107*%
%ADD339R,0.0841X0.00106*%
%ADD340R,0.084X0.00106*%
%ADD341R,0.085099999999999981X0.00106*%
%ADD342R,0.0585X0.00106*%
%ADD343R,0.080899999999999986X0.00106*%
%ADD344R,0.0819X0.00106*%
%ADD345R,0.0564X0.00106*%
%ADD346R,0.080899999999999986X0.00106*%
%ADD347R,0.0777X0.00107*%
%ADD348R,0.0788X0.00107*%
%ADD349R,0.0776X0.00107*%
%ADD350R,0.0543X0.00107*%
%ADD351R,0.097900000000000015X0.00106*%
%ADD352R,0.0692X0.00107*%
%ADD353R,0.0692X0.00107*%
%ADD354R,0.0703X0.00107*%
%ADD355R,0.0969X0.00107*%
%ADD356R,0.027600000000000003X0.00106*%
%ADD357R,0.0649X0.00106*%
%ADD358R,0.027700000000000002X0.00106*%
%ADD359R,0.0958X0.00106*%
%ADD360R,0.025600000000000005X0.00106*%
%ADD361R,0.0595X0.00106*%
%ADD362R,0.0255X0.00106*%
%ADD363R,0.0553X0.00107*%
%ADD364R,0.053100000000000008X0.00107*%
%ADD365R,0.0542X0.00107*%
%ADD366R,0.047800000000000009X0.00106*%
%ADD367R,0.0212X0.00106*%
%ADD368R,0.0894X0.00106*%
%ADD369R,0.0405X0.00107*%
%ADD370R,0.0181X0.00107*%
%ADD371R,0.017X0.00106*%
%ADD372R,0.022299999999999997X0.00106*%
%ADD373R,0.0149X0.00106*%
%ADD374R,0.0297X0.00106*%
%ADD375R,0.0181X0.00106*%
%ADD376R,0.0118X0.00106*%
%ADD377R,0.0149X0.00106*%
%ADD378R,0.012800000000000002X0.00106*%
%ADD379R,0.0127X0.00106*%
%ADD380R,0.0096X0.00106*%
%ADD381R,0.0127X0.00106*%
%ADD382R,0.0787X0.00106*%
%ADD383R,0.0022X0.00107*%
%ADD384R,0.0095X0.00106*%
%ADD385R,0.0096X0.00106*%
%ADD386R,0.0149X0.00107*%
%ADD387R,0.0191X0.00106*%
%ADD388R,0.0213X0.00107*%
%ADD389R,0.0245X0.00106*%
%ADD390R,0.0266X0.00107*%
%ADD391R,0.0287X0.00106*%
%ADD392R,0.0287X0.00106*%
%ADD393R,0.0287X0.00106*%
%ADD394R,0.0287X0.00106*%
%ADD395R,0.027600000000000003X0.00107*%
%ADD396R,0.022399999999999996X0.00107*%
%ADD397R,0.022299999999999997X0.00107*%
%ADD398R,0.0234X0.00106*%
%ADD399R,0.0202X0.00106*%
%ADD400R,0.0234X0.00106*%
%ADD401R,0.0203X0.00106*%
%ADD402R,0.0192X0.00106*%
%ADD403R,0.0202X0.00106*%
%ADD404R,0.0159X0.00107*%
%ADD405R,0.013800000000000002X0.00107*%
%ADD406R,0.013900000000000001X0.00107*%
%ADD407R,0.0117X0.00106*%
%ADD408R,0.0074X0.00106*%
%ADD409R,0.0075X0.00106*%
%ADD410R,0.0085X0.00107*%
%ADD411C,0.006000000000000001*%
%ADD422R,0.0011X0.00107*%
%ADD423R,0.0021X0.00107*%
%ADD424R,0.0074X0.00107*%
%ADD425R,0.0032000000000000006X0.00107*%
%ADD426R,0.0054X0.00107*%
%ADD427R,0.0022X0.00107*%
%ADD428R,0.001X0.00107*%
%ADD429R,0.0031X0.00107*%
%ADD430R,0.0042X0.00107*%
%ADD431R,0.0309X0.00106*%
%ADD432R,0.013800000000000002X0.00106*%
%ADD433R,0.0127X0.00106*%
%ADD434R,0.013900000000000001X0.00106*%
%ADD435R,0.012800000000000002X0.00106*%
%ADD436R,0.0404X0.00106*%
%ADD437R,0.016X0.00106*%
%ADD438R,0.0171X0.00106*%
%ADD439R,0.017X0.00106*%
%ADD440R,0.0181X0.00106*%
%ADD441R,0.0479X0.00107*%
%ADD442R,0.0191X0.00107*%
%ADD443R,0.0202X0.00107*%
%ADD444R,0.0203X0.00107*%
%ADD445R,0.0192X0.00107*%
%ADD446R,0.0543X0.00106*%
%ADD447R,0.022399999999999996X0.00106*%
%ADD448R,0.022299999999999997X0.00106*%
%ADD449R,0.0596X0.00107*%
%ADD450R,0.0244X0.00107*%
%ADD451R,0.0245X0.00107*%
%ADD452R,0.0234X0.00107*%
%ADD453R,0.025600000000000005X0.00107*%
%ADD454R,0.0255X0.00107*%
%ADD455R,0.0234X0.00107*%
%ADD456R,0.0638X0.00106*%
%ADD457R,0.0266X0.00106*%
%ADD458R,0.0255X0.00106*%
%ADD459R,0.025600000000000005X0.00106*%
%ADD460R,0.027700000000000002X0.00106*%
%ADD461R,0.0702X0.00106*%
%ADD462R,0.027700000000000002X0.00106*%
%ADD463R,0.027700000000000002X0.00106*%
%ADD464R,0.027600000000000003X0.00106*%
%ADD465R,0.0266X0.00106*%
%ADD466R,0.0288X0.00106*%
%ADD467R,0.0734X0.00107*%
%ADD468R,0.0288X0.00107*%
%ADD469R,0.027700000000000002X0.00107*%
%ADD470R,0.0287X0.00107*%
%ADD471R,0.0287X0.00107*%
%ADD472R,0.0308X0.00107*%
%ADD473R,0.0777X0.00106*%
%ADD474R,0.0298X0.00106*%
%ADD475R,0.0309X0.00106*%
%ADD476R,0.033X0.00106*%
%ADD477R,0.080899999999999986X0.00106*%
%ADD478R,0.0298X0.00106*%
%ADD479R,0.0308X0.00106*%
%ADD480R,0.0351X0.00106*%
%ADD481R,0.0841X0.00107*%
%ADD482R,0.0298X0.00107*%
%ADD483R,0.0309X0.00107*%
%ADD484R,0.0319X0.00107*%
%ADD485R,0.0362X0.00107*%
%ADD486R,0.0872X0.00106*%
%ADD487R,0.0308X0.00106*%
%ADD488R,0.0319X0.00106*%
%ADD489R,0.0372X0.00106*%
%ADD490R,0.09039999999999998X0.00107*%
%ADD491R,0.0394X0.00107*%
%ADD492R,0.033X0.00107*%
%ADD493R,0.0936X0.00106*%
%ADD494R,0.0319X0.00106*%
%ADD495R,0.0404X0.00106*%
%ADD496R,0.0329X0.00106*%
%ADD497R,0.09569999999999998X0.00106*%
%ADD498R,0.0329X0.00106*%
%ADD499R,0.0426X0.00106*%
%ADD500R,0.0989X0.00107*%
%ADD501R,0.0329X0.00107*%
%ADD502R,0.0426X0.00107*%
%ADD503R,0.10210000000000001X0.00106*%
%ADD504R,0.0458X0.00106*%
%ADD505R,0.10320000000000001X0.00106*%
%ADD506R,0.033X0.00106*%
%ADD507R,0.0458X0.00106*%
%ADD508R,0.1064X0.00107*%
%ADD509R,0.0468X0.00107*%
%ADD510R,0.10850000000000001X0.00106*%
%ADD511R,0.0479X0.00106*%
%ADD512R,0.1117X0.00107*%
%ADD513R,0.047800000000000009X0.00107*%
%ADD514R,0.1128X0.00106*%
%ADD515R,0.05X0.00106*%
%ADD516R,0.1149X0.00106*%
%ADD517R,0.05X0.00106*%
%ADD518R,0.117X0.00107*%
%ADD519R,0.05X0.00107*%
%ADD520R,0.1191X0.00106*%
%ADD521R,0.051X0.00106*%
%ADD522R,0.1202X0.00107*%
%ADD523R,0.0521X0.00107*%
%ADD524R,0.1223X0.00106*%
%ADD525R,0.0522X0.00106*%
%ADD526R,0.1234X0.00106*%
%ADD527R,0.051X0.00106*%
%ADD528R,0.1266X0.00107*%
%ADD529R,0.0596X0.00106*%
%ADD530R,0.001X0.00106*%
%ADD531R,0.0021X0.00106*%
%ADD532R,0.0585X0.00106*%
%ADD533R,0.0521X0.00106*%
%ADD534R,0.0532X0.00106*%
%ADD535R,0.0011X0.00106*%
%ADD536R,0.0522X0.00106*%
%ADD537R,0.0511X0.00107*%
%ADD538R,0.0479X0.00106*%
%ADD539R,0.047800000000000009X0.00106*%
%ADD540R,0.0511X0.00106*%
%ADD541R,0.04689999999999999X0.00107*%
%ADD542R,0.0457X0.00106*%
%ADD543R,0.0447X0.00106*%
%ADD544R,0.0436X0.00106*%
%ADD545R,0.0511X0.00106*%
%ADD546R,0.051X0.00107*%
%ADD547R,0.0415X0.00106*%
%ADD548R,0.04250000000000001X0.00106*%
%ADD549R,0.0522X0.00106*%
%ADD550R,0.041399999999999992X0.00107*%
%ADD551R,0.0415X0.00107*%
%ADD552R,0.0415X0.00106*%
%ADD553R,0.0394X0.00106*%
%ADD554R,0.0393X0.00107*%
%ADD555R,0.0522X0.00107*%
%ADD556R,0.0383X0.00106*%
%ADD557R,0.0394X0.00106*%
%ADD558R,0.0521X0.00106*%
%ADD559R,0.0383X0.00106*%
%ADD560R,0.0372X0.00107*%
%ADD561R,0.0372X0.00106*%
%ADD562R,0.0373X0.00106*%
%ADD563R,0.0362X0.00107*%
%ADD564R,0.0362X0.00106*%
%ADD565R,0.0361X0.00106*%
%ADD566R,0.0362X0.00106*%
%ADD567R,0.0361X0.00106*%
%ADD568R,0.0351X0.00107*%
%ADD569R,0.0351X0.00106*%
%ADD570R,0.034X0.00106*%
%ADD571R,0.034X0.00106*%
%ADD572R,0.085099999999999981X0.00106*%
%ADD573R,0.034X0.00107*%
%ADD574R,0.0341X0.00107*%
%ADD575R,0.0829X0.00107*%
%ADD576R,0.0341X0.00106*%
%ADD577R,0.0819X0.00106*%
%ADD578R,0.0341X0.00106*%
%ADD579R,0.0797X0.00106*%
%ADD580R,0.0798X0.00107*%
%ADD581R,0.0787X0.00106*%
%ADD582R,0.0777X0.00107*%
%ADD583R,0.0744X0.00106*%
%ADD584R,0.0745X0.00106*%
%ADD585R,0.0723X0.00107*%
%ADD586R,0.0713X0.00106*%
%ADD587R,0.032X0.00106*%
%ADD588R,0.0691X0.00106*%
%ADD589R,0.032X0.00107*%
%ADD590R,0.0691X0.00107*%
%ADD591R,0.032X0.00106*%
%ADD592R,0.0681X0.00106*%
%ADD593R,0.067X0.00107*%
%ADD594R,0.0319X0.00106*%
%ADD595R,0.0638X0.00106*%
%ADD596R,0.0319X0.00107*%
%ADD597R,0.0617X0.00107*%
%ADD598R,0.0606X0.00106*%
%ADD599R,0.0585X0.00107*%
%ADD600R,0.0574X0.00106*%
%ADD601R,0.0617X0.00106*%
%ADD602R,0.0628X0.00106*%
%ADD603R,0.0627X0.00107*%
%ADD604R,0.0649X0.00106*%
%ADD605R,0.0659X0.00107*%
%ADD606R,0.068X0.00106*%
%ADD607R,0.0702X0.00107*%
%ADD608R,0.0713X0.00106*%
%ADD609R,0.0734X0.00106*%
%ADD610R,0.0755X0.00106*%
%ADD611R,0.0373X0.00107*%
%ADD612R,0.0766X0.00107*%
%ADD613R,0.0776X0.00106*%
%ADD614R,0.0362X0.00106*%
%ADD615R,0.0798X0.00106*%
%ADD616R,0.0404X0.00107*%
%ADD617R,0.0808X0.00107*%
%ADD618R,0.0404X0.00106*%
%ADD619R,0.0808X0.00106*%
%ADD620R,0.084X0.00107*%
%ADD621R,0.0426X0.00106*%
%ADD622R,0.0447X0.00106*%
%ADD623R,0.0457X0.00107*%
%ADD624R,0.0468X0.00106*%
%ADD625R,0.0361X0.00107*%
%ADD626R,0.0405X0.00106*%
%ADD627R,0.0372X0.00106*%
%ADD628R,0.0362X0.00106*%
%ADD629R,0.04250000000000001X0.00106*%
%ADD630R,0.0532X0.00107*%
%ADD631R,0.0372X0.00107*%
%ADD632R,0.0382X0.00106*%
%ADD633R,0.0447X0.00106*%
%ADD634R,0.0372X0.00106*%
%ADD635R,0.0382X0.00106*%
%ADD636R,0.0458X0.00107*%
%ADD637R,0.0383X0.00107*%
%ADD638R,0.0382X0.00107*%
%ADD639R,0.0393X0.00106*%
%ADD640R,0.0394X0.00106*%
%ADD641R,0.060700000000000004X0.00106*%
%ADD642R,0.0489X0.00107*%
%ADD643R,0.0404X0.00107*%
%ADD644R,0.0394X0.00107*%
%ADD645R,0.0638X0.00107*%
%ADD646R,0.049X0.00106*%
%ADD647R,0.0404X0.00106*%
%ADD648R,0.066X0.00106*%
%ADD649R,0.0405X0.00106*%
%ADD650R,0.04250000000000001X0.00107*%
%ADD651R,0.041399999999999992X0.00107*%
%ADD652R,0.0713X0.00107*%
%ADD653R,0.0744X0.00106*%
%ADD654R,0.0543X0.00106*%
%ADD655R,0.0447X0.00106*%
%ADD656R,0.0436X0.00106*%
%ADD657R,0.0777X0.00106*%
%ADD658R,0.0574X0.00107*%
%ADD659R,0.0447X0.00107*%
%ADD660R,0.044599999999999994X0.00107*%
%ADD661R,0.0586X0.00106*%
%ADD662R,0.0457X0.00106*%
%ADD663R,0.0617X0.00107*%
%ADD664R,0.0894X0.00107*%
%ADD665R,0.0479X0.00107*%
%ADD666R,0.049X0.00107*%
%ADD667R,0.0649X0.00106*%
%ADD668R,0.0958X0.00106*%
%ADD669R,0.0681X0.00106*%
%ADD670R,0.0532X0.00106*%
%ADD671R,0.0532X0.00106*%
%ADD672R,0.10210000000000001X0.00106*%
%ADD673R,0.0011X0.00106*%
%ADD674R,0.053100000000000008X0.00106*%
%ADD675R,0.0745X0.00107*%
%ADD676R,0.0574X0.00107*%
%ADD677R,0.116X0.00107*%
%ADD678R,0.0564X0.00107*%
%ADD679R,0.1425X0.00106*%
%ADD680R,0.1266X0.00106*%
%ADD681R,0.2532X0.00106*%
%ADD682R,0.1405X0.00107*%
%ADD683R,0.1256X0.00107*%
%ADD684R,0.1245X0.00107*%
%ADD685R,0.1255X0.00107*%
%ADD686R,0.0819X0.00107*%
%ADD687R,0.1404X0.00106*%
%ADD688R,0.1234X0.00106*%
%ADD689R,0.1235X0.00106*%
%ADD690R,0.0861X0.00106*%
%ADD691R,0.1393X0.00106*%
%ADD692R,0.1212X0.00106*%
%ADD693R,0.1213X0.00106*%
%ADD694R,0.0702X0.00106*%
%ADD695R,0.0883X0.00106*%
%ADD696R,0.1383X0.00107*%
%ADD697R,0.1202X0.00107*%
%ADD698R,0.1191X0.00107*%
%ADD699R,0.091499999999999984X0.00107*%
%ADD700R,0.1373X0.00106*%
%ADD701R,0.1181X0.00106*%
%ADD702R,0.1171X0.00106*%
%ADD703R,0.0724X0.00106*%
%ADD704R,0.0925X0.00106*%
%ADD705R,0.1372X0.00106*%
%ADD706R,0.1159X0.00106*%
%ADD707R,0.116X0.00106*%
%ADD708R,0.0703X0.00106*%
%ADD709R,0.0936X0.00106*%
%ADD710R,0.1352X0.00107*%
%ADD711R,0.1128X0.00107*%
%ADD712R,0.11380000000000001X0.00107*%
%ADD713R,0.0958X0.00107*%
%ADD714R,0.1351X0.00106*%
%ADD715R,0.1117X0.00106*%
%ADD716R,0.0489X0.00106*%
%ADD717R,0.11270000000000001X0.00106*%
%ADD718R,0.0969X0.00106*%
%ADD719R,0.134X0.00107*%
%ADD720R,0.1095X0.00107*%
%ADD721R,0.1096X0.00107*%
%ADD722R,0.097900000000000015X0.00107*%
%ADD723R,0.132X0.00106*%
%ADD724R,0.1075X0.00106*%
%ADD725R,0.10740000000000001X0.00106*%
%ADD726R,0.1063X0.00106*%
%ADD727R,0.0989X0.00106*%
%ADD728R,0.1298X0.00106*%
%ADD729R,0.1053X0.00106*%
%ADD730R,0.067X0.00106*%
%ADD731R,0.1X0.00106*%
%ADD732R,0.1308X0.00107*%
%ADD733R,0.1022X0.00107*%
%ADD734R,0.10210000000000001X0.00107*%
%ADD735R,0.1X0.00107*%
%ADD736R,0.1277X0.00106*%
%ADD737R,0.1X0.00106*%
%ADD738R,0.099000000000000019X0.00106*%
%ADD739R,0.0659X0.00106*%
%ADD740R,0.0989X0.00106*%
%ADD741R,0.1276X0.00107*%
%ADD742R,0.096799999999999983X0.00107*%
%ADD743R,0.0648X0.00107*%
%ADD744R,0.097900000000000015X0.00107*%
%ADD745R,0.0947X0.00106*%
%ADD746R,0.0627X0.00106*%
%ADD747R,0.091499999999999984X0.00106*%
%ADD748R,0.09039999999999998X0.00106*%
%ADD749R,0.0872X0.00107*%
%ADD750R,0.0883X0.00107*%
%ADD751R,0.0841X0.00106*%
%ADD752R,0.084X0.00106*%
%ADD753R,0.085099999999999981X0.00106*%
%ADD754R,0.0585X0.00106*%
%ADD755R,0.080899999999999986X0.00106*%
%ADD756R,0.0819X0.00106*%
%ADD757R,0.0564X0.00106*%
%ADD758R,0.080899999999999986X0.00106*%
%ADD759R,0.0777X0.00107*%
%ADD760R,0.0788X0.00107*%
%ADD761R,0.0776X0.00107*%
%ADD762R,0.0543X0.00107*%
%ADD763R,0.097900000000000015X0.00106*%
%ADD764R,0.0692X0.00107*%
%ADD765R,0.0692X0.00107*%
%ADD766R,0.0703X0.00107*%
%ADD767R,0.0969X0.00107*%
%ADD768R,0.027600000000000003X0.00106*%
%ADD769R,0.0649X0.00106*%
%ADD770R,0.027700000000000002X0.00106*%
%ADD771R,0.0958X0.00106*%
%ADD772R,0.025600000000000005X0.00106*%
%ADD773R,0.0595X0.00106*%
%ADD774R,0.0255X0.00106*%
%ADD775R,0.0553X0.00107*%
%ADD776R,0.053100000000000008X0.00107*%
%ADD777R,0.0542X0.00107*%
%ADD778R,0.047800000000000009X0.00106*%
%ADD779R,0.0212X0.00106*%
%ADD780R,0.0894X0.00106*%
%ADD781R,0.0405X0.00107*%
%ADD782R,0.0181X0.00107*%
%ADD783R,0.017X0.00106*%
%ADD784R,0.022299999999999997X0.00106*%
%ADD785R,0.0149X0.00106*%
%ADD786R,0.0297X0.00106*%
%ADD787R,0.0181X0.00106*%
%ADD788R,0.0118X0.00106*%
%ADD789R,0.0149X0.00106*%
%ADD790R,0.012800000000000002X0.00106*%
%ADD791R,0.0127X0.00106*%
%ADD792R,0.0096X0.00106*%
%ADD793R,0.0127X0.00106*%
%ADD794R,0.0787X0.00106*%
%ADD795R,0.0022X0.00107*%
%ADD796R,0.0095X0.00106*%
%ADD797R,0.0096X0.00106*%
%ADD798R,0.0149X0.00107*%
%ADD799R,0.0191X0.00106*%
%ADD800R,0.0213X0.00107*%
%ADD801R,0.0245X0.00106*%
%ADD802R,0.0266X0.00107*%
%ADD803R,0.0287X0.00106*%
%ADD804R,0.0287X0.00106*%
%ADD805R,0.0287X0.00106*%
%ADD806R,0.0287X0.00106*%
%ADD807R,0.027600000000000003X0.00107*%
%ADD808R,0.022399999999999996X0.00107*%
%ADD809R,0.022299999999999997X0.00107*%
%ADD810R,0.0234X0.00106*%
%ADD811R,0.0202X0.00106*%
%ADD812R,0.0234X0.00106*%
%ADD813R,0.0203X0.00106*%
%ADD814R,0.0192X0.00106*%
%ADD815R,0.0202X0.00106*%
%ADD816R,0.0159X0.00107*%
%ADD817R,0.013800000000000002X0.00107*%
%ADD818R,0.013900000000000001X0.00107*%
%ADD819R,0.0117X0.00106*%
%ADD820R,0.0074X0.00106*%
%ADD821R,0.0075X0.00106*%
%ADD822R,0.0085X0.00107*%
%ADD823C,0.006000000000000001*%
G75*
%LPD*%
D10*
X-0003937Y0070866D02*
X0034937Y0193780D03*
X0036427Y0193780D03*
X0035787Y0206333D03*
X0029617Y0214312D03*
X0048767Y0193780D03*
X0054296Y0206333D03*
X0054617Y0206333D03*
X0055147Y0206333D03*
X0055357Y0206333D03*
X0067807Y0209631D03*
X0077487Y0209099D03*
X0079937Y0206333D03*
X0080467Y0206333D03*
X0073657Y0193780D03*
X0067277Y0193780D03*
X0092487Y0206333D03*
X0093337Y0206333D03*
X0099507Y0193780D03*
X0124937Y0193780D03*
X0131957Y0193780D03*
X0137597Y0206333D03*
X0138017Y0206333D03*
X0138447Y0206333D03*
X0144617Y0193780D03*
X0150357Y0193780D03*
X0160357Y0193780D03*
X0162277Y0209631D03*
X0162487Y0209631D03*
X0163127Y0209631D03*
X0163657Y0209631D03*
X0158127Y0209631D03*
X0157597Y0209631D03*
X0157277Y0209631D03*
X0156847Y0209631D03*
X0156637Y0209631D03*
X0150997Y0209631D03*
X0150357Y0209631D03*
D11*
X0157857Y0209631D03*
X0073927Y0193780D03*
X0035307Y0193780D03*
X0036157Y0206333D03*
D12*
X0035891Y0193780D03*
D13*
X0048442Y0193780D03*
X0067592Y0193780D03*
X0099192Y0193780D03*
X0109402Y0193780D03*
X0115782Y0193780D03*
X0125252Y0193780D03*
X0144292Y0193780D03*
X0150681Y0209631D03*
X0160042Y0193780D03*
D14*
X0061212Y0193780D03*
D15*
X0067542Y0209631D03*
X0074242Y0193780D03*
X0163392Y0209631D03*
D16*
X0162702Y0209631D03*
X0162062Y0209631D03*
X0157062Y0209631D03*
X0137382Y0206333D03*
X0125572Y0193780D03*
X0109722Y0193780D03*
X0103552Y0206333D03*
X0098872Y0193780D03*
X0086212Y0193780D03*
X0035572Y0206333D03*
X0029402Y0214312D03*
D17*
X0086637Y0193780D03*
D18*
X0131582Y0193780D03*
X0150732Y0193780D03*
D19*
X0150677Y0194843D03*
X0144297Y0199418D03*
X0150677Y0212290D03*
X0160147Y0195694D03*
X0160147Y0194843D03*
X0067487Y0194843D03*
X0067487Y0212290D03*
X0067487Y0213354D03*
X0054827Y0209418D03*
X0035787Y0209418D03*
X0035787Y0193886D03*
D20*
X0048552Y0193886D03*
X0099192Y0193886D03*
X0109402Y0193886D03*
D21*
X0150627Y0193886D03*
X0061156Y0193886D03*
D22*
X0067487Y0193886D03*
X0086637Y0193886D03*
X0160147Y0193886D03*
D23*
X0144351Y0193886D03*
X0131692Y0193886D03*
X0125201Y0193886D03*
X0115731Y0193886D03*
X0073922Y0193886D03*
D24*
X0040942Y0198141D03*
X0040842Y0198034D03*
X0035842Y0193992D03*
D25*
X0048552Y0193992D03*
D26*
X0061156Y0193992D03*
X0080307Y0209524D03*
X0092967Y0209524D03*
X0150627Y0193992D03*
D27*
X0144351Y0193992D03*
X0160202Y0193992D03*
X0125201Y0193992D03*
X0115731Y0193992D03*
X0109352Y0193992D03*
X0099242Y0193992D03*
X0086581Y0193992D03*
X0073922Y0193992D03*
X0067542Y0193992D03*
D28*
X0067487Y0211439D03*
X0125257Y0213992D03*
X0131637Y0193992D03*
X0138017Y0209524D03*
X0160147Y0213992D03*
D29*
X0104087Y0208780D03*
X0086637Y0204312D03*
X0075997Y0206014D03*
X0059087Y0206014D03*
X0035787Y0194099D03*
D30*
X0048497Y0194099D03*
X0061156Y0194099D03*
X0150627Y0194099D03*
X0150627Y0209312D03*
X0150627Y0214099D03*
D31*
X0144292Y0194099D03*
X0125252Y0194099D03*
X0115782Y0194099D03*
X0109402Y0194099D03*
X0067492Y0194099D03*
X0067492Y0209312D03*
X0067492Y0211546D03*
D32*
X0073977Y0194099D03*
X0086637Y0194099D03*
X0160147Y0194099D03*
D33*
X0131692Y0194099D03*
X0099242Y0194099D03*
D34*
X0086637Y0204737D03*
X0039617Y0197077D03*
X0035787Y0194205D03*
D35*
X0048552Y0194205D03*
X0061212Y0194205D03*
X0109402Y0194205D03*
X0125252Y0194205D03*
D36*
X0131637Y0194205D03*
X0144297Y0194205D03*
X0150677Y0194205D03*
X0160147Y0194205D03*
X0150677Y0209205D03*
X0150677Y0211652D03*
X0115787Y0194205D03*
X0099297Y0194205D03*
X0086637Y0194205D03*
X0073977Y0194205D03*
X0067487Y0194205D03*
X0067487Y0209205D03*
D37*
X0086581Y0204950D03*
X0123922Y0201865D03*
X0035842Y0194312D03*
D38*
X0048552Y0194312D03*
X0061212Y0194312D03*
X0109402Y0194312D03*
D39*
X0099297Y0194312D03*
X0125257Y0194312D03*
X0144297Y0194312D03*
X0150677Y0194312D03*
X0160147Y0194312D03*
X0150677Y0213780D03*
X0067487Y0213780D03*
X0067487Y0209099D03*
X0067487Y0194312D03*
X0029507Y0213780D03*
D40*
X0073922Y0194312D03*
X0150622Y0209099D03*
D41*
X0086581Y0194312D03*
D42*
X0115836Y0194312D03*
D43*
X0115842Y0209099D03*
X0131692Y0194312D03*
D44*
X0123712Y0201226D03*
X0035842Y0194418D03*
D45*
X0048552Y0194418D03*
X0086632Y0194418D03*
X0109402Y0194418D03*
X0125252Y0194418D03*
X0144292Y0194418D03*
X0150681Y0194418D03*
X0160152Y0194418D03*
D46*
X0150627Y0211757D03*
X0131687Y0194418D03*
X0073927Y0194418D03*
X0061156Y0194418D03*
D47*
X0067542Y0194418D03*
X0067542Y0211757D03*
X0099242Y0194418D03*
D48*
X0115836Y0194418D03*
X0115836Y0208886D03*
D49*
X0035842Y0194524D03*
D50*
X0048497Y0194524D03*
X0131687Y0194524D03*
D51*
X0150627Y0194524D03*
X0061156Y0194524D03*
D52*
X0067542Y0194524D03*
X0073922Y0194524D03*
X0086581Y0194524D03*
X0099242Y0194524D03*
X0125201Y0213459D03*
X0160202Y0213459D03*
D53*
X0150681Y0213673D03*
X0150681Y0208992D03*
X0144292Y0194524D03*
X0160152Y0194524D03*
X0125252Y0194524D03*
X0109402Y0194524D03*
X0067492Y0213673D03*
D54*
X0048552Y0194737D03*
X0109402Y0194737D03*
X0115892Y0194524D03*
D55*
X0123232Y0202929D03*
X0035782Y0194631D03*
D56*
X0048552Y0194631D03*
X0109402Y0194631D03*
D57*
X0150627Y0211865D03*
X0150627Y0213567D03*
X0061156Y0194631D03*
D58*
X0067487Y0194631D03*
X0067487Y0208780D03*
X0086637Y0194631D03*
X0099297Y0194631D03*
X0131637Y0194631D03*
X0144297Y0194631D03*
X0160147Y0194631D03*
D59*
X0150677Y0194631D03*
X0125257Y0194631D03*
X0103657Y0209312D03*
X0073977Y0194631D03*
D60*
X0048552Y0194950D03*
X0109402Y0194950D03*
X0115892Y0194631D03*
X0125252Y0194950D03*
X0125252Y0196865D03*
X0125252Y0210482D03*
X0125252Y0212929D03*
X0125252Y0213248D03*
D61*
X0035787Y0194737D03*
D62*
X0061162Y0194737D03*
X0067542Y0208673D03*
X0067542Y0212076D03*
X0073922Y0194737D03*
X0086581Y0194737D03*
X0099242Y0194737D03*
X0125201Y0194737D03*
X0131692Y0194737D03*
X0144351Y0194737D03*
X0150622Y0194737D03*
X0160202Y0194737D03*
X0150622Y0208673D03*
D63*
X0150677Y0208460D03*
X0144297Y0201439D03*
X0144297Y0195056D03*
X0160147Y0205907D03*
X0160147Y0213035D03*
X0160147Y0213140D03*
X0086637Y0195056D03*
X0067487Y0195056D03*
X0067487Y0194737D03*
X0067487Y0208460D03*
X0029507Y0213035D03*
X0029507Y0213140D03*
D64*
X0029512Y0212503D03*
X0029512Y0211120D03*
X0029512Y0210907D03*
X0029512Y0210588D03*
X0029512Y0209205D03*
X0029512Y0208992D03*
X0029512Y0208673D03*
X0029612Y0203035D03*
X0029512Y0202609D03*
X0029512Y0201971D03*
X0029512Y0201652D03*
X0029512Y0201120D03*
X0029612Y0200588D03*
X0029612Y0200375D03*
X0029722Y0200056D03*
X0029831Y0199737D03*
X0041952Y0200375D03*
X0042062Y0200907D03*
X0042062Y0202609D03*
X0041952Y0203035D03*
X0041952Y0203141D03*
X0048552Y0202609D03*
X0048762Y0203460D03*
X0048552Y0201652D03*
X0048552Y0201120D03*
X0048552Y0200907D03*
X0048552Y0200056D03*
X0048552Y0199205D03*
X0048552Y0198992D03*
X0048552Y0198034D03*
X0048552Y0197609D03*
X0048552Y0196971D03*
X0048552Y0196439D03*
X0048552Y0195588D03*
X0048552Y0195375D03*
X0061212Y0195588D03*
X0061212Y0196120D03*
X0061212Y0197503D03*
X0061212Y0197609D03*
X0061212Y0198034D03*
X0061212Y0198673D03*
X0061212Y0199737D03*
X0061212Y0200588D03*
X0061212Y0201439D03*
X0061212Y0201652D03*
X0061212Y0202077D03*
X0061102Y0202609D03*
X0061002Y0203035D03*
X0061002Y0203141D03*
X0074082Y0203141D03*
X0074082Y0203035D03*
X0074192Y0203460D03*
X0099082Y0203141D03*
X0099082Y0203035D03*
X0099192Y0202609D03*
X0103762Y0209205D03*
X0109081Y0203673D03*
X0109192Y0203141D03*
X0109402Y0202503D03*
X0109402Y0202077D03*
X0109402Y0201652D03*
X0109402Y0201439D03*
X0109402Y0201120D03*
X0109402Y0200375D03*
X0109402Y0199737D03*
X0109402Y0199205D03*
X0109402Y0198673D03*
X0109402Y0198460D03*
X0109402Y0198141D03*
X0109402Y0198034D03*
X0109402Y0197609D03*
X0109402Y0196971D03*
X0109402Y0196120D03*
X0109402Y0195907D03*
X0109402Y0195588D03*
X0109402Y0195375D03*
X0115892Y0194737D03*
X0125252Y0195375D03*
X0125252Y0195588D03*
X0125252Y0195907D03*
X0125252Y0196439D03*
X0125252Y0196652D03*
X0125252Y0196971D03*
X0125252Y0197503D03*
X0125252Y0197609D03*
X0125252Y0198034D03*
X0125252Y0198460D03*
X0125252Y0198673D03*
X0125252Y0204205D03*
X0125252Y0204524D03*
X0125252Y0204737D03*
X0125252Y0205056D03*
X0125252Y0206120D03*
X0125252Y0206439D03*
X0125252Y0206652D03*
X0125252Y0206971D03*
X0125252Y0207077D03*
X0125252Y0207609D03*
X0125252Y0208035D03*
X0125252Y0208673D03*
X0125252Y0208992D03*
X0125252Y0209205D03*
X0125252Y0209524D03*
X0125252Y0210056D03*
X0125252Y0210374D03*
X0125252Y0210588D03*
X0125252Y0210907D03*
X0125252Y0211439D03*
X0125252Y0211652D03*
X0125252Y0212076D03*
X0125252Y0212503D03*
X0125252Y0212609D03*
X0131852Y0203141D03*
X0131852Y0203035D03*
X0131742Y0202609D03*
X0144192Y0203035D03*
X0144192Y0203141D03*
X0150681Y0203141D03*
X0150681Y0202503D03*
X0150681Y0202077D03*
X0150681Y0201652D03*
X0150681Y0200375D03*
X0150681Y0200056D03*
X0150681Y0199737D03*
X0150681Y0198034D03*
X0150681Y0197609D03*
X0150681Y0196971D03*
X0150681Y0195907D03*
X0150681Y0195588D03*
X0150681Y0195375D03*
X0150681Y0204205D03*
X0150681Y0204524D03*
X0150681Y0206120D03*
X0150681Y0206439D03*
X0150681Y0206971D03*
X0150681Y0207609D03*
X0150681Y0208035D03*
D65*
X0035837Y0194843D03*
D66*
X0048502Y0194843D03*
X0029562Y0213354D03*
X0073922Y0194843D03*
X0086581Y0194843D03*
X0099242Y0194843D03*
X0131692Y0194843D03*
X0144351Y0194843D03*
X0150622Y0213354D03*
D67*
X0125252Y0194843D03*
X0109402Y0194843D03*
X0109402Y0195269D03*
X0109402Y0196226D03*
X0092912Y0209418D03*
X0080252Y0209418D03*
X0061212Y0194843D03*
D68*
X0060787Y0203886D03*
X0048977Y0203886D03*
X0029937Y0199418D03*
X0086637Y0202822D03*
X0108976Y0203886D03*
X0115997Y0194843D03*
D69*
X0035787Y0194950D03*
D70*
X0061162Y0194950D03*
X0067542Y0212184D03*
X0115842Y0208780D03*
X0150622Y0208780D03*
X0150622Y0212184D03*
D71*
X0150677Y0212397D03*
X0150677Y0213248D03*
X0150677Y0208567D03*
X0144297Y0199950D03*
X0144297Y0194950D03*
X0150677Y0194950D03*
X0160147Y0194950D03*
X0160147Y0199950D03*
X0160147Y0213248D03*
X0131637Y0194950D03*
X0099297Y0194950D03*
X0073977Y0194950D03*
X0073977Y0195163D03*
X0067487Y0194950D03*
X0067487Y0208567D03*
X0067487Y0212397D03*
X0067487Y0213248D03*
X0029507Y0213248D03*
D72*
X0048497Y0201865D03*
X0048607Y0202184D03*
X0048607Y0202715D03*
X0048497Y0201013D03*
X0048497Y0200801D03*
X0048497Y0200163D03*
X0048497Y0199950D03*
X0048497Y0199312D03*
X0048497Y0199099D03*
X0048497Y0198248D03*
X0048497Y0197929D03*
X0048497Y0197716D03*
X0048497Y0196865D03*
X0048497Y0196333D03*
X0048497Y0195482D03*
X0048497Y0195163D03*
X0061156Y0195163D03*
X0061156Y0195482D03*
X0061156Y0195800D03*
X0061156Y0196333D03*
X0061156Y0196546D03*
X0061156Y0196865D03*
X0061156Y0197397D03*
X0061156Y0197716D03*
X0061156Y0198780D03*
X0061156Y0199099D03*
X0061156Y0199631D03*
X0061156Y0199950D03*
X0061156Y0200482D03*
X0061156Y0201013D03*
X0061156Y0201332D03*
X0061156Y0201546D03*
X0061156Y0201865D03*
X0061156Y0202184D03*
X0061156Y0202396D03*
X0067537Y0202715D03*
X0067537Y0202929D03*
X0067537Y0203779D03*
X0067537Y0204950D03*
X0067537Y0205482D03*
X0067537Y0206014D03*
X0067537Y0206333D03*
X0067537Y0206545D03*
X0067537Y0208248D03*
X0067537Y0212716D03*
X0067537Y0212929D03*
X0067537Y0201865D03*
X0067537Y0201013D03*
X0067537Y0200801D03*
X0067537Y0200163D03*
X0067537Y0199950D03*
X0067537Y0199312D03*
X0067537Y0199099D03*
X0067537Y0198248D03*
X0067537Y0197397D03*
X0067537Y0197184D03*
X0067537Y0196546D03*
X0067537Y0196333D03*
X0067537Y0195482D03*
X0067537Y0195163D03*
X0073927Y0196014D03*
X0073927Y0196333D03*
X0073927Y0196865D03*
X0073927Y0197184D03*
X0073927Y0197929D03*
X0073927Y0198780D03*
X0073927Y0199312D03*
X0073927Y0199631D03*
X0073927Y0200163D03*
X0073927Y0200482D03*
X0073927Y0201013D03*
X0073927Y0201332D03*
X0073927Y0201865D03*
X0074026Y0202715D03*
X0086587Y0202184D03*
X0086587Y0201865D03*
X0086587Y0201546D03*
X0086587Y0201332D03*
X0086587Y0201013D03*
X0086587Y0199631D03*
X0086587Y0198780D03*
X0086587Y0197716D03*
X0086587Y0196865D03*
X0086587Y0196333D03*
X0086587Y0196014D03*
X0086587Y0195482D03*
X0086587Y0195163D03*
X0086587Y0194950D03*
X0099247Y0195163D03*
X0099247Y0195482D03*
X0099247Y0195800D03*
X0099247Y0196014D03*
X0099247Y0196546D03*
X0099247Y0196865D03*
X0099247Y0197184D03*
X0099247Y0197397D03*
X0099247Y0197716D03*
X0099247Y0197929D03*
X0099247Y0198248D03*
X0099247Y0198567D03*
X0099247Y0198780D03*
X0099247Y0199099D03*
X0099247Y0199312D03*
X0099247Y0199631D03*
X0099247Y0199950D03*
X0099247Y0200482D03*
X0099247Y0201013D03*
X0099247Y0201332D03*
X0099247Y0201546D03*
X0099247Y0201865D03*
X0099247Y0202184D03*
X0099247Y0202396D03*
X0109347Y0202396D03*
X0109347Y0202184D03*
X0109347Y0201865D03*
X0109347Y0201546D03*
X0109347Y0201332D03*
X0109347Y0201013D03*
X0109457Y0200482D03*
X0109347Y0199950D03*
X0109347Y0199631D03*
X0109347Y0199312D03*
X0109347Y0199099D03*
X0109347Y0198567D03*
X0109347Y0197929D03*
X0109347Y0196014D03*
X0109457Y0195800D03*
X0109347Y0195482D03*
X0109347Y0195163D03*
X0125197Y0195482D03*
X0125197Y0195800D03*
X0125197Y0196333D03*
X0125197Y0197716D03*
X0125197Y0197929D03*
X0125197Y0198780D03*
X0125197Y0204312D03*
X0125197Y0204631D03*
X0125197Y0204950D03*
X0125197Y0206545D03*
X0125197Y0206865D03*
X0125197Y0207184D03*
X0125306Y0207929D03*
X0125197Y0208780D03*
X0125197Y0209099D03*
X0125197Y0209950D03*
X0125197Y0211333D03*
X0125197Y0211546D03*
X0125197Y0212184D03*
X0125197Y0212397D03*
X0125197Y0212716D03*
X0131687Y0202396D03*
X0131687Y0202184D03*
X0131687Y0201865D03*
X0131687Y0201546D03*
X0131687Y0201013D03*
X0131687Y0200801D03*
X0131687Y0200163D03*
X0131687Y0199950D03*
X0131687Y0199312D03*
X0131687Y0199099D03*
X0131687Y0198780D03*
X0131687Y0197397D03*
X0131687Y0197184D03*
X0131687Y0196865D03*
X0131687Y0196546D03*
X0131687Y0196333D03*
X0131687Y0195482D03*
X0131687Y0195163D03*
X0144247Y0196546D03*
X0144347Y0196333D03*
X0144347Y0195800D03*
X0144347Y0195482D03*
X0144347Y0195163D03*
X0144347Y0197716D03*
X0144347Y0197929D03*
X0144347Y0198248D03*
X0144347Y0198567D03*
X0144347Y0198780D03*
X0144347Y0199099D03*
X0144347Y0199631D03*
X0144347Y0200482D03*
X0144347Y0200801D03*
X0144347Y0201332D03*
X0144347Y0201865D03*
X0144247Y0202715D03*
X0150627Y0202396D03*
X0150627Y0202184D03*
X0150627Y0201546D03*
X0150627Y0200801D03*
X0150627Y0200482D03*
X0150627Y0200163D03*
X0150627Y0199950D03*
X0150627Y0199631D03*
X0150627Y0199312D03*
X0150627Y0198567D03*
X0150627Y0198248D03*
X0150627Y0197929D03*
X0150627Y0197716D03*
X0150627Y0196865D03*
X0150627Y0196333D03*
X0150627Y0196014D03*
X0150627Y0195800D03*
X0150627Y0195482D03*
X0150627Y0195163D03*
X0150627Y0203248D03*
X0150627Y0203779D03*
X0150627Y0204099D03*
X0150627Y0204312D03*
X0150627Y0204631D03*
X0150627Y0204950D03*
X0150627Y0206014D03*
X0150627Y0206333D03*
X0150627Y0206545D03*
X0150627Y0206865D03*
X0150627Y0207716D03*
X0150627Y0207929D03*
X0150627Y0208248D03*
X0150627Y0212929D03*
X0160197Y0212929D03*
X0160197Y0212397D03*
X0160197Y0211333D03*
X0160197Y0211014D03*
X0160197Y0210801D03*
X0160097Y0210163D03*
X0160197Y0209950D03*
X0160197Y0206333D03*
X0160197Y0204312D03*
X0160097Y0203567D03*
X0160197Y0203248D03*
X0160197Y0202929D03*
X0160197Y0202715D03*
X0160197Y0201865D03*
X0160197Y0201332D03*
X0160197Y0200801D03*
X0160197Y0200482D03*
X0160197Y0199631D03*
X0160097Y0199312D03*
X0160197Y0198780D03*
X0160197Y0198248D03*
X0160197Y0197184D03*
X0160197Y0196333D03*
X0160097Y0195163D03*
D73*
X0116052Y0194950D03*
X0041582Y0204099D03*
X0030202Y0198780D03*
D74*
X0035842Y0195056D03*
D75*
X0048552Y0195056D03*
X0109402Y0195056D03*
X0109402Y0198992D03*
X0125252Y0195056D03*
X0125252Y0213035D03*
X0125252Y0213140D03*
D76*
X0125197Y0211971D03*
X0125197Y0211120D03*
X0125197Y0209737D03*
X0125197Y0208460D03*
X0125197Y0208141D03*
X0125197Y0207503D03*
X0125197Y0205907D03*
X0125197Y0205588D03*
X0125306Y0205375D03*
X0125197Y0203992D03*
X0125197Y0199205D03*
X0125197Y0198992D03*
X0125197Y0198141D03*
X0125197Y0197077D03*
X0125197Y0196120D03*
X0131687Y0196120D03*
X0131687Y0195907D03*
X0131687Y0195588D03*
X0131687Y0195375D03*
X0131687Y0195056D03*
X0131687Y0196971D03*
X0131687Y0197503D03*
X0131687Y0197609D03*
X0131687Y0198034D03*
X0131687Y0198141D03*
X0131687Y0198460D03*
X0131687Y0198673D03*
X0131687Y0199524D03*
X0131687Y0199737D03*
X0131687Y0200375D03*
X0131687Y0200588D03*
X0131687Y0200907D03*
X0131687Y0201439D03*
X0131687Y0201971D03*
X0131687Y0202077D03*
X0131687Y0202503D03*
X0144247Y0202503D03*
X0144347Y0202077D03*
X0144347Y0201652D03*
X0144347Y0201120D03*
X0144347Y0200588D03*
X0144347Y0199737D03*
X0144347Y0198141D03*
X0144247Y0198034D03*
X0144347Y0197503D03*
X0144347Y0197077D03*
X0144347Y0196652D03*
X0144247Y0195375D03*
X0150627Y0195056D03*
X0150627Y0196120D03*
X0150627Y0196439D03*
X0150627Y0196652D03*
X0150627Y0197077D03*
X0150627Y0197503D03*
X0150627Y0198141D03*
X0150627Y0198460D03*
X0150627Y0198673D03*
X0150627Y0198992D03*
X0150627Y0199205D03*
X0150627Y0199524D03*
X0150627Y0200588D03*
X0150627Y0200907D03*
X0150627Y0201120D03*
X0150627Y0201439D03*
X0150627Y0201971D03*
X0150627Y0202609D03*
X0150627Y0203035D03*
X0150627Y0203460D03*
X0150627Y0203673D03*
X0150627Y0203992D03*
X0150627Y0204737D03*
X0150627Y0205056D03*
X0150627Y0205375D03*
X0150627Y0205588D03*
X0150627Y0205907D03*
X0150627Y0206652D03*
X0150627Y0207077D03*
X0150627Y0207503D03*
X0150627Y0208141D03*
X0150627Y0212503D03*
X0150627Y0212609D03*
X0150627Y0213035D03*
X0150627Y0213140D03*
X0160197Y0212503D03*
X0160197Y0211971D03*
X0160197Y0211652D03*
X0160197Y0205375D03*
X0160197Y0205056D03*
X0160197Y0204737D03*
X0160097Y0204205D03*
X0160197Y0203992D03*
X0160197Y0202609D03*
X0160097Y0202077D03*
X0160197Y0201439D03*
X0160197Y0199737D03*
X0160197Y0199205D03*
X0160197Y0198141D03*
X0160197Y0197609D03*
X0160197Y0197503D03*
X0160097Y0196971D03*
X0160197Y0196652D03*
X0160197Y0195375D03*
X0160197Y0195056D03*
X0115947Y0208673D03*
X0109347Y0202609D03*
X0109457Y0201971D03*
X0109457Y0200907D03*
X0109347Y0200588D03*
X0109457Y0200056D03*
X0109457Y0199524D03*
X0109347Y0197503D03*
X0109347Y0197077D03*
X0109347Y0196652D03*
X0109347Y0196439D03*
X0099247Y0196439D03*
X0099247Y0196652D03*
X0099247Y0197077D03*
X0099247Y0197503D03*
X0099247Y0198141D03*
X0099247Y0198460D03*
X0099247Y0198992D03*
X0099247Y0200056D03*
X0099247Y0200375D03*
X0099247Y0200907D03*
X0099247Y0201652D03*
X0099247Y0201971D03*
X0099247Y0202077D03*
X0099247Y0202503D03*
X0099247Y0196120D03*
X0099247Y0195588D03*
X0099247Y0195375D03*
X0099247Y0195056D03*
X0086587Y0196652D03*
X0086587Y0197077D03*
X0086587Y0197503D03*
X0086587Y0198141D03*
X0086587Y0198460D03*
X0086587Y0198992D03*
X0086587Y0199205D03*
X0086587Y0200056D03*
X0086587Y0200375D03*
X0086587Y0200907D03*
X0086587Y0201971D03*
X0073927Y0201971D03*
X0073927Y0202077D03*
X0073927Y0201439D03*
X0073927Y0200907D03*
X0073927Y0200588D03*
X0073927Y0200056D03*
X0073927Y0199737D03*
X0073927Y0199205D03*
X0073927Y0198460D03*
X0073927Y0198141D03*
X0073927Y0198034D03*
X0073927Y0197609D03*
X0073927Y0197503D03*
X0073927Y0197077D03*
X0073927Y0196652D03*
X0073927Y0195588D03*
X0073927Y0195375D03*
X0073927Y0195056D03*
X0067537Y0195907D03*
X0067537Y0196120D03*
X0067537Y0196971D03*
X0067537Y0197609D03*
X0067537Y0198034D03*
X0067537Y0198460D03*
X0067537Y0198673D03*
X0067537Y0199524D03*
X0067537Y0199737D03*
X0067537Y0200375D03*
X0067537Y0200588D03*
X0067537Y0201439D03*
X0067537Y0201652D03*
X0067537Y0202077D03*
X0067537Y0202503D03*
X0067537Y0203141D03*
X0067537Y0203460D03*
X0067537Y0203673D03*
X0067537Y0203992D03*
X0067537Y0204205D03*
X0067537Y0204737D03*
X0067537Y0205056D03*
X0067537Y0206971D03*
X0067537Y0207503D03*
X0067537Y0207609D03*
X0067537Y0208141D03*
X0067537Y0212503D03*
X0067537Y0213035D03*
X0067537Y0213140D03*
X0061156Y0202503D03*
X0061156Y0201971D03*
X0061156Y0201120D03*
X0061156Y0200907D03*
X0061156Y0200375D03*
X0061156Y0200056D03*
X0061156Y0199524D03*
X0061156Y0199205D03*
X0061156Y0198992D03*
X0061156Y0198460D03*
X0061156Y0198141D03*
X0061156Y0197077D03*
X0061156Y0196971D03*
X0061156Y0196652D03*
X0061156Y0196439D03*
X0061156Y0195907D03*
X0061156Y0195375D03*
X0061156Y0195056D03*
X0048607Y0202503D03*
X0048497Y0202077D03*
X0048497Y0201971D03*
X0048497Y0201439D03*
X0048497Y0200588D03*
X0048497Y0200375D03*
X0048497Y0199737D03*
X0048497Y0199524D03*
X0048497Y0198673D03*
X0048497Y0198460D03*
X0048497Y0198141D03*
X0048497Y0197503D03*
X0048497Y0197077D03*
X0048497Y0196652D03*
X0048497Y0196120D03*
X0048497Y0195907D03*
X0042007Y0200588D03*
X0042007Y0202503D03*
D77*
X0049402Y0204737D03*
X0108552Y0204737D03*
X0116102Y0195056D03*
X0143442Y0204737D03*
D78*
X0035782Y0195163D03*
D79*
X0030572Y0198248D03*
X0029931Y0204312D03*
X0041102Y0204950D03*
X0049722Y0205162D03*
X0098232Y0204950D03*
X0108232Y0205162D03*
X0116102Y0195163D03*
D80*
X0109402Y0196333D03*
X0109402Y0196546D03*
X0109402Y0196865D03*
X0109402Y0197184D03*
X0109402Y0197397D03*
X0109402Y0197716D03*
X0109402Y0198248D03*
X0109402Y0198780D03*
X0109402Y0200163D03*
X0109402Y0200801D03*
X0109192Y0203248D03*
X0099192Y0202929D03*
X0099192Y0202715D03*
X0099082Y0203248D03*
X0125252Y0204099D03*
X0125252Y0205162D03*
X0125252Y0205482D03*
X0125252Y0205801D03*
X0125252Y0206014D03*
X0125252Y0206333D03*
X0125252Y0207397D03*
X0125252Y0207716D03*
X0125252Y0208248D03*
X0125252Y0208567D03*
X0125252Y0209312D03*
X0125252Y0209631D03*
X0125252Y0210163D03*
X0125252Y0210801D03*
X0125252Y0211014D03*
X0125252Y0211865D03*
X0131952Y0203567D03*
X0131852Y0203248D03*
X0131742Y0202929D03*
X0131742Y0202715D03*
X0125252Y0199312D03*
X0125252Y0199099D03*
X0125252Y0198567D03*
X0125252Y0198248D03*
X0125252Y0197397D03*
X0125252Y0197184D03*
X0125252Y0196546D03*
X0125252Y0196014D03*
X0125252Y0195163D03*
X0144192Y0202929D03*
X0144082Y0203248D03*
X0150681Y0203567D03*
X0150681Y0202929D03*
X0150681Y0202715D03*
X0150681Y0201865D03*
X0150681Y0201332D03*
X0150681Y0201013D03*
X0150681Y0199099D03*
X0150681Y0198780D03*
X0150681Y0197397D03*
X0150681Y0197184D03*
X0150681Y0196546D03*
X0150681Y0205162D03*
X0150681Y0205482D03*
X0150681Y0205801D03*
X0150681Y0207184D03*
X0150681Y0207397D03*
X0150681Y0212716D03*
X0074082Y0202929D03*
X0061102Y0202929D03*
X0061102Y0202715D03*
X0061002Y0203248D03*
X0060892Y0203567D03*
X0061212Y0200801D03*
X0061212Y0200163D03*
X0061212Y0199312D03*
X0061212Y0198567D03*
X0061212Y0198248D03*
X0061212Y0197929D03*
X0061212Y0197184D03*
X0061212Y0196014D03*
X0048762Y0203248D03*
X0048552Y0202396D03*
X0048552Y0201546D03*
X0048552Y0201332D03*
X0048552Y0200482D03*
X0048552Y0199631D03*
X0048552Y0198780D03*
X0048552Y0198567D03*
X0048552Y0197397D03*
X0048552Y0197184D03*
X0048552Y0196546D03*
X0048552Y0196014D03*
X0048552Y0195800D03*
X0041852Y0199950D03*
X0041952Y0200163D03*
X0041952Y0200482D03*
X0042062Y0200801D03*
X0042062Y0201013D03*
X0042062Y0202396D03*
X0042062Y0202715D03*
X0041952Y0202929D03*
X0029612Y0202715D03*
X0029512Y0202184D03*
X0029512Y0201546D03*
X0029612Y0200482D03*
X0029722Y0200163D03*
X0029722Y0199950D03*
X0029512Y0208567D03*
X0029512Y0209312D03*
X0029512Y0209631D03*
X0029512Y0209950D03*
X0029512Y0210482D03*
X0029512Y0211546D03*
X0029512Y0211865D03*
X0029512Y0212184D03*
X0029512Y0212397D03*
X0029512Y0212716D03*
X0029512Y0212929D03*
D81*
X0035842Y0195269D03*
D82*
X0029457Y0201226D03*
X0048497Y0201226D03*
X0048607Y0202822D03*
X0048497Y0198886D03*
X0048497Y0197290D03*
X0048497Y0195694D03*
X0048497Y0195269D03*
X0061156Y0195269D03*
X0061156Y0196226D03*
X0061156Y0197290D03*
X0061156Y0197822D03*
X0061156Y0198354D03*
X0061156Y0198886D03*
X0061156Y0199418D03*
X0061156Y0199843D03*
X0061156Y0200269D03*
X0061156Y0200694D03*
X0061156Y0201758D03*
X0061156Y0202290D03*
X0067537Y0202290D03*
X0067537Y0201226D03*
X0067537Y0198886D03*
X0067537Y0197822D03*
X0067537Y0196758D03*
X0067537Y0195694D03*
X0067537Y0195269D03*
X0067537Y0204418D03*
X0067537Y0205269D03*
X0067537Y0205694D03*
X0067537Y0206226D03*
X0067537Y0206758D03*
X0067537Y0207290D03*
X0067537Y0207822D03*
X0067537Y0208354D03*
X0067437Y0212821D03*
X0074026Y0202822D03*
X0073927Y0202290D03*
X0073927Y0201758D03*
X0073927Y0200694D03*
X0073927Y0199418D03*
X0073927Y0198886D03*
X0073927Y0198354D03*
X0073927Y0196758D03*
X0073927Y0196226D03*
X0073927Y0195694D03*
X0073927Y0195269D03*
X0086587Y0195269D03*
X0086587Y0195694D03*
X0086587Y0196226D03*
X0086587Y0197290D03*
X0086587Y0197822D03*
X0086587Y0198354D03*
X0086587Y0199418D03*
X0086587Y0199843D03*
X0086587Y0200269D03*
X0086587Y0200694D03*
X0086587Y0201758D03*
X0099137Y0202822D03*
X0099247Y0202290D03*
X0099247Y0201226D03*
X0099247Y0200694D03*
X0099247Y0200269D03*
X0099247Y0199843D03*
X0099247Y0199418D03*
X0099247Y0197822D03*
X0099247Y0196226D03*
X0099247Y0195269D03*
X0109457Y0197290D03*
X0109457Y0197822D03*
X0109347Y0198354D03*
X0109347Y0200269D03*
X0109457Y0201226D03*
X0109347Y0202290D03*
X0109347Y0202822D03*
X0125197Y0205269D03*
X0125197Y0206226D03*
X0125197Y0207822D03*
X0125197Y0209418D03*
X0125197Y0210269D03*
X0125197Y0210693D03*
X0131797Y0202822D03*
X0131687Y0202290D03*
X0131687Y0201758D03*
X0131687Y0201226D03*
X0131687Y0200269D03*
X0131687Y0199418D03*
X0131687Y0198886D03*
X0131687Y0198354D03*
X0131687Y0197822D03*
X0131687Y0196758D03*
X0131687Y0196226D03*
X0131687Y0195694D03*
X0131687Y0195269D03*
X0125197Y0195269D03*
X0125197Y0197290D03*
X0125197Y0198354D03*
X0144347Y0198886D03*
X0144347Y0200269D03*
X0144247Y0202290D03*
X0144347Y0196758D03*
X0144347Y0196226D03*
X0144347Y0195269D03*
X0150627Y0195269D03*
X0150627Y0195694D03*
X0150627Y0197290D03*
X0150627Y0198886D03*
X0150627Y0199843D03*
X0150627Y0200269D03*
X0150627Y0201226D03*
X0150627Y0201758D03*
X0150627Y0202822D03*
X0150627Y0204418D03*
X0150627Y0205269D03*
X0150627Y0205694D03*
X0150627Y0206226D03*
X0150627Y0207290D03*
X0150627Y0208354D03*
X0150627Y0212821D03*
X0160097Y0212290D03*
X0160197Y0212821D03*
X0160197Y0210693D03*
X0160197Y0210269D03*
X0160197Y0205694D03*
X0160097Y0205269D03*
X0160197Y0204843D03*
X0160197Y0203886D03*
X0160197Y0203354D03*
X0160197Y0202290D03*
X0160197Y0201758D03*
X0160197Y0200269D03*
X0160197Y0198886D03*
X0160197Y0197822D03*
X0160197Y0196758D03*
X0160197Y0196226D03*
D83*
X0143072Y0205269D03*
X0116262Y0195269D03*
X0108182Y0205269D03*
X0075202Y0205269D03*
X0059882Y0205269D03*
X0049772Y0205269D03*
D84*
X0067487Y0204843D03*
X0067487Y0203886D03*
X0067487Y0203354D03*
X0067487Y0202822D03*
X0067487Y0201758D03*
X0067487Y0200694D03*
X0067487Y0200269D03*
X0067487Y0199843D03*
X0067487Y0199418D03*
X0067487Y0198354D03*
X0067487Y0197290D03*
X0067487Y0196226D03*
X0073977Y0197290D03*
X0073977Y0197822D03*
X0073977Y0199843D03*
X0073977Y0200269D03*
X0073977Y0201226D03*
X0086637Y0201226D03*
X0086637Y0202290D03*
X0086637Y0198886D03*
X0086637Y0196758D03*
X0099297Y0196758D03*
X0099297Y0197290D03*
X0099297Y0198354D03*
X0099297Y0198886D03*
X0099297Y0201758D03*
X0099297Y0195694D03*
X0131637Y0197290D03*
X0131637Y0199843D03*
X0131637Y0200694D03*
X0144297Y0200694D03*
X0144297Y0201226D03*
X0144297Y0201758D03*
X0144297Y0199843D03*
X0144297Y0198354D03*
X0144297Y0197822D03*
X0144297Y0197290D03*
X0144297Y0195694D03*
X0160147Y0195269D03*
X0160147Y0197290D03*
X0160147Y0198354D03*
X0160147Y0199418D03*
X0160147Y0199843D03*
X0160147Y0200694D03*
X0160147Y0201226D03*
X0160147Y0202822D03*
X0160147Y0204418D03*
X0160147Y0206226D03*
X0160147Y0209843D03*
X0160147Y0211226D03*
X0160147Y0211757D03*
D85*
X0035837Y0195375D03*
D86*
X0048657Y0203035D03*
X0048657Y0203141D03*
X0067487Y0203035D03*
X0067487Y0202609D03*
X0067487Y0201971D03*
X0067487Y0201120D03*
X0067487Y0200907D03*
X0067487Y0200056D03*
X0067487Y0199205D03*
X0067487Y0198992D03*
X0067487Y0198141D03*
X0067487Y0197503D03*
X0067487Y0197077D03*
X0067487Y0196652D03*
X0067487Y0196439D03*
X0067487Y0195588D03*
X0067487Y0195375D03*
X0067487Y0204524D03*
X0067487Y0205375D03*
X0067487Y0205588D03*
X0067487Y0205907D03*
X0067487Y0206120D03*
X0067487Y0206439D03*
X0067487Y0206652D03*
X0067487Y0207077D03*
X0067487Y0208035D03*
X0067487Y0212609D03*
X0073977Y0202609D03*
X0073977Y0202503D03*
X0073977Y0201652D03*
X0073977Y0201120D03*
X0073977Y0200375D03*
X0073977Y0199524D03*
X0073977Y0198992D03*
X0073977Y0198673D03*
X0073977Y0196971D03*
X0073977Y0196439D03*
X0073977Y0196120D03*
X0073977Y0195907D03*
X0086637Y0195907D03*
X0086637Y0196120D03*
X0086637Y0196439D03*
X0086637Y0196971D03*
X0086637Y0197609D03*
X0086637Y0198034D03*
X0086637Y0198673D03*
X0086637Y0199524D03*
X0086637Y0199737D03*
X0086637Y0200588D03*
X0086637Y0201120D03*
X0086637Y0201439D03*
X0086637Y0201652D03*
X0086637Y0202077D03*
X0086637Y0202503D03*
X0086637Y0195588D03*
X0086637Y0195375D03*
X0099297Y0195907D03*
X0099297Y0196971D03*
X0099297Y0197609D03*
X0099297Y0198034D03*
X0099297Y0198673D03*
X0099297Y0199205D03*
X0099297Y0199524D03*
X0099297Y0199737D03*
X0099297Y0200588D03*
X0099297Y0201120D03*
X0099297Y0201439D03*
X0109297Y0203035D03*
X0131637Y0201652D03*
X0131637Y0201120D03*
X0131637Y0200056D03*
X0131637Y0199205D03*
X0131637Y0198992D03*
X0131637Y0197077D03*
X0131637Y0196652D03*
X0131637Y0196439D03*
X0144297Y0196439D03*
X0144297Y0196120D03*
X0144297Y0195907D03*
X0144297Y0195588D03*
X0144297Y0196971D03*
X0144297Y0197609D03*
X0144297Y0198460D03*
X0144297Y0198673D03*
X0144297Y0198992D03*
X0144297Y0199205D03*
X0144297Y0199524D03*
X0144297Y0200056D03*
X0144297Y0200375D03*
X0144297Y0200907D03*
X0144297Y0201971D03*
X0144297Y0202609D03*
X0160147Y0202503D03*
X0160147Y0201971D03*
X0160147Y0201652D03*
X0160147Y0201120D03*
X0160147Y0200907D03*
X0160147Y0200588D03*
X0160147Y0200375D03*
X0160147Y0200056D03*
X0160147Y0199524D03*
X0160147Y0198992D03*
X0160147Y0198673D03*
X0160147Y0198460D03*
X0160147Y0198034D03*
X0160147Y0197077D03*
X0160147Y0196439D03*
X0160147Y0196120D03*
X0160147Y0195907D03*
X0160147Y0195588D03*
X0160147Y0203035D03*
X0160147Y0203141D03*
X0160147Y0203460D03*
X0160147Y0203673D03*
X0160147Y0204524D03*
X0160147Y0205588D03*
X0160147Y0206120D03*
X0160147Y0209737D03*
X0160147Y0210056D03*
X0160147Y0210374D03*
X0160147Y0210588D03*
X0160147Y0210907D03*
X0160147Y0211120D03*
X0160147Y0211439D03*
X0160147Y0212076D03*
X0160147Y0212609D03*
D87*
X0142752Y0205588D03*
X0116262Y0195375D03*
X0107861Y0205588D03*
X0103922Y0208992D03*
X0097752Y0205588D03*
X0075522Y0205588D03*
X0050092Y0205588D03*
X0040522Y0205588D03*
D88*
X0035787Y0195482D03*
D89*
X0048657Y0202929D03*
X0067487Y0203248D03*
X0067487Y0203567D03*
X0067487Y0204099D03*
X0067487Y0204312D03*
X0067487Y0204631D03*
X0067487Y0205162D03*
X0067487Y0205801D03*
X0067487Y0206865D03*
X0067487Y0207184D03*
X0067487Y0207397D03*
X0067487Y0207716D03*
X0067487Y0207929D03*
X0067487Y0202396D03*
X0067487Y0202184D03*
X0067487Y0201546D03*
X0067487Y0201332D03*
X0067487Y0200482D03*
X0067487Y0199631D03*
X0067487Y0198780D03*
X0067487Y0198567D03*
X0067487Y0197929D03*
X0067487Y0197716D03*
X0067487Y0196865D03*
X0067487Y0196014D03*
X0067487Y0195800D03*
X0073977Y0195800D03*
X0073977Y0195482D03*
X0073977Y0196546D03*
X0073977Y0197397D03*
X0073977Y0197716D03*
X0073977Y0198248D03*
X0073977Y0198567D03*
X0073977Y0199099D03*
X0073977Y0199950D03*
X0073977Y0200801D03*
X0073977Y0201546D03*
X0073977Y0202184D03*
X0073977Y0202396D03*
X0086637Y0200801D03*
X0086637Y0200482D03*
X0086637Y0200163D03*
X0086637Y0199950D03*
X0086637Y0199312D03*
X0086637Y0199099D03*
X0086637Y0198567D03*
X0086637Y0198248D03*
X0086637Y0197929D03*
X0086637Y0197397D03*
X0086637Y0197184D03*
X0086637Y0196546D03*
X0086637Y0195800D03*
X0098977Y0203567D03*
X0099297Y0200801D03*
X0099297Y0200163D03*
X0099297Y0196333D03*
X0109297Y0202715D03*
X0109297Y0202929D03*
X0131637Y0201332D03*
X0131637Y0200482D03*
X0131637Y0199631D03*
X0131637Y0198567D03*
X0131637Y0198248D03*
X0131637Y0197929D03*
X0131637Y0197716D03*
X0131637Y0196014D03*
X0131637Y0195800D03*
X0144297Y0196014D03*
X0144297Y0196865D03*
X0144297Y0197184D03*
X0144297Y0197397D03*
X0144297Y0199312D03*
X0144297Y0200163D03*
X0144297Y0201013D03*
X0144297Y0201546D03*
X0144297Y0202184D03*
X0144297Y0202396D03*
X0160147Y0202396D03*
X0160147Y0202184D03*
X0160147Y0201546D03*
X0160147Y0201013D03*
X0160147Y0200163D03*
X0160147Y0199099D03*
X0160147Y0198567D03*
X0160147Y0197929D03*
X0160147Y0197716D03*
X0160147Y0197397D03*
X0160147Y0196865D03*
X0160147Y0196546D03*
X0160147Y0196014D03*
X0160147Y0195800D03*
X0160147Y0195482D03*
X0160147Y0203779D03*
X0160147Y0204099D03*
X0160147Y0204631D03*
X0160147Y0204950D03*
X0160147Y0205162D03*
X0160147Y0205482D03*
X0160147Y0205801D03*
X0160147Y0206014D03*
X0160147Y0210482D03*
X0160147Y0211546D03*
X0160147Y0211865D03*
X0160147Y0212184D03*
X0160147Y0212716D03*
D90*
X0142862Y0205482D03*
X0116262Y0207929D03*
X0116372Y0195482D03*
X0075412Y0205482D03*
X0040522Y0197716D03*
X0031052Y0197716D03*
X0030092Y0204631D03*
D91*
X0035837Y0195588D03*
D92*
X0030252Y0205056D03*
X0116531Y0207609D03*
X0116422Y0195588D03*
X0142382Y0205907D03*
D93*
X0035782Y0195694D03*
D94*
X0041852Y0199843D03*
X0041952Y0200269D03*
X0042062Y0200694D03*
X0042062Y0201226D03*
X0042062Y0201758D03*
X0042062Y0202290D03*
X0041952Y0202822D03*
X0041852Y0203354D03*
X0048552Y0202290D03*
X0048552Y0201758D03*
X0048552Y0200694D03*
X0048552Y0200269D03*
X0048552Y0199843D03*
X0048552Y0199418D03*
X0048552Y0198354D03*
X0048552Y0197822D03*
X0048552Y0196758D03*
X0048552Y0196226D03*
X0048762Y0203354D03*
X0061212Y0201226D03*
X0061212Y0196758D03*
X0061212Y0195694D03*
X0074192Y0203354D03*
X0109192Y0203354D03*
X0109402Y0201758D03*
X0109402Y0200694D03*
X0109402Y0199843D03*
X0109402Y0199418D03*
X0109402Y0198886D03*
X0109402Y0196758D03*
X0109402Y0195694D03*
X0125252Y0195694D03*
X0125252Y0196226D03*
X0125252Y0196758D03*
X0125252Y0197822D03*
X0125252Y0198886D03*
X0125252Y0199418D03*
X0125252Y0203886D03*
X0125252Y0204418D03*
X0125252Y0204843D03*
X0125252Y0205694D03*
X0125252Y0206758D03*
X0125252Y0207290D03*
X0125252Y0208354D03*
X0125252Y0208886D03*
X0125252Y0209843D03*
X0125252Y0211226D03*
X0125252Y0211757D03*
X0125252Y0212290D03*
X0125252Y0212821D03*
X0144082Y0203354D03*
X0144192Y0202822D03*
X0150681Y0202290D03*
X0150681Y0203354D03*
X0150681Y0203886D03*
X0150681Y0204843D03*
X0150681Y0206758D03*
X0150681Y0207822D03*
X0150681Y0200694D03*
X0150681Y0199418D03*
X0150681Y0198354D03*
X0150681Y0197822D03*
X0150681Y0196758D03*
X0150681Y0196226D03*
X0029612Y0200269D03*
X0029512Y0202290D03*
X0029512Y0208354D03*
X0029512Y0209843D03*
X0029512Y0210269D03*
X0029512Y0211226D03*
X0029512Y0211757D03*
D95*
X0104082Y0208886D03*
X0116531Y0195694D03*
D96*
X0035842Y0195800D03*
D97*
X0040202Y0197397D03*
X0116582Y0195800D03*
X0116692Y0207397D03*
D98*
X0035837Y0195907D03*
D99*
X0035787Y0209205D03*
X0054827Y0209205D03*
X0080257Y0209205D03*
X0116636Y0195907D03*
D100*
X0035787Y0196014D03*
D101*
X0116741Y0196014D03*
D102*
X0035842Y0196120D03*
D103*
X0039831Y0206120D03*
X0050782Y0206120D03*
X0076212Y0206120D03*
X0107172Y0206120D03*
X0116951Y0207077D03*
X0117062Y0206971D03*
X0118122Y0206120D03*
X0119832Y0204737D03*
X0120151Y0204524D03*
X0116852Y0196120D03*
X0142062Y0206120D03*
D104*
X0035837Y0196226D03*
D105*
X0086632Y0204418D03*
X0116951Y0196226D03*
X0118662Y0205694D03*
X0118022Y0206226D03*
D106*
X0035842Y0196333D03*
D107*
X0039831Y0197184D03*
X0117062Y0196333D03*
X0120682Y0204099D03*
X0117592Y0206545D03*
D108*
X0035837Y0196439D03*
D109*
X0030412Y0205375D03*
X0086581Y0204524D03*
X0117222Y0196439D03*
X0119032Y0205375D03*
X0118392Y0205907D03*
X0117751Y0206439D03*
D110*
X0080252Y0206865D03*
X0054832Y0206865D03*
X0035782Y0196546D03*
D111*
X0030467Y0205482D03*
X0117277Y0196546D03*
X0117597Y0196865D03*
X0118017Y0197184D03*
X0118337Y0197397D03*
X0118977Y0197929D03*
X0120466Y0199099D03*
D112*
X0035787Y0196652D03*
D113*
X0117382Y0196652D03*
D114*
X0035842Y0196758D03*
D115*
X0117541Y0196758D03*
X0120202Y0198886D03*
X0119242Y0205269D03*
D116*
X0035782Y0196865D03*
D117*
X0032432Y0196971D03*
X0035842Y0208992D03*
X0054882Y0208992D03*
D118*
X0036742Y0209524D03*
X0035891Y0196971D03*
X0035572Y0196971D03*
D119*
X0036157Y0196971D03*
D120*
X0039297Y0196971D03*
X0123977Y0201652D03*
D121*
X0120787Y0203992D03*
X0120357Y0198992D03*
X0119937Y0198673D03*
X0119617Y0198460D03*
X0119297Y0198141D03*
X0118446Y0197503D03*
X0117807Y0196971D03*
X0104187Y0208673D03*
D122*
X0032012Y0197077D03*
X0030622Y0205588D03*
D123*
X0034937Y0209524D03*
X0035146Y0209524D03*
X0034827Y0197077D03*
X0053977Y0209524D03*
X0055787Y0209524D03*
X0079297Y0209524D03*
D124*
X0117912Y0197077D03*
X0120571Y0199205D03*
D125*
X0119777Y0198567D03*
X0119987Y0204631D03*
X0119347Y0205162D03*
X0118927Y0205482D03*
X0118287Y0206014D03*
X0117856Y0206333D03*
X0031796Y0197184D03*
D126*
X0031637Y0197290D03*
D127*
X0040042Y0197290D03*
D128*
X0117327Y0206758D03*
X0119777Y0204843D03*
X0120307Y0204418D03*
X0120947Y0203886D03*
X0120837Y0199418D03*
X0118177Y0197290D03*
D129*
X0031477Y0197397D03*
D130*
X0031317Y0197503D03*
X0050466Y0205907D03*
D131*
X0040417Y0197609D03*
X0040306Y0197503D03*
D132*
X0031212Y0197609D03*
X0030042Y0204737D03*
X0059612Y0205588D03*
X0133232Y0205588D03*
D133*
X0133927Y0206120D03*
X0120517Y0204205D03*
X0119456Y0205056D03*
X0118817Y0205588D03*
X0117436Y0206652D03*
X0119137Y0198034D03*
X0118607Y0197609D03*
X0097007Y0206120D03*
X0058926Y0206120D03*
D134*
X0117222Y0206865D03*
X0119561Y0204950D03*
X0120412Y0204312D03*
X0120732Y0199312D03*
X0118712Y0197716D03*
D135*
X0132917Y0205269D03*
X0030997Y0197822D03*
D136*
X0040627Y0197822D03*
D137*
X0118872Y0197822D03*
D138*
X0030891Y0197929D03*
D139*
X0040787Y0197929D03*
X0086637Y0203779D03*
X0097807Y0205482D03*
X0133127Y0205482D03*
X0138017Y0209312D03*
D140*
X0133017Y0205375D03*
X0116207Y0208035D03*
X0108017Y0205375D03*
X0097917Y0205375D03*
X0075256Y0205375D03*
X0059827Y0205375D03*
X0030786Y0198034D03*
D141*
X0030681Y0198141D03*
X0143232Y0205056D03*
D142*
X0054827Y0209312D03*
X0040997Y0198248D03*
X0029826Y0204099D03*
D143*
X0118551Y0205801D03*
X0120042Y0198780D03*
X0119402Y0198248D03*
D144*
X0108497Y0204843D03*
X0086587Y0203354D03*
X0074877Y0204843D03*
X0049457Y0204843D03*
X0041157Y0204843D03*
X0030517Y0198354D03*
X0029776Y0203886D03*
X0132647Y0204843D03*
D145*
X0041102Y0198354D03*
D146*
X0076426Y0206226D03*
X0119507Y0198354D03*
D147*
X0132757Y0205056D03*
X0098177Y0205056D03*
X0086587Y0203460D03*
X0060307Y0204737D03*
X0041157Y0198460D03*
X0030517Y0198460D03*
D148*
X0030362Y0198567D03*
X0041211Y0198567D03*
X0060362Y0204631D03*
X0074722Y0204631D03*
D149*
X0041211Y0204737D03*
X0030362Y0198673D03*
D150*
X0029826Y0203992D03*
X0041317Y0198673D03*
X0049297Y0204524D03*
X0060467Y0204524D03*
X0074827Y0204737D03*
X0108657Y0204524D03*
X0132487Y0204737D03*
D151*
X0143712Y0204312D03*
X0074562Y0204312D03*
X0041371Y0198780D03*
X0029772Y0203779D03*
X0029672Y0203567D03*
D152*
X0030202Y0198886D03*
X0049242Y0204418D03*
X0098602Y0204418D03*
X0116052Y0208354D03*
X0143602Y0204418D03*
D153*
X0132327Y0204418D03*
X0041477Y0198886D03*
D154*
X0030092Y0198992D03*
X0086581Y0203035D03*
X0086581Y0203141D03*
X0132432Y0204524D03*
X0143602Y0204524D03*
D155*
X0098497Y0204524D03*
X0041477Y0198992D03*
D156*
X0041526Y0199099D03*
X0041637Y0199312D03*
X0041747Y0203779D03*
X0048977Y0204099D03*
X0060577Y0204312D03*
X0060677Y0204099D03*
X0074296Y0203779D03*
X0074407Y0204099D03*
X0086637Y0202929D03*
X0098657Y0204312D03*
X0098767Y0204099D03*
X0108867Y0204099D03*
X0132167Y0204099D03*
X0132277Y0204312D03*
X0143767Y0204099D03*
X0030147Y0199099D03*
X0029937Y0199312D03*
X0029617Y0203248D03*
D157*
X0030037Y0199205D03*
X0041637Y0199205D03*
X0041637Y0203992D03*
X0041526Y0204205D03*
X0048977Y0203992D03*
X0049087Y0204205D03*
X0060577Y0204205D03*
X0074407Y0203992D03*
X0074507Y0204205D03*
X0108867Y0204205D03*
X0108976Y0203992D03*
X0115997Y0208460D03*
X0143767Y0204205D03*
X0143867Y0203992D03*
D158*
X0143922Y0203886D03*
X0131902Y0203354D03*
X0099031Y0203354D03*
X0074352Y0203886D03*
X0041692Y0203886D03*
X0041692Y0199418D03*
X0029562Y0202822D03*
D159*
X0029881Y0199524D03*
X0041692Y0199524D03*
X0041902Y0200056D03*
X0060732Y0203992D03*
X0074242Y0203673D03*
X0086581Y0202609D03*
X0098922Y0203673D03*
X0099031Y0203460D03*
X0131902Y0203460D03*
X0144032Y0203460D03*
X0144032Y0203673D03*
D160*
X0122647Y0199524D03*
X0086587Y0205907D03*
D161*
X0086581Y0202715D03*
X0086581Y0202396D03*
X0074242Y0203567D03*
X0098922Y0203779D03*
X0109032Y0203779D03*
X0143922Y0203779D03*
X0144032Y0203567D03*
X0160092Y0209631D03*
X0048922Y0203779D03*
X0041902Y0203248D03*
X0029562Y0202929D03*
X0029881Y0199631D03*
D162*
X0041797Y0199631D03*
X0041797Y0203567D03*
X0048817Y0203567D03*
X0060837Y0203779D03*
X0074137Y0203248D03*
X0109137Y0203567D03*
X0115947Y0208567D03*
X0132007Y0203779D03*
D163*
X0122647Y0199631D03*
D164*
X0132007Y0203673D03*
X0132116Y0203992D03*
X0109137Y0203460D03*
X0098817Y0203992D03*
X0060946Y0203460D03*
X0060837Y0203673D03*
X0048817Y0203673D03*
X0041797Y0203673D03*
X0041797Y0203460D03*
X0041797Y0199737D03*
X0029667Y0203141D03*
D165*
X0080257Y0208460D03*
X0122807Y0199737D03*
D166*
X0132116Y0203886D03*
X0098817Y0203886D03*
X0060946Y0203354D03*
X0029667Y0203354D03*
X0029776Y0199843D03*
D167*
X0122807Y0199843D03*
D168*
X0122912Y0199950D03*
D169*
X0122967Y0200056D03*
D170*
X0123017Y0200163D03*
X0138017Y0208567D03*
D171*
X0123072Y0200269D03*
D172*
X0123177Y0200375D03*
X0092967Y0208673D03*
X0035837Y0208673D03*
D173*
X0123177Y0200482D03*
D174*
X0123337Y0200588D03*
X0105677Y0206652D03*
D175*
X0061051Y0202822D03*
X0029562Y0201758D03*
X0029562Y0200694D03*
X0029562Y0208886D03*
X0029562Y0209418D03*
X0029562Y0210693D03*
X0029562Y0212290D03*
X0029562Y0212821D03*
D176*
X0123337Y0200694D03*
D177*
X0029562Y0200801D03*
X0029562Y0201013D03*
X0029562Y0201332D03*
X0029562Y0201865D03*
X0029562Y0202396D03*
X0029562Y0208248D03*
X0029562Y0208780D03*
X0029562Y0209099D03*
X0029562Y0210163D03*
X0029562Y0210801D03*
X0029562Y0211014D03*
X0029562Y0211333D03*
D178*
X0035787Y0208780D03*
X0054827Y0208780D03*
X0123447Y0200801D03*
D179*
X0029562Y0200907D03*
X0029562Y0201439D03*
X0029562Y0202077D03*
X0029562Y0202503D03*
X0029562Y0208141D03*
X0029562Y0208460D03*
X0029562Y0209524D03*
X0029562Y0209737D03*
X0029562Y0210056D03*
X0029562Y0210374D03*
X0029562Y0211439D03*
X0029562Y0211652D03*
X0029562Y0211971D03*
X0029562Y0212076D03*
X0029562Y0212609D03*
D180*
X0086587Y0205375D03*
X0104987Y0207503D03*
X0123496Y0202503D03*
X0123496Y0200907D03*
D181*
X0123552Y0201013D03*
X0104831Y0207716D03*
D182*
X0042116Y0202077D03*
X0042116Y0201971D03*
X0042116Y0201652D03*
X0042116Y0201439D03*
X0042116Y0201120D03*
D183*
X0123601Y0201120D03*
D184*
X0042116Y0201332D03*
X0042116Y0201546D03*
X0042116Y0201865D03*
X0042116Y0202184D03*
D185*
X0123706Y0201332D03*
D186*
X0123872Y0201439D03*
D187*
X0123867Y0201546D03*
X0141527Y0206333D03*
X0104507Y0208248D03*
X0096427Y0206333D03*
X0076746Y0206333D03*
X0039297Y0206333D03*
D188*
X0086581Y0204843D03*
X0123922Y0201758D03*
D189*
X0123817Y0201971D03*
X0104567Y0208141D03*
D190*
X0123762Y0202077D03*
D191*
X0123657Y0202184D03*
D192*
X0123657Y0202290D03*
X0080257Y0208886D03*
X0054827Y0208886D03*
X0035787Y0208886D03*
D193*
X0123496Y0202396D03*
D194*
X0123391Y0202609D03*
X0106051Y0206439D03*
D195*
X0105841Y0206545D03*
X0105202Y0207184D03*
X0105092Y0207397D03*
X0123391Y0202715D03*
D196*
X0123337Y0202822D03*
X0105146Y0207290D03*
D197*
X0123122Y0203035D03*
X0138022Y0208673D03*
X0080252Y0208673D03*
X0054832Y0208673D03*
D198*
X0123127Y0203141D03*
D199*
X0132487Y0204631D03*
X0086637Y0203248D03*
X0049297Y0204631D03*
X0041317Y0204631D03*
D200*
X0122962Y0203248D03*
D201*
X0122912Y0203354D03*
D202*
X0132222Y0204205D03*
X0098711Y0204205D03*
X0074672Y0204524D03*
X0041371Y0204524D03*
X0029772Y0203673D03*
X0029672Y0203460D03*
D203*
X0122912Y0203460D03*
D204*
X0132862Y0205162D03*
X0143182Y0205162D03*
X0098071Y0205162D03*
X0086581Y0203567D03*
D205*
X0086581Y0205801D03*
X0122862Y0203567D03*
D206*
X0086581Y0203673D03*
X0049882Y0205375D03*
X0040732Y0205375D03*
X0029881Y0204205D03*
D207*
X0054882Y0208460D03*
X0122752Y0203673D03*
D208*
X0122702Y0203779D03*
D209*
X0086581Y0203886D03*
D210*
X0086587Y0203992D03*
D211*
X0086637Y0204099D03*
X0097487Y0205801D03*
X0133447Y0205801D03*
X0142487Y0205801D03*
D212*
X0137961Y0209205D03*
X0133602Y0205907D03*
X0116582Y0207503D03*
X0097332Y0205907D03*
X0086581Y0204205D03*
X0075842Y0205907D03*
X0059241Y0205907D03*
X0040202Y0205907D03*
D213*
X0041477Y0204312D03*
X0049137Y0204312D03*
X0108817Y0204312D03*
D214*
X0097967Y0205269D03*
X0029987Y0204418D03*
D215*
X0041422Y0204418D03*
D216*
X0060522Y0204418D03*
X0074562Y0204418D03*
X0108712Y0204418D03*
D217*
X0029987Y0204524D03*
D218*
X0086581Y0204631D03*
D219*
X0098441Y0204631D03*
X0108552Y0204631D03*
X0116102Y0208248D03*
X0143552Y0204631D03*
D220*
X0098391Y0204737D03*
D221*
X0050197Y0205694D03*
X0030097Y0204843D03*
D222*
X0060251Y0204843D03*
X0098342Y0204843D03*
D223*
X0143392Y0204843D03*
D224*
X0107592Y0205801D03*
X0059402Y0205801D03*
X0030252Y0204950D03*
D225*
X0049567Y0204950D03*
X0060197Y0204950D03*
X0074987Y0204950D03*
X0103817Y0209099D03*
X0132647Y0204950D03*
X0143287Y0204950D03*
D226*
X0108392Y0204950D03*
D227*
X0108337Y0205056D03*
X0049617Y0205056D03*
X0040997Y0205056D03*
D228*
X0060041Y0205056D03*
X0075042Y0205056D03*
D229*
X0086637Y0205056D03*
D230*
X0107327Y0206014D03*
X0050627Y0206014D03*
X0039986Y0206014D03*
X0030307Y0205162D03*
D231*
X0040942Y0205162D03*
X0075092Y0205162D03*
D232*
X0060041Y0205162D03*
D233*
X0086581Y0205162D03*
D234*
X0030412Y0205269D03*
D235*
X0040842Y0205269D03*
D236*
X0086581Y0205269D03*
D237*
X0116157Y0208141D03*
X0142967Y0205375D03*
D238*
X0107966Y0205482D03*
X0049987Y0205482D03*
X0040627Y0205482D03*
X0035837Y0209312D03*
D239*
X0059722Y0205482D03*
D240*
X0086637Y0205482D03*
X0105467Y0206865D03*
D241*
X0086581Y0205588D03*
X0160202Y0206439D03*
D242*
X0039617Y0206226D03*
X0030677Y0205694D03*
D243*
X0040417Y0205694D03*
X0075627Y0205694D03*
D244*
X0059512Y0205694D03*
X0097592Y0205694D03*
X0107702Y0205694D03*
X0116422Y0207822D03*
X0133342Y0205694D03*
X0142702Y0205694D03*
D245*
X0086637Y0205694D03*
D246*
X0106582Y0206333D03*
X0051262Y0206333D03*
X0030732Y0205801D03*
D247*
X0040306Y0205801D03*
X0050307Y0205801D03*
X0116477Y0207716D03*
D248*
X0075732Y0205801D03*
D249*
X0030891Y0205907D03*
D250*
X0107487Y0205907D03*
D251*
X0030947Y0206014D03*
D252*
X0086581Y0206014D03*
D253*
X0097167Y0206014D03*
X0133767Y0206014D03*
D254*
X0142222Y0206014D03*
X0116902Y0207184D03*
D255*
X0031107Y0206120D03*
D256*
X0086581Y0206120D03*
D257*
X0031367Y0206226D03*
D258*
X0051052Y0206226D03*
X0096792Y0206226D03*
X0106902Y0206226D03*
X0141792Y0206226D03*
D259*
X0058712Y0206226D03*
D260*
X0086587Y0206226D03*
D261*
X0091847Y0206226D03*
D262*
X0134137Y0206226D03*
D263*
X0031687Y0206333D03*
D264*
X0058392Y0206333D03*
D265*
X0086532Y0206333D03*
D266*
X0134402Y0206333D03*
D267*
X0034986Y0206439D03*
D268*
X0034192Y0208035D03*
X0054832Y0206439D03*
X0138022Y0206439D03*
D269*
X0086581Y0206439D03*
D270*
X0034986Y0206545D03*
D271*
X0054882Y0206545D03*
D272*
X0080257Y0206545D03*
D273*
X0092967Y0206545D03*
X0137967Y0206545D03*
D274*
X0160147Y0206545D03*
D275*
X0034882Y0206652D03*
D276*
X0054882Y0206652D03*
X0092961Y0206652D03*
X0137961Y0206652D03*
D277*
X0080307Y0206652D03*
D278*
X0160147Y0206652D03*
D279*
X0034827Y0206758D03*
D280*
X0054882Y0206758D03*
D281*
X0080307Y0206758D03*
X0092967Y0206758D03*
X0137967Y0206758D03*
D282*
X0105622Y0206758D03*
D283*
X0160147Y0206758D03*
D284*
X0034877Y0206865D03*
D285*
X0092912Y0206865D03*
D286*
X0137967Y0206865D03*
D287*
X0160197Y0206865D03*
X0160197Y0209099D03*
D288*
X0034827Y0206971D03*
D289*
X0054827Y0206971D03*
X0080257Y0206971D03*
X0138017Y0206971D03*
D290*
X0092967Y0206971D03*
D291*
X0105412Y0206971D03*
D292*
X0160147Y0206971D03*
D293*
X0034722Y0207077D03*
D294*
X0054827Y0207077D03*
D295*
X0080252Y0207077D03*
X0092912Y0207077D03*
X0138022Y0207077D03*
D296*
X0105307Y0207077D03*
D297*
X0160202Y0207077D03*
X0160202Y0208992D03*
D298*
X0034722Y0207184D03*
D299*
X0054882Y0207184D03*
D300*
X0080252Y0207184D03*
X0092912Y0207184D03*
X0138022Y0207184D03*
D301*
X0160202Y0207184D03*
D302*
X0034617Y0207290D03*
D303*
X0054827Y0207290D03*
X0080257Y0207290D03*
X0092917Y0207290D03*
D304*
X0116797Y0207290D03*
D305*
X0137967Y0207290D03*
D306*
X0160147Y0207290D03*
D307*
X0034562Y0207397D03*
D308*
X0054827Y0207397D03*
D309*
X0080252Y0207397D03*
X0092912Y0207397D03*
X0138022Y0207397D03*
D310*
X0160197Y0207397D03*
X0160197Y0208567D03*
X0080307Y0207929D03*
D311*
X0034562Y0207503D03*
D312*
X0054827Y0207503D03*
D313*
X0080252Y0207503D03*
X0092912Y0207503D03*
D314*
X0137967Y0207503D03*
D315*
X0160147Y0207503D03*
D316*
X0034452Y0207609D03*
D317*
X0054827Y0207609D03*
X0080257Y0207609D03*
X0092917Y0207609D03*
X0138017Y0207609D03*
D318*
X0104932Y0207609D03*
D319*
X0160202Y0207609D03*
X0160202Y0208035D03*
X0160202Y0208141D03*
X0160202Y0208460D03*
D320*
X0034402Y0207716D03*
D321*
X0054882Y0207716D03*
D322*
X0080307Y0207716D03*
X0092967Y0207716D03*
X0137967Y0207716D03*
D323*
X0160202Y0207716D03*
X0160202Y0207929D03*
X0160202Y0208248D03*
D324*
X0034347Y0207822D03*
D325*
X0054882Y0207822D03*
X0092961Y0207822D03*
X0160202Y0207822D03*
X0160202Y0208354D03*
D326*
X0080252Y0207822D03*
D327*
X0104777Y0207822D03*
D328*
X0138017Y0207822D03*
D329*
X0034242Y0207929D03*
D330*
X0054832Y0207929D03*
X0092912Y0207929D03*
D331*
X0104722Y0207929D03*
D332*
X0137967Y0207929D03*
D333*
X0138017Y0208035D03*
X0092917Y0208035D03*
X0080257Y0208035D03*
X0054827Y0208035D03*
D334*
X0104617Y0208035D03*
D335*
X0092967Y0208141D03*
X0054877Y0208141D03*
X0035837Y0208141D03*
X0137967Y0208141D03*
D336*
X0080252Y0208141D03*
D337*
X0035842Y0208248D03*
X0160202Y0209312D03*
D338*
X0138017Y0208248D03*
X0092917Y0208248D03*
X0080257Y0208248D03*
X0054827Y0208248D03*
D339*
X0054827Y0208354D03*
X0035787Y0208354D03*
X0160147Y0209418D03*
D340*
X0080252Y0208354D03*
D341*
X0092967Y0208354D03*
X0137967Y0208354D03*
D342*
X0104407Y0208354D03*
D343*
X0035837Y0208460D03*
D344*
X0092917Y0208460D03*
D345*
X0104402Y0208460D03*
D346*
X0137967Y0208460D03*
D347*
X0035787Y0208567D03*
D348*
X0054882Y0208567D03*
D349*
X0080252Y0208567D03*
X0092912Y0208567D03*
D350*
X0104297Y0208567D03*
X0138017Y0209099D03*
X0054827Y0209099D03*
D351*
X0160197Y0208673D03*
D352*
X0080252Y0208780D03*
D353*
X0092912Y0208780D03*
D354*
X0137967Y0208780D03*
D355*
X0160147Y0208780D03*
D356*
X0067542Y0208886D03*
D357*
X0092917Y0208886D03*
X0138017Y0208886D03*
D358*
X0150627Y0208886D03*
D359*
X0160202Y0208886D03*
D360*
X0067542Y0208992D03*
X0029562Y0213673D03*
D361*
X0080307Y0208992D03*
X0092967Y0208992D03*
X0137967Y0208992D03*
D362*
X0115836Y0208992D03*
D363*
X0035837Y0209099D03*
D364*
X0080307Y0209099D03*
D365*
X0092912Y0209099D03*
D366*
X0092912Y0209205D03*
D367*
X0115731Y0209205D03*
D368*
X0160202Y0209205D03*
D369*
X0092967Y0209312D03*
X0080307Y0209312D03*
D370*
X0067487Y0214099D03*
X0115787Y0209312D03*
D371*
X0067542Y0209418D03*
D372*
X0103447Y0209418D03*
X0029507Y0213886D03*
D373*
X0115737Y0209418D03*
D374*
X0137967Y0209418D03*
D375*
X0150677Y0209418D03*
D376*
X0035891Y0209524D03*
D377*
X0054877Y0209524D03*
X0067537Y0214204D03*
X0150627Y0214204D03*
D378*
X0067542Y0209524D03*
D379*
X0103287Y0209524D03*
D380*
X0115782Y0209524D03*
D381*
X0150627Y0209524D03*
D382*
X0160197Y0209524D03*
D383*
X0067222Y0209631D03*
D384*
X0067487Y0211226D03*
D385*
X0150681Y0211226D03*
D386*
X0150627Y0211333D03*
X0067537Y0211333D03*
D387*
X0150627Y0211439D03*
D388*
X0150627Y0211546D03*
D389*
X0160147Y0213673D03*
X0125257Y0213673D03*
X0067487Y0211652D03*
D390*
X0067492Y0211865D03*
X0029512Y0213567D03*
X0125252Y0213567D03*
X0160152Y0213567D03*
D391*
X0067487Y0213459D03*
X0067487Y0211971D03*
D392*
X0029507Y0213459D03*
X0150677Y0213459D03*
X0150677Y0212076D03*
X0150677Y0211971D03*
D393*
X0125257Y0213354D03*
D394*
X0160147Y0213354D03*
D395*
X0067542Y0213567D03*
D396*
X0125252Y0213780D03*
D397*
X0160147Y0213780D03*
D398*
X0067542Y0213886D03*
D399*
X0125252Y0213886D03*
D400*
X0150622Y0213886D03*
D401*
X0160147Y0213886D03*
D402*
X0029562Y0213992D03*
D403*
X0067492Y0213992D03*
X0150681Y0213992D03*
D404*
X0029507Y0214099D03*
D405*
X0125252Y0214099D03*
D406*
X0160147Y0214099D03*
D407*
X0029507Y0214204D03*
D408*
X0125252Y0214204D03*
D409*
X0160147Y0214204D03*
D410*
X0150627Y0214312D03*
X0067537Y0214312D03*
D411*
X0003649Y0081460D02*
X0004505Y0080317D01*
X0005513Y0079309D01*
X0006655Y0078452D01*
X0007908Y0077769D01*
X0009245Y0077271D01*
X0010639Y0076968D01*
X0012062Y0076866D01*
X0182062Y0076866D01*
X0183485Y0076968D01*
X0184878Y0077271D01*
X0186216Y0077769D01*
X0187468Y0078452D01*
X0188611Y0079309D01*
X0189619Y0080317D01*
X0190475Y0081460D01*
X0191157Y0082712D01*
X0191657Y0084049D01*
X0191960Y0085443D01*
X0192062Y0086866D01*
X0192062Y0381866D01*
X0191960Y0383289D01*
X0191657Y0384683D01*
X0191157Y0386020D01*
X0190475Y0387272D01*
X0189619Y0388415D01*
X0188611Y0389423D01*
X0187468Y0390279D01*
X0186216Y0390962D01*
X0184878Y0391461D01*
X0183485Y0391764D01*
X0182062Y0391866D01*
X0012062Y0391866D01*
X0010639Y0391764D01*
X0009245Y0391461D01*
X0007908Y0390962D01*
X0006655Y0390279D01*
X0005513Y0389423D01*
X0004505Y0388415D01*
X0003649Y0387272D01*
X0002966Y0386020D01*
X0002467Y0384683D01*
X0002164Y0383289D01*
X0002062Y0381866D01*
X0002062Y0086866D01*
X0002164Y0085443D01*
X0002467Y0084049D01*
X0002966Y0082712D01*
X0003649Y0081460D01*
X0003543Y0081654D02*
X0190581Y0081654D01*
X0190908Y0082253D02*
X0003216Y0082253D01*
X0002914Y0082851D02*
X0191210Y0082851D01*
X0191433Y0083450D02*
X0002690Y0083450D01*
X0002467Y0084047D02*
X0191657Y0084047D01*
X0191786Y0084646D02*
X0002337Y0084646D01*
X0002207Y0085245D02*
X0191917Y0085245D01*
X0191989Y0085844D02*
X0002134Y0085844D01*
X0002091Y0086442D02*
X0192032Y0086442D01*
X0192062Y0087041D02*
X0002062Y0087041D01*
X0002062Y0087639D02*
X0192062Y0087639D01*
X0192062Y0088238D02*
X0002062Y0088238D01*
X0002062Y0088836D02*
X0192062Y0088836D01*
X0192062Y0089434D02*
X0002062Y0089434D01*
X0002062Y0090033D02*
X0192062Y0090033D01*
X0192062Y0090632D02*
X0002062Y0090632D01*
X0002062Y0091230D02*
X0192062Y0091230D01*
X0192062Y0091829D02*
X0002062Y0091829D01*
X0002062Y0092427D02*
X0192062Y0092427D01*
X0192062Y0093026D02*
X0002062Y0093026D01*
X0002062Y0093624D02*
X0192062Y0093624D01*
X0192062Y0094223D02*
X0002062Y0094223D01*
X0002062Y0094821D02*
X0192062Y0094821D01*
X0192062Y0095420D02*
X0002062Y0095420D01*
X0002062Y0096018D02*
X0192062Y0096018D01*
X0192062Y0096617D02*
X0002062Y0096617D01*
X0002062Y0097215D02*
X0192062Y0097215D01*
X0192062Y0097814D02*
X0002062Y0097814D01*
X0002062Y0098411D02*
X0192062Y0098411D01*
X0192062Y0099011D02*
X0002062Y0099011D01*
X0002062Y0099609D02*
X0192062Y0099609D01*
X0192062Y0100208D02*
X0002062Y0100208D01*
X0002062Y0100806D02*
X0192062Y0100806D01*
X0192062Y0101404D02*
X0002062Y0101404D01*
X0002062Y0102003D02*
X0192062Y0102003D01*
X0192062Y0102602D02*
X0002062Y0102602D01*
X0002062Y0103200D02*
X0192062Y0103200D01*
X0192062Y0103799D02*
X0002062Y0103799D01*
X0002062Y0104397D02*
X0192062Y0104397D01*
X0192062Y0104996D02*
X0002062Y0104996D01*
X0002062Y0105595D02*
X0192062Y0105595D01*
X0192062Y0106193D02*
X0002062Y0106193D01*
X0002062Y0106792D02*
X0192062Y0106792D01*
X0192062Y0107390D02*
X0002062Y0107390D01*
X0002062Y0107989D02*
X0192062Y0107989D01*
X0192062Y0108586D02*
X0002062Y0108586D01*
X0002062Y0109186D02*
X0192062Y0109186D01*
X0192062Y0109783D02*
X0002062Y0109783D01*
X0002062Y0110383D02*
X0192062Y0110383D01*
X0192062Y0110981D02*
X0002062Y0110981D01*
X0002062Y0111579D02*
X0192062Y0111579D01*
X0192062Y0112178D02*
X0002062Y0112178D01*
X0002062Y0112777D02*
X0192062Y0112777D01*
X0192062Y0113375D02*
X0002062Y0113375D01*
X0002062Y0113974D02*
X0192062Y0113974D01*
X0192062Y0114572D02*
X0002062Y0114572D01*
X0002062Y0115171D02*
X0192062Y0115171D01*
X0192062Y0115769D02*
X0002062Y0115769D01*
X0002062Y0116368D02*
X0192062Y0116368D01*
X0192062Y0116965D02*
X0002062Y0116965D01*
X0002062Y0117565D02*
X0192062Y0117565D01*
X0192062Y0118163D02*
X0002062Y0118163D01*
X0002062Y0118761D02*
X0192062Y0118761D01*
X0192062Y0119360D02*
X0002062Y0119360D01*
X0002062Y0119959D02*
X0192062Y0119959D01*
X0192062Y0120557D02*
X0002062Y0120557D01*
X0002062Y0121156D02*
X0192062Y0121156D01*
X0192062Y0121754D02*
X0002062Y0121754D01*
X0002062Y0122353D02*
X0192062Y0122353D01*
X0192062Y0122951D02*
X0002062Y0122951D01*
X0002062Y0123550D02*
X0192062Y0123550D01*
X0192062Y0124147D02*
X0002062Y0124147D01*
X0002062Y0124747D02*
X0192062Y0124747D01*
X0192062Y0125345D02*
X0002062Y0125345D01*
X0002062Y0125943D02*
X0192062Y0125943D01*
X0192062Y0126542D02*
X0002062Y0126542D01*
X0002062Y0127141D02*
X0192062Y0127141D01*
X0192062Y0127739D02*
X0002062Y0127739D01*
X0002062Y0128338D02*
X0192062Y0128338D01*
X0192062Y0128936D02*
X0002062Y0128936D01*
X0002062Y0129535D02*
X0192062Y0129535D01*
X0192062Y0130134D02*
X0002062Y0130134D01*
X0002062Y0130732D02*
X0192062Y0130732D01*
X0192062Y0131331D02*
X0002062Y0131331D01*
X0002062Y0131929D02*
X0192062Y0131929D01*
X0192062Y0132528D02*
X0002062Y0132528D01*
X0002062Y0133126D02*
X0192062Y0133126D01*
X0192062Y0133725D02*
X0002062Y0133725D01*
X0002062Y0134323D02*
X0192062Y0134323D01*
X0192062Y0134922D02*
X0002062Y0134922D01*
X0002062Y0135519D02*
X0192062Y0135519D01*
X0192062Y0136119D02*
X0002062Y0136119D01*
X0002062Y0136717D02*
X0192062Y0136717D01*
X0192062Y0137316D02*
X0002062Y0137316D01*
X0002062Y0137914D02*
X0192062Y0137914D01*
X0192062Y0138513D02*
X0002062Y0138513D01*
X0002062Y0139110D02*
X0192062Y0139110D01*
X0192062Y0139710D02*
X0002062Y0139710D01*
X0002062Y0140308D02*
X0192062Y0140308D01*
X0192062Y0140907D02*
X0002062Y0140907D01*
X0002062Y0141505D02*
X0192062Y0141505D01*
X0192062Y0142104D02*
X0002062Y0142104D01*
X0002062Y0142702D02*
X0192062Y0142702D01*
X0192062Y0143301D02*
X0002062Y0143301D01*
X0002062Y0143899D02*
X0192062Y0143899D01*
X0192062Y0144498D02*
X0002062Y0144498D01*
X0002062Y0145096D02*
X0192062Y0145096D01*
X0192062Y0145695D02*
X0002062Y0145695D01*
X0002062Y0146293D02*
X0192062Y0146293D01*
X0192062Y0146892D02*
X0002062Y0146892D01*
X0002062Y0147490D02*
X0192062Y0147490D01*
X0192062Y0148089D02*
X0002062Y0148089D01*
X0002062Y0148687D02*
X0192062Y0148687D01*
X0192062Y0149286D02*
X0002062Y0149286D01*
X0002062Y0149884D02*
X0192062Y0149884D01*
X0192062Y0150482D02*
X0002062Y0150482D01*
X0002062Y0151081D02*
X0192062Y0151081D01*
X0192062Y0151680D02*
X0002062Y0151680D01*
X0002062Y0152278D02*
X0192062Y0152278D01*
X0192062Y0152877D02*
X0002062Y0152877D01*
X0002062Y0153475D02*
X0192062Y0153475D01*
X0192062Y0154073D02*
X0002062Y0154073D01*
X0002062Y0154672D02*
X0192062Y0154672D01*
X0192062Y0155271D02*
X0002062Y0155271D01*
X0002062Y0155869D02*
X0192062Y0155869D01*
X0192062Y0156468D02*
X0002062Y0156468D01*
X0002062Y0157067D02*
X0192062Y0157067D01*
X0192062Y0157665D02*
X0002062Y0157665D01*
X0002062Y0158264D02*
X0192062Y0158264D01*
X0192062Y0158862D02*
X0002062Y0158862D01*
X0002062Y0159461D02*
X0192062Y0159461D01*
X0192062Y0160059D02*
X0002062Y0160059D01*
X0002062Y0160658D02*
X0192062Y0160658D01*
X0192062Y0161256D02*
X0002062Y0161256D01*
X0002062Y0161855D02*
X0192062Y0161855D01*
X0192062Y0162453D02*
X0002062Y0162453D01*
X0002062Y0163052D02*
X0192062Y0163052D01*
X0192062Y0163649D02*
X0002062Y0163649D01*
X0002062Y0164249D02*
X0192062Y0164249D01*
X0192062Y0164847D02*
X0002062Y0164847D01*
X0002062Y0165446D02*
X0192062Y0165446D01*
X0192062Y0166044D02*
X0002062Y0166044D01*
X0002062Y0166643D02*
X0192062Y0166643D01*
X0192062Y0167241D02*
X0002062Y0167241D01*
X0002062Y0167840D02*
X0192062Y0167840D01*
X0192062Y0168438D02*
X0002062Y0168438D01*
X0002062Y0169037D02*
X0192062Y0169037D01*
X0192062Y0169635D02*
X0002062Y0169635D01*
X0002062Y0170234D02*
X0192062Y0170234D01*
X0192062Y0170832D02*
X0002062Y0170832D01*
X0002062Y0171431D02*
X0192062Y0171431D01*
X0192062Y0172029D02*
X0002062Y0172029D01*
X0002062Y0172628D02*
X0192062Y0172628D01*
X0192062Y0173226D02*
X0002062Y0173226D01*
X0002062Y0173825D02*
X0192062Y0173825D01*
X0192062Y0174423D02*
X0002062Y0174423D01*
X0002062Y0175022D02*
X0192062Y0175022D01*
X0192062Y0175620D02*
X0002062Y0175620D01*
X0002062Y0176219D02*
X0192062Y0176219D01*
X0192062Y0176817D02*
X0002062Y0176817D01*
X0002062Y0177416D02*
X0192062Y0177416D01*
X0192062Y0178014D02*
X0002062Y0178014D01*
X0002062Y0178612D02*
X0192062Y0178612D01*
X0192062Y0179211D02*
X0002062Y0179211D01*
X0002062Y0179810D02*
X0192062Y0179810D01*
X0192062Y0180408D02*
X0002062Y0180408D01*
X0002062Y0181007D02*
X0192062Y0181007D01*
X0192062Y0181605D02*
X0002062Y0181605D01*
X0002062Y0182204D02*
X0192062Y0182204D01*
X0192062Y0182803D02*
X0002062Y0182803D01*
X0002062Y0183401D02*
X0192062Y0183401D01*
X0192062Y0184000D02*
X0002062Y0184000D01*
X0002062Y0184598D02*
X0192062Y0184598D01*
X0192062Y0185197D02*
X0002062Y0185197D01*
X0002062Y0185795D02*
X0192062Y0185795D01*
X0192062Y0186394D02*
X0002062Y0186394D01*
X0002062Y0186992D02*
X0192062Y0186992D01*
X0192062Y0187591D02*
X0002062Y0187591D01*
X0002062Y0188189D02*
X0192062Y0188189D01*
X0192062Y0188788D02*
X0002062Y0188788D01*
X0002062Y0189386D02*
X0192062Y0189386D01*
X0192062Y0189985D02*
X0002062Y0189985D01*
X0002062Y0190583D02*
X0192062Y0190583D01*
X0192062Y0191182D02*
X0002062Y0191182D01*
X0002062Y0191780D02*
X0192062Y0191780D01*
X0192062Y0192379D02*
X0002062Y0192379D01*
X0002062Y0192977D02*
X0192062Y0192977D01*
X0192062Y0193575D02*
X0002062Y0193575D01*
X0002062Y0194174D02*
X0192062Y0194174D01*
X0192062Y0194773D02*
X0002062Y0194773D01*
X0002062Y0195371D02*
X0192062Y0195371D01*
X0192062Y0195970D02*
X0002062Y0195970D01*
X0002062Y0196568D02*
X0192062Y0196568D01*
X0192062Y0197166D02*
X0002062Y0197166D01*
X0002062Y0197765D02*
X0192062Y0197765D01*
X0192062Y0198364D02*
X0002062Y0198364D01*
X0002062Y0198962D02*
X0192062Y0198962D01*
X0192062Y0199561D02*
X0002062Y0199561D01*
X0002062Y0200159D02*
X0192062Y0200159D01*
X0192062Y0200758D02*
X0002062Y0200758D01*
X0002062Y0201356D02*
X0192062Y0201356D01*
X0192062Y0201955D02*
X0002062Y0201955D01*
X0002062Y0202552D02*
X0192062Y0202552D01*
X0192062Y0203152D02*
X0002062Y0203152D01*
X0002062Y0203750D02*
X0192062Y0203750D01*
X0192062Y0204348D02*
X0002062Y0204348D01*
X0002062Y0204947D02*
X0192062Y0204947D01*
X0192062Y0205546D02*
X0002062Y0205546D01*
X0002062Y0206144D02*
X0192062Y0206144D01*
X0192062Y0206743D02*
X0002062Y0206743D01*
X0002062Y0207341D02*
X0192062Y0207341D01*
X0192062Y0207940D02*
X0002062Y0207940D01*
X0002062Y0208537D02*
X0192062Y0208537D01*
X0192062Y0209137D02*
X0002062Y0209137D01*
X0002062Y0209736D02*
X0192062Y0209736D01*
X0192062Y0210334D02*
X0002062Y0210334D01*
X0002062Y0210933D02*
X0192062Y0210933D01*
X0192062Y0211531D02*
X0002062Y0211531D01*
X0002062Y0212130D02*
X0192062Y0212130D01*
X0192062Y0212727D02*
X0002062Y0212727D01*
X0002062Y0213327D02*
X0192062Y0213327D01*
X0192062Y0213925D02*
X0002062Y0213925D01*
X0002062Y0214523D02*
X0192062Y0214523D01*
X0192062Y0215122D02*
X0002062Y0215122D01*
X0002062Y0215721D02*
X0192062Y0215721D01*
X0192062Y0216319D02*
X0002062Y0216319D01*
X0002062Y0216918D02*
X0192062Y0216918D01*
X0192062Y0217516D02*
X0002062Y0217516D01*
X0002062Y0218115D02*
X0192062Y0218115D01*
X0192062Y0218712D02*
X0002062Y0218712D01*
X0002062Y0219312D02*
X0192062Y0219312D01*
X0192062Y0219910D02*
X0002062Y0219910D01*
X0002062Y0220509D02*
X0192062Y0220509D01*
X0192062Y0221107D02*
X0002062Y0221107D01*
X0002062Y0221706D02*
X0192062Y0221706D01*
X0192062Y0222304D02*
X0002062Y0222304D01*
X0002062Y0222902D02*
X0192062Y0222902D01*
X0192062Y0223501D02*
X0002062Y0223501D01*
X0002062Y0224100D02*
X0192062Y0224100D01*
X0192062Y0224698D02*
X0002062Y0224698D01*
X0002062Y0225297D02*
X0192062Y0225297D01*
X0192062Y0225895D02*
X0002062Y0225895D01*
X0002062Y0226494D02*
X0192062Y0226494D01*
X0192062Y0227091D02*
X0002062Y0227091D01*
X0002062Y0227691D02*
X0192062Y0227691D01*
X0192062Y0228289D02*
X0002062Y0228289D01*
X0002062Y0228887D02*
X0192062Y0228887D01*
X0192062Y0229486D02*
X0002062Y0229486D01*
X0002062Y0230085D02*
X0192062Y0230085D01*
X0192062Y0230683D02*
X0002062Y0230683D01*
X0002062Y0231282D02*
X0192062Y0231282D01*
X0192062Y0231880D02*
X0002062Y0231880D01*
X0002062Y0232479D02*
X0192062Y0232479D01*
X0192062Y0233076D02*
X0002062Y0233076D01*
X0002062Y0233676D02*
X0192062Y0233676D01*
X0192062Y0234274D02*
X0002062Y0234274D01*
X0002062Y0234873D02*
X0192062Y0234873D01*
X0192062Y0235471D02*
X0002062Y0235471D01*
X0002062Y0236070D02*
X0192062Y0236070D01*
X0192062Y0236669D02*
X0002062Y0236669D01*
X0002062Y0237266D02*
X0192062Y0237266D01*
X0192062Y0237866D02*
X0002062Y0237866D01*
X0002062Y0238464D02*
X0192062Y0238464D01*
X0192062Y0239062D02*
X0002062Y0239062D01*
X0002062Y0239661D02*
X0192062Y0239661D01*
X0192062Y0240260D02*
X0002062Y0240260D01*
X0002062Y0240858D02*
X0192062Y0240858D01*
X0192062Y0241457D02*
X0002062Y0241457D01*
X0002062Y0242055D02*
X0192062Y0242055D01*
X0192062Y0242654D02*
X0002062Y0242654D01*
X0002062Y0243251D02*
X0192062Y0243251D01*
X0192062Y0243851D02*
X0002062Y0243851D01*
X0002062Y0244449D02*
X0192062Y0244449D01*
X0192062Y0245048D02*
X0002062Y0245048D01*
X0002062Y0245646D02*
X0192062Y0245646D01*
X0192062Y0246245D02*
X0002062Y0246245D01*
X0002062Y0246843D02*
X0192062Y0246843D01*
X0192062Y0247441D02*
X0002062Y0247441D01*
X0002062Y0248040D02*
X0192062Y0248040D01*
X0192062Y0248639D02*
X0002062Y0248639D01*
X0002062Y0249237D02*
X0192062Y0249237D01*
X0192062Y0249836D02*
X0002062Y0249836D01*
X0002062Y0250434D02*
X0192062Y0250434D01*
X0192062Y0251033D02*
X0002062Y0251033D01*
X0002062Y0251630D02*
X0192062Y0251630D01*
X0192062Y0252230D02*
X0002062Y0252230D01*
X0002062Y0252828D02*
X0192062Y0252828D01*
X0192062Y0253426D02*
X0002062Y0253426D01*
X0002062Y0254025D02*
X0192062Y0254025D01*
X0192062Y0254624D02*
X0002062Y0254624D01*
X0002062Y0255221D02*
X0192062Y0255221D01*
X0192062Y0255821D02*
X0002062Y0255821D01*
X0002062Y0256419D02*
X0192062Y0256419D01*
X0192062Y0257018D02*
X0002062Y0257018D01*
X0002062Y0257615D02*
X0192062Y0257615D01*
X0192062Y0258215D02*
X0002062Y0258215D01*
X0002062Y0258813D02*
X0192062Y0258813D01*
X0192062Y0259412D02*
X0002062Y0259412D01*
X0002062Y0260010D02*
X0192062Y0260010D01*
X0192062Y0260608D02*
X0002062Y0260608D01*
X0002062Y0261207D02*
X0192062Y0261207D01*
X0192062Y0261805D02*
X0002062Y0261805D01*
X0002062Y0262405D02*
X0192062Y0262405D01*
X0192062Y0263003D02*
X0002062Y0263003D01*
X0002062Y0263602D02*
X0192062Y0263602D01*
X0192062Y0264200D02*
X0002062Y0264200D01*
X0002062Y0264799D02*
X0192062Y0264799D01*
X0192062Y0265397D02*
X0002062Y0265397D01*
X0002062Y0265996D02*
X0192062Y0265996D01*
X0192062Y0266593D02*
X0002062Y0266593D01*
X0002062Y0267193D02*
X0192062Y0267193D01*
X0192062Y0267791D02*
X0002062Y0267791D01*
X0002062Y0268390D02*
X0192062Y0268390D01*
X0192062Y0268988D02*
X0002062Y0268988D01*
X0002062Y0269587D02*
X0192062Y0269587D01*
X0192062Y0270185D02*
X0002062Y0270185D01*
X0002062Y0270784D02*
X0192062Y0270784D01*
X0192062Y0271382D02*
X0002062Y0271382D01*
X0002062Y0271980D02*
X0192062Y0271980D01*
X0192062Y0272579D02*
X0002062Y0272579D01*
X0002062Y0273178D02*
X0192062Y0273178D01*
X0192062Y0273776D02*
X0002062Y0273776D01*
X0002062Y0274375D02*
X0192062Y0274375D01*
X0192062Y0274973D02*
X0002062Y0274973D01*
X0002062Y0275572D02*
X0192062Y0275572D01*
X0192062Y0276170D02*
X0002062Y0276170D01*
X0002062Y0276769D02*
X0192062Y0276769D01*
X0192062Y0277367D02*
X0002062Y0277367D01*
X0002062Y0277965D02*
X0192062Y0277965D01*
X0192062Y0278564D02*
X0002062Y0278564D01*
X0002062Y0279162D02*
X0192062Y0279162D01*
X0192062Y0279760D02*
X0002062Y0279760D01*
X0002062Y0280360D02*
X0192062Y0280360D01*
X0192062Y0280958D02*
X0002062Y0280958D01*
X0002062Y0281557D02*
X0192062Y0281557D01*
X0192062Y0282155D02*
X0002062Y0282155D01*
X0002062Y0282754D02*
X0192062Y0282754D01*
X0192062Y0283352D02*
X0002062Y0283352D01*
X0002062Y0283951D02*
X0192062Y0283951D01*
X0192062Y0284549D02*
X0002062Y0284549D01*
X0002062Y0285147D02*
X0192062Y0285147D01*
X0192062Y0285746D02*
X0002062Y0285746D01*
X0002062Y0286345D02*
X0192062Y0286345D01*
X0192062Y0286943D02*
X0002062Y0286943D01*
X0002062Y0287542D02*
X0192062Y0287542D01*
X0192062Y0288140D02*
X0002062Y0288140D01*
X0002062Y0288739D02*
X0192062Y0288739D01*
X0192062Y0289338D02*
X0002062Y0289338D01*
X0002062Y0289936D02*
X0192062Y0289936D01*
X0192062Y0290534D02*
X0002062Y0290534D01*
X0002062Y0291132D02*
X0192062Y0291132D01*
X0192062Y0291732D02*
X0002062Y0291732D01*
X0002062Y0292330D02*
X0192062Y0292330D01*
X0192062Y0292929D02*
X0002062Y0292929D01*
X0002062Y0293527D02*
X0192062Y0293527D01*
X0192062Y0294126D02*
X0002062Y0294126D01*
X0002062Y0294724D02*
X0192062Y0294724D01*
X0192062Y0295323D02*
X0002062Y0295323D01*
X0002062Y0295921D02*
X0192062Y0295921D01*
X0192062Y0296519D02*
X0002062Y0296519D01*
X0002062Y0297118D02*
X0192062Y0297118D01*
X0192062Y0297717D02*
X0002062Y0297717D01*
X0002062Y0298315D02*
X0192062Y0298315D01*
X0192062Y0298914D02*
X0002062Y0298914D01*
X0002062Y0299512D02*
X0192062Y0299512D01*
X0192062Y0300111D02*
X0002062Y0300111D01*
X0002062Y0300709D02*
X0192062Y0300709D01*
X0192062Y0301308D02*
X0002062Y0301308D01*
X0002062Y0301906D02*
X0192062Y0301906D01*
X0192062Y0302504D02*
X0002062Y0302504D01*
X0002062Y0303103D02*
X0192062Y0303103D01*
X0192062Y0303701D02*
X0002062Y0303701D01*
X0002062Y0304300D02*
X0192062Y0304300D01*
X0192062Y0304899D02*
X0002062Y0304899D01*
X0002062Y0305497D02*
X0192062Y0305497D01*
X0192062Y0306096D02*
X0002062Y0306096D01*
X0002062Y0306694D02*
X0192062Y0306694D01*
X0192062Y0307293D02*
X0002062Y0307293D01*
X0002062Y0307891D02*
X0192062Y0307891D01*
X0192062Y0308490D02*
X0002062Y0308490D01*
X0002062Y0309088D02*
X0192062Y0309088D01*
X0192062Y0309686D02*
X0002062Y0309686D01*
X0002062Y0310285D02*
X0192062Y0310285D01*
X0192062Y0310884D02*
X0002062Y0310884D01*
X0002062Y0311482D02*
X0192062Y0311482D01*
X0192062Y0312081D02*
X0002062Y0312081D01*
X0002062Y0312679D02*
X0192062Y0312679D01*
X0192062Y0313278D02*
X0002062Y0313278D01*
X0002062Y0313876D02*
X0192062Y0313876D01*
X0192062Y0314475D02*
X0002062Y0314475D01*
X0002062Y0315073D02*
X0192062Y0315073D01*
X0192062Y0315672D02*
X0002062Y0315672D01*
X0002062Y0316271D02*
X0192062Y0316271D01*
X0192062Y0316869D02*
X0002062Y0316869D01*
X0002062Y0317468D02*
X0192062Y0317468D01*
X0192062Y0318066D02*
X0002062Y0318066D01*
X0002062Y0318665D02*
X0192062Y0318665D01*
X0192062Y0319263D02*
X0002062Y0319263D01*
X0002062Y0319862D02*
X0192062Y0319862D01*
X0192062Y0320460D02*
X0002062Y0320460D01*
X0002062Y0321058D02*
X0192062Y0321058D01*
X0192062Y0321657D02*
X0002062Y0321657D01*
X0002062Y0322255D02*
X0192062Y0322255D01*
X0192062Y0322854D02*
X0002062Y0322854D01*
X0002062Y0323453D02*
X0192062Y0323453D01*
X0192062Y0324051D02*
X0002062Y0324051D01*
X0002062Y0324650D02*
X0192062Y0324650D01*
X0192062Y0325248D02*
X0002062Y0325248D01*
X0002062Y0325847D02*
X0192062Y0325847D01*
X0192062Y0326445D02*
X0002062Y0326445D01*
X0002062Y0327044D02*
X0192062Y0327044D01*
X0192062Y0327642D02*
X0002062Y0327642D01*
X0002062Y0328240D02*
X0192062Y0328240D01*
X0192062Y0328839D02*
X0002062Y0328839D01*
X0002062Y0329438D02*
X0192062Y0329438D01*
X0192062Y0330036D02*
X0002062Y0330036D01*
X0002062Y0330635D02*
X0192062Y0330635D01*
X0192062Y0331233D02*
X0002062Y0331233D01*
X0002062Y0331832D02*
X0192062Y0331832D01*
X0192062Y0332430D02*
X0002062Y0332430D01*
X0002062Y0333029D02*
X0192062Y0333029D01*
X0192062Y0333627D02*
X0002062Y0333627D01*
X0002062Y0334225D02*
X0192062Y0334225D01*
X0192062Y0334824D02*
X0002062Y0334824D01*
X0002062Y0335423D02*
X0192062Y0335423D01*
X0192062Y0336021D02*
X0002062Y0336021D01*
X0002062Y0336620D02*
X0192062Y0336620D01*
X0192062Y0337218D02*
X0002062Y0337218D01*
X0002062Y0337817D02*
X0192062Y0337817D01*
X0192062Y0338415D02*
X0002062Y0338415D01*
X0002062Y0339014D02*
X0192062Y0339014D01*
X0192062Y0339612D02*
X0002062Y0339612D01*
X0002062Y0340211D02*
X0192062Y0340211D01*
X0192062Y0340809D02*
X0002062Y0340809D01*
X0002062Y0341408D02*
X0192062Y0341408D01*
X0192062Y0342007D02*
X0002062Y0342007D01*
X0002062Y0342605D02*
X0192062Y0342605D01*
X0192062Y0343204D02*
X0002062Y0343204D01*
X0002062Y0343802D02*
X0192062Y0343802D01*
X0192062Y0344401D02*
X0002062Y0344401D01*
X0002062Y0344999D02*
X0192062Y0344999D01*
X0192062Y0345597D02*
X0002062Y0345597D01*
X0002062Y0346196D02*
X0192062Y0346196D01*
X0192062Y0346794D02*
X0002062Y0346794D01*
X0002062Y0347393D02*
X0192062Y0347393D01*
X0192062Y0347992D02*
X0002062Y0347992D01*
X0002062Y0348590D02*
X0192062Y0348590D01*
X0192062Y0349189D02*
X0002062Y0349189D01*
X0002062Y0349787D02*
X0192062Y0349787D01*
X0192062Y0350386D02*
X0002062Y0350386D01*
X0002062Y0350984D02*
X0192062Y0350984D01*
X0192062Y0351583D02*
X0002062Y0351583D01*
X0002062Y0352181D02*
X0192062Y0352181D01*
X0192062Y0352779D02*
X0002062Y0352779D01*
X0002062Y0353378D02*
X0192062Y0353378D01*
X0192062Y0353977D02*
X0002062Y0353977D01*
X0002062Y0354575D02*
X0192062Y0354575D01*
X0192062Y0355174D02*
X0002062Y0355174D01*
X0002062Y0355772D02*
X0192062Y0355772D01*
X0192062Y0356371D02*
X0002062Y0356371D01*
X0002062Y0356969D02*
X0192062Y0356969D01*
X0192062Y0357568D02*
X0002062Y0357568D01*
X0002062Y0358166D02*
X0192062Y0358166D01*
X0192062Y0358765D02*
X0002062Y0358765D01*
X0002062Y0359363D02*
X0192062Y0359363D01*
X0192062Y0359962D02*
X0002062Y0359962D01*
X0002062Y0360560D02*
X0192062Y0360560D01*
X0192062Y0361159D02*
X0002062Y0361159D01*
X0002062Y0361757D02*
X0192062Y0361757D01*
X0192062Y0362356D02*
X0002062Y0362356D01*
X0002062Y0362954D02*
X0192062Y0362954D01*
X0192062Y0363553D02*
X0002062Y0363553D01*
X0002062Y0364151D02*
X0192062Y0364151D01*
X0192062Y0364750D02*
X0002062Y0364750D01*
X0002062Y0365348D02*
X0192062Y0365348D01*
X0192062Y0365947D02*
X0002062Y0365947D01*
X0002062Y0366545D02*
X0192062Y0366545D01*
X0192062Y0367144D02*
X0002062Y0367144D01*
X0002062Y0367743D02*
X0192062Y0367743D01*
X0192062Y0368341D02*
X0002062Y0368341D01*
X0002062Y0368940D02*
X0192062Y0368940D01*
X0192062Y0369538D02*
X0002062Y0369538D01*
X0002062Y0370137D02*
X0192062Y0370137D01*
X0192062Y0370735D02*
X0002062Y0370735D01*
X0002062Y0371333D02*
X0192062Y0371333D01*
X0192062Y0371932D02*
X0002062Y0371932D01*
X0002062Y0372531D02*
X0192062Y0372531D01*
X0192062Y0373129D02*
X0002062Y0373129D01*
X0002062Y0373728D02*
X0192062Y0373728D01*
X0192062Y0374326D02*
X0002062Y0374326D01*
X0002062Y0374925D02*
X0192062Y0374925D01*
X0192062Y0375523D02*
X0002062Y0375523D01*
X0002062Y0376122D02*
X0192062Y0376122D01*
X0192062Y0376720D02*
X0002062Y0376720D01*
X0002062Y0377318D02*
X0192062Y0377318D01*
X0192062Y0377917D02*
X0002062Y0377917D01*
X0002062Y0378516D02*
X0192062Y0378516D01*
X0192062Y0379114D02*
X0002062Y0379114D01*
X0002062Y0379713D02*
X0192062Y0379713D01*
X0192062Y0380311D02*
X0002062Y0380311D01*
X0002062Y0380910D02*
X0192062Y0380910D01*
X0192062Y0381508D02*
X0002062Y0381508D01*
X0002079Y0382107D02*
X0192045Y0382107D01*
X0192002Y0382705D02*
X0002122Y0382705D01*
X0002167Y0383304D02*
X0191957Y0383304D01*
X0191826Y0383902D02*
X0002297Y0383902D01*
X0002427Y0384501D02*
X0191697Y0384501D01*
X0191502Y0385099D02*
X0002622Y0385099D01*
X0002845Y0385698D02*
X0191279Y0385698D01*
X0191008Y0386296D02*
X0003117Y0386296D01*
X0003443Y0386895D02*
X0190681Y0386895D01*
X0190309Y0387493D02*
X0003815Y0387493D01*
X0004263Y0388092D02*
X0189861Y0388092D01*
X0189344Y0388690D02*
X0004780Y0388690D01*
X0005378Y0389289D02*
X0188745Y0389289D01*
X0187991Y0389887D02*
X0006133Y0389887D01*
X0007035Y0390486D02*
X0187089Y0390486D01*
X0185889Y0391084D02*
X0008235Y0391084D01*
X0010265Y0391683D02*
X0183859Y0391683D01*
X0190172Y0081056D02*
X0003952Y0081056D01*
X0004400Y0080457D02*
X0189724Y0080457D01*
X0189160Y0079859D02*
X0004963Y0079859D01*
X0005578Y0079259D02*
X0188546Y0079259D01*
X0187746Y0078662D02*
X0006378Y0078662D01*
X0007371Y0078063D02*
X0186753Y0078063D01*
X0185398Y0077465D02*
X0008726Y0077465D01*
X0012062Y0076866D02*
X0037062Y0076866D01*
X0182062Y0076866D01*
G04 next file*
%LPD*%
G75*
D422*
X0196850Y0070866D02*
X0235725Y0193780D03*
X0237215Y0193780D03*
X0236574Y0206333D03*
X0230405Y0214312D03*
X0249555Y0193780D03*
X0255085Y0206333D03*
X0255405Y0206333D03*
X0255934Y0206333D03*
X0256144Y0206333D03*
X0268595Y0209631D03*
X0278275Y0209099D03*
X0280725Y0206333D03*
X0281255Y0206333D03*
X0274445Y0193780D03*
X0268065Y0193780D03*
X0293275Y0206333D03*
X0294125Y0206333D03*
X0300294Y0193780D03*
X0325725Y0193780D03*
X0332744Y0193780D03*
X0338385Y0206333D03*
X0338805Y0206333D03*
X0339235Y0206333D03*
X0345405Y0193780D03*
X0351145Y0193780D03*
X0361145Y0193780D03*
X0363065Y0209631D03*
X0363275Y0209631D03*
X0363914Y0209631D03*
X0364445Y0209631D03*
X0358914Y0209631D03*
X0358385Y0209631D03*
X0358065Y0209631D03*
X0357635Y0209631D03*
X0357425Y0209631D03*
X0351785Y0209631D03*
X0351145Y0209631D03*
D423*
X0358644Y0209631D03*
X0274715Y0193780D03*
X0236095Y0193780D03*
X0236945Y0206333D03*
D424*
X0236680Y0193780D03*
D425*
X0249230Y0193780D03*
X0268380Y0193780D03*
X0299980Y0193780D03*
X0310190Y0193780D03*
X0316570Y0193780D03*
X0326040Y0193780D03*
X0345080Y0193780D03*
X0351470Y0209631D03*
X0360830Y0193780D03*
D426*
X0262000Y0193780D03*
D427*
X0268330Y0209631D03*
X0275030Y0193780D03*
X0364180Y0209631D03*
D428*
X0363490Y0209631D03*
X0362849Y0209631D03*
X0357850Y0209631D03*
X0338170Y0206333D03*
X0326360Y0193780D03*
X0310510Y0193780D03*
X0304340Y0206333D03*
X0299660Y0193780D03*
X0287000Y0193780D03*
X0236360Y0206333D03*
X0230189Y0214312D03*
D429*
X0287425Y0193780D03*
D430*
X0332369Y0193780D03*
X0351520Y0193780D03*
D431*
X0351465Y0194843D03*
X0345085Y0199418D03*
X0351465Y0212290D03*
X0360935Y0195694D03*
X0360935Y0194843D03*
X0268275Y0194843D03*
X0268275Y0212290D03*
X0268275Y0213354D03*
X0255615Y0209418D03*
X0236574Y0209418D03*
X0236574Y0193886D03*
D432*
X0249339Y0193886D03*
X0299980Y0193886D03*
X0310190Y0193886D03*
D433*
X0351415Y0193886D03*
X0261945Y0193886D03*
D434*
X0268275Y0193886D03*
X0287425Y0193886D03*
X0360935Y0193886D03*
D435*
X0345140Y0193886D03*
X0332480Y0193886D03*
X0325990Y0193886D03*
X0316520Y0193886D03*
X0274710Y0193886D03*
D436*
X0241730Y0198141D03*
X0241630Y0198034D03*
X0236629Y0193992D03*
D437*
X0249339Y0193992D03*
D438*
X0261945Y0193992D03*
X0281095Y0209524D03*
X0293755Y0209524D03*
X0351415Y0193992D03*
D439*
X0345140Y0193992D03*
X0360990Y0193992D03*
X0325990Y0193992D03*
X0316520Y0193992D03*
X0310140Y0193992D03*
X0300030Y0193992D03*
X0287370Y0193992D03*
X0274710Y0193992D03*
X0268330Y0193992D03*
D440*
X0268275Y0211439D03*
X0326045Y0213992D03*
X0332425Y0193992D03*
X0338805Y0209524D03*
X0360935Y0213992D03*
D441*
X0304875Y0208780D03*
X0287425Y0204312D03*
X0276784Y0206014D03*
X0259875Y0206014D03*
X0236574Y0194099D03*
D442*
X0249284Y0194099D03*
X0261945Y0194099D03*
X0351415Y0194099D03*
X0351415Y0209312D03*
X0351415Y0214099D03*
D443*
X0345080Y0194099D03*
X0326040Y0194099D03*
X0316570Y0194099D03*
X0310190Y0194099D03*
X0268280Y0194099D03*
X0268280Y0209312D03*
X0268280Y0211546D03*
D444*
X0274765Y0194099D03*
X0287425Y0194099D03*
X0360935Y0194099D03*
D445*
X0332480Y0194099D03*
X0300030Y0194099D03*
D446*
X0287425Y0204737D03*
X0240404Y0197077D03*
X0236574Y0194205D03*
D447*
X0249339Y0194205D03*
X0262000Y0194205D03*
X0310190Y0194205D03*
X0326040Y0194205D03*
D448*
X0332425Y0194205D03*
X0345085Y0194205D03*
X0351465Y0194205D03*
X0360935Y0194205D03*
X0351465Y0209205D03*
X0351465Y0211652D03*
X0316575Y0194205D03*
X0300085Y0194205D03*
X0287425Y0194205D03*
X0274765Y0194205D03*
X0268275Y0194205D03*
X0268275Y0209205D03*
D449*
X0287370Y0204950D03*
X0324710Y0201865D03*
X0236629Y0194312D03*
D450*
X0249339Y0194312D03*
X0262000Y0194312D03*
X0310190Y0194312D03*
D451*
X0300085Y0194312D03*
X0326045Y0194312D03*
X0345085Y0194312D03*
X0351465Y0194312D03*
X0360935Y0194312D03*
X0351465Y0213780D03*
X0268275Y0213780D03*
X0268275Y0209099D03*
X0268275Y0194312D03*
X0230295Y0213780D03*
D452*
X0274710Y0194312D03*
X0351410Y0209099D03*
D453*
X0287370Y0194312D03*
D454*
X0316625Y0194312D03*
D455*
X0316630Y0209099D03*
X0332480Y0194312D03*
D456*
X0324500Y0201226D03*
X0236629Y0194418D03*
D457*
X0249339Y0194418D03*
X0287420Y0194418D03*
X0310190Y0194418D03*
X0326040Y0194418D03*
X0345080Y0194418D03*
X0351470Y0194418D03*
X0360940Y0194418D03*
D458*
X0351415Y0211757D03*
X0332475Y0194418D03*
X0274715Y0194418D03*
X0261945Y0194418D03*
D459*
X0268330Y0194418D03*
X0268330Y0211757D03*
X0300030Y0194418D03*
D460*
X0316625Y0194418D03*
X0316625Y0208886D03*
D461*
X0236629Y0194524D03*
D462*
X0249284Y0194524D03*
X0332475Y0194524D03*
D463*
X0351415Y0194524D03*
X0261945Y0194524D03*
D464*
X0268330Y0194524D03*
X0274710Y0194524D03*
X0287370Y0194524D03*
X0300030Y0194524D03*
X0325990Y0213459D03*
X0360990Y0213459D03*
D465*
X0351470Y0213673D03*
X0351470Y0208992D03*
X0345080Y0194524D03*
X0360940Y0194524D03*
X0326040Y0194524D03*
X0310190Y0194524D03*
X0268280Y0213673D03*
D466*
X0249339Y0194737D03*
X0310190Y0194737D03*
X0316680Y0194524D03*
D467*
X0324020Y0202929D03*
X0236570Y0194631D03*
D468*
X0249339Y0194631D03*
X0310190Y0194631D03*
D469*
X0351415Y0211865D03*
X0351415Y0213567D03*
X0261945Y0194631D03*
D470*
X0268275Y0194631D03*
X0268275Y0208780D03*
X0287425Y0194631D03*
X0300085Y0194631D03*
X0332425Y0194631D03*
X0345085Y0194631D03*
X0360935Y0194631D03*
D471*
X0351465Y0194631D03*
X0326045Y0194631D03*
X0304445Y0209312D03*
X0274765Y0194631D03*
D472*
X0249339Y0194950D03*
X0310190Y0194950D03*
X0316680Y0194631D03*
X0326040Y0194950D03*
X0326040Y0196865D03*
X0326040Y0210482D03*
X0326040Y0212929D03*
X0326040Y0213248D03*
D473*
X0236574Y0194737D03*
D474*
X0261950Y0194737D03*
X0268330Y0208673D03*
X0268330Y0212076D03*
X0274710Y0194737D03*
X0287370Y0194737D03*
X0300030Y0194737D03*
X0325990Y0194737D03*
X0332480Y0194737D03*
X0345140Y0194737D03*
X0351410Y0194737D03*
X0360990Y0194737D03*
X0351410Y0208673D03*
D475*
X0351465Y0208460D03*
X0345085Y0201439D03*
X0345085Y0195056D03*
X0360935Y0205907D03*
X0360935Y0213035D03*
X0360935Y0213140D03*
X0287425Y0195056D03*
X0268275Y0195056D03*
X0268275Y0194737D03*
X0268275Y0208460D03*
X0230295Y0213035D03*
X0230295Y0213140D03*
D476*
X0230300Y0212503D03*
X0230300Y0211120D03*
X0230300Y0210907D03*
X0230300Y0210588D03*
X0230300Y0209205D03*
X0230300Y0208992D03*
X0230300Y0208673D03*
X0230399Y0203035D03*
X0230300Y0202609D03*
X0230300Y0201971D03*
X0230300Y0201652D03*
X0230300Y0201120D03*
X0230399Y0200588D03*
X0230399Y0200375D03*
X0230510Y0200056D03*
X0230620Y0199737D03*
X0242740Y0200375D03*
X0242850Y0200907D03*
X0242850Y0202609D03*
X0242740Y0203035D03*
X0242740Y0203141D03*
X0249339Y0202609D03*
X0249549Y0203460D03*
X0249339Y0201652D03*
X0249339Y0201120D03*
X0249339Y0200907D03*
X0249339Y0200056D03*
X0249339Y0199205D03*
X0249339Y0198992D03*
X0249339Y0198034D03*
X0249339Y0197609D03*
X0249339Y0196971D03*
X0249339Y0196439D03*
X0249339Y0195588D03*
X0249339Y0195375D03*
X0262000Y0195588D03*
X0262000Y0196120D03*
X0262000Y0197503D03*
X0262000Y0197609D03*
X0262000Y0198034D03*
X0262000Y0198673D03*
X0262000Y0199737D03*
X0262000Y0200588D03*
X0262000Y0201439D03*
X0262000Y0201652D03*
X0262000Y0202077D03*
X0261890Y0202609D03*
X0261790Y0203035D03*
X0261790Y0203141D03*
X0274870Y0203141D03*
X0274870Y0203035D03*
X0274980Y0203460D03*
X0299870Y0203141D03*
X0299870Y0203035D03*
X0299980Y0202609D03*
X0304550Y0209205D03*
X0309870Y0203673D03*
X0309980Y0203141D03*
X0310190Y0202503D03*
X0310190Y0202077D03*
X0310190Y0201652D03*
X0310190Y0201439D03*
X0310190Y0201120D03*
X0310190Y0200375D03*
X0310190Y0199737D03*
X0310190Y0199205D03*
X0310190Y0198673D03*
X0310190Y0198460D03*
X0310190Y0198141D03*
X0310190Y0198034D03*
X0310190Y0197609D03*
X0310190Y0196971D03*
X0310190Y0196120D03*
X0310190Y0195907D03*
X0310190Y0195588D03*
X0310190Y0195375D03*
X0316680Y0194737D03*
X0326040Y0195375D03*
X0326040Y0195588D03*
X0326040Y0195907D03*
X0326040Y0196439D03*
X0326040Y0196652D03*
X0326040Y0196971D03*
X0326040Y0197503D03*
X0326040Y0197609D03*
X0326040Y0198034D03*
X0326040Y0198460D03*
X0326040Y0198673D03*
X0326040Y0204205D03*
X0326040Y0204524D03*
X0326040Y0204737D03*
X0326040Y0205056D03*
X0326040Y0206120D03*
X0326040Y0206439D03*
X0326040Y0206652D03*
X0326040Y0206971D03*
X0326040Y0207077D03*
X0326040Y0207609D03*
X0326040Y0208035D03*
X0326040Y0208673D03*
X0326040Y0208992D03*
X0326040Y0209205D03*
X0326040Y0209524D03*
X0326040Y0210056D03*
X0326040Y0210374D03*
X0326040Y0210588D03*
X0326040Y0210907D03*
X0326040Y0211439D03*
X0326040Y0211652D03*
X0326040Y0212076D03*
X0326040Y0212503D03*
X0326040Y0212609D03*
X0332640Y0203141D03*
X0332640Y0203035D03*
X0332529Y0202609D03*
X0344980Y0203035D03*
X0344980Y0203141D03*
X0351470Y0203141D03*
X0351470Y0202503D03*
X0351470Y0202077D03*
X0351470Y0201652D03*
X0351470Y0200375D03*
X0351470Y0200056D03*
X0351470Y0199737D03*
X0351470Y0198034D03*
X0351470Y0197609D03*
X0351470Y0196971D03*
X0351470Y0195907D03*
X0351470Y0195588D03*
X0351470Y0195375D03*
X0351470Y0204205D03*
X0351470Y0204524D03*
X0351470Y0206120D03*
X0351470Y0206439D03*
X0351470Y0206971D03*
X0351470Y0207609D03*
X0351470Y0208035D03*
D477*
X0236625Y0194843D03*
D478*
X0249290Y0194843D03*
X0230350Y0213354D03*
X0274710Y0194843D03*
X0287370Y0194843D03*
X0300030Y0194843D03*
X0332480Y0194843D03*
X0345140Y0194843D03*
X0351410Y0213354D03*
D479*
X0326040Y0194843D03*
X0310190Y0194843D03*
X0310190Y0195269D03*
X0310190Y0196226D03*
X0293700Y0209418D03*
X0281040Y0209418D03*
X0262000Y0194843D03*
D480*
X0261574Y0203886D03*
X0249765Y0203886D03*
X0230724Y0199418D03*
X0287425Y0202822D03*
X0309765Y0203886D03*
X0316785Y0194843D03*
D481*
X0236574Y0194950D03*
D482*
X0261950Y0194950D03*
X0268330Y0212184D03*
X0316630Y0208780D03*
X0351410Y0208780D03*
X0351410Y0212184D03*
D483*
X0351465Y0212397D03*
X0351465Y0213248D03*
X0351465Y0208567D03*
X0345085Y0199950D03*
X0345085Y0194950D03*
X0351465Y0194950D03*
X0360935Y0194950D03*
X0360935Y0199950D03*
X0360935Y0213248D03*
X0332425Y0194950D03*
X0300085Y0194950D03*
X0274765Y0194950D03*
X0274765Y0195163D03*
X0268275Y0194950D03*
X0268275Y0208567D03*
X0268275Y0212397D03*
X0268275Y0213248D03*
X0230295Y0213248D03*
D484*
X0249284Y0201865D03*
X0249395Y0202184D03*
X0249395Y0202715D03*
X0249284Y0201013D03*
X0249284Y0200801D03*
X0249284Y0200163D03*
X0249284Y0199950D03*
X0249284Y0199312D03*
X0249284Y0199099D03*
X0249284Y0198248D03*
X0249284Y0197929D03*
X0249284Y0197716D03*
X0249284Y0196865D03*
X0249284Y0196333D03*
X0249284Y0195482D03*
X0249284Y0195163D03*
X0261945Y0195163D03*
X0261945Y0195482D03*
X0261945Y0195800D03*
X0261945Y0196333D03*
X0261945Y0196546D03*
X0261945Y0196865D03*
X0261945Y0197397D03*
X0261945Y0197716D03*
X0261945Y0198780D03*
X0261945Y0199099D03*
X0261945Y0199631D03*
X0261945Y0199950D03*
X0261945Y0200482D03*
X0261945Y0201013D03*
X0261945Y0201332D03*
X0261945Y0201546D03*
X0261945Y0201865D03*
X0261945Y0202184D03*
X0261945Y0202396D03*
X0268325Y0202715D03*
X0268325Y0202929D03*
X0268325Y0203779D03*
X0268325Y0204950D03*
X0268325Y0205482D03*
X0268325Y0206014D03*
X0268325Y0206333D03*
X0268325Y0206545D03*
X0268325Y0208248D03*
X0268325Y0212716D03*
X0268325Y0212929D03*
X0268325Y0201865D03*
X0268325Y0201013D03*
X0268325Y0200801D03*
X0268325Y0200163D03*
X0268325Y0199950D03*
X0268325Y0199312D03*
X0268325Y0199099D03*
X0268325Y0198248D03*
X0268325Y0197397D03*
X0268325Y0197184D03*
X0268325Y0196546D03*
X0268325Y0196333D03*
X0268325Y0195482D03*
X0268325Y0195163D03*
X0274715Y0196014D03*
X0274715Y0196333D03*
X0274715Y0196865D03*
X0274715Y0197184D03*
X0274715Y0197929D03*
X0274715Y0198780D03*
X0274715Y0199312D03*
X0274715Y0199631D03*
X0274715Y0200163D03*
X0274715Y0200482D03*
X0274715Y0201013D03*
X0274715Y0201332D03*
X0274715Y0201865D03*
X0274814Y0202715D03*
X0287375Y0202184D03*
X0287375Y0201865D03*
X0287375Y0201546D03*
X0287375Y0201332D03*
X0287375Y0201013D03*
X0287375Y0199631D03*
X0287375Y0198780D03*
X0287375Y0197716D03*
X0287375Y0196865D03*
X0287375Y0196333D03*
X0287375Y0196014D03*
X0287375Y0195482D03*
X0287375Y0195163D03*
X0287375Y0194950D03*
X0300035Y0195163D03*
X0300035Y0195482D03*
X0300035Y0195800D03*
X0300035Y0196014D03*
X0300035Y0196546D03*
X0300035Y0196865D03*
X0300035Y0197184D03*
X0300035Y0197397D03*
X0300035Y0197716D03*
X0300035Y0197929D03*
X0300035Y0198248D03*
X0300035Y0198567D03*
X0300035Y0198780D03*
X0300035Y0199099D03*
X0300035Y0199312D03*
X0300035Y0199631D03*
X0300035Y0199950D03*
X0300035Y0200482D03*
X0300035Y0201013D03*
X0300035Y0201332D03*
X0300035Y0201546D03*
X0300035Y0201865D03*
X0300035Y0202184D03*
X0300035Y0202396D03*
X0310135Y0202396D03*
X0310135Y0202184D03*
X0310135Y0201865D03*
X0310135Y0201546D03*
X0310135Y0201332D03*
X0310135Y0201013D03*
X0310245Y0200482D03*
X0310135Y0199950D03*
X0310135Y0199631D03*
X0310135Y0199312D03*
X0310135Y0199099D03*
X0310135Y0198567D03*
X0310135Y0197929D03*
X0310135Y0196014D03*
X0310245Y0195800D03*
X0310135Y0195482D03*
X0310135Y0195163D03*
X0325985Y0195482D03*
X0325985Y0195800D03*
X0325985Y0196333D03*
X0325985Y0197716D03*
X0325985Y0197929D03*
X0325985Y0198780D03*
X0325985Y0204312D03*
X0325985Y0204631D03*
X0325985Y0204950D03*
X0325985Y0206545D03*
X0325985Y0206865D03*
X0325985Y0207184D03*
X0326095Y0207929D03*
X0325985Y0208780D03*
X0325985Y0209099D03*
X0325985Y0209950D03*
X0325985Y0211333D03*
X0325985Y0211546D03*
X0325985Y0212184D03*
X0325985Y0212397D03*
X0325985Y0212716D03*
X0332475Y0202396D03*
X0332475Y0202184D03*
X0332475Y0201865D03*
X0332475Y0201546D03*
X0332475Y0201013D03*
X0332475Y0200801D03*
X0332475Y0200163D03*
X0332475Y0199950D03*
X0332475Y0199312D03*
X0332475Y0199099D03*
X0332475Y0198780D03*
X0332475Y0197397D03*
X0332475Y0197184D03*
X0332475Y0196865D03*
X0332475Y0196546D03*
X0332475Y0196333D03*
X0332475Y0195482D03*
X0332475Y0195163D03*
X0345035Y0196546D03*
X0345135Y0196333D03*
X0345135Y0195800D03*
X0345135Y0195482D03*
X0345135Y0195163D03*
X0345135Y0197716D03*
X0345135Y0197929D03*
X0345135Y0198248D03*
X0345135Y0198567D03*
X0345135Y0198780D03*
X0345135Y0199099D03*
X0345135Y0199631D03*
X0345135Y0200482D03*
X0345135Y0200801D03*
X0345135Y0201332D03*
X0345135Y0201865D03*
X0345035Y0202715D03*
X0351415Y0202396D03*
X0351415Y0202184D03*
X0351415Y0201546D03*
X0351415Y0200801D03*
X0351415Y0200482D03*
X0351415Y0200163D03*
X0351415Y0199950D03*
X0351415Y0199631D03*
X0351415Y0199312D03*
X0351415Y0198567D03*
X0351415Y0198248D03*
X0351415Y0197929D03*
X0351415Y0197716D03*
X0351415Y0196865D03*
X0351415Y0196333D03*
X0351415Y0196014D03*
X0351415Y0195800D03*
X0351415Y0195482D03*
X0351415Y0195163D03*
X0351415Y0203248D03*
X0351415Y0203779D03*
X0351415Y0204099D03*
X0351415Y0204312D03*
X0351415Y0204631D03*
X0351415Y0204950D03*
X0351415Y0206014D03*
X0351415Y0206333D03*
X0351415Y0206545D03*
X0351415Y0206865D03*
X0351415Y0207716D03*
X0351415Y0207929D03*
X0351415Y0208248D03*
X0351415Y0212929D03*
X0360985Y0212929D03*
X0360985Y0212397D03*
X0360985Y0211333D03*
X0360985Y0211014D03*
X0360985Y0210801D03*
X0360885Y0210163D03*
X0360985Y0209950D03*
X0360985Y0206333D03*
X0360985Y0204312D03*
X0360885Y0203567D03*
X0360985Y0203248D03*
X0360985Y0202929D03*
X0360985Y0202715D03*
X0360985Y0201865D03*
X0360985Y0201332D03*
X0360985Y0200801D03*
X0360985Y0200482D03*
X0360985Y0199631D03*
X0360885Y0199312D03*
X0360985Y0198780D03*
X0360985Y0198248D03*
X0360985Y0197184D03*
X0360985Y0196333D03*
X0360885Y0195163D03*
D485*
X0316840Y0194950D03*
X0242370Y0204099D03*
X0230989Y0198780D03*
D486*
X0236629Y0195056D03*
D487*
X0249339Y0195056D03*
X0310190Y0195056D03*
X0310190Y0198992D03*
X0326040Y0195056D03*
X0326040Y0213035D03*
X0326040Y0213140D03*
D488*
X0325985Y0211971D03*
X0325985Y0211120D03*
X0325985Y0209737D03*
X0325985Y0208460D03*
X0325985Y0208141D03*
X0325985Y0207503D03*
X0325985Y0205907D03*
X0325985Y0205588D03*
X0326095Y0205375D03*
X0325985Y0203992D03*
X0325985Y0199205D03*
X0325985Y0198992D03*
X0325985Y0198141D03*
X0325985Y0197077D03*
X0325985Y0196120D03*
X0332475Y0196120D03*
X0332475Y0195907D03*
X0332475Y0195588D03*
X0332475Y0195375D03*
X0332475Y0195056D03*
X0332475Y0196971D03*
X0332475Y0197503D03*
X0332475Y0197609D03*
X0332475Y0198034D03*
X0332475Y0198141D03*
X0332475Y0198460D03*
X0332475Y0198673D03*
X0332475Y0199524D03*
X0332475Y0199737D03*
X0332475Y0200375D03*
X0332475Y0200588D03*
X0332475Y0200907D03*
X0332475Y0201439D03*
X0332475Y0201971D03*
X0332475Y0202077D03*
X0332475Y0202503D03*
X0345035Y0202503D03*
X0345135Y0202077D03*
X0345135Y0201652D03*
X0345135Y0201120D03*
X0345135Y0200588D03*
X0345135Y0199737D03*
X0345135Y0198141D03*
X0345035Y0198034D03*
X0345135Y0197503D03*
X0345135Y0197077D03*
X0345135Y0196652D03*
X0345035Y0195375D03*
X0351415Y0195056D03*
X0351415Y0196120D03*
X0351415Y0196439D03*
X0351415Y0196652D03*
X0351415Y0197077D03*
X0351415Y0197503D03*
X0351415Y0198141D03*
X0351415Y0198460D03*
X0351415Y0198673D03*
X0351415Y0198992D03*
X0351415Y0199205D03*
X0351415Y0199524D03*
X0351415Y0200588D03*
X0351415Y0200907D03*
X0351415Y0201120D03*
X0351415Y0201439D03*
X0351415Y0201971D03*
X0351415Y0202609D03*
X0351415Y0203035D03*
X0351415Y0203460D03*
X0351415Y0203673D03*
X0351415Y0203992D03*
X0351415Y0204737D03*
X0351415Y0205056D03*
X0351415Y0205375D03*
X0351415Y0205588D03*
X0351415Y0205907D03*
X0351415Y0206652D03*
X0351415Y0207077D03*
X0351415Y0207503D03*
X0351415Y0208141D03*
X0351415Y0212503D03*
X0351415Y0212609D03*
X0351415Y0213035D03*
X0351415Y0213140D03*
X0360985Y0212503D03*
X0360985Y0211971D03*
X0360985Y0211652D03*
X0360985Y0205375D03*
X0360985Y0205056D03*
X0360985Y0204737D03*
X0360885Y0204205D03*
X0360985Y0203992D03*
X0360985Y0202609D03*
X0360885Y0202077D03*
X0360985Y0201439D03*
X0360985Y0199737D03*
X0360985Y0199205D03*
X0360985Y0198141D03*
X0360985Y0197609D03*
X0360985Y0197503D03*
X0360885Y0196971D03*
X0360985Y0196652D03*
X0360985Y0195375D03*
X0360985Y0195056D03*
X0316735Y0208673D03*
X0310135Y0202609D03*
X0310245Y0201971D03*
X0310245Y0200907D03*
X0310135Y0200588D03*
X0310245Y0200056D03*
X0310245Y0199524D03*
X0310135Y0197503D03*
X0310135Y0197077D03*
X0310135Y0196652D03*
X0310135Y0196439D03*
X0300035Y0196439D03*
X0300035Y0196652D03*
X0300035Y0197077D03*
X0300035Y0197503D03*
X0300035Y0198141D03*
X0300035Y0198460D03*
X0300035Y0198992D03*
X0300035Y0200056D03*
X0300035Y0200375D03*
X0300035Y0200907D03*
X0300035Y0201652D03*
X0300035Y0201971D03*
X0300035Y0202077D03*
X0300035Y0202503D03*
X0300035Y0196120D03*
X0300035Y0195588D03*
X0300035Y0195375D03*
X0300035Y0195056D03*
X0287375Y0196652D03*
X0287375Y0197077D03*
X0287375Y0197503D03*
X0287375Y0198141D03*
X0287375Y0198460D03*
X0287375Y0198992D03*
X0287375Y0199205D03*
X0287375Y0200056D03*
X0287375Y0200375D03*
X0287375Y0200907D03*
X0287375Y0201971D03*
X0274715Y0201971D03*
X0274715Y0202077D03*
X0274715Y0201439D03*
X0274715Y0200907D03*
X0274715Y0200588D03*
X0274715Y0200056D03*
X0274715Y0199737D03*
X0274715Y0199205D03*
X0274715Y0198460D03*
X0274715Y0198141D03*
X0274715Y0198034D03*
X0274715Y0197609D03*
X0274715Y0197503D03*
X0274715Y0197077D03*
X0274715Y0196652D03*
X0274715Y0195588D03*
X0274715Y0195375D03*
X0274715Y0195056D03*
X0268325Y0195907D03*
X0268325Y0196120D03*
X0268325Y0196971D03*
X0268325Y0197609D03*
X0268325Y0198034D03*
X0268325Y0198460D03*
X0268325Y0198673D03*
X0268325Y0199524D03*
X0268325Y0199737D03*
X0268325Y0200375D03*
X0268325Y0200588D03*
X0268325Y0201439D03*
X0268325Y0201652D03*
X0268325Y0202077D03*
X0268325Y0202503D03*
X0268325Y0203141D03*
X0268325Y0203460D03*
X0268325Y0203673D03*
X0268325Y0203992D03*
X0268325Y0204205D03*
X0268325Y0204737D03*
X0268325Y0205056D03*
X0268325Y0206971D03*
X0268325Y0207503D03*
X0268325Y0207609D03*
X0268325Y0208141D03*
X0268325Y0212503D03*
X0268325Y0213035D03*
X0268325Y0213140D03*
X0261945Y0202503D03*
X0261945Y0201971D03*
X0261945Y0201120D03*
X0261945Y0200907D03*
X0261945Y0200375D03*
X0261945Y0200056D03*
X0261945Y0199524D03*
X0261945Y0199205D03*
X0261945Y0198992D03*
X0261945Y0198460D03*
X0261945Y0198141D03*
X0261945Y0197077D03*
X0261945Y0196971D03*
X0261945Y0196652D03*
X0261945Y0196439D03*
X0261945Y0195907D03*
X0261945Y0195375D03*
X0261945Y0195056D03*
X0249395Y0202503D03*
X0249284Y0202077D03*
X0249284Y0201971D03*
X0249284Y0201439D03*
X0249284Y0200588D03*
X0249284Y0200375D03*
X0249284Y0199737D03*
X0249284Y0199524D03*
X0249284Y0198673D03*
X0249284Y0198460D03*
X0249284Y0198141D03*
X0249284Y0197503D03*
X0249284Y0197077D03*
X0249284Y0196652D03*
X0249284Y0196120D03*
X0249284Y0195907D03*
X0242795Y0200588D03*
X0242795Y0202503D03*
D489*
X0250190Y0204737D03*
X0309340Y0204737D03*
X0316890Y0195056D03*
X0344230Y0204737D03*
D490*
X0236570Y0195163D03*
D491*
X0231360Y0198248D03*
X0230720Y0204312D03*
X0241889Y0204950D03*
X0250510Y0205162D03*
X0299020Y0204950D03*
X0309020Y0205162D03*
X0316890Y0195163D03*
D492*
X0310190Y0196333D03*
X0310190Y0196546D03*
X0310190Y0196865D03*
X0310190Y0197184D03*
X0310190Y0197397D03*
X0310190Y0197716D03*
X0310190Y0198248D03*
X0310190Y0198780D03*
X0310190Y0200163D03*
X0310190Y0200801D03*
X0309980Y0203248D03*
X0299980Y0202929D03*
X0299980Y0202715D03*
X0299870Y0203248D03*
X0326040Y0204099D03*
X0326040Y0205162D03*
X0326040Y0205482D03*
X0326040Y0205801D03*
X0326040Y0206014D03*
X0326040Y0206333D03*
X0326040Y0207397D03*
X0326040Y0207716D03*
X0326040Y0208248D03*
X0326040Y0208567D03*
X0326040Y0209312D03*
X0326040Y0209631D03*
X0326040Y0210163D03*
X0326040Y0210801D03*
X0326040Y0211014D03*
X0326040Y0211865D03*
X0332740Y0203567D03*
X0332640Y0203248D03*
X0332529Y0202929D03*
X0332529Y0202715D03*
X0326040Y0199312D03*
X0326040Y0199099D03*
X0326040Y0198567D03*
X0326040Y0198248D03*
X0326040Y0197397D03*
X0326040Y0197184D03*
X0326040Y0196546D03*
X0326040Y0196014D03*
X0326040Y0195163D03*
X0344980Y0202929D03*
X0344870Y0203248D03*
X0351470Y0203567D03*
X0351470Y0202929D03*
X0351470Y0202715D03*
X0351470Y0201865D03*
X0351470Y0201332D03*
X0351470Y0201013D03*
X0351470Y0199099D03*
X0351470Y0198780D03*
X0351470Y0197397D03*
X0351470Y0197184D03*
X0351470Y0196546D03*
X0351470Y0205162D03*
X0351470Y0205482D03*
X0351470Y0205801D03*
X0351470Y0207184D03*
X0351470Y0207397D03*
X0351470Y0212716D03*
X0274870Y0202929D03*
X0261890Y0202929D03*
X0261890Y0202715D03*
X0261790Y0203248D03*
X0261680Y0203567D03*
X0262000Y0200801D03*
X0262000Y0200163D03*
X0262000Y0199312D03*
X0262000Y0198567D03*
X0262000Y0198248D03*
X0262000Y0197929D03*
X0262000Y0197184D03*
X0262000Y0196014D03*
X0249549Y0203248D03*
X0249339Y0202396D03*
X0249339Y0201546D03*
X0249339Y0201332D03*
X0249339Y0200482D03*
X0249339Y0199631D03*
X0249339Y0198780D03*
X0249339Y0198567D03*
X0249339Y0197397D03*
X0249339Y0197184D03*
X0249339Y0196546D03*
X0249339Y0196014D03*
X0249339Y0195800D03*
X0242640Y0199950D03*
X0242740Y0200163D03*
X0242740Y0200482D03*
X0242850Y0200801D03*
X0242850Y0201013D03*
X0242850Y0202396D03*
X0242850Y0202715D03*
X0242740Y0202929D03*
X0230399Y0202715D03*
X0230300Y0202184D03*
X0230300Y0201546D03*
X0230399Y0200482D03*
X0230510Y0200163D03*
X0230510Y0199950D03*
X0230300Y0208567D03*
X0230300Y0209312D03*
X0230300Y0209631D03*
X0230300Y0209950D03*
X0230300Y0210482D03*
X0230300Y0211546D03*
X0230300Y0211865D03*
X0230300Y0212184D03*
X0230300Y0212397D03*
X0230300Y0212716D03*
X0230300Y0212929D03*
D493*
X0236629Y0195269D03*
D494*
X0230245Y0201226D03*
X0249284Y0201226D03*
X0249395Y0202822D03*
X0249284Y0198886D03*
X0249284Y0197290D03*
X0249284Y0195694D03*
X0249284Y0195269D03*
X0261945Y0195269D03*
X0261945Y0196226D03*
X0261945Y0197290D03*
X0261945Y0197822D03*
X0261945Y0198354D03*
X0261945Y0198886D03*
X0261945Y0199418D03*
X0261945Y0199843D03*
X0261945Y0200269D03*
X0261945Y0200694D03*
X0261945Y0201758D03*
X0261945Y0202290D03*
X0268325Y0202290D03*
X0268325Y0201226D03*
X0268325Y0198886D03*
X0268325Y0197822D03*
X0268325Y0196758D03*
X0268325Y0195694D03*
X0268325Y0195269D03*
X0268325Y0204418D03*
X0268325Y0205269D03*
X0268325Y0205694D03*
X0268325Y0206226D03*
X0268325Y0206758D03*
X0268325Y0207290D03*
X0268325Y0207822D03*
X0268325Y0208354D03*
X0268225Y0212821D03*
X0274814Y0202822D03*
X0274715Y0202290D03*
X0274715Y0201758D03*
X0274715Y0200694D03*
X0274715Y0199418D03*
X0274715Y0198886D03*
X0274715Y0198354D03*
X0274715Y0196758D03*
X0274715Y0196226D03*
X0274715Y0195694D03*
X0274715Y0195269D03*
X0287375Y0195269D03*
X0287375Y0195694D03*
X0287375Y0196226D03*
X0287375Y0197290D03*
X0287375Y0197822D03*
X0287375Y0198354D03*
X0287375Y0199418D03*
X0287375Y0199843D03*
X0287375Y0200269D03*
X0287375Y0200694D03*
X0287375Y0201758D03*
X0299925Y0202822D03*
X0300035Y0202290D03*
X0300035Y0201226D03*
X0300035Y0200694D03*
X0300035Y0200269D03*
X0300035Y0199843D03*
X0300035Y0199418D03*
X0300035Y0197822D03*
X0300035Y0196226D03*
X0300035Y0195269D03*
X0310245Y0197290D03*
X0310245Y0197822D03*
X0310135Y0198354D03*
X0310135Y0200269D03*
X0310245Y0201226D03*
X0310135Y0202290D03*
X0310135Y0202822D03*
X0325985Y0205269D03*
X0325985Y0206226D03*
X0325985Y0207822D03*
X0325985Y0209418D03*
X0325985Y0210269D03*
X0325985Y0210693D03*
X0332585Y0202822D03*
X0332475Y0202290D03*
X0332475Y0201758D03*
X0332475Y0201226D03*
X0332475Y0200269D03*
X0332475Y0199418D03*
X0332475Y0198886D03*
X0332475Y0198354D03*
X0332475Y0197822D03*
X0332475Y0196758D03*
X0332475Y0196226D03*
X0332475Y0195694D03*
X0332475Y0195269D03*
X0325985Y0195269D03*
X0325985Y0197290D03*
X0325985Y0198354D03*
X0345135Y0198886D03*
X0345135Y0200269D03*
X0345035Y0202290D03*
X0345135Y0196758D03*
X0345135Y0196226D03*
X0345135Y0195269D03*
X0351415Y0195269D03*
X0351415Y0195694D03*
X0351415Y0197290D03*
X0351415Y0198886D03*
X0351415Y0199843D03*
X0351415Y0200269D03*
X0351415Y0201226D03*
X0351415Y0201758D03*
X0351415Y0202822D03*
X0351415Y0204418D03*
X0351415Y0205269D03*
X0351415Y0205694D03*
X0351415Y0206226D03*
X0351415Y0207290D03*
X0351415Y0208354D03*
X0351415Y0212821D03*
X0360885Y0212290D03*
X0360985Y0212821D03*
X0360985Y0210693D03*
X0360985Y0210269D03*
X0360985Y0205694D03*
X0360885Y0205269D03*
X0360985Y0204843D03*
X0360985Y0203886D03*
X0360985Y0203354D03*
X0360985Y0202290D03*
X0360985Y0201758D03*
X0360985Y0200269D03*
X0360985Y0198886D03*
X0360985Y0197822D03*
X0360985Y0196758D03*
X0360985Y0196226D03*
D495*
X0343860Y0205269D03*
X0317050Y0195269D03*
X0308970Y0205269D03*
X0275990Y0205269D03*
X0260670Y0205269D03*
X0250559Y0205269D03*
D496*
X0268275Y0204843D03*
X0268275Y0203886D03*
X0268275Y0203354D03*
X0268275Y0202822D03*
X0268275Y0201758D03*
X0268275Y0200694D03*
X0268275Y0200269D03*
X0268275Y0199843D03*
X0268275Y0199418D03*
X0268275Y0198354D03*
X0268275Y0197290D03*
X0268275Y0196226D03*
X0274765Y0197290D03*
X0274765Y0197822D03*
X0274765Y0199843D03*
X0274765Y0200269D03*
X0274765Y0201226D03*
X0287425Y0201226D03*
X0287425Y0202290D03*
X0287425Y0198886D03*
X0287425Y0196758D03*
X0300085Y0196758D03*
X0300085Y0197290D03*
X0300085Y0198354D03*
X0300085Y0198886D03*
X0300085Y0201758D03*
X0300085Y0195694D03*
X0332425Y0197290D03*
X0332425Y0199843D03*
X0332425Y0200694D03*
X0345085Y0200694D03*
X0345085Y0201226D03*
X0345085Y0201758D03*
X0345085Y0199843D03*
X0345085Y0198354D03*
X0345085Y0197822D03*
X0345085Y0197290D03*
X0345085Y0195694D03*
X0360935Y0195269D03*
X0360935Y0197290D03*
X0360935Y0198354D03*
X0360935Y0199418D03*
X0360935Y0199843D03*
X0360935Y0200694D03*
X0360935Y0201226D03*
X0360935Y0202822D03*
X0360935Y0204418D03*
X0360935Y0206226D03*
X0360935Y0209843D03*
X0360935Y0211226D03*
X0360935Y0211757D03*
D497*
X0236625Y0195375D03*
D498*
X0249445Y0203035D03*
X0249445Y0203141D03*
X0268275Y0203035D03*
X0268275Y0202609D03*
X0268275Y0201971D03*
X0268275Y0201120D03*
X0268275Y0200907D03*
X0268275Y0200056D03*
X0268275Y0199205D03*
X0268275Y0198992D03*
X0268275Y0198141D03*
X0268275Y0197503D03*
X0268275Y0197077D03*
X0268275Y0196652D03*
X0268275Y0196439D03*
X0268275Y0195588D03*
X0268275Y0195375D03*
X0268275Y0204524D03*
X0268275Y0205375D03*
X0268275Y0205588D03*
X0268275Y0205907D03*
X0268275Y0206120D03*
X0268275Y0206439D03*
X0268275Y0206652D03*
X0268275Y0207077D03*
X0268275Y0208035D03*
X0268275Y0212609D03*
X0274765Y0202609D03*
X0274765Y0202503D03*
X0274765Y0201652D03*
X0274765Y0201120D03*
X0274765Y0200375D03*
X0274765Y0199524D03*
X0274765Y0198992D03*
X0274765Y0198673D03*
X0274765Y0196971D03*
X0274765Y0196439D03*
X0274765Y0196120D03*
X0274765Y0195907D03*
X0287425Y0195907D03*
X0287425Y0196120D03*
X0287425Y0196439D03*
X0287425Y0196971D03*
X0287425Y0197609D03*
X0287425Y0198034D03*
X0287425Y0198673D03*
X0287425Y0199524D03*
X0287425Y0199737D03*
X0287425Y0200588D03*
X0287425Y0201120D03*
X0287425Y0201439D03*
X0287425Y0201652D03*
X0287425Y0202077D03*
X0287425Y0202503D03*
X0287425Y0195588D03*
X0287425Y0195375D03*
X0300085Y0195907D03*
X0300085Y0196971D03*
X0300085Y0197609D03*
X0300085Y0198034D03*
X0300085Y0198673D03*
X0300085Y0199205D03*
X0300085Y0199524D03*
X0300085Y0199737D03*
X0300085Y0200588D03*
X0300085Y0201120D03*
X0300085Y0201439D03*
X0310085Y0203035D03*
X0332425Y0201652D03*
X0332425Y0201120D03*
X0332425Y0200056D03*
X0332425Y0199205D03*
X0332425Y0198992D03*
X0332425Y0197077D03*
X0332425Y0196652D03*
X0332425Y0196439D03*
X0345085Y0196439D03*
X0345085Y0196120D03*
X0345085Y0195907D03*
X0345085Y0195588D03*
X0345085Y0196971D03*
X0345085Y0197609D03*
X0345085Y0198460D03*
X0345085Y0198673D03*
X0345085Y0198992D03*
X0345085Y0199205D03*
X0345085Y0199524D03*
X0345085Y0200056D03*
X0345085Y0200375D03*
X0345085Y0200907D03*
X0345085Y0201971D03*
X0345085Y0202609D03*
X0360935Y0202503D03*
X0360935Y0201971D03*
X0360935Y0201652D03*
X0360935Y0201120D03*
X0360935Y0200907D03*
X0360935Y0200588D03*
X0360935Y0200375D03*
X0360935Y0200056D03*
X0360935Y0199524D03*
X0360935Y0198992D03*
X0360935Y0198673D03*
X0360935Y0198460D03*
X0360935Y0198034D03*
X0360935Y0197077D03*
X0360935Y0196439D03*
X0360935Y0196120D03*
X0360935Y0195907D03*
X0360935Y0195588D03*
X0360935Y0203035D03*
X0360935Y0203141D03*
X0360935Y0203460D03*
X0360935Y0203673D03*
X0360935Y0204524D03*
X0360935Y0205588D03*
X0360935Y0206120D03*
X0360935Y0209737D03*
X0360935Y0210056D03*
X0360935Y0210374D03*
X0360935Y0210588D03*
X0360935Y0210907D03*
X0360935Y0211120D03*
X0360935Y0211439D03*
X0360935Y0212076D03*
X0360935Y0212609D03*
D499*
X0343540Y0205588D03*
X0317050Y0195375D03*
X0308650Y0205588D03*
X0304710Y0208992D03*
X0298540Y0205588D03*
X0276310Y0205588D03*
X0250880Y0205588D03*
X0241310Y0205588D03*
D500*
X0236574Y0195482D03*
D501*
X0249445Y0202929D03*
X0268275Y0203248D03*
X0268275Y0203567D03*
X0268275Y0204099D03*
X0268275Y0204312D03*
X0268275Y0204631D03*
X0268275Y0205162D03*
X0268275Y0205801D03*
X0268275Y0206865D03*
X0268275Y0207184D03*
X0268275Y0207397D03*
X0268275Y0207716D03*
X0268275Y0207929D03*
X0268275Y0202396D03*
X0268275Y0202184D03*
X0268275Y0201546D03*
X0268275Y0201332D03*
X0268275Y0200482D03*
X0268275Y0199631D03*
X0268275Y0198780D03*
X0268275Y0198567D03*
X0268275Y0197929D03*
X0268275Y0197716D03*
X0268275Y0196865D03*
X0268275Y0196014D03*
X0268275Y0195800D03*
X0274765Y0195800D03*
X0274765Y0195482D03*
X0274765Y0196546D03*
X0274765Y0197397D03*
X0274765Y0197716D03*
X0274765Y0198248D03*
X0274765Y0198567D03*
X0274765Y0199099D03*
X0274765Y0199950D03*
X0274765Y0200801D03*
X0274765Y0201546D03*
X0274765Y0202184D03*
X0274765Y0202396D03*
X0287425Y0200801D03*
X0287425Y0200482D03*
X0287425Y0200163D03*
X0287425Y0199950D03*
X0287425Y0199312D03*
X0287425Y0199099D03*
X0287425Y0198567D03*
X0287425Y0198248D03*
X0287425Y0197929D03*
X0287425Y0197397D03*
X0287425Y0197184D03*
X0287425Y0196546D03*
X0287425Y0195800D03*
X0299765Y0203567D03*
X0300085Y0200801D03*
X0300085Y0200163D03*
X0300085Y0196333D03*
X0310085Y0202715D03*
X0310085Y0202929D03*
X0332425Y0201332D03*
X0332425Y0200482D03*
X0332425Y0199631D03*
X0332425Y0198567D03*
X0332425Y0198248D03*
X0332425Y0197929D03*
X0332425Y0197716D03*
X0332425Y0196014D03*
X0332425Y0195800D03*
X0345085Y0196014D03*
X0345085Y0196865D03*
X0345085Y0197184D03*
X0345085Y0197397D03*
X0345085Y0199312D03*
X0345085Y0200163D03*
X0345085Y0201013D03*
X0345085Y0201546D03*
X0345085Y0202184D03*
X0345085Y0202396D03*
X0360935Y0202396D03*
X0360935Y0202184D03*
X0360935Y0201546D03*
X0360935Y0201013D03*
X0360935Y0200163D03*
X0360935Y0199099D03*
X0360935Y0198567D03*
X0360935Y0197929D03*
X0360935Y0197716D03*
X0360935Y0197397D03*
X0360935Y0196865D03*
X0360935Y0196546D03*
X0360935Y0196014D03*
X0360935Y0195800D03*
X0360935Y0195482D03*
X0360935Y0203779D03*
X0360935Y0204099D03*
X0360935Y0204631D03*
X0360935Y0204950D03*
X0360935Y0205162D03*
X0360935Y0205482D03*
X0360935Y0205801D03*
X0360935Y0206014D03*
X0360935Y0210482D03*
X0360935Y0211546D03*
X0360935Y0211865D03*
X0360935Y0212184D03*
X0360935Y0212716D03*
D502*
X0343650Y0205482D03*
X0317050Y0207929D03*
X0317160Y0195482D03*
X0276200Y0205482D03*
X0241310Y0197716D03*
X0231840Y0197716D03*
X0230880Y0204631D03*
D503*
X0236625Y0195588D03*
D504*
X0231040Y0205056D03*
X0317320Y0207609D03*
X0317210Y0195588D03*
X0343170Y0205907D03*
D505*
X0236570Y0195694D03*
D506*
X0242640Y0199843D03*
X0242740Y0200269D03*
X0242850Y0200694D03*
X0242850Y0201226D03*
X0242850Y0201758D03*
X0242850Y0202290D03*
X0242740Y0202822D03*
X0242640Y0203354D03*
X0249339Y0202290D03*
X0249339Y0201758D03*
X0249339Y0200694D03*
X0249339Y0200269D03*
X0249339Y0199843D03*
X0249339Y0199418D03*
X0249339Y0198354D03*
X0249339Y0197822D03*
X0249339Y0196758D03*
X0249339Y0196226D03*
X0249549Y0203354D03*
X0262000Y0201226D03*
X0262000Y0196758D03*
X0262000Y0195694D03*
X0274980Y0203354D03*
X0309980Y0203354D03*
X0310190Y0201758D03*
X0310190Y0200694D03*
X0310190Y0199843D03*
X0310190Y0199418D03*
X0310190Y0198886D03*
X0310190Y0196758D03*
X0310190Y0195694D03*
X0326040Y0195694D03*
X0326040Y0196226D03*
X0326040Y0196758D03*
X0326040Y0197822D03*
X0326040Y0198886D03*
X0326040Y0199418D03*
X0326040Y0203886D03*
X0326040Y0204418D03*
X0326040Y0204843D03*
X0326040Y0205694D03*
X0326040Y0206758D03*
X0326040Y0207290D03*
X0326040Y0208354D03*
X0326040Y0208886D03*
X0326040Y0209843D03*
X0326040Y0211226D03*
X0326040Y0211757D03*
X0326040Y0212290D03*
X0326040Y0212821D03*
X0344870Y0203354D03*
X0344980Y0202822D03*
X0351470Y0202290D03*
X0351470Y0203354D03*
X0351470Y0203886D03*
X0351470Y0204843D03*
X0351470Y0206758D03*
X0351470Y0207822D03*
X0351470Y0200694D03*
X0351470Y0199418D03*
X0351470Y0198354D03*
X0351470Y0197822D03*
X0351470Y0196758D03*
X0351470Y0196226D03*
X0230399Y0200269D03*
X0230300Y0202290D03*
X0230300Y0208354D03*
X0230300Y0209843D03*
X0230300Y0210269D03*
X0230300Y0211226D03*
X0230300Y0211757D03*
D507*
X0304870Y0208886D03*
X0317320Y0195694D03*
D508*
X0236629Y0195800D03*
D509*
X0240990Y0197397D03*
X0317370Y0195800D03*
X0317480Y0207397D03*
D510*
X0236625Y0195907D03*
D511*
X0236574Y0209205D03*
X0255615Y0209205D03*
X0281045Y0209205D03*
X0317425Y0195907D03*
D512*
X0236574Y0196014D03*
D513*
X0317530Y0196014D03*
D514*
X0236629Y0196120D03*
D515*
X0240620Y0206120D03*
X0251569Y0206120D03*
X0276999Y0206120D03*
X0307960Y0206120D03*
X0317740Y0207077D03*
X0317849Y0206971D03*
X0318910Y0206120D03*
X0320620Y0204737D03*
X0320940Y0204524D03*
X0317640Y0196120D03*
X0342850Y0206120D03*
D516*
X0236625Y0196226D03*
D517*
X0287420Y0204418D03*
X0317740Y0196226D03*
X0319450Y0205694D03*
X0318810Y0206226D03*
D518*
X0236629Y0196333D03*
D519*
X0240620Y0197184D03*
X0317849Y0196333D03*
X0321470Y0204099D03*
X0318380Y0206545D03*
D520*
X0236625Y0196439D03*
D521*
X0231199Y0205375D03*
X0287370Y0204524D03*
X0318009Y0196439D03*
X0319820Y0205375D03*
X0319180Y0205907D03*
X0318540Y0206439D03*
D522*
X0281040Y0206865D03*
X0255620Y0206865D03*
X0236570Y0196546D03*
D523*
X0231255Y0205482D03*
X0318064Y0196546D03*
X0318385Y0196865D03*
X0318805Y0197184D03*
X0319125Y0197397D03*
X0319765Y0197929D03*
X0321255Y0199099D03*
D524*
X0236574Y0196652D03*
D525*
X0318170Y0196652D03*
D526*
X0236629Y0196758D03*
D527*
X0318330Y0196758D03*
X0320990Y0198886D03*
X0320030Y0205269D03*
D528*
X0236570Y0196865D03*
D529*
X0233219Y0196971D03*
X0236629Y0208992D03*
X0255670Y0208992D03*
D530*
X0237530Y0209524D03*
X0236680Y0196971D03*
X0236360Y0196971D03*
D531*
X0236945Y0196971D03*
D532*
X0240085Y0196971D03*
X0324765Y0201652D03*
D533*
X0321575Y0203992D03*
X0321145Y0198992D03*
X0320725Y0198673D03*
X0320405Y0198460D03*
X0320085Y0198141D03*
X0319235Y0197503D03*
X0318595Y0196971D03*
X0304975Y0208673D03*
D534*
X0232799Y0197077D03*
X0231409Y0205588D03*
D535*
X0235725Y0209524D03*
X0235935Y0209524D03*
X0235615Y0197077D03*
X0254765Y0209524D03*
X0256574Y0209524D03*
X0280085Y0209524D03*
D536*
X0318700Y0197077D03*
X0321360Y0199205D03*
D537*
X0320565Y0198567D03*
X0320775Y0204631D03*
X0320135Y0205162D03*
X0319715Y0205482D03*
X0319074Y0206014D03*
X0318645Y0206333D03*
X0232585Y0197184D03*
D538*
X0232425Y0197290D03*
D539*
X0240830Y0197290D03*
D540*
X0318115Y0206758D03*
X0320565Y0204843D03*
X0321095Y0204418D03*
X0321735Y0203886D03*
X0321625Y0199418D03*
X0318965Y0197290D03*
D541*
X0232265Y0197397D03*
D542*
X0232105Y0197503D03*
X0251255Y0205907D03*
D543*
X0241204Y0197609D03*
X0241095Y0197503D03*
D544*
X0231999Y0197609D03*
X0230830Y0204737D03*
X0260400Y0205588D03*
X0334020Y0205588D03*
D545*
X0334714Y0206120D03*
X0321305Y0204205D03*
X0320245Y0205056D03*
X0319605Y0205588D03*
X0318224Y0206652D03*
X0319925Y0198034D03*
X0319395Y0197609D03*
X0297795Y0206120D03*
X0259715Y0206120D03*
D546*
X0318009Y0206865D03*
X0320350Y0204950D03*
X0321200Y0204312D03*
X0321520Y0199312D03*
X0319500Y0197716D03*
D547*
X0333705Y0205269D03*
X0231785Y0197822D03*
D548*
X0241414Y0197822D03*
D549*
X0319660Y0197822D03*
D550*
X0231680Y0197929D03*
D551*
X0241575Y0197929D03*
X0287425Y0203779D03*
X0298595Y0205482D03*
X0333915Y0205482D03*
X0338805Y0209312D03*
D552*
X0333805Y0205375D03*
X0316995Y0208035D03*
X0308805Y0205375D03*
X0298704Y0205375D03*
X0276045Y0205375D03*
X0260615Y0205375D03*
X0231575Y0198034D03*
D553*
X0231470Y0198141D03*
X0344020Y0205056D03*
D554*
X0255615Y0209312D03*
X0241785Y0198248D03*
X0230615Y0204099D03*
D555*
X0319340Y0205801D03*
X0320830Y0198780D03*
X0320190Y0198248D03*
D556*
X0309285Y0204843D03*
X0287375Y0203354D03*
X0275664Y0204843D03*
X0250245Y0204843D03*
X0241945Y0204843D03*
X0231305Y0198354D03*
X0230565Y0203886D03*
X0333434Y0204843D03*
D557*
X0241889Y0198354D03*
D558*
X0277214Y0206226D03*
X0320295Y0198354D03*
D559*
X0333545Y0205056D03*
X0298965Y0205056D03*
X0287375Y0203460D03*
X0261095Y0204737D03*
X0241945Y0198460D03*
X0231305Y0198460D03*
D560*
X0231150Y0198567D03*
X0242000Y0198567D03*
X0261150Y0204631D03*
X0275510Y0204631D03*
D561*
X0242000Y0204737D03*
X0231150Y0198673D03*
D562*
X0230615Y0203992D03*
X0242105Y0198673D03*
X0250084Y0204524D03*
X0261255Y0204524D03*
X0275615Y0204737D03*
X0309445Y0204524D03*
X0333275Y0204737D03*
D563*
X0344500Y0204312D03*
X0275350Y0204312D03*
X0242160Y0198780D03*
X0230560Y0203779D03*
X0230460Y0203567D03*
D564*
X0230989Y0198886D03*
X0250030Y0204418D03*
X0299390Y0204418D03*
X0316840Y0208354D03*
X0344390Y0204418D03*
D565*
X0333115Y0204418D03*
X0242265Y0198886D03*
D566*
X0230880Y0198992D03*
X0287370Y0203035D03*
X0287370Y0203141D03*
X0333220Y0204524D03*
X0344390Y0204524D03*
D567*
X0299285Y0204524D03*
X0242265Y0198992D03*
D568*
X0242315Y0199099D03*
X0242424Y0199312D03*
X0242535Y0203779D03*
X0249765Y0204099D03*
X0261364Y0204312D03*
X0261465Y0204099D03*
X0275085Y0203779D03*
X0275195Y0204099D03*
X0287425Y0202929D03*
X0299445Y0204312D03*
X0299555Y0204099D03*
X0309655Y0204099D03*
X0332955Y0204099D03*
X0333065Y0204312D03*
X0344554Y0204099D03*
X0230934Y0199099D03*
X0230724Y0199312D03*
X0230405Y0203248D03*
D569*
X0230825Y0199205D03*
X0242424Y0199205D03*
X0242424Y0203992D03*
X0242315Y0204205D03*
X0249765Y0203992D03*
X0249874Y0204205D03*
X0261364Y0204205D03*
X0275195Y0203992D03*
X0275295Y0204205D03*
X0309655Y0204205D03*
X0309765Y0203992D03*
X0316785Y0208460D03*
X0344554Y0204205D03*
X0344655Y0203992D03*
D570*
X0344710Y0203886D03*
X0332690Y0203354D03*
X0299820Y0203354D03*
X0275140Y0203886D03*
X0242479Y0203886D03*
X0242479Y0199418D03*
X0230350Y0202822D03*
D571*
X0230670Y0199524D03*
X0242479Y0199524D03*
X0242689Y0200056D03*
X0261520Y0203992D03*
X0275030Y0203673D03*
X0287370Y0202609D03*
X0299710Y0203673D03*
X0299820Y0203460D03*
X0332690Y0203460D03*
X0344820Y0203460D03*
X0344820Y0203673D03*
D572*
X0323435Y0199524D03*
X0287375Y0205907D03*
D573*
X0287370Y0202715D03*
X0287370Y0202396D03*
X0275030Y0203567D03*
X0299710Y0203779D03*
X0309820Y0203779D03*
X0344710Y0203779D03*
X0344820Y0203567D03*
X0360880Y0209631D03*
X0249710Y0203779D03*
X0242689Y0203248D03*
X0230350Y0202929D03*
X0230670Y0199631D03*
D574*
X0242585Y0199631D03*
X0242585Y0203567D03*
X0249605Y0203567D03*
X0261625Y0203779D03*
X0274925Y0203248D03*
X0309925Y0203567D03*
X0316735Y0208567D03*
X0332795Y0203779D03*
D575*
X0323435Y0199631D03*
D576*
X0332795Y0203673D03*
X0332905Y0203992D03*
X0309925Y0203460D03*
X0299605Y0203992D03*
X0261735Y0203460D03*
X0261625Y0203673D03*
X0249605Y0203673D03*
X0242585Y0203673D03*
X0242585Y0203460D03*
X0242585Y0199737D03*
X0230455Y0203141D03*
D577*
X0281045Y0208460D03*
X0323595Y0199737D03*
D578*
X0332905Y0203886D03*
X0299605Y0203886D03*
X0261735Y0203354D03*
X0230455Y0203354D03*
X0230565Y0199843D03*
D579*
X0323595Y0199843D03*
D580*
X0323699Y0199950D03*
D581*
X0323754Y0200056D03*
D582*
X0323805Y0200163D03*
X0338805Y0208567D03*
D583*
X0323860Y0200269D03*
D584*
X0323965Y0200375D03*
X0293755Y0208673D03*
X0236625Y0208673D03*
D585*
X0323965Y0200482D03*
D586*
X0324125Y0200588D03*
X0306465Y0206652D03*
D587*
X0261839Y0202822D03*
X0230350Y0201758D03*
X0230350Y0200694D03*
X0230350Y0208886D03*
X0230350Y0209418D03*
X0230350Y0210693D03*
X0230350Y0212290D03*
X0230350Y0212821D03*
D588*
X0324125Y0200694D03*
D589*
X0230350Y0200801D03*
X0230350Y0201013D03*
X0230350Y0201332D03*
X0230350Y0201865D03*
X0230350Y0202396D03*
X0230350Y0208248D03*
X0230350Y0208780D03*
X0230350Y0209099D03*
X0230350Y0210163D03*
X0230350Y0210801D03*
X0230350Y0211014D03*
X0230350Y0211333D03*
D590*
X0236574Y0208780D03*
X0255615Y0208780D03*
X0324235Y0200801D03*
D591*
X0230350Y0200907D03*
X0230350Y0201439D03*
X0230350Y0202077D03*
X0230350Y0202503D03*
X0230350Y0208141D03*
X0230350Y0208460D03*
X0230350Y0209524D03*
X0230350Y0209737D03*
X0230350Y0210056D03*
X0230350Y0210374D03*
X0230350Y0211439D03*
X0230350Y0211652D03*
X0230350Y0211971D03*
X0230350Y0212076D03*
X0230350Y0212609D03*
D592*
X0287375Y0205375D03*
X0305775Y0207503D03*
X0324285Y0202503D03*
X0324285Y0200907D03*
D593*
X0324340Y0201013D03*
X0305620Y0207716D03*
D594*
X0242905Y0202077D03*
X0242905Y0201971D03*
X0242905Y0201652D03*
X0242905Y0201439D03*
X0242905Y0201120D03*
D595*
X0324390Y0201120D03*
D596*
X0242905Y0201332D03*
X0242905Y0201546D03*
X0242905Y0201865D03*
X0242905Y0202184D03*
D597*
X0324495Y0201332D03*
D598*
X0324660Y0201439D03*
D599*
X0324655Y0201546D03*
X0342315Y0206333D03*
X0305295Y0208248D03*
X0297215Y0206333D03*
X0277535Y0206333D03*
X0240085Y0206333D03*
D600*
X0287370Y0204843D03*
X0324710Y0201758D03*
D601*
X0324605Y0201971D03*
X0305355Y0208141D03*
D602*
X0324550Y0202077D03*
D603*
X0324445Y0202184D03*
D604*
X0324445Y0202290D03*
X0281045Y0208886D03*
X0255615Y0208886D03*
X0236574Y0208886D03*
D605*
X0324285Y0202396D03*
D606*
X0324180Y0202609D03*
X0306840Y0206439D03*
D607*
X0306630Y0206545D03*
X0305990Y0207184D03*
X0305880Y0207397D03*
X0324180Y0202715D03*
D608*
X0324125Y0202822D03*
X0305935Y0207290D03*
D609*
X0323910Y0203035D03*
X0338810Y0208673D03*
X0281040Y0208673D03*
X0255620Y0208673D03*
D610*
X0323914Y0203141D03*
D611*
X0333275Y0204631D03*
X0287425Y0203248D03*
X0250084Y0204631D03*
X0242105Y0204631D03*
D612*
X0323750Y0203248D03*
D613*
X0323699Y0203354D03*
D614*
X0333010Y0204205D03*
X0299500Y0204205D03*
X0275460Y0204524D03*
X0242160Y0204524D03*
X0230560Y0203673D03*
X0230460Y0203460D03*
D615*
X0323699Y0203460D03*
D616*
X0333649Y0205162D03*
X0343970Y0205162D03*
X0298860Y0205162D03*
X0287370Y0203567D03*
D617*
X0287370Y0205801D03*
X0323650Y0203567D03*
D618*
X0287370Y0203673D03*
X0250670Y0205375D03*
X0241520Y0205375D03*
X0230670Y0204205D03*
D619*
X0255670Y0208460D03*
X0323540Y0203673D03*
D620*
X0323490Y0203779D03*
D621*
X0287370Y0203886D03*
D622*
X0287375Y0203992D03*
D623*
X0287425Y0204099D03*
X0298275Y0205801D03*
X0334235Y0205801D03*
X0343274Y0205801D03*
D624*
X0338750Y0209205D03*
X0334390Y0205907D03*
X0317370Y0207503D03*
X0298120Y0205907D03*
X0287370Y0204205D03*
X0276630Y0205907D03*
X0260029Y0205907D03*
X0240990Y0205907D03*
D625*
X0242265Y0204312D03*
X0249925Y0204312D03*
X0309605Y0204312D03*
D626*
X0298755Y0205269D03*
X0230775Y0204418D03*
D627*
X0242210Y0204418D03*
D628*
X0261310Y0204418D03*
X0275350Y0204418D03*
X0309500Y0204418D03*
D629*
X0230775Y0204524D03*
D630*
X0287370Y0204631D03*
D631*
X0299230Y0204631D03*
X0309340Y0204631D03*
X0316890Y0208248D03*
X0344339Y0204631D03*
D632*
X0299180Y0204737D03*
D633*
X0250985Y0205694D03*
X0230885Y0204843D03*
D634*
X0261039Y0204843D03*
X0299130Y0204843D03*
D635*
X0344180Y0204843D03*
D636*
X0308380Y0205801D03*
X0260190Y0205801D03*
X0231040Y0204950D03*
D637*
X0250355Y0204950D03*
X0260984Y0204950D03*
X0275775Y0204950D03*
X0304605Y0209099D03*
X0333434Y0204950D03*
X0344075Y0204950D03*
D638*
X0309180Y0204950D03*
D639*
X0309125Y0205056D03*
X0250405Y0205056D03*
X0241785Y0205056D03*
D640*
X0260829Y0205056D03*
X0275830Y0205056D03*
D641*
X0287425Y0205056D03*
D642*
X0308114Y0206014D03*
X0251415Y0206014D03*
X0240775Y0206014D03*
X0231095Y0205162D03*
D643*
X0241730Y0205162D03*
X0275879Y0205162D03*
D644*
X0260829Y0205162D03*
D645*
X0287370Y0205162D03*
D646*
X0231199Y0205269D03*
D647*
X0241630Y0205269D03*
D648*
X0287370Y0205269D03*
D649*
X0316944Y0208141D03*
X0343755Y0205375D03*
D650*
X0308755Y0205482D03*
X0250775Y0205482D03*
X0241414Y0205482D03*
X0236625Y0209312D03*
D651*
X0260510Y0205482D03*
D652*
X0287425Y0205482D03*
X0306255Y0206865D03*
D653*
X0287370Y0205588D03*
X0360990Y0206439D03*
D654*
X0240404Y0206226D03*
X0231465Y0205694D03*
D655*
X0241204Y0205694D03*
X0276415Y0205694D03*
D656*
X0260300Y0205694D03*
X0298380Y0205694D03*
X0308490Y0205694D03*
X0317210Y0207822D03*
X0334130Y0205694D03*
X0343489Y0205694D03*
D657*
X0287425Y0205694D03*
D658*
X0307370Y0206333D03*
X0252050Y0206333D03*
X0231520Y0205801D03*
D659*
X0241095Y0205801D03*
X0251094Y0205801D03*
X0317265Y0207716D03*
D660*
X0276520Y0205801D03*
D661*
X0231680Y0205907D03*
D662*
X0308275Y0205907D03*
D663*
X0231734Y0206014D03*
D664*
X0287370Y0206014D03*
D665*
X0297955Y0206014D03*
X0334555Y0206014D03*
D666*
X0343010Y0206014D03*
X0317690Y0207184D03*
D667*
X0231895Y0206120D03*
D668*
X0287370Y0206120D03*
D669*
X0232154Y0206226D03*
D670*
X0251840Y0206226D03*
X0297580Y0206226D03*
X0307690Y0206226D03*
X0342580Y0206226D03*
D671*
X0259500Y0206226D03*
D672*
X0287375Y0206226D03*
D673*
X0292635Y0206226D03*
D674*
X0334925Y0206226D03*
D675*
X0232475Y0206333D03*
D676*
X0259180Y0206333D03*
D677*
X0287320Y0206333D03*
D678*
X0335190Y0206333D03*
D679*
X0235774Y0206439D03*
D680*
X0234980Y0208035D03*
X0255620Y0206439D03*
X0338810Y0206439D03*
D681*
X0287370Y0206439D03*
D682*
X0235774Y0206545D03*
D683*
X0255670Y0206545D03*
D684*
X0281045Y0206545D03*
D685*
X0293755Y0206545D03*
X0338755Y0206545D03*
D686*
X0360935Y0206545D03*
D687*
X0235670Y0206652D03*
D688*
X0255670Y0206652D03*
X0293750Y0206652D03*
X0338750Y0206652D03*
D689*
X0281095Y0206652D03*
D690*
X0360935Y0206652D03*
D691*
X0235615Y0206758D03*
D692*
X0255670Y0206758D03*
D693*
X0281095Y0206758D03*
X0293755Y0206758D03*
X0338755Y0206758D03*
D694*
X0306410Y0206758D03*
D695*
X0360935Y0206758D03*
D696*
X0235665Y0206865D03*
D697*
X0293700Y0206865D03*
D698*
X0338755Y0206865D03*
D699*
X0360985Y0206865D03*
X0360985Y0209099D03*
D700*
X0235615Y0206971D03*
D701*
X0255615Y0206971D03*
X0281045Y0206971D03*
X0338805Y0206971D03*
D702*
X0293755Y0206971D03*
D703*
X0306199Y0206971D03*
D704*
X0360935Y0206971D03*
D705*
X0235510Y0207077D03*
D706*
X0255615Y0207077D03*
D707*
X0281040Y0207077D03*
X0293700Y0207077D03*
X0338810Y0207077D03*
D708*
X0306095Y0207077D03*
D709*
X0360990Y0207077D03*
X0360990Y0208992D03*
D710*
X0235510Y0207184D03*
D711*
X0255670Y0207184D03*
D712*
X0281040Y0207184D03*
X0293700Y0207184D03*
X0338810Y0207184D03*
D713*
X0360990Y0207184D03*
D714*
X0235405Y0207290D03*
D715*
X0255615Y0207290D03*
X0281045Y0207290D03*
X0293705Y0207290D03*
D716*
X0317585Y0207290D03*
D717*
X0338755Y0207290D03*
D718*
X0360935Y0207290D03*
D719*
X0235350Y0207397D03*
D720*
X0255615Y0207397D03*
D721*
X0281040Y0207397D03*
X0293700Y0207397D03*
X0338810Y0207397D03*
D722*
X0360985Y0207397D03*
X0360985Y0208567D03*
X0281095Y0207929D03*
D723*
X0235350Y0207503D03*
D724*
X0255615Y0207503D03*
D725*
X0281040Y0207503D03*
X0293700Y0207503D03*
D726*
X0338755Y0207503D03*
D727*
X0360935Y0207503D03*
D728*
X0235239Y0207609D03*
D729*
X0255615Y0207609D03*
X0281045Y0207609D03*
X0293705Y0207609D03*
X0338805Y0207609D03*
D730*
X0305720Y0207609D03*
D731*
X0360990Y0207609D03*
X0360990Y0208035D03*
X0360990Y0208141D03*
X0360990Y0208460D03*
D732*
X0235190Y0207716D03*
D733*
X0255670Y0207716D03*
D734*
X0281095Y0207716D03*
X0293755Y0207716D03*
X0338755Y0207716D03*
D735*
X0360990Y0207716D03*
X0360990Y0207929D03*
X0360990Y0208248D03*
D736*
X0235135Y0207822D03*
D737*
X0255670Y0207822D03*
X0293750Y0207822D03*
X0360990Y0207822D03*
X0360990Y0208354D03*
D738*
X0281040Y0207822D03*
D739*
X0305565Y0207822D03*
D740*
X0338805Y0207822D03*
D741*
X0235029Y0207929D03*
D742*
X0255620Y0207929D03*
X0293700Y0207929D03*
D743*
X0305510Y0207929D03*
D744*
X0338755Y0207929D03*
D745*
X0338805Y0208035D03*
X0293705Y0208035D03*
X0281045Y0208035D03*
X0255615Y0208035D03*
D746*
X0305405Y0208035D03*
D747*
X0293755Y0208141D03*
X0255665Y0208141D03*
X0236625Y0208141D03*
X0338755Y0208141D03*
D748*
X0281040Y0208141D03*
D749*
X0236629Y0208248D03*
X0360990Y0209312D03*
D750*
X0338805Y0208248D03*
X0293705Y0208248D03*
X0281045Y0208248D03*
X0255615Y0208248D03*
D751*
X0255615Y0208354D03*
X0236574Y0208354D03*
X0360935Y0209418D03*
D752*
X0281040Y0208354D03*
D753*
X0293755Y0208354D03*
X0338755Y0208354D03*
D754*
X0305195Y0208354D03*
D755*
X0236625Y0208460D03*
D756*
X0293705Y0208460D03*
D757*
X0305190Y0208460D03*
D758*
X0338755Y0208460D03*
D759*
X0236574Y0208567D03*
D760*
X0255670Y0208567D03*
D761*
X0281040Y0208567D03*
X0293700Y0208567D03*
D762*
X0305085Y0208567D03*
X0338805Y0209099D03*
X0255615Y0209099D03*
D763*
X0360985Y0208673D03*
D764*
X0281040Y0208780D03*
D765*
X0293700Y0208780D03*
D766*
X0338755Y0208780D03*
D767*
X0360935Y0208780D03*
D768*
X0268330Y0208886D03*
D769*
X0293705Y0208886D03*
X0338805Y0208886D03*
D770*
X0351415Y0208886D03*
D771*
X0360990Y0208886D03*
D772*
X0268330Y0208992D03*
X0230350Y0213673D03*
D773*
X0281095Y0208992D03*
X0293755Y0208992D03*
X0338755Y0208992D03*
D774*
X0316625Y0208992D03*
D775*
X0236625Y0209099D03*
D776*
X0281095Y0209099D03*
D777*
X0293700Y0209099D03*
D778*
X0293700Y0209205D03*
D779*
X0316520Y0209205D03*
D780*
X0360990Y0209205D03*
D781*
X0293755Y0209312D03*
X0281095Y0209312D03*
D782*
X0268275Y0214099D03*
X0316575Y0209312D03*
D783*
X0268330Y0209418D03*
D784*
X0304235Y0209418D03*
X0230295Y0213886D03*
D785*
X0316525Y0209418D03*
D786*
X0338755Y0209418D03*
D787*
X0351465Y0209418D03*
D788*
X0236680Y0209524D03*
D789*
X0255665Y0209524D03*
X0268325Y0214204D03*
X0351415Y0214204D03*
D790*
X0268330Y0209524D03*
D791*
X0304075Y0209524D03*
D792*
X0316570Y0209524D03*
D793*
X0351415Y0209524D03*
D794*
X0360985Y0209524D03*
D795*
X0268010Y0209631D03*
D796*
X0268275Y0211226D03*
D797*
X0351470Y0211226D03*
D798*
X0351415Y0211333D03*
X0268325Y0211333D03*
D799*
X0351415Y0211439D03*
D800*
X0351415Y0211546D03*
D801*
X0360935Y0213673D03*
X0326045Y0213673D03*
X0268275Y0211652D03*
D802*
X0268280Y0211865D03*
X0230300Y0213567D03*
X0326040Y0213567D03*
X0360940Y0213567D03*
D803*
X0268275Y0213459D03*
X0268275Y0211971D03*
D804*
X0230295Y0213459D03*
X0351465Y0213459D03*
X0351465Y0212076D03*
X0351465Y0211971D03*
D805*
X0326045Y0213354D03*
D806*
X0360935Y0213354D03*
D807*
X0268330Y0213567D03*
D808*
X0326040Y0213780D03*
D809*
X0360935Y0213780D03*
D810*
X0268330Y0213886D03*
D811*
X0326040Y0213886D03*
D812*
X0351410Y0213886D03*
D813*
X0360935Y0213886D03*
D814*
X0230350Y0213992D03*
D815*
X0268280Y0213992D03*
X0351470Y0213992D03*
D816*
X0230295Y0214099D03*
D817*
X0326040Y0214099D03*
D818*
X0360935Y0214099D03*
D819*
X0230295Y0214204D03*
D820*
X0326040Y0214204D03*
D821*
X0360935Y0214204D03*
D822*
X0351415Y0214312D03*
X0268325Y0214312D03*
D823*
X0204436Y0081460D02*
X0205293Y0080317D01*
X0206300Y0079309D01*
X0207444Y0078452D01*
X0208696Y0077769D01*
X0210033Y0077271D01*
X0211427Y0076968D01*
X0212849Y0076866D01*
X0382850Y0076866D01*
X0384273Y0076968D01*
X0385667Y0077271D01*
X0387004Y0077769D01*
X0388256Y0078452D01*
X0389398Y0079309D01*
X0390407Y0080317D01*
X0391263Y0081460D01*
X0391946Y0082712D01*
X0392445Y0084049D01*
X0392748Y0085443D01*
X0392850Y0086866D01*
X0392850Y0381866D01*
X0392748Y0383289D01*
X0392445Y0384683D01*
X0391946Y0386020D01*
X0391263Y0387272D01*
X0390407Y0388415D01*
X0389398Y0389423D01*
X0388256Y0390279D01*
X0387004Y0390962D01*
X0385667Y0391461D01*
X0384273Y0391764D01*
X0382850Y0391866D01*
X0212849Y0391866D01*
X0211427Y0391764D01*
X0210033Y0391461D01*
X0208696Y0390962D01*
X0207444Y0390279D01*
X0206300Y0389423D01*
X0205293Y0388415D01*
X0204436Y0387272D01*
X0203754Y0386020D01*
X0203255Y0384683D01*
X0202952Y0383289D01*
X0202850Y0381866D01*
X0202850Y0086866D01*
X0202952Y0085443D01*
X0203255Y0084049D01*
X0203754Y0082712D01*
X0204436Y0081460D01*
X0204331Y0081654D02*
X0391369Y0081654D01*
X0391696Y0082253D02*
X0204003Y0082253D01*
X0203702Y0082851D02*
X0391998Y0082851D01*
X0392221Y0083450D02*
X0203478Y0083450D01*
X0203255Y0084047D02*
X0392445Y0084047D01*
X0392575Y0084646D02*
X0203125Y0084646D01*
X0202995Y0085245D02*
X0392705Y0085245D01*
X0392777Y0085844D02*
X0202923Y0085844D01*
X0202880Y0086442D02*
X0392819Y0086442D01*
X0392850Y0087041D02*
X0202850Y0087041D01*
X0202850Y0087639D02*
X0392850Y0087639D01*
X0392850Y0088238D02*
X0202850Y0088238D01*
X0202850Y0088836D02*
X0392850Y0088836D01*
X0392850Y0089434D02*
X0202850Y0089434D01*
X0202850Y0090033D02*
X0392850Y0090033D01*
X0392850Y0090632D02*
X0202850Y0090632D01*
X0202850Y0091230D02*
X0392850Y0091230D01*
X0392850Y0091829D02*
X0202850Y0091829D01*
X0202850Y0092427D02*
X0392850Y0092427D01*
X0392850Y0093026D02*
X0202850Y0093026D01*
X0202850Y0093624D02*
X0392850Y0093624D01*
X0392850Y0094223D02*
X0202850Y0094223D01*
X0202850Y0094821D02*
X0392850Y0094821D01*
X0392850Y0095420D02*
X0202850Y0095420D01*
X0202850Y0096018D02*
X0392850Y0096018D01*
X0392850Y0096617D02*
X0202850Y0096617D01*
X0202850Y0097215D02*
X0392850Y0097215D01*
X0392850Y0097814D02*
X0202850Y0097814D01*
X0202850Y0098411D02*
X0392850Y0098411D01*
X0392850Y0099011D02*
X0202850Y0099011D01*
X0202850Y0099609D02*
X0392850Y0099609D01*
X0392850Y0100208D02*
X0202850Y0100208D01*
X0202850Y0100806D02*
X0392850Y0100806D01*
X0392850Y0101404D02*
X0202850Y0101404D01*
X0202850Y0102003D02*
X0392850Y0102003D01*
X0392850Y0102602D02*
X0202850Y0102602D01*
X0202850Y0103200D02*
X0392850Y0103200D01*
X0392850Y0103799D02*
X0202850Y0103799D01*
X0202850Y0104397D02*
X0392850Y0104397D01*
X0392850Y0104996D02*
X0202850Y0104996D01*
X0202850Y0105595D02*
X0392850Y0105595D01*
X0392850Y0106193D02*
X0202850Y0106193D01*
X0202850Y0106792D02*
X0392850Y0106792D01*
X0392850Y0107390D02*
X0202850Y0107390D01*
X0202850Y0107989D02*
X0392850Y0107989D01*
X0392850Y0108586D02*
X0202850Y0108586D01*
X0202850Y0109186D02*
X0392850Y0109186D01*
X0392850Y0109783D02*
X0202850Y0109783D01*
X0202850Y0110383D02*
X0392850Y0110383D01*
X0392850Y0110981D02*
X0202850Y0110981D01*
X0202850Y0111579D02*
X0392850Y0111579D01*
X0392850Y0112178D02*
X0202850Y0112178D01*
X0202850Y0112777D02*
X0392850Y0112777D01*
X0392850Y0113375D02*
X0202850Y0113375D01*
X0202850Y0113974D02*
X0392850Y0113974D01*
X0392850Y0114572D02*
X0202850Y0114572D01*
X0202850Y0115171D02*
X0392850Y0115171D01*
X0392850Y0115769D02*
X0202850Y0115769D01*
X0202850Y0116368D02*
X0392850Y0116368D01*
X0392850Y0116965D02*
X0202850Y0116965D01*
X0202850Y0117565D02*
X0392850Y0117565D01*
X0392850Y0118163D02*
X0202850Y0118163D01*
X0202850Y0118761D02*
X0392850Y0118761D01*
X0392850Y0119360D02*
X0202850Y0119360D01*
X0202850Y0119959D02*
X0392850Y0119959D01*
X0392850Y0120557D02*
X0202850Y0120557D01*
X0202850Y0121156D02*
X0392850Y0121156D01*
X0392850Y0121754D02*
X0202850Y0121754D01*
X0202850Y0122353D02*
X0392850Y0122353D01*
X0392850Y0122951D02*
X0202850Y0122951D01*
X0202850Y0123550D02*
X0392850Y0123550D01*
X0392850Y0124147D02*
X0202850Y0124147D01*
X0202850Y0124747D02*
X0392850Y0124747D01*
X0392850Y0125345D02*
X0202850Y0125345D01*
X0202850Y0125943D02*
X0392850Y0125943D01*
X0392850Y0126542D02*
X0202850Y0126542D01*
X0202850Y0127141D02*
X0392850Y0127141D01*
X0392850Y0127739D02*
X0202850Y0127739D01*
X0202850Y0128338D02*
X0392850Y0128338D01*
X0392850Y0128936D02*
X0202850Y0128936D01*
X0202850Y0129535D02*
X0392850Y0129535D01*
X0392850Y0130134D02*
X0202850Y0130134D01*
X0202850Y0130732D02*
X0392850Y0130732D01*
X0392850Y0131331D02*
X0202850Y0131331D01*
X0202850Y0131929D02*
X0392850Y0131929D01*
X0392850Y0132528D02*
X0202850Y0132528D01*
X0202850Y0133126D02*
X0392850Y0133126D01*
X0392850Y0133725D02*
X0202850Y0133725D01*
X0202850Y0134323D02*
X0392850Y0134323D01*
X0392850Y0134922D02*
X0202850Y0134922D01*
X0202850Y0135519D02*
X0392850Y0135519D01*
X0392850Y0136119D02*
X0202850Y0136119D01*
X0202850Y0136717D02*
X0392850Y0136717D01*
X0392850Y0137316D02*
X0202850Y0137316D01*
X0202850Y0137914D02*
X0392850Y0137914D01*
X0392850Y0138513D02*
X0202850Y0138513D01*
X0202850Y0139110D02*
X0392850Y0139110D01*
X0392850Y0139710D02*
X0202850Y0139710D01*
X0202850Y0140308D02*
X0392850Y0140308D01*
X0392850Y0140907D02*
X0202850Y0140907D01*
X0202850Y0141505D02*
X0392850Y0141505D01*
X0392850Y0142104D02*
X0202850Y0142104D01*
X0202850Y0142702D02*
X0392850Y0142702D01*
X0392850Y0143301D02*
X0202850Y0143301D01*
X0202850Y0143899D02*
X0392850Y0143899D01*
X0392850Y0144498D02*
X0202850Y0144498D01*
X0202850Y0145096D02*
X0392850Y0145096D01*
X0392850Y0145695D02*
X0202850Y0145695D01*
X0202850Y0146293D02*
X0392850Y0146293D01*
X0392850Y0146892D02*
X0202850Y0146892D01*
X0202850Y0147490D02*
X0392850Y0147490D01*
X0392850Y0148089D02*
X0202850Y0148089D01*
X0202850Y0148687D02*
X0392850Y0148687D01*
X0392850Y0149286D02*
X0202850Y0149286D01*
X0202850Y0149884D02*
X0392850Y0149884D01*
X0392850Y0150482D02*
X0202850Y0150482D01*
X0202850Y0151081D02*
X0392850Y0151081D01*
X0392850Y0151680D02*
X0202850Y0151680D01*
X0202850Y0152278D02*
X0392850Y0152278D01*
X0392850Y0152877D02*
X0202850Y0152877D01*
X0202850Y0153475D02*
X0392850Y0153475D01*
X0392850Y0154073D02*
X0202850Y0154073D01*
X0202850Y0154672D02*
X0392850Y0154672D01*
X0392850Y0155271D02*
X0202850Y0155271D01*
X0202850Y0155869D02*
X0392850Y0155869D01*
X0392850Y0156468D02*
X0202850Y0156468D01*
X0202850Y0157067D02*
X0392850Y0157067D01*
X0392850Y0157665D02*
X0202850Y0157665D01*
X0202850Y0158264D02*
X0392850Y0158264D01*
X0392850Y0158862D02*
X0202850Y0158862D01*
X0202850Y0159461D02*
X0392850Y0159461D01*
X0392850Y0160059D02*
X0202850Y0160059D01*
X0202850Y0160658D02*
X0392850Y0160658D01*
X0392850Y0161256D02*
X0202850Y0161256D01*
X0202850Y0161855D02*
X0392850Y0161855D01*
X0392850Y0162453D02*
X0202850Y0162453D01*
X0202850Y0163052D02*
X0392850Y0163052D01*
X0392850Y0163649D02*
X0202850Y0163649D01*
X0202850Y0164249D02*
X0392850Y0164249D01*
X0392850Y0164847D02*
X0202850Y0164847D01*
X0202850Y0165446D02*
X0392850Y0165446D01*
X0392850Y0166044D02*
X0202850Y0166044D01*
X0202850Y0166643D02*
X0392850Y0166643D01*
X0392850Y0167241D02*
X0202850Y0167241D01*
X0202850Y0167840D02*
X0392850Y0167840D01*
X0392850Y0168438D02*
X0202850Y0168438D01*
X0202850Y0169037D02*
X0392850Y0169037D01*
X0392850Y0169635D02*
X0202850Y0169635D01*
X0202850Y0170234D02*
X0392850Y0170234D01*
X0392850Y0170832D02*
X0202850Y0170832D01*
X0202850Y0171431D02*
X0392850Y0171431D01*
X0392850Y0172029D02*
X0202850Y0172029D01*
X0202850Y0172628D02*
X0392850Y0172628D01*
X0392850Y0173226D02*
X0202850Y0173226D01*
X0202850Y0173825D02*
X0392850Y0173825D01*
X0392850Y0174423D02*
X0202850Y0174423D01*
X0202850Y0175022D02*
X0392850Y0175022D01*
X0392850Y0175620D02*
X0202850Y0175620D01*
X0202850Y0176219D02*
X0392850Y0176219D01*
X0392850Y0176817D02*
X0202850Y0176817D01*
X0202850Y0177416D02*
X0392850Y0177416D01*
X0392850Y0178014D02*
X0202850Y0178014D01*
X0202850Y0178612D02*
X0392850Y0178612D01*
X0392850Y0179211D02*
X0202850Y0179211D01*
X0202850Y0179810D02*
X0392850Y0179810D01*
X0392850Y0180408D02*
X0202850Y0180408D01*
X0202850Y0181007D02*
X0392850Y0181007D01*
X0392850Y0181605D02*
X0202850Y0181605D01*
X0202850Y0182204D02*
X0392850Y0182204D01*
X0392850Y0182803D02*
X0202850Y0182803D01*
X0202850Y0183401D02*
X0392850Y0183401D01*
X0392850Y0184000D02*
X0202850Y0184000D01*
X0202850Y0184598D02*
X0392850Y0184598D01*
X0392850Y0185197D02*
X0202850Y0185197D01*
X0202850Y0185795D02*
X0392850Y0185795D01*
X0392850Y0186394D02*
X0202850Y0186394D01*
X0202850Y0186992D02*
X0392850Y0186992D01*
X0392850Y0187591D02*
X0202850Y0187591D01*
X0202850Y0188189D02*
X0392850Y0188189D01*
X0392850Y0188788D02*
X0202850Y0188788D01*
X0202850Y0189386D02*
X0392850Y0189386D01*
X0392850Y0189985D02*
X0202850Y0189985D01*
X0202850Y0190583D02*
X0392850Y0190583D01*
X0392850Y0191182D02*
X0202850Y0191182D01*
X0202850Y0191780D02*
X0392850Y0191780D01*
X0392850Y0192379D02*
X0202850Y0192379D01*
X0202850Y0192977D02*
X0392850Y0192977D01*
X0392850Y0193575D02*
X0202850Y0193575D01*
X0202850Y0194174D02*
X0392850Y0194174D01*
X0392850Y0194773D02*
X0202850Y0194773D01*
X0202850Y0195371D02*
X0392850Y0195371D01*
X0392850Y0195970D02*
X0202850Y0195970D01*
X0202850Y0196568D02*
X0392850Y0196568D01*
X0392850Y0197166D02*
X0202850Y0197166D01*
X0202850Y0197765D02*
X0392850Y0197765D01*
X0392850Y0198364D02*
X0202850Y0198364D01*
X0202850Y0198962D02*
X0392850Y0198962D01*
X0392850Y0199561D02*
X0202850Y0199561D01*
X0202850Y0200159D02*
X0392850Y0200159D01*
X0392850Y0200758D02*
X0202850Y0200758D01*
X0202850Y0201356D02*
X0392850Y0201356D01*
X0392850Y0201955D02*
X0202850Y0201955D01*
X0202850Y0202552D02*
X0392850Y0202552D01*
X0392850Y0203152D02*
X0202850Y0203152D01*
X0202850Y0203750D02*
X0392850Y0203750D01*
X0392850Y0204348D02*
X0202850Y0204348D01*
X0202850Y0204947D02*
X0392850Y0204947D01*
X0392850Y0205546D02*
X0202850Y0205546D01*
X0202850Y0206144D02*
X0392850Y0206144D01*
X0392850Y0206743D02*
X0202850Y0206743D01*
X0202850Y0207341D02*
X0392850Y0207341D01*
X0392850Y0207940D02*
X0202850Y0207940D01*
X0202850Y0208537D02*
X0392850Y0208537D01*
X0392850Y0209137D02*
X0202850Y0209137D01*
X0202850Y0209736D02*
X0392850Y0209736D01*
X0392850Y0210334D02*
X0202850Y0210334D01*
X0202850Y0210933D02*
X0392850Y0210933D01*
X0392850Y0211531D02*
X0202850Y0211531D01*
X0202850Y0212130D02*
X0392850Y0212130D01*
X0392850Y0212727D02*
X0202850Y0212727D01*
X0202850Y0213327D02*
X0392850Y0213327D01*
X0392850Y0213925D02*
X0202850Y0213925D01*
X0202850Y0214523D02*
X0392850Y0214523D01*
X0392850Y0215122D02*
X0202850Y0215122D01*
X0202850Y0215721D02*
X0392850Y0215721D01*
X0392850Y0216319D02*
X0202850Y0216319D01*
X0202850Y0216918D02*
X0392850Y0216918D01*
X0392850Y0217516D02*
X0202850Y0217516D01*
X0202850Y0218115D02*
X0392850Y0218115D01*
X0392850Y0218712D02*
X0202850Y0218712D01*
X0202850Y0219312D02*
X0392850Y0219312D01*
X0392850Y0219910D02*
X0202850Y0219910D01*
X0202850Y0220509D02*
X0392850Y0220509D01*
X0392850Y0221107D02*
X0202850Y0221107D01*
X0202850Y0221706D02*
X0392850Y0221706D01*
X0392850Y0222304D02*
X0202850Y0222304D01*
X0202850Y0222902D02*
X0392850Y0222902D01*
X0392850Y0223501D02*
X0202850Y0223501D01*
X0202850Y0224100D02*
X0392850Y0224100D01*
X0392850Y0224698D02*
X0202850Y0224698D01*
X0202850Y0225297D02*
X0392850Y0225297D01*
X0392850Y0225895D02*
X0202850Y0225895D01*
X0202850Y0226494D02*
X0392850Y0226494D01*
X0392850Y0227091D02*
X0202850Y0227091D01*
X0202850Y0227691D02*
X0392850Y0227691D01*
X0392850Y0228289D02*
X0202850Y0228289D01*
X0202850Y0228887D02*
X0392850Y0228887D01*
X0392850Y0229486D02*
X0202850Y0229486D01*
X0202850Y0230085D02*
X0392850Y0230085D01*
X0392850Y0230683D02*
X0202850Y0230683D01*
X0202850Y0231282D02*
X0392850Y0231282D01*
X0392850Y0231880D02*
X0202850Y0231880D01*
X0202850Y0232479D02*
X0392850Y0232479D01*
X0392850Y0233076D02*
X0202850Y0233076D01*
X0202850Y0233676D02*
X0392850Y0233676D01*
X0392850Y0234274D02*
X0202850Y0234274D01*
X0202850Y0234873D02*
X0392850Y0234873D01*
X0392850Y0235471D02*
X0202850Y0235471D01*
X0202850Y0236070D02*
X0392850Y0236070D01*
X0392850Y0236669D02*
X0202850Y0236669D01*
X0202850Y0237266D02*
X0392850Y0237266D01*
X0392850Y0237866D02*
X0202850Y0237866D01*
X0202850Y0238464D02*
X0392850Y0238464D01*
X0392850Y0239062D02*
X0202850Y0239062D01*
X0202850Y0239661D02*
X0392850Y0239661D01*
X0392850Y0240260D02*
X0202850Y0240260D01*
X0202850Y0240858D02*
X0392850Y0240858D01*
X0392850Y0241457D02*
X0202850Y0241457D01*
X0202850Y0242055D02*
X0392850Y0242055D01*
X0392850Y0242654D02*
X0202850Y0242654D01*
X0202850Y0243251D02*
X0392850Y0243251D01*
X0392850Y0243851D02*
X0202850Y0243851D01*
X0202850Y0244449D02*
X0392850Y0244449D01*
X0392850Y0245048D02*
X0202850Y0245048D01*
X0202850Y0245646D02*
X0392850Y0245646D01*
X0392850Y0246245D02*
X0202850Y0246245D01*
X0202850Y0246843D02*
X0392850Y0246843D01*
X0392850Y0247441D02*
X0202850Y0247441D01*
X0202850Y0248040D02*
X0392850Y0248040D01*
X0392850Y0248639D02*
X0202850Y0248639D01*
X0202850Y0249237D02*
X0392850Y0249237D01*
X0392850Y0249836D02*
X0202850Y0249836D01*
X0202850Y0250434D02*
X0392850Y0250434D01*
X0392850Y0251033D02*
X0202850Y0251033D01*
X0202850Y0251630D02*
X0392850Y0251630D01*
X0392850Y0252230D02*
X0202850Y0252230D01*
X0202850Y0252828D02*
X0392850Y0252828D01*
X0392850Y0253426D02*
X0202850Y0253426D01*
X0202850Y0254025D02*
X0392850Y0254025D01*
X0392850Y0254624D02*
X0202850Y0254624D01*
X0202850Y0255221D02*
X0392850Y0255221D01*
X0392850Y0255821D02*
X0202850Y0255821D01*
X0202850Y0256419D02*
X0392850Y0256419D01*
X0392850Y0257018D02*
X0202850Y0257018D01*
X0202850Y0257615D02*
X0392850Y0257615D01*
X0392850Y0258215D02*
X0202850Y0258215D01*
X0202850Y0258813D02*
X0392850Y0258813D01*
X0392850Y0259412D02*
X0202850Y0259412D01*
X0202850Y0260010D02*
X0392850Y0260010D01*
X0392850Y0260608D02*
X0202850Y0260608D01*
X0202850Y0261207D02*
X0392850Y0261207D01*
X0392850Y0261805D02*
X0202850Y0261805D01*
X0202850Y0262405D02*
X0392850Y0262405D01*
X0392850Y0263003D02*
X0202850Y0263003D01*
X0202850Y0263602D02*
X0392850Y0263602D01*
X0392850Y0264200D02*
X0202850Y0264200D01*
X0202850Y0264799D02*
X0392850Y0264799D01*
X0392850Y0265397D02*
X0202850Y0265397D01*
X0202850Y0265996D02*
X0392850Y0265996D01*
X0392850Y0266593D02*
X0202850Y0266593D01*
X0202850Y0267193D02*
X0392850Y0267193D01*
X0392850Y0267791D02*
X0202850Y0267791D01*
X0202850Y0268390D02*
X0392850Y0268390D01*
X0392850Y0268988D02*
X0202850Y0268988D01*
X0202850Y0269587D02*
X0392850Y0269587D01*
X0392850Y0270185D02*
X0202850Y0270185D01*
X0202850Y0270784D02*
X0392850Y0270784D01*
X0392850Y0271382D02*
X0202850Y0271382D01*
X0202850Y0271980D02*
X0392850Y0271980D01*
X0392850Y0272579D02*
X0202850Y0272579D01*
X0202850Y0273178D02*
X0392850Y0273178D01*
X0392850Y0273776D02*
X0202850Y0273776D01*
X0202850Y0274375D02*
X0392850Y0274375D01*
X0392850Y0274973D02*
X0202850Y0274973D01*
X0202850Y0275572D02*
X0392850Y0275572D01*
X0392850Y0276170D02*
X0202850Y0276170D01*
X0202850Y0276769D02*
X0392850Y0276769D01*
X0392850Y0277367D02*
X0202850Y0277367D01*
X0202850Y0277965D02*
X0392850Y0277965D01*
X0392850Y0278564D02*
X0202850Y0278564D01*
X0202850Y0279162D02*
X0392850Y0279162D01*
X0392850Y0279760D02*
X0202850Y0279760D01*
X0202850Y0280360D02*
X0392850Y0280360D01*
X0392850Y0280958D02*
X0202850Y0280958D01*
X0202850Y0281557D02*
X0392850Y0281557D01*
X0392850Y0282155D02*
X0202850Y0282155D01*
X0202850Y0282754D02*
X0392850Y0282754D01*
X0392850Y0283352D02*
X0202850Y0283352D01*
X0202850Y0283951D02*
X0392850Y0283951D01*
X0392850Y0284549D02*
X0202850Y0284549D01*
X0202850Y0285147D02*
X0392850Y0285147D01*
X0392850Y0285746D02*
X0202850Y0285746D01*
X0202850Y0286345D02*
X0392850Y0286345D01*
X0392850Y0286943D02*
X0202850Y0286943D01*
X0202850Y0287542D02*
X0392850Y0287542D01*
X0392850Y0288140D02*
X0202850Y0288140D01*
X0202850Y0288739D02*
X0392850Y0288739D01*
X0392850Y0289338D02*
X0202850Y0289338D01*
X0202850Y0289936D02*
X0392850Y0289936D01*
X0392850Y0290534D02*
X0202850Y0290534D01*
X0202850Y0291132D02*
X0392850Y0291132D01*
X0392850Y0291732D02*
X0202850Y0291732D01*
X0202850Y0292330D02*
X0392850Y0292330D01*
X0392850Y0292929D02*
X0202850Y0292929D01*
X0202850Y0293527D02*
X0392850Y0293527D01*
X0392850Y0294126D02*
X0202850Y0294126D01*
X0202850Y0294724D02*
X0392850Y0294724D01*
X0392850Y0295323D02*
X0202850Y0295323D01*
X0202850Y0295921D02*
X0392850Y0295921D01*
X0392850Y0296519D02*
X0202850Y0296519D01*
X0202850Y0297118D02*
X0392850Y0297118D01*
X0392850Y0297717D02*
X0202850Y0297717D01*
X0202850Y0298315D02*
X0392850Y0298315D01*
X0392850Y0298914D02*
X0202850Y0298914D01*
X0202850Y0299512D02*
X0392850Y0299512D01*
X0392850Y0300111D02*
X0202850Y0300111D01*
X0202850Y0300709D02*
X0392850Y0300709D01*
X0392850Y0301308D02*
X0202850Y0301308D01*
X0202850Y0301906D02*
X0392850Y0301906D01*
X0392850Y0302504D02*
X0202850Y0302504D01*
X0202850Y0303103D02*
X0392850Y0303103D01*
X0392850Y0303701D02*
X0202850Y0303701D01*
X0202850Y0304300D02*
X0392850Y0304300D01*
X0392850Y0304899D02*
X0202850Y0304899D01*
X0202850Y0305497D02*
X0392850Y0305497D01*
X0392850Y0306096D02*
X0202850Y0306096D01*
X0202850Y0306694D02*
X0392850Y0306694D01*
X0392850Y0307293D02*
X0202850Y0307293D01*
X0202850Y0307891D02*
X0392850Y0307891D01*
X0392850Y0308490D02*
X0202850Y0308490D01*
X0202850Y0309088D02*
X0392850Y0309088D01*
X0392850Y0309686D02*
X0202850Y0309686D01*
X0202850Y0310285D02*
X0392850Y0310285D01*
X0392850Y0310884D02*
X0202850Y0310884D01*
X0202850Y0311482D02*
X0392850Y0311482D01*
X0392850Y0312081D02*
X0202850Y0312081D01*
X0202850Y0312679D02*
X0392850Y0312679D01*
X0392850Y0313278D02*
X0202850Y0313278D01*
X0202850Y0313876D02*
X0392850Y0313876D01*
X0392850Y0314475D02*
X0202850Y0314475D01*
X0202850Y0315073D02*
X0392850Y0315073D01*
X0392850Y0315672D02*
X0202850Y0315672D01*
X0202850Y0316271D02*
X0392850Y0316271D01*
X0392850Y0316869D02*
X0202850Y0316869D01*
X0202850Y0317468D02*
X0392850Y0317468D01*
X0392850Y0318066D02*
X0202850Y0318066D01*
X0202850Y0318665D02*
X0392850Y0318665D01*
X0392850Y0319263D02*
X0202850Y0319263D01*
X0202850Y0319862D02*
X0392850Y0319862D01*
X0392850Y0320460D02*
X0202850Y0320460D01*
X0202850Y0321058D02*
X0392850Y0321058D01*
X0392850Y0321657D02*
X0202850Y0321657D01*
X0202850Y0322255D02*
X0392850Y0322255D01*
X0392850Y0322854D02*
X0202850Y0322854D01*
X0202850Y0323453D02*
X0392850Y0323453D01*
X0392850Y0324051D02*
X0202850Y0324051D01*
X0202850Y0324650D02*
X0392850Y0324650D01*
X0392850Y0325248D02*
X0202850Y0325248D01*
X0202850Y0325847D02*
X0392850Y0325847D01*
X0392850Y0326445D02*
X0202850Y0326445D01*
X0202850Y0327044D02*
X0392850Y0327044D01*
X0392850Y0327642D02*
X0202850Y0327642D01*
X0202850Y0328240D02*
X0392850Y0328240D01*
X0392850Y0328839D02*
X0202850Y0328839D01*
X0202850Y0329438D02*
X0392850Y0329438D01*
X0392850Y0330036D02*
X0202850Y0330036D01*
X0202850Y0330635D02*
X0392850Y0330635D01*
X0392850Y0331233D02*
X0202850Y0331233D01*
X0202850Y0331832D02*
X0392850Y0331832D01*
X0392850Y0332430D02*
X0202850Y0332430D01*
X0202850Y0333029D02*
X0392850Y0333029D01*
X0392850Y0333627D02*
X0202850Y0333627D01*
X0202850Y0334225D02*
X0392850Y0334225D01*
X0392850Y0334824D02*
X0202850Y0334824D01*
X0202850Y0335423D02*
X0392850Y0335423D01*
X0392850Y0336021D02*
X0202850Y0336021D01*
X0202850Y0336620D02*
X0392850Y0336620D01*
X0392850Y0337218D02*
X0202850Y0337218D01*
X0202850Y0337817D02*
X0392850Y0337817D01*
X0392850Y0338415D02*
X0202850Y0338415D01*
X0202850Y0339014D02*
X0392850Y0339014D01*
X0392850Y0339612D02*
X0202850Y0339612D01*
X0202850Y0340211D02*
X0392850Y0340211D01*
X0392850Y0340809D02*
X0202850Y0340809D01*
X0202850Y0341408D02*
X0392850Y0341408D01*
X0392850Y0342007D02*
X0202850Y0342007D01*
X0202850Y0342605D02*
X0392850Y0342605D01*
X0392850Y0343204D02*
X0202850Y0343204D01*
X0202850Y0343802D02*
X0392850Y0343802D01*
X0392850Y0344401D02*
X0202850Y0344401D01*
X0202850Y0344999D02*
X0392850Y0344999D01*
X0392850Y0345597D02*
X0202850Y0345597D01*
X0202850Y0346196D02*
X0392850Y0346196D01*
X0392850Y0346794D02*
X0202850Y0346794D01*
X0202850Y0347393D02*
X0392850Y0347393D01*
X0392850Y0347992D02*
X0202850Y0347992D01*
X0202850Y0348590D02*
X0392850Y0348590D01*
X0392850Y0349189D02*
X0202850Y0349189D01*
X0202850Y0349787D02*
X0392850Y0349787D01*
X0392850Y0350386D02*
X0202850Y0350386D01*
X0202850Y0350984D02*
X0392850Y0350984D01*
X0392850Y0351583D02*
X0202850Y0351583D01*
X0202850Y0352181D02*
X0392850Y0352181D01*
X0392850Y0352779D02*
X0202850Y0352779D01*
X0202850Y0353378D02*
X0392850Y0353378D01*
X0392850Y0353977D02*
X0202850Y0353977D01*
X0202850Y0354575D02*
X0392850Y0354575D01*
X0392850Y0355174D02*
X0202850Y0355174D01*
X0202850Y0355772D02*
X0392850Y0355772D01*
X0392850Y0356371D02*
X0202850Y0356371D01*
X0202850Y0356969D02*
X0392850Y0356969D01*
X0392850Y0357568D02*
X0202850Y0357568D01*
X0202850Y0358166D02*
X0392850Y0358166D01*
X0392850Y0358765D02*
X0202850Y0358765D01*
X0202850Y0359363D02*
X0392850Y0359363D01*
X0392850Y0359962D02*
X0202850Y0359962D01*
X0202850Y0360560D02*
X0392850Y0360560D01*
X0392850Y0361159D02*
X0202850Y0361159D01*
X0202850Y0361757D02*
X0392850Y0361757D01*
X0392850Y0362356D02*
X0202850Y0362356D01*
X0202850Y0362954D02*
X0392850Y0362954D01*
X0392850Y0363553D02*
X0202850Y0363553D01*
X0202850Y0364151D02*
X0392850Y0364151D01*
X0392850Y0364750D02*
X0202850Y0364750D01*
X0202850Y0365348D02*
X0392850Y0365348D01*
X0392850Y0365947D02*
X0202850Y0365947D01*
X0202850Y0366545D02*
X0392850Y0366545D01*
X0392850Y0367144D02*
X0202850Y0367144D01*
X0202850Y0367743D02*
X0392850Y0367743D01*
X0392850Y0368341D02*
X0202850Y0368341D01*
X0202850Y0368940D02*
X0392850Y0368940D01*
X0392850Y0369538D02*
X0202850Y0369538D01*
X0202850Y0370137D02*
X0392850Y0370137D01*
X0392850Y0370735D02*
X0202850Y0370735D01*
X0202850Y0371333D02*
X0392850Y0371333D01*
X0392850Y0371932D02*
X0202850Y0371932D01*
X0202850Y0372531D02*
X0392850Y0372531D01*
X0392850Y0373129D02*
X0202850Y0373129D01*
X0202850Y0373728D02*
X0392850Y0373728D01*
X0392850Y0374326D02*
X0202850Y0374326D01*
X0202850Y0374925D02*
X0392850Y0374925D01*
X0392850Y0375523D02*
X0202850Y0375523D01*
X0202850Y0376122D02*
X0392850Y0376122D01*
X0392850Y0376720D02*
X0202850Y0376720D01*
X0202850Y0377318D02*
X0392850Y0377318D01*
X0392850Y0377917D02*
X0202850Y0377917D01*
X0202850Y0378516D02*
X0392850Y0378516D01*
X0392850Y0379114D02*
X0202850Y0379114D01*
X0202850Y0379713D02*
X0392850Y0379713D01*
X0392850Y0380311D02*
X0202850Y0380311D01*
X0202850Y0380910D02*
X0392850Y0380910D01*
X0392850Y0381508D02*
X0202850Y0381508D01*
X0202867Y0382107D02*
X0392833Y0382107D01*
X0392790Y0382705D02*
X0202910Y0382705D01*
X0202955Y0383304D02*
X0392745Y0383304D01*
X0392615Y0383902D02*
X0203085Y0383902D01*
X0203215Y0384501D02*
X0392485Y0384501D01*
X0392290Y0385099D02*
X0203410Y0385099D01*
X0203633Y0385698D02*
X0392067Y0385698D01*
X0391796Y0386296D02*
X0203905Y0386296D01*
X0204231Y0386895D02*
X0391469Y0386895D01*
X0391097Y0387493D02*
X0204603Y0387493D01*
X0205051Y0388092D02*
X0390649Y0388092D01*
X0390132Y0388690D02*
X0205568Y0388690D01*
X0206167Y0389289D02*
X0389533Y0389289D01*
X0388779Y0389887D02*
X0206921Y0389887D01*
X0207823Y0390486D02*
X0387877Y0390486D01*
X0386677Y0391084D02*
X0209023Y0391084D01*
X0211052Y0391683D02*
X0384647Y0391683D01*
X0390960Y0081056D02*
X0204740Y0081056D01*
X0205188Y0080457D02*
X0390512Y0080457D01*
X0389949Y0079859D02*
X0205751Y0079859D01*
X0206366Y0079259D02*
X0389334Y0079259D01*
X0388533Y0078662D02*
X0207166Y0078662D01*
X0208158Y0078063D02*
X0387541Y0078063D01*
X0386186Y0077465D02*
X0209513Y0077465D01*
X0212849Y0076866D02*
X0237849Y0076866D01*
X0382850Y0076866D01*
M02*