%MOIN*%
%OFA0B0*%
%FSLAX25Y25*%
%IPPOS*%
%LPD*%
%AMOC8*
5,1,8,0,0,$1,22.5*%
%AMOC80*
5,1,8,0,0,$1,22.5*%
%ADD10C,0.006000000000000001*%
%ADD21C,0.006000000000000001*%
G75*
%LPD*%
D10*
X0004505Y0080317D02*
X0003649Y0081460D01*
X0002966Y0082712D01*
X0002467Y0084049D01*
X0002164Y0085443D01*
X0002062Y0086866D01*
X0002062Y0381866D01*
X0002164Y0383289D01*
X0002467Y0384683D01*
X0002966Y0386020D01*
X0003649Y0387272D01*
X0004505Y0388415D01*
X0005513Y0389423D01*
X0006655Y0390279D01*
X0007908Y0390962D01*
X0009245Y0391461D01*
X0010639Y0391764D01*
X0012062Y0391866D01*
X0182062Y0391866D01*
X0183485Y0391764D01*
X0184878Y0391461D01*
X0186216Y0390962D01*
X0187468Y0390279D01*
X0188611Y0389423D01*
X0189619Y0388415D01*
X0190475Y0387272D01*
X0191157Y0386020D01*
X0191657Y0384683D01*
X0191960Y0383289D01*
X0192062Y0381866D01*
X0192062Y0086866D01*
X0191960Y0085443D01*
X0191657Y0084049D01*
X0191157Y0082712D01*
X0190475Y0081460D01*
X0189619Y0080317D01*
X0188611Y0079309D01*
X0187468Y0078452D01*
X0186216Y0077769D01*
X0184878Y0077271D01*
X0183485Y0076968D01*
X0182062Y0076866D01*
X0012062Y0076866D01*
X0067062Y0076866D01*
X0182062Y0076866D01*
X0012062Y0076866D01*
X0010639Y0076968D01*
X0009245Y0077271D01*
X0007908Y0077769D01*
X0006655Y0078452D01*
X0005513Y0079309D01*
X0004505Y0080317D01*
X0005513Y0079309D01*
X0006655Y0078452D01*
X0007908Y0077769D01*
X0009245Y0077271D01*
X0010639Y0076968D01*
X0012062Y0076866D01*
X0037062Y0076866D01*
X0182062Y0076866D01*
X0183485Y0076968D01*
X0184878Y0077271D01*
X0186216Y0077769D01*
X0187468Y0078452D01*
X0188611Y0079309D01*
X0189619Y0080317D01*
X0190475Y0081460D01*
X0191157Y0082712D01*
X0191657Y0084049D01*
X0191960Y0085443D01*
X0192062Y0086866D01*
X0192062Y0381866D01*
X0191960Y0383289D01*
X0191657Y0384683D01*
X0191157Y0386020D01*
X0190475Y0387272D01*
X0189619Y0388415D01*
X0188611Y0389423D01*
X0187468Y0390279D01*
X0186216Y0390962D01*
X0184878Y0391461D01*
X0183485Y0391764D01*
X0182062Y0391866D01*
X0012062Y0391866D01*
X0010639Y0391764D01*
X0009245Y0391461D01*
X0007908Y0390962D01*
X0006655Y0390279D01*
X0005513Y0389423D01*
X0004505Y0388415D01*
X0003649Y0387272D01*
X0002966Y0386020D01*
X0002467Y0384683D01*
X0002164Y0383289D01*
X0002062Y0381866D01*
X0002062Y0086866D01*
X0002164Y0085443D01*
X0002467Y0084049D01*
X0002966Y0082712D01*
X0003649Y0081460D01*
X0004505Y0080317D01*
X0004400Y0080457D02*
X0189724Y0080457D01*
X0004400Y0080457D01*
X0003952Y0081056D02*
X0190172Y0081056D01*
X0003952Y0081056D01*
X0003543Y0081654D02*
X0190581Y0081654D01*
X0003543Y0081654D01*
X0003216Y0082253D02*
X0190908Y0082253D01*
X0003216Y0082253D01*
X0002914Y0082851D02*
X0191210Y0082851D01*
X0002914Y0082851D01*
X0002690Y0083450D02*
X0191433Y0083450D01*
X0002690Y0083450D01*
X0002467Y0084047D02*
X0191657Y0084047D01*
X0002467Y0084047D01*
X0002337Y0084646D02*
X0191786Y0084646D01*
X0002337Y0084646D01*
X0002207Y0085245D02*
X0191917Y0085245D01*
X0002207Y0085245D01*
X0002134Y0085844D02*
X0191989Y0085844D01*
X0002134Y0085844D01*
X0002091Y0086442D02*
X0192032Y0086442D01*
X0002091Y0086442D01*
X0002062Y0087041D02*
X0192062Y0087041D01*
X0002062Y0087041D01*
X0002062Y0087639D02*
X0192062Y0087639D01*
X0002062Y0087639D01*
X0002062Y0088238D02*
X0192062Y0088238D01*
X0002062Y0088238D01*
X0002062Y0088836D02*
X0192062Y0088836D01*
X0002062Y0088836D01*
X0002062Y0089434D02*
X0192062Y0089434D01*
X0002062Y0089434D01*
X0002062Y0090033D02*
X0192062Y0090033D01*
X0002062Y0090033D01*
X0002062Y0090632D02*
X0192062Y0090632D01*
X0002062Y0090632D01*
X0002062Y0091230D02*
X0192062Y0091230D01*
X0002062Y0091230D01*
X0002062Y0091829D02*
X0192062Y0091829D01*
X0002062Y0091829D01*
X0002062Y0092427D02*
X0192062Y0092427D01*
X0002062Y0092427D01*
X0002062Y0093026D02*
X0192062Y0093026D01*
X0002062Y0093026D01*
X0002062Y0093624D02*
X0192062Y0093624D01*
X0002062Y0093624D01*
X0002062Y0094223D02*
X0192062Y0094223D01*
X0002062Y0094223D01*
X0002062Y0094821D02*
X0192062Y0094821D01*
X0002062Y0094821D01*
X0002062Y0095420D02*
X0192062Y0095420D01*
X0002062Y0095420D01*
X0002062Y0096018D02*
X0192062Y0096018D01*
X0002062Y0096018D01*
X0002062Y0096617D02*
X0192062Y0096617D01*
X0002062Y0096617D01*
X0002062Y0097215D02*
X0192062Y0097215D01*
X0002062Y0097215D01*
X0002062Y0097814D02*
X0192062Y0097814D01*
X0002062Y0097814D01*
X0002062Y0098411D02*
X0192062Y0098411D01*
X0002062Y0098411D01*
X0002062Y0099011D02*
X0192062Y0099011D01*
X0002062Y0099011D01*
X0002062Y0099609D02*
X0192062Y0099609D01*
X0002062Y0099609D01*
X0002062Y0100208D02*
X0192062Y0100208D01*
X0002062Y0100208D01*
X0002062Y0100806D02*
X0192062Y0100806D01*
X0002062Y0100806D01*
X0002062Y0101404D02*
X0192062Y0101404D01*
X0002062Y0101404D01*
X0002062Y0102003D02*
X0192062Y0102003D01*
X0002062Y0102003D01*
X0002062Y0102602D02*
X0192062Y0102602D01*
X0002062Y0102602D01*
X0002062Y0103200D02*
X0192062Y0103200D01*
X0002062Y0103200D01*
X0002062Y0103799D02*
X0192062Y0103799D01*
X0002062Y0103799D01*
X0002062Y0104397D02*
X0192062Y0104397D01*
X0002062Y0104397D01*
X0002062Y0104996D02*
X0192062Y0104996D01*
X0002062Y0104996D01*
X0002062Y0105595D02*
X0192062Y0105595D01*
X0002062Y0105595D01*
X0002062Y0106193D02*
X0192062Y0106193D01*
X0002062Y0106193D01*
X0002062Y0106792D02*
X0192062Y0106792D01*
X0002062Y0106792D01*
X0002062Y0107390D02*
X0192062Y0107390D01*
X0002062Y0107390D01*
X0002062Y0107989D02*
X0192062Y0107989D01*
X0002062Y0107989D01*
X0002062Y0108586D02*
X0192062Y0108586D01*
X0002062Y0108586D01*
X0002062Y0109186D02*
X0192062Y0109186D01*
X0002062Y0109186D01*
X0002062Y0109783D02*
X0192062Y0109783D01*
X0002062Y0109783D01*
X0002062Y0110383D02*
X0192062Y0110383D01*
X0002062Y0110383D01*
X0002062Y0110981D02*
X0192062Y0110981D01*
X0002062Y0110981D01*
X0002062Y0111579D02*
X0192062Y0111579D01*
X0002062Y0111579D01*
X0002062Y0112178D02*
X0192062Y0112178D01*
X0002062Y0112178D01*
X0002062Y0112777D02*
X0192062Y0112777D01*
X0002062Y0112777D01*
X0002062Y0113375D02*
X0192062Y0113375D01*
X0002062Y0113375D01*
X0002062Y0113974D02*
X0192062Y0113974D01*
X0002062Y0113974D01*
X0002062Y0114572D02*
X0192062Y0114572D01*
X0002062Y0114572D01*
X0002062Y0115171D02*
X0192062Y0115171D01*
X0002062Y0115171D01*
X0002062Y0115769D02*
X0192062Y0115769D01*
X0002062Y0115769D01*
X0002062Y0116368D02*
X0192062Y0116368D01*
X0002062Y0116368D01*
X0002062Y0116965D02*
X0192062Y0116965D01*
X0002062Y0116965D01*
X0002062Y0117565D02*
X0192062Y0117565D01*
X0002062Y0117565D01*
X0002062Y0118163D02*
X0192062Y0118163D01*
X0002062Y0118163D01*
X0002062Y0118761D02*
X0192062Y0118761D01*
X0002062Y0118761D01*
X0002062Y0119360D02*
X0192062Y0119360D01*
X0002062Y0119360D01*
X0002062Y0119959D02*
X0192062Y0119959D01*
X0002062Y0119959D01*
X0002062Y0120557D02*
X0192062Y0120557D01*
X0002062Y0120557D01*
X0002062Y0121156D02*
X0192062Y0121156D01*
X0002062Y0121156D01*
X0002062Y0121754D02*
X0192062Y0121754D01*
X0002062Y0121754D01*
X0002062Y0122353D02*
X0192062Y0122353D01*
X0002062Y0122353D01*
X0002062Y0122951D02*
X0192062Y0122951D01*
X0002062Y0122951D01*
X0002062Y0123550D02*
X0192062Y0123550D01*
X0002062Y0123550D01*
X0002062Y0124147D02*
X0192062Y0124147D01*
X0002062Y0124147D01*
X0002062Y0124747D02*
X0192062Y0124747D01*
X0002062Y0124747D01*
X0002062Y0125345D02*
X0192062Y0125345D01*
X0002062Y0125345D01*
X0002062Y0125943D02*
X0192062Y0125943D01*
X0002062Y0125943D01*
X0002062Y0126542D02*
X0192062Y0126542D01*
X0002062Y0126542D01*
X0002062Y0127141D02*
X0192062Y0127141D01*
X0002062Y0127141D01*
X0002062Y0127739D02*
X0192062Y0127739D01*
X0002062Y0127739D01*
X0002062Y0128338D02*
X0192062Y0128338D01*
X0002062Y0128338D01*
X0002062Y0128936D02*
X0192062Y0128936D01*
X0002062Y0128936D01*
X0002062Y0129535D02*
X0192062Y0129535D01*
X0002062Y0129535D01*
X0002062Y0130134D02*
X0192062Y0130134D01*
X0002062Y0130134D01*
X0002062Y0130732D02*
X0192062Y0130732D01*
X0002062Y0130732D01*
X0002062Y0131331D02*
X0192062Y0131331D01*
X0002062Y0131331D01*
X0002062Y0131929D02*
X0192062Y0131929D01*
X0002062Y0131929D01*
X0002062Y0132528D02*
X0192062Y0132528D01*
X0002062Y0132528D01*
X0002062Y0133126D02*
X0192062Y0133126D01*
X0002062Y0133126D01*
X0002062Y0133725D02*
X0192062Y0133725D01*
X0002062Y0133725D01*
X0002062Y0134323D02*
X0192062Y0134323D01*
X0002062Y0134323D01*
X0002062Y0134922D02*
X0192062Y0134922D01*
X0002062Y0134922D01*
X0002062Y0135519D02*
X0192062Y0135519D01*
X0002062Y0135519D01*
X0002062Y0136119D02*
X0192062Y0136119D01*
X0002062Y0136119D01*
X0002062Y0136717D02*
X0192062Y0136717D01*
X0002062Y0136717D01*
X0002062Y0137316D02*
X0192062Y0137316D01*
X0002062Y0137316D01*
X0002062Y0137914D02*
X0192062Y0137914D01*
X0002062Y0137914D01*
X0002062Y0138513D02*
X0192062Y0138513D01*
X0002062Y0138513D01*
X0002062Y0139110D02*
X0192062Y0139110D01*
X0002062Y0139110D01*
X0002062Y0139710D02*
X0192062Y0139710D01*
X0002062Y0139710D01*
X0002062Y0140308D02*
X0192062Y0140308D01*
X0002062Y0140308D01*
X0002062Y0140907D02*
X0192062Y0140907D01*
X0002062Y0140907D01*
X0002062Y0141505D02*
X0192062Y0141505D01*
X0002062Y0141505D01*
X0002062Y0142104D02*
X0192062Y0142104D01*
X0002062Y0142104D01*
X0002062Y0142702D02*
X0192062Y0142702D01*
X0002062Y0142702D01*
X0002062Y0143301D02*
X0192062Y0143301D01*
X0002062Y0143301D01*
X0002062Y0143899D02*
X0192062Y0143899D01*
X0002062Y0143899D01*
X0002062Y0144498D02*
X0192062Y0144498D01*
X0002062Y0144498D01*
X0002062Y0145096D02*
X0192062Y0145096D01*
X0002062Y0145096D01*
X0002062Y0145695D02*
X0192062Y0145695D01*
X0002062Y0145695D01*
X0002062Y0146293D02*
X0192062Y0146293D01*
X0002062Y0146293D01*
X0002062Y0146892D02*
X0192062Y0146892D01*
X0002062Y0146892D01*
X0002062Y0147490D02*
X0192062Y0147490D01*
X0002062Y0147490D01*
X0002062Y0148089D02*
X0192062Y0148089D01*
X0002062Y0148089D01*
X0002062Y0148687D02*
X0192062Y0148687D01*
X0002062Y0148687D01*
X0002062Y0149286D02*
X0192062Y0149286D01*
X0002062Y0149286D01*
X0002062Y0149884D02*
X0192062Y0149884D01*
X0002062Y0149884D01*
X0002062Y0150482D02*
X0192062Y0150482D01*
X0002062Y0150482D01*
X0002062Y0151081D02*
X0192062Y0151081D01*
X0002062Y0151081D01*
X0002062Y0151680D02*
X0192062Y0151680D01*
X0002062Y0151680D01*
X0002062Y0152278D02*
X0192062Y0152278D01*
X0002062Y0152278D01*
X0002062Y0152877D02*
X0192062Y0152877D01*
X0002062Y0152877D01*
X0002062Y0153475D02*
X0192062Y0153475D01*
X0002062Y0153475D01*
X0002062Y0154073D02*
X0192062Y0154073D01*
X0002062Y0154073D01*
X0002062Y0154672D02*
X0192062Y0154672D01*
X0002062Y0154672D01*
X0002062Y0155271D02*
X0192062Y0155271D01*
X0002062Y0155271D01*
X0002062Y0155869D02*
X0192062Y0155869D01*
X0002062Y0155869D01*
X0002062Y0156468D02*
X0192062Y0156468D01*
X0002062Y0156468D01*
X0002062Y0157067D02*
X0192062Y0157067D01*
X0002062Y0157067D01*
X0002062Y0157665D02*
X0192062Y0157665D01*
X0002062Y0157665D01*
X0002062Y0158264D02*
X0192062Y0158264D01*
X0002062Y0158264D01*
X0002062Y0158862D02*
X0192062Y0158862D01*
X0002062Y0158862D01*
X0002062Y0159461D02*
X0192062Y0159461D01*
X0002062Y0159461D01*
X0002062Y0160059D02*
X0192062Y0160059D01*
X0002062Y0160059D01*
X0002062Y0160658D02*
X0192062Y0160658D01*
X0002062Y0160658D01*
X0002062Y0161256D02*
X0192062Y0161256D01*
X0002062Y0161256D01*
X0002062Y0161855D02*
X0192062Y0161855D01*
X0002062Y0161855D01*
X0002062Y0162453D02*
X0192062Y0162453D01*
X0002062Y0162453D01*
X0002062Y0163052D02*
X0192062Y0163052D01*
X0002062Y0163052D01*
X0002062Y0163649D02*
X0192062Y0163649D01*
X0002062Y0163649D01*
X0002062Y0164249D02*
X0192062Y0164249D01*
X0002062Y0164249D01*
X0002062Y0164847D02*
X0192062Y0164847D01*
X0002062Y0164847D01*
X0002062Y0165446D02*
X0192062Y0165446D01*
X0002062Y0165446D01*
X0002062Y0166044D02*
X0192062Y0166044D01*
X0002062Y0166044D01*
X0002062Y0166643D02*
X0192062Y0166643D01*
X0002062Y0166643D01*
X0002062Y0167241D02*
X0192062Y0167241D01*
X0002062Y0167241D01*
X0002062Y0167840D02*
X0192062Y0167840D01*
X0002062Y0167840D01*
X0002062Y0168438D02*
X0192062Y0168438D01*
X0002062Y0168438D01*
X0002062Y0169037D02*
X0192062Y0169037D01*
X0002062Y0169037D01*
X0002062Y0169635D02*
X0192062Y0169635D01*
X0002062Y0169635D01*
X0002062Y0170234D02*
X0192062Y0170234D01*
X0002062Y0170234D01*
X0002062Y0170832D02*
X0192062Y0170832D01*
X0002062Y0170832D01*
X0002062Y0171431D02*
X0192062Y0171431D01*
X0002062Y0171431D01*
X0002062Y0172029D02*
X0192062Y0172029D01*
X0002062Y0172029D01*
X0002062Y0172628D02*
X0192062Y0172628D01*
X0002062Y0172628D01*
X0002062Y0173226D02*
X0192062Y0173226D01*
X0002062Y0173226D01*
X0002062Y0173825D02*
X0192062Y0173825D01*
X0002062Y0173825D01*
X0002062Y0174423D02*
X0192062Y0174423D01*
X0002062Y0174423D01*
X0002062Y0175022D02*
X0192062Y0175022D01*
X0002062Y0175022D01*
X0002062Y0175620D02*
X0192062Y0175620D01*
X0002062Y0175620D01*
X0002062Y0176219D02*
X0192062Y0176219D01*
X0002062Y0176219D01*
X0002062Y0176817D02*
X0192062Y0176817D01*
X0002062Y0176817D01*
X0002062Y0177416D02*
X0192062Y0177416D01*
X0002062Y0177416D01*
X0002062Y0178014D02*
X0192062Y0178014D01*
X0002062Y0178014D01*
X0002062Y0178612D02*
X0192062Y0178612D01*
X0002062Y0178612D01*
X0002062Y0179211D02*
X0192062Y0179211D01*
X0002062Y0179211D01*
X0002062Y0179810D02*
X0192062Y0179810D01*
X0002062Y0179810D01*
X0002062Y0180408D02*
X0192062Y0180408D01*
X0002062Y0180408D01*
X0002062Y0181007D02*
X0192062Y0181007D01*
X0002062Y0181007D01*
X0002062Y0181605D02*
X0192062Y0181605D01*
X0002062Y0181605D01*
X0002062Y0182204D02*
X0192062Y0182204D01*
X0002062Y0182204D01*
X0002062Y0182803D02*
X0192062Y0182803D01*
X0002062Y0182803D01*
X0002062Y0183401D02*
X0192062Y0183401D01*
X0002062Y0183401D01*
X0002062Y0184000D02*
X0192062Y0184000D01*
X0002062Y0184000D01*
X0002062Y0184598D02*
X0192062Y0184598D01*
X0002062Y0184598D01*
X0002062Y0185197D02*
X0192062Y0185197D01*
X0002062Y0185197D01*
X0002062Y0185795D02*
X0192062Y0185795D01*
X0002062Y0185795D01*
X0002062Y0186394D02*
X0192062Y0186394D01*
X0002062Y0186394D01*
X0002062Y0186992D02*
X0192062Y0186992D01*
X0002062Y0186992D01*
X0002062Y0187591D02*
X0192062Y0187591D01*
X0002062Y0187591D01*
X0002062Y0188189D02*
X0192062Y0188189D01*
X0002062Y0188189D01*
X0002062Y0188788D02*
X0192062Y0188788D01*
X0002062Y0188788D01*
X0002062Y0189386D02*
X0192062Y0189386D01*
X0002062Y0189386D01*
X0002062Y0189985D02*
X0192062Y0189985D01*
X0002062Y0189985D01*
X0002062Y0190583D02*
X0192062Y0190583D01*
X0002062Y0190583D01*
X0002062Y0191182D02*
X0192062Y0191182D01*
X0002062Y0191182D01*
X0002062Y0191780D02*
X0192062Y0191780D01*
X0002062Y0191780D01*
X0002062Y0192379D02*
X0192062Y0192379D01*
X0002062Y0192379D01*
X0002062Y0192977D02*
X0192062Y0192977D01*
X0002062Y0192977D01*
X0002062Y0193575D02*
X0192062Y0193575D01*
X0002062Y0193575D01*
X0002062Y0194174D02*
X0192062Y0194174D01*
X0002062Y0194174D01*
X0002062Y0194773D02*
X0192062Y0194773D01*
X0002062Y0194773D01*
X0002062Y0195371D02*
X0192062Y0195371D01*
X0002062Y0195371D01*
X0002062Y0195970D02*
X0192062Y0195970D01*
X0002062Y0195970D01*
X0002062Y0196568D02*
X0192062Y0196568D01*
X0002062Y0196568D01*
X0002062Y0197166D02*
X0192062Y0197166D01*
X0002062Y0197166D01*
X0002062Y0197765D02*
X0192062Y0197765D01*
X0002062Y0197765D01*
X0002062Y0198364D02*
X0192062Y0198364D01*
X0002062Y0198364D01*
X0002062Y0198962D02*
X0192062Y0198962D01*
X0002062Y0198962D01*
X0002062Y0199561D02*
X0192062Y0199561D01*
X0002062Y0199561D01*
X0002062Y0200159D02*
X0192062Y0200159D01*
X0002062Y0200159D01*
X0002062Y0200758D02*
X0192062Y0200758D01*
X0002062Y0200758D01*
X0002062Y0201356D02*
X0192062Y0201356D01*
X0002062Y0201356D01*
X0002062Y0201955D02*
X0192062Y0201955D01*
X0002062Y0201955D01*
X0002062Y0202552D02*
X0192062Y0202552D01*
X0002062Y0202552D01*
X0002062Y0203152D02*
X0192062Y0203152D01*
X0002062Y0203152D01*
X0002062Y0203750D02*
X0192062Y0203750D01*
X0002062Y0203750D01*
X0002062Y0204348D02*
X0192062Y0204348D01*
X0002062Y0204348D01*
X0002062Y0204947D02*
X0192062Y0204947D01*
X0002062Y0204947D01*
X0002062Y0205546D02*
X0192062Y0205546D01*
X0002062Y0205546D01*
X0002062Y0206144D02*
X0192062Y0206144D01*
X0002062Y0206144D01*
X0002062Y0206743D02*
X0192062Y0206743D01*
X0002062Y0206743D01*
X0002062Y0207341D02*
X0192062Y0207341D01*
X0002062Y0207341D01*
X0002062Y0207940D02*
X0192062Y0207940D01*
X0002062Y0207940D01*
X0002062Y0208537D02*
X0192062Y0208537D01*
X0002062Y0208537D01*
X0002062Y0209137D02*
X0192062Y0209137D01*
X0002062Y0209137D01*
X0002062Y0209736D02*
X0192062Y0209736D01*
X0002062Y0209736D01*
X0002062Y0210334D02*
X0192062Y0210334D01*
X0002062Y0210334D01*
X0002062Y0210933D02*
X0192062Y0210933D01*
X0002062Y0210933D01*
X0002062Y0211531D02*
X0192062Y0211531D01*
X0002062Y0211531D01*
X0002062Y0212130D02*
X0192062Y0212130D01*
X0002062Y0212130D01*
X0002062Y0212727D02*
X0192062Y0212727D01*
X0002062Y0212727D01*
X0002062Y0213327D02*
X0192062Y0213327D01*
X0002062Y0213327D01*
X0002062Y0213925D02*
X0192062Y0213925D01*
X0002062Y0213925D01*
X0002062Y0214523D02*
X0192062Y0214523D01*
X0002062Y0214523D01*
X0002062Y0215122D02*
X0192062Y0215122D01*
X0002062Y0215122D01*
X0002062Y0215721D02*
X0192062Y0215721D01*
X0002062Y0215721D01*
X0002062Y0216319D02*
X0192062Y0216319D01*
X0002062Y0216319D01*
X0002062Y0216918D02*
X0192062Y0216918D01*
X0002062Y0216918D01*
X0002062Y0217516D02*
X0192062Y0217516D01*
X0002062Y0217516D01*
X0002062Y0218115D02*
X0192062Y0218115D01*
X0002062Y0218115D01*
X0002062Y0218712D02*
X0192062Y0218712D01*
X0002062Y0218712D01*
X0002062Y0219312D02*
X0192062Y0219312D01*
X0002062Y0219312D01*
X0002062Y0219910D02*
X0192062Y0219910D01*
X0002062Y0219910D01*
X0002062Y0220509D02*
X0192062Y0220509D01*
X0002062Y0220509D01*
X0002062Y0221107D02*
X0192062Y0221107D01*
X0002062Y0221107D01*
X0002062Y0221706D02*
X0192062Y0221706D01*
X0002062Y0221706D01*
X0002062Y0222304D02*
X0192062Y0222304D01*
X0002062Y0222304D01*
X0002062Y0222902D02*
X0192062Y0222902D01*
X0002062Y0222902D01*
X0002062Y0223501D02*
X0192062Y0223501D01*
X0002062Y0223501D01*
X0002062Y0224100D02*
X0192062Y0224100D01*
X0002062Y0224100D01*
X0002062Y0224698D02*
X0192062Y0224698D01*
X0002062Y0224698D01*
X0002062Y0225297D02*
X0192062Y0225297D01*
X0002062Y0225297D01*
X0002062Y0225895D02*
X0192062Y0225895D01*
X0002062Y0225895D01*
X0002062Y0226494D02*
X0192062Y0226494D01*
X0002062Y0226494D01*
X0002062Y0227091D02*
X0192062Y0227091D01*
X0002062Y0227091D01*
X0002062Y0227691D02*
X0192062Y0227691D01*
X0002062Y0227691D01*
X0002062Y0228289D02*
X0192062Y0228289D01*
X0002062Y0228289D01*
X0002062Y0228887D02*
X0192062Y0228887D01*
X0002062Y0228887D01*
X0002062Y0229486D02*
X0192062Y0229486D01*
X0002062Y0229486D01*
X0002062Y0230085D02*
X0192062Y0230085D01*
X0002062Y0230085D01*
X0002062Y0230683D02*
X0192062Y0230683D01*
X0002062Y0230683D01*
X0002062Y0231282D02*
X0192062Y0231282D01*
X0002062Y0231282D01*
X0002062Y0231880D02*
X0192062Y0231880D01*
X0002062Y0231880D01*
X0002062Y0232479D02*
X0192062Y0232479D01*
X0002062Y0232479D01*
X0002062Y0233076D02*
X0192062Y0233076D01*
X0002062Y0233076D01*
X0002062Y0233676D02*
X0192062Y0233676D01*
X0002062Y0233676D01*
X0002062Y0234274D02*
X0192062Y0234274D01*
X0002062Y0234274D01*
X0002062Y0234873D02*
X0192062Y0234873D01*
X0002062Y0234873D01*
X0002062Y0235471D02*
X0192062Y0235471D01*
X0002062Y0235471D01*
X0002062Y0236070D02*
X0192062Y0236070D01*
X0002062Y0236070D01*
X0002062Y0236669D02*
X0192062Y0236669D01*
X0002062Y0236669D01*
X0002062Y0237266D02*
X0192062Y0237266D01*
X0002062Y0237266D01*
X0002062Y0237866D02*
X0192062Y0237866D01*
X0002062Y0237866D01*
X0002062Y0238464D02*
X0192062Y0238464D01*
X0002062Y0238464D01*
X0002062Y0239062D02*
X0192062Y0239062D01*
X0002062Y0239062D01*
X0002062Y0239661D02*
X0192062Y0239661D01*
X0002062Y0239661D01*
X0002062Y0240260D02*
X0192062Y0240260D01*
X0002062Y0240260D01*
X0002062Y0240858D02*
X0192062Y0240858D01*
X0002062Y0240858D01*
X0002062Y0241457D02*
X0192062Y0241457D01*
X0002062Y0241457D01*
X0002062Y0242055D02*
X0192062Y0242055D01*
X0002062Y0242055D01*
X0002062Y0242654D02*
X0192062Y0242654D01*
X0002062Y0242654D01*
X0002062Y0243251D02*
X0192062Y0243251D01*
X0002062Y0243251D01*
X0002062Y0243851D02*
X0192062Y0243851D01*
X0002062Y0243851D01*
X0002062Y0244449D02*
X0192062Y0244449D01*
X0002062Y0244449D01*
X0002062Y0245048D02*
X0192062Y0245048D01*
X0002062Y0245048D01*
X0002062Y0245646D02*
X0192062Y0245646D01*
X0002062Y0245646D01*
X0002062Y0246245D02*
X0192062Y0246245D01*
X0002062Y0246245D01*
X0002062Y0246843D02*
X0192062Y0246843D01*
X0002062Y0246843D01*
X0002062Y0247441D02*
X0192062Y0247441D01*
X0002062Y0247441D01*
X0002062Y0248040D02*
X0192062Y0248040D01*
X0002062Y0248040D01*
X0002062Y0248639D02*
X0192062Y0248639D01*
X0002062Y0248639D01*
X0002062Y0249237D02*
X0192062Y0249237D01*
X0002062Y0249237D01*
X0002062Y0249836D02*
X0192062Y0249836D01*
X0002062Y0249836D01*
X0002062Y0250434D02*
X0192062Y0250434D01*
X0002062Y0250434D01*
X0002062Y0251033D02*
X0192062Y0251033D01*
X0002062Y0251033D01*
X0002062Y0251630D02*
X0192062Y0251630D01*
X0002062Y0251630D01*
X0002062Y0252230D02*
X0192062Y0252230D01*
X0002062Y0252230D01*
X0002062Y0252828D02*
X0192062Y0252828D01*
X0002062Y0252828D01*
X0002062Y0253426D02*
X0192062Y0253426D01*
X0002062Y0253426D01*
X0002062Y0254025D02*
X0192062Y0254025D01*
X0002062Y0254025D01*
X0002062Y0254624D02*
X0192062Y0254624D01*
X0002062Y0254624D01*
X0002062Y0255221D02*
X0192062Y0255221D01*
X0002062Y0255221D01*
X0002062Y0255821D02*
X0192062Y0255821D01*
X0002062Y0255821D01*
X0002062Y0256419D02*
X0192062Y0256419D01*
X0002062Y0256419D01*
X0002062Y0257018D02*
X0192062Y0257018D01*
X0002062Y0257018D01*
X0002062Y0257615D02*
X0192062Y0257615D01*
X0002062Y0257615D01*
X0002062Y0258215D02*
X0192062Y0258215D01*
X0002062Y0258215D01*
X0002062Y0258813D02*
X0192062Y0258813D01*
X0002062Y0258813D01*
X0002062Y0259412D02*
X0192062Y0259412D01*
X0002062Y0259412D01*
X0002062Y0260010D02*
X0192062Y0260010D01*
X0002062Y0260010D01*
X0002062Y0260608D02*
X0192062Y0260608D01*
X0002062Y0260608D01*
X0002062Y0261207D02*
X0192062Y0261207D01*
X0002062Y0261207D01*
X0002062Y0261805D02*
X0192062Y0261805D01*
X0002062Y0261805D01*
X0002062Y0262405D02*
X0192062Y0262405D01*
X0002062Y0262405D01*
X0002062Y0263003D02*
X0192062Y0263003D01*
X0002062Y0263003D01*
X0002062Y0263602D02*
X0192062Y0263602D01*
X0002062Y0263602D01*
X0002062Y0264200D02*
X0192062Y0264200D01*
X0002062Y0264200D01*
X0002062Y0264799D02*
X0192062Y0264799D01*
X0002062Y0264799D01*
X0002062Y0265397D02*
X0192062Y0265397D01*
X0002062Y0265397D01*
X0002062Y0265996D02*
X0192062Y0265996D01*
X0002062Y0265996D01*
X0002062Y0266593D02*
X0192062Y0266593D01*
X0002062Y0266593D01*
X0002062Y0267193D02*
X0192062Y0267193D01*
X0002062Y0267193D01*
X0002062Y0267791D02*
X0192062Y0267791D01*
X0002062Y0267791D01*
X0002062Y0268390D02*
X0192062Y0268390D01*
X0002062Y0268390D01*
X0002062Y0268988D02*
X0192062Y0268988D01*
X0002062Y0268988D01*
X0002062Y0269587D02*
X0192062Y0269587D01*
X0002062Y0269587D01*
X0002062Y0270185D02*
X0192062Y0270185D01*
X0002062Y0270185D01*
X0002062Y0270784D02*
X0192062Y0270784D01*
X0002062Y0270784D01*
X0002062Y0271382D02*
X0192062Y0271382D01*
X0002062Y0271382D01*
X0002062Y0271980D02*
X0192062Y0271980D01*
X0002062Y0271980D01*
X0002062Y0272579D02*
X0192062Y0272579D01*
X0002062Y0272579D01*
X0002062Y0273178D02*
X0192062Y0273178D01*
X0002062Y0273178D01*
X0002062Y0273776D02*
X0192062Y0273776D01*
X0002062Y0273776D01*
X0002062Y0274375D02*
X0192062Y0274375D01*
X0002062Y0274375D01*
X0002062Y0274973D02*
X0192062Y0274973D01*
X0002062Y0274973D01*
X0002062Y0275572D02*
X0192062Y0275572D01*
X0002062Y0275572D01*
X0002062Y0276170D02*
X0192062Y0276170D01*
X0002062Y0276170D01*
X0002062Y0276769D02*
X0192062Y0276769D01*
X0002062Y0276769D01*
X0002062Y0277367D02*
X0192062Y0277367D01*
X0002062Y0277367D01*
X0002062Y0277965D02*
X0192062Y0277965D01*
X0002062Y0277965D01*
X0002062Y0278564D02*
X0192062Y0278564D01*
X0002062Y0278564D01*
X0002062Y0279162D02*
X0192062Y0279162D01*
X0002062Y0279162D01*
X0002062Y0279760D02*
X0192062Y0279760D01*
X0002062Y0279760D01*
X0002062Y0280360D02*
X0192062Y0280360D01*
X0002062Y0280360D01*
X0002062Y0280958D02*
X0192062Y0280958D01*
X0002062Y0280958D01*
X0002062Y0281557D02*
X0192062Y0281557D01*
X0002062Y0281557D01*
X0002062Y0282155D02*
X0192062Y0282155D01*
X0002062Y0282155D01*
X0002062Y0282754D02*
X0192062Y0282754D01*
X0002062Y0282754D01*
X0002062Y0283352D02*
X0192062Y0283352D01*
X0002062Y0283352D01*
X0002062Y0283951D02*
X0192062Y0283951D01*
X0002062Y0283951D01*
X0002062Y0284549D02*
X0192062Y0284549D01*
X0002062Y0284549D01*
X0002062Y0285147D02*
X0192062Y0285147D01*
X0002062Y0285147D01*
X0002062Y0285746D02*
X0192062Y0285746D01*
X0002062Y0285746D01*
X0002062Y0286345D02*
X0192062Y0286345D01*
X0002062Y0286345D01*
X0002062Y0286943D02*
X0192062Y0286943D01*
X0002062Y0286943D01*
X0002062Y0287542D02*
X0192062Y0287542D01*
X0002062Y0287542D01*
X0002062Y0288140D02*
X0192062Y0288140D01*
X0002062Y0288140D01*
X0002062Y0288739D02*
X0192062Y0288739D01*
X0002062Y0288739D01*
X0002062Y0289338D02*
X0192062Y0289338D01*
X0002062Y0289338D01*
X0002062Y0289936D02*
X0192062Y0289936D01*
X0002062Y0289936D01*
X0002062Y0290534D02*
X0192062Y0290534D01*
X0002062Y0290534D01*
X0002062Y0291132D02*
X0192062Y0291132D01*
X0002062Y0291132D01*
X0002062Y0291732D02*
X0192062Y0291732D01*
X0002062Y0291732D01*
X0002062Y0292330D02*
X0192062Y0292330D01*
X0002062Y0292330D01*
X0002062Y0292929D02*
X0192062Y0292929D01*
X0002062Y0292929D01*
X0002062Y0293527D02*
X0192062Y0293527D01*
X0002062Y0293527D01*
X0002062Y0294126D02*
X0192062Y0294126D01*
X0002062Y0294126D01*
X0002062Y0294724D02*
X0192062Y0294724D01*
X0002062Y0294724D01*
X0002062Y0295323D02*
X0192062Y0295323D01*
X0002062Y0295323D01*
X0002062Y0295921D02*
X0192062Y0295921D01*
X0002062Y0295921D01*
X0002062Y0296519D02*
X0192062Y0296519D01*
X0002062Y0296519D01*
X0002062Y0297118D02*
X0192062Y0297118D01*
X0002062Y0297118D01*
X0002062Y0297717D02*
X0192062Y0297717D01*
X0002062Y0297717D01*
X0002062Y0298315D02*
X0192062Y0298315D01*
X0002062Y0298315D01*
X0002062Y0298914D02*
X0192062Y0298914D01*
X0002062Y0298914D01*
X0002062Y0299512D02*
X0192062Y0299512D01*
X0002062Y0299512D01*
X0002062Y0300111D02*
X0192062Y0300111D01*
X0002062Y0300111D01*
X0002062Y0300709D02*
X0192062Y0300709D01*
X0002062Y0300709D01*
X0002062Y0301308D02*
X0192062Y0301308D01*
X0002062Y0301308D01*
X0002062Y0301906D02*
X0192062Y0301906D01*
X0002062Y0301906D01*
X0002062Y0302504D02*
X0192062Y0302504D01*
X0002062Y0302504D01*
X0002062Y0303103D02*
X0192062Y0303103D01*
X0002062Y0303103D01*
X0002062Y0303701D02*
X0192062Y0303701D01*
X0002062Y0303701D01*
X0002062Y0304300D02*
X0192062Y0304300D01*
X0002062Y0304300D01*
X0002062Y0304899D02*
X0192062Y0304899D01*
X0002062Y0304899D01*
X0002062Y0305497D02*
X0192062Y0305497D01*
X0002062Y0305497D01*
X0002062Y0306096D02*
X0192062Y0306096D01*
X0002062Y0306096D01*
X0002062Y0306694D02*
X0192062Y0306694D01*
X0002062Y0306694D01*
X0002062Y0307293D02*
X0192062Y0307293D01*
X0002062Y0307293D01*
X0002062Y0307891D02*
X0192062Y0307891D01*
X0002062Y0307891D01*
X0002062Y0308490D02*
X0192062Y0308490D01*
X0002062Y0308490D01*
X0002062Y0309088D02*
X0192062Y0309088D01*
X0002062Y0309088D01*
X0002062Y0309686D02*
X0192062Y0309686D01*
X0002062Y0309686D01*
X0002062Y0310285D02*
X0192062Y0310285D01*
X0002062Y0310285D01*
X0002062Y0310884D02*
X0192062Y0310884D01*
X0002062Y0310884D01*
X0002062Y0311482D02*
X0192062Y0311482D01*
X0002062Y0311482D01*
X0002062Y0312081D02*
X0192062Y0312081D01*
X0002062Y0312081D01*
X0002062Y0312679D02*
X0192062Y0312679D01*
X0002062Y0312679D01*
X0002062Y0313278D02*
X0192062Y0313278D01*
X0002062Y0313278D01*
X0002062Y0313876D02*
X0192062Y0313876D01*
X0002062Y0313876D01*
X0002062Y0314475D02*
X0192062Y0314475D01*
X0002062Y0314475D01*
X0002062Y0315073D02*
X0192062Y0315073D01*
X0002062Y0315073D01*
X0002062Y0315672D02*
X0192062Y0315672D01*
X0002062Y0315672D01*
X0002062Y0316271D02*
X0192062Y0316271D01*
X0002062Y0316271D01*
X0002062Y0316869D02*
X0192062Y0316869D01*
X0002062Y0316869D01*
X0002062Y0317468D02*
X0192062Y0317468D01*
X0002062Y0317468D01*
X0002062Y0318066D02*
X0192062Y0318066D01*
X0002062Y0318066D01*
X0002062Y0318665D02*
X0192062Y0318665D01*
X0002062Y0318665D01*
X0002062Y0319263D02*
X0192062Y0319263D01*
X0002062Y0319263D01*
X0002062Y0319862D02*
X0192062Y0319862D01*
X0002062Y0319862D01*
X0002062Y0320460D02*
X0192062Y0320460D01*
X0002062Y0320460D01*
X0002062Y0321058D02*
X0192062Y0321058D01*
X0002062Y0321058D01*
X0002062Y0321657D02*
X0192062Y0321657D01*
X0002062Y0321657D01*
X0002062Y0322255D02*
X0192062Y0322255D01*
X0002062Y0322255D01*
X0002062Y0322854D02*
X0192062Y0322854D01*
X0002062Y0322854D01*
X0002062Y0323453D02*
X0192062Y0323453D01*
X0002062Y0323453D01*
X0002062Y0324051D02*
X0192062Y0324051D01*
X0002062Y0324051D01*
X0002062Y0324650D02*
X0192062Y0324650D01*
X0002062Y0324650D01*
X0002062Y0325248D02*
X0192062Y0325248D01*
X0002062Y0325248D01*
X0002062Y0325847D02*
X0192062Y0325847D01*
X0002062Y0325847D01*
X0002062Y0326445D02*
X0192062Y0326445D01*
X0002062Y0326445D01*
X0002062Y0327044D02*
X0192062Y0327044D01*
X0002062Y0327044D01*
X0002062Y0327642D02*
X0192062Y0327642D01*
X0002062Y0327642D01*
X0002062Y0328240D02*
X0192062Y0328240D01*
X0002062Y0328240D01*
X0002062Y0328839D02*
X0192062Y0328839D01*
X0002062Y0328839D01*
X0002062Y0329438D02*
X0192062Y0329438D01*
X0002062Y0329438D01*
X0002062Y0330036D02*
X0192062Y0330036D01*
X0002062Y0330036D01*
X0002062Y0330635D02*
X0192062Y0330635D01*
X0002062Y0330635D01*
X0002062Y0331233D02*
X0192062Y0331233D01*
X0002062Y0331233D01*
X0002062Y0331832D02*
X0192062Y0331832D01*
X0002062Y0331832D01*
X0002062Y0332430D02*
X0192062Y0332430D01*
X0002062Y0332430D01*
X0002062Y0333029D02*
X0192062Y0333029D01*
X0002062Y0333029D01*
X0002062Y0333627D02*
X0192062Y0333627D01*
X0002062Y0333627D01*
X0002062Y0334225D02*
X0192062Y0334225D01*
X0002062Y0334225D01*
X0002062Y0334824D02*
X0192062Y0334824D01*
X0002062Y0334824D01*
X0002062Y0335423D02*
X0192062Y0335423D01*
X0002062Y0335423D01*
X0002062Y0336021D02*
X0192062Y0336021D01*
X0002062Y0336021D01*
X0002062Y0336620D02*
X0192062Y0336620D01*
X0002062Y0336620D01*
X0002062Y0337218D02*
X0192062Y0337218D01*
X0002062Y0337218D01*
X0002062Y0337817D02*
X0192062Y0337817D01*
X0002062Y0337817D01*
X0002062Y0338415D02*
X0192062Y0338415D01*
X0002062Y0338415D01*
X0002062Y0339014D02*
X0192062Y0339014D01*
X0002062Y0339014D01*
X0002062Y0339612D02*
X0192062Y0339612D01*
X0002062Y0339612D01*
X0002062Y0340211D02*
X0192062Y0340211D01*
X0002062Y0340211D01*
X0002062Y0340809D02*
X0192062Y0340809D01*
X0002062Y0340809D01*
X0002062Y0341408D02*
X0192062Y0341408D01*
X0002062Y0341408D01*
X0002062Y0342007D02*
X0192062Y0342007D01*
X0002062Y0342007D01*
X0002062Y0342605D02*
X0192062Y0342605D01*
X0002062Y0342605D01*
X0002062Y0343204D02*
X0192062Y0343204D01*
X0002062Y0343204D01*
X0002062Y0343802D02*
X0192062Y0343802D01*
X0002062Y0343802D01*
X0002062Y0344401D02*
X0192062Y0344401D01*
X0002062Y0344401D01*
X0002062Y0344999D02*
X0192062Y0344999D01*
X0002062Y0344999D01*
X0002062Y0345597D02*
X0192062Y0345597D01*
X0002062Y0345597D01*
X0002062Y0346196D02*
X0192062Y0346196D01*
X0002062Y0346196D01*
X0002062Y0346794D02*
X0192062Y0346794D01*
X0002062Y0346794D01*
X0002062Y0347393D02*
X0192062Y0347393D01*
X0002062Y0347393D01*
X0002062Y0347992D02*
X0192062Y0347992D01*
X0002062Y0347992D01*
X0002062Y0348590D02*
X0192062Y0348590D01*
X0002062Y0348590D01*
X0002062Y0349189D02*
X0192062Y0349189D01*
X0002062Y0349189D01*
X0002062Y0349787D02*
X0192062Y0349787D01*
X0002062Y0349787D01*
X0002062Y0350386D02*
X0192062Y0350386D01*
X0002062Y0350386D01*
X0002062Y0350984D02*
X0192062Y0350984D01*
X0002062Y0350984D01*
X0002062Y0351583D02*
X0192062Y0351583D01*
X0002062Y0351583D01*
X0002062Y0352181D02*
X0192062Y0352181D01*
X0002062Y0352181D01*
X0002062Y0352779D02*
X0192062Y0352779D01*
X0002062Y0352779D01*
X0002062Y0353378D02*
X0192062Y0353378D01*
X0002062Y0353378D01*
X0002062Y0353977D02*
X0192062Y0353977D01*
X0002062Y0353977D01*
X0002062Y0354575D02*
X0192062Y0354575D01*
X0002062Y0354575D01*
X0002062Y0355174D02*
X0192062Y0355174D01*
X0002062Y0355174D01*
X0002062Y0355772D02*
X0192062Y0355772D01*
X0002062Y0355772D01*
X0002062Y0356371D02*
X0192062Y0356371D01*
X0002062Y0356371D01*
X0002062Y0356969D02*
X0192062Y0356969D01*
X0002062Y0356969D01*
X0002062Y0357568D02*
X0192062Y0357568D01*
X0002062Y0357568D01*
X0002062Y0358166D02*
X0192062Y0358166D01*
X0002062Y0358166D01*
X0002062Y0358765D02*
X0192062Y0358765D01*
X0002062Y0358765D01*
X0002062Y0359363D02*
X0192062Y0359363D01*
X0002062Y0359363D01*
X0002062Y0359962D02*
X0192062Y0359962D01*
X0002062Y0359962D01*
X0002062Y0360560D02*
X0192062Y0360560D01*
X0002062Y0360560D01*
X0002062Y0361159D02*
X0192062Y0361159D01*
X0002062Y0361159D01*
X0002062Y0361757D02*
X0192062Y0361757D01*
X0002062Y0361757D01*
X0002062Y0362356D02*
X0192062Y0362356D01*
X0002062Y0362356D01*
X0002062Y0362954D02*
X0192062Y0362954D01*
X0002062Y0362954D01*
X0002062Y0363553D02*
X0192062Y0363553D01*
X0002062Y0363553D01*
X0002062Y0364151D02*
X0192062Y0364151D01*
X0002062Y0364151D01*
X0002062Y0364750D02*
X0192062Y0364750D01*
X0002062Y0364750D01*
X0002062Y0365348D02*
X0192062Y0365348D01*
X0002062Y0365348D01*
X0002062Y0365947D02*
X0192062Y0365947D01*
X0002062Y0365947D01*
X0002062Y0366545D02*
X0192062Y0366545D01*
X0002062Y0366545D01*
X0002062Y0367144D02*
X0192062Y0367144D01*
X0002062Y0367144D01*
X0002062Y0367743D02*
X0192062Y0367743D01*
X0002062Y0367743D01*
X0002062Y0368341D02*
X0192062Y0368341D01*
X0002062Y0368341D01*
X0002062Y0368940D02*
X0192062Y0368940D01*
X0002062Y0368940D01*
X0002062Y0369538D02*
X0192062Y0369538D01*
X0002062Y0369538D01*
X0002062Y0370137D02*
X0192062Y0370137D01*
X0002062Y0370137D01*
X0002062Y0370735D02*
X0192062Y0370735D01*
X0002062Y0370735D01*
X0002062Y0371333D02*
X0192062Y0371333D01*
X0002062Y0371333D01*
X0002062Y0371932D02*
X0192062Y0371932D01*
X0002062Y0371932D01*
X0002062Y0372531D02*
X0192062Y0372531D01*
X0002062Y0372531D01*
X0002062Y0373129D02*
X0192062Y0373129D01*
X0002062Y0373129D01*
X0002062Y0373728D02*
X0192062Y0373728D01*
X0002062Y0373728D01*
X0002062Y0374326D02*
X0192062Y0374326D01*
X0002062Y0374326D01*
X0002062Y0374925D02*
X0192062Y0374925D01*
X0002062Y0374925D01*
X0002062Y0375523D02*
X0192062Y0375523D01*
X0002062Y0375523D01*
X0002062Y0376122D02*
X0192062Y0376122D01*
X0002062Y0376122D01*
X0002062Y0376720D02*
X0192062Y0376720D01*
X0002062Y0376720D01*
X0002062Y0377318D02*
X0192062Y0377318D01*
X0002062Y0377318D01*
X0002062Y0377917D02*
X0192062Y0377917D01*
X0002062Y0377917D01*
X0002062Y0378516D02*
X0192062Y0378516D01*
X0002062Y0378516D01*
X0002062Y0379114D02*
X0192062Y0379114D01*
X0002062Y0379114D01*
X0002062Y0379713D02*
X0192062Y0379713D01*
X0002062Y0379713D01*
X0002062Y0380311D02*
X0192062Y0380311D01*
X0002062Y0380311D01*
X0002062Y0380910D02*
X0192062Y0380910D01*
X0002062Y0380910D01*
X0002062Y0381508D02*
X0192062Y0381508D01*
X0002062Y0381508D01*
X0002079Y0382107D02*
X0192045Y0382107D01*
X0002079Y0382107D01*
X0002122Y0382705D02*
X0192002Y0382705D01*
X0002122Y0382705D01*
X0002167Y0383304D02*
X0191957Y0383304D01*
X0002167Y0383304D01*
X0002297Y0383902D02*
X0191826Y0383902D01*
X0002297Y0383902D01*
X0002427Y0384501D02*
X0191697Y0384501D01*
X0002427Y0384501D01*
X0002622Y0385099D02*
X0191502Y0385099D01*
X0002622Y0385099D01*
X0002845Y0385698D02*
X0191279Y0385698D01*
X0002845Y0385698D01*
X0003117Y0386296D02*
X0191008Y0386296D01*
X0003117Y0386296D01*
X0003443Y0386895D02*
X0190681Y0386895D01*
X0003443Y0386895D01*
X0003815Y0387493D02*
X0190309Y0387493D01*
X0003815Y0387493D01*
X0004263Y0388092D02*
X0189861Y0388092D01*
X0004263Y0388092D01*
X0004780Y0388690D02*
X0189344Y0388690D01*
X0004780Y0388690D01*
X0005378Y0389289D02*
X0188745Y0389289D01*
X0005378Y0389289D01*
X0006133Y0389887D02*
X0187991Y0389887D01*
X0006133Y0389887D01*
X0007035Y0390486D02*
X0187089Y0390486D01*
X0007035Y0390486D01*
X0008235Y0391084D02*
X0185889Y0391084D01*
X0008235Y0391084D01*
X0010265Y0391683D02*
X0183859Y0391683D01*
X0010265Y0391683D01*
X0004963Y0079859D02*
X0189160Y0079859D01*
X0004963Y0079859D01*
X0005578Y0079259D02*
X0188546Y0079259D01*
X0005578Y0079259D01*
X0006378Y0078662D02*
X0187746Y0078662D01*
X0006378Y0078662D01*
X0007371Y0078063D02*
X0186753Y0078063D01*
X0007371Y0078063D01*
X0008726Y0077465D02*
X0185398Y0077465D01*
X0008726Y0077465D01*
G04 next file*
%LPD*%
G75*
D21*
X0205293Y0080317D02*
X0204436Y0081460D01*
X0203754Y0082712D01*
X0203255Y0084049D01*
X0202952Y0085443D01*
X0202850Y0086866D01*
X0202850Y0381866D01*
X0202952Y0383289D01*
X0203255Y0384683D01*
X0203754Y0386020D01*
X0204436Y0387272D01*
X0205293Y0388415D01*
X0206300Y0389423D01*
X0207444Y0390279D01*
X0208696Y0390962D01*
X0210033Y0391461D01*
X0211427Y0391764D01*
X0212849Y0391866D01*
X0382850Y0391866D01*
X0384273Y0391764D01*
X0385667Y0391461D01*
X0387004Y0390962D01*
X0388256Y0390279D01*
X0389398Y0389423D01*
X0390407Y0388415D01*
X0391263Y0387272D01*
X0391946Y0386020D01*
X0392445Y0384683D01*
X0392748Y0383289D01*
X0392850Y0381866D01*
X0392850Y0086866D01*
X0392748Y0085443D01*
X0392445Y0084049D01*
X0391946Y0082712D01*
X0391263Y0081460D01*
X0390407Y0080317D01*
X0389398Y0079309D01*
X0388256Y0078452D01*
X0387004Y0077769D01*
X0385667Y0077271D01*
X0384273Y0076968D01*
X0382850Y0076866D01*
X0212849Y0076866D01*
X0267850Y0076866D01*
X0382850Y0076866D01*
X0212849Y0076866D01*
X0211427Y0076968D01*
X0210033Y0077271D01*
X0208696Y0077769D01*
X0207444Y0078452D01*
X0206300Y0079309D01*
X0205293Y0080317D01*
X0206300Y0079309D01*
X0207444Y0078452D01*
X0208696Y0077769D01*
X0210033Y0077271D01*
X0211427Y0076968D01*
X0212849Y0076866D01*
X0237849Y0076866D01*
X0382850Y0076866D01*
X0384273Y0076968D01*
X0385667Y0077271D01*
X0387004Y0077769D01*
X0388256Y0078452D01*
X0389398Y0079309D01*
X0390407Y0080317D01*
X0391263Y0081460D01*
X0391946Y0082712D01*
X0392445Y0084049D01*
X0392748Y0085443D01*
X0392850Y0086866D01*
X0392850Y0381866D01*
X0392748Y0383289D01*
X0392445Y0384683D01*
X0391946Y0386020D01*
X0391263Y0387272D01*
X0390407Y0388415D01*
X0389398Y0389423D01*
X0388256Y0390279D01*
X0387004Y0390962D01*
X0385667Y0391461D01*
X0384273Y0391764D01*
X0382850Y0391866D01*
X0212849Y0391866D01*
X0211427Y0391764D01*
X0210033Y0391461D01*
X0208696Y0390962D01*
X0207444Y0390279D01*
X0206300Y0389423D01*
X0205293Y0388415D01*
X0204436Y0387272D01*
X0203754Y0386020D01*
X0203255Y0384683D01*
X0202952Y0383289D01*
X0202850Y0381866D01*
X0202850Y0086866D01*
X0202952Y0085443D01*
X0203255Y0084049D01*
X0203754Y0082712D01*
X0204436Y0081460D01*
X0205293Y0080317D01*
X0205188Y0080457D02*
X0390512Y0080457D01*
X0205188Y0080457D01*
X0204740Y0081056D02*
X0390960Y0081056D01*
X0204740Y0081056D01*
X0204331Y0081654D02*
X0391369Y0081654D01*
X0204331Y0081654D01*
X0204003Y0082253D02*
X0391696Y0082253D01*
X0204003Y0082253D01*
X0203702Y0082851D02*
X0391998Y0082851D01*
X0203702Y0082851D01*
X0203478Y0083450D02*
X0392221Y0083450D01*
X0203478Y0083450D01*
X0203255Y0084047D02*
X0392445Y0084047D01*
X0203255Y0084047D01*
X0203125Y0084646D02*
X0392575Y0084646D01*
X0203125Y0084646D01*
X0202995Y0085245D02*
X0392705Y0085245D01*
X0202995Y0085245D01*
X0202923Y0085844D02*
X0392777Y0085844D01*
X0202923Y0085844D01*
X0202880Y0086442D02*
X0392819Y0086442D01*
X0202880Y0086442D01*
X0202850Y0087041D02*
X0392850Y0087041D01*
X0202850Y0087041D01*
X0202850Y0087639D02*
X0392850Y0087639D01*
X0202850Y0087639D01*
X0202850Y0088238D02*
X0392850Y0088238D01*
X0202850Y0088238D01*
X0202850Y0088836D02*
X0392850Y0088836D01*
X0202850Y0088836D01*
X0202850Y0089434D02*
X0392850Y0089434D01*
X0202850Y0089434D01*
X0202850Y0090033D02*
X0392850Y0090033D01*
X0202850Y0090033D01*
X0202850Y0090632D02*
X0392850Y0090632D01*
X0202850Y0090632D01*
X0202850Y0091230D02*
X0392850Y0091230D01*
X0202850Y0091230D01*
X0202850Y0091829D02*
X0392850Y0091829D01*
X0202850Y0091829D01*
X0202850Y0092427D02*
X0392850Y0092427D01*
X0202850Y0092427D01*
X0202850Y0093026D02*
X0392850Y0093026D01*
X0202850Y0093026D01*
X0202850Y0093624D02*
X0392850Y0093624D01*
X0202850Y0093624D01*
X0202850Y0094223D02*
X0392850Y0094223D01*
X0202850Y0094223D01*
X0202850Y0094821D02*
X0392850Y0094821D01*
X0202850Y0094821D01*
X0202850Y0095420D02*
X0392850Y0095420D01*
X0202850Y0095420D01*
X0202850Y0096018D02*
X0392850Y0096018D01*
X0202850Y0096018D01*
X0202850Y0096617D02*
X0392850Y0096617D01*
X0202850Y0096617D01*
X0202850Y0097215D02*
X0392850Y0097215D01*
X0202850Y0097215D01*
X0202850Y0097814D02*
X0392850Y0097814D01*
X0202850Y0097814D01*
X0202850Y0098411D02*
X0392850Y0098411D01*
X0202850Y0098411D01*
X0202850Y0099011D02*
X0392850Y0099011D01*
X0202850Y0099011D01*
X0202850Y0099609D02*
X0392850Y0099609D01*
X0202850Y0099609D01*
X0202850Y0100208D02*
X0392850Y0100208D01*
X0202850Y0100208D01*
X0202850Y0100806D02*
X0392850Y0100806D01*
X0202850Y0100806D01*
X0202850Y0101404D02*
X0392850Y0101404D01*
X0202850Y0101404D01*
X0202850Y0102003D02*
X0392850Y0102003D01*
X0202850Y0102003D01*
X0202850Y0102602D02*
X0392850Y0102602D01*
X0202850Y0102602D01*
X0202850Y0103200D02*
X0392850Y0103200D01*
X0202850Y0103200D01*
X0202850Y0103799D02*
X0392850Y0103799D01*
X0202850Y0103799D01*
X0202850Y0104397D02*
X0392850Y0104397D01*
X0202850Y0104397D01*
X0202850Y0104996D02*
X0392850Y0104996D01*
X0202850Y0104996D01*
X0202850Y0105595D02*
X0392850Y0105595D01*
X0202850Y0105595D01*
X0202850Y0106193D02*
X0392850Y0106193D01*
X0202850Y0106193D01*
X0202850Y0106792D02*
X0392850Y0106792D01*
X0202850Y0106792D01*
X0202850Y0107390D02*
X0392850Y0107390D01*
X0202850Y0107390D01*
X0202850Y0107989D02*
X0392850Y0107989D01*
X0202850Y0107989D01*
X0202850Y0108586D02*
X0392850Y0108586D01*
X0202850Y0108586D01*
X0202850Y0109186D02*
X0392850Y0109186D01*
X0202850Y0109186D01*
X0202850Y0109783D02*
X0392850Y0109783D01*
X0202850Y0109783D01*
X0202850Y0110383D02*
X0392850Y0110383D01*
X0202850Y0110383D01*
X0202850Y0110981D02*
X0392850Y0110981D01*
X0202850Y0110981D01*
X0202850Y0111579D02*
X0392850Y0111579D01*
X0202850Y0111579D01*
X0202850Y0112178D02*
X0392850Y0112178D01*
X0202850Y0112178D01*
X0202850Y0112777D02*
X0392850Y0112777D01*
X0202850Y0112777D01*
X0202850Y0113375D02*
X0392850Y0113375D01*
X0202850Y0113375D01*
X0202850Y0113974D02*
X0392850Y0113974D01*
X0202850Y0113974D01*
X0202850Y0114572D02*
X0392850Y0114572D01*
X0202850Y0114572D01*
X0202850Y0115171D02*
X0392850Y0115171D01*
X0202850Y0115171D01*
X0202850Y0115769D02*
X0392850Y0115769D01*
X0202850Y0115769D01*
X0202850Y0116368D02*
X0392850Y0116368D01*
X0202850Y0116368D01*
X0202850Y0116965D02*
X0392850Y0116965D01*
X0202850Y0116965D01*
X0202850Y0117565D02*
X0392850Y0117565D01*
X0202850Y0117565D01*
X0202850Y0118163D02*
X0392850Y0118163D01*
X0202850Y0118163D01*
X0202850Y0118761D02*
X0392850Y0118761D01*
X0202850Y0118761D01*
X0202850Y0119360D02*
X0392850Y0119360D01*
X0202850Y0119360D01*
X0202850Y0119959D02*
X0392850Y0119959D01*
X0202850Y0119959D01*
X0202850Y0120557D02*
X0392850Y0120557D01*
X0202850Y0120557D01*
X0202850Y0121156D02*
X0392850Y0121156D01*
X0202850Y0121156D01*
X0202850Y0121754D02*
X0392850Y0121754D01*
X0202850Y0121754D01*
X0202850Y0122353D02*
X0392850Y0122353D01*
X0202850Y0122353D01*
X0202850Y0122951D02*
X0392850Y0122951D01*
X0202850Y0122951D01*
X0202850Y0123550D02*
X0392850Y0123550D01*
X0202850Y0123550D01*
X0202850Y0124147D02*
X0392850Y0124147D01*
X0202850Y0124147D01*
X0202850Y0124747D02*
X0392850Y0124747D01*
X0202850Y0124747D01*
X0202850Y0125345D02*
X0392850Y0125345D01*
X0202850Y0125345D01*
X0202850Y0125943D02*
X0392850Y0125943D01*
X0202850Y0125943D01*
X0202850Y0126542D02*
X0392850Y0126542D01*
X0202850Y0126542D01*
X0202850Y0127141D02*
X0392850Y0127141D01*
X0202850Y0127141D01*
X0202850Y0127739D02*
X0392850Y0127739D01*
X0202850Y0127739D01*
X0202850Y0128338D02*
X0392850Y0128338D01*
X0202850Y0128338D01*
X0202850Y0128936D02*
X0392850Y0128936D01*
X0202850Y0128936D01*
X0202850Y0129535D02*
X0392850Y0129535D01*
X0202850Y0129535D01*
X0202850Y0130134D02*
X0392850Y0130134D01*
X0202850Y0130134D01*
X0202850Y0130732D02*
X0392850Y0130732D01*
X0202850Y0130732D01*
X0202850Y0131331D02*
X0392850Y0131331D01*
X0202850Y0131331D01*
X0202850Y0131929D02*
X0392850Y0131929D01*
X0202850Y0131929D01*
X0202850Y0132528D02*
X0392850Y0132528D01*
X0202850Y0132528D01*
X0202850Y0133126D02*
X0392850Y0133126D01*
X0202850Y0133126D01*
X0202850Y0133725D02*
X0392850Y0133725D01*
X0202850Y0133725D01*
X0202850Y0134323D02*
X0392850Y0134323D01*
X0202850Y0134323D01*
X0202850Y0134922D02*
X0392850Y0134922D01*
X0202850Y0134922D01*
X0202850Y0135519D02*
X0392850Y0135519D01*
X0202850Y0135519D01*
X0202850Y0136119D02*
X0392850Y0136119D01*
X0202850Y0136119D01*
X0202850Y0136717D02*
X0392850Y0136717D01*
X0202850Y0136717D01*
X0202850Y0137316D02*
X0392850Y0137316D01*
X0202850Y0137316D01*
X0202850Y0137914D02*
X0392850Y0137914D01*
X0202850Y0137914D01*
X0202850Y0138513D02*
X0392850Y0138513D01*
X0202850Y0138513D01*
X0202850Y0139110D02*
X0392850Y0139110D01*
X0202850Y0139110D01*
X0202850Y0139710D02*
X0392850Y0139710D01*
X0202850Y0139710D01*
X0202850Y0140308D02*
X0392850Y0140308D01*
X0202850Y0140308D01*
X0202850Y0140907D02*
X0392850Y0140907D01*
X0202850Y0140907D01*
X0202850Y0141505D02*
X0392850Y0141505D01*
X0202850Y0141505D01*
X0202850Y0142104D02*
X0392850Y0142104D01*
X0202850Y0142104D01*
X0202850Y0142702D02*
X0392850Y0142702D01*
X0202850Y0142702D01*
X0202850Y0143301D02*
X0392850Y0143301D01*
X0202850Y0143301D01*
X0202850Y0143899D02*
X0392850Y0143899D01*
X0202850Y0143899D01*
X0202850Y0144498D02*
X0392850Y0144498D01*
X0202850Y0144498D01*
X0202850Y0145096D02*
X0392850Y0145096D01*
X0202850Y0145096D01*
X0202850Y0145695D02*
X0392850Y0145695D01*
X0202850Y0145695D01*
X0202850Y0146293D02*
X0392850Y0146293D01*
X0202850Y0146293D01*
X0202850Y0146892D02*
X0392850Y0146892D01*
X0202850Y0146892D01*
X0202850Y0147490D02*
X0392850Y0147490D01*
X0202850Y0147490D01*
X0202850Y0148089D02*
X0392850Y0148089D01*
X0202850Y0148089D01*
X0202850Y0148687D02*
X0392850Y0148687D01*
X0202850Y0148687D01*
X0202850Y0149286D02*
X0392850Y0149286D01*
X0202850Y0149286D01*
X0202850Y0149884D02*
X0392850Y0149884D01*
X0202850Y0149884D01*
X0202850Y0150482D02*
X0392850Y0150482D01*
X0202850Y0150482D01*
X0202850Y0151081D02*
X0392850Y0151081D01*
X0202850Y0151081D01*
X0202850Y0151680D02*
X0392850Y0151680D01*
X0202850Y0151680D01*
X0202850Y0152278D02*
X0392850Y0152278D01*
X0202850Y0152278D01*
X0202850Y0152877D02*
X0392850Y0152877D01*
X0202850Y0152877D01*
X0202850Y0153475D02*
X0392850Y0153475D01*
X0202850Y0153475D01*
X0202850Y0154073D02*
X0392850Y0154073D01*
X0202850Y0154073D01*
X0202850Y0154672D02*
X0392850Y0154672D01*
X0202850Y0154672D01*
X0202850Y0155271D02*
X0392850Y0155271D01*
X0202850Y0155271D01*
X0202850Y0155869D02*
X0392850Y0155869D01*
X0202850Y0155869D01*
X0202850Y0156468D02*
X0392850Y0156468D01*
X0202850Y0156468D01*
X0202850Y0157067D02*
X0392850Y0157067D01*
X0202850Y0157067D01*
X0202850Y0157665D02*
X0392850Y0157665D01*
X0202850Y0157665D01*
X0202850Y0158264D02*
X0392850Y0158264D01*
X0202850Y0158264D01*
X0202850Y0158862D02*
X0392850Y0158862D01*
X0202850Y0158862D01*
X0202850Y0159461D02*
X0392850Y0159461D01*
X0202850Y0159461D01*
X0202850Y0160059D02*
X0392850Y0160059D01*
X0202850Y0160059D01*
X0202850Y0160658D02*
X0392850Y0160658D01*
X0202850Y0160658D01*
X0202850Y0161256D02*
X0392850Y0161256D01*
X0202850Y0161256D01*
X0202850Y0161855D02*
X0392850Y0161855D01*
X0202850Y0161855D01*
X0202850Y0162453D02*
X0392850Y0162453D01*
X0202850Y0162453D01*
X0202850Y0163052D02*
X0392850Y0163052D01*
X0202850Y0163052D01*
X0202850Y0163649D02*
X0392850Y0163649D01*
X0202850Y0163649D01*
X0202850Y0164249D02*
X0392850Y0164249D01*
X0202850Y0164249D01*
X0202850Y0164847D02*
X0392850Y0164847D01*
X0202850Y0164847D01*
X0202850Y0165446D02*
X0392850Y0165446D01*
X0202850Y0165446D01*
X0202850Y0166044D02*
X0392850Y0166044D01*
X0202850Y0166044D01*
X0202850Y0166643D02*
X0392850Y0166643D01*
X0202850Y0166643D01*
X0202850Y0167241D02*
X0392850Y0167241D01*
X0202850Y0167241D01*
X0202850Y0167840D02*
X0392850Y0167840D01*
X0202850Y0167840D01*
X0202850Y0168438D02*
X0392850Y0168438D01*
X0202850Y0168438D01*
X0202850Y0169037D02*
X0392850Y0169037D01*
X0202850Y0169037D01*
X0202850Y0169635D02*
X0392850Y0169635D01*
X0202850Y0169635D01*
X0202850Y0170234D02*
X0392850Y0170234D01*
X0202850Y0170234D01*
X0202850Y0170832D02*
X0392850Y0170832D01*
X0202850Y0170832D01*
X0202850Y0171431D02*
X0392850Y0171431D01*
X0202850Y0171431D01*
X0202850Y0172029D02*
X0392850Y0172029D01*
X0202850Y0172029D01*
X0202850Y0172628D02*
X0392850Y0172628D01*
X0202850Y0172628D01*
X0202850Y0173226D02*
X0392850Y0173226D01*
X0202850Y0173226D01*
X0202850Y0173825D02*
X0392850Y0173825D01*
X0202850Y0173825D01*
X0202850Y0174423D02*
X0392850Y0174423D01*
X0202850Y0174423D01*
X0202850Y0175022D02*
X0392850Y0175022D01*
X0202850Y0175022D01*
X0202850Y0175620D02*
X0392850Y0175620D01*
X0202850Y0175620D01*
X0202850Y0176219D02*
X0392850Y0176219D01*
X0202850Y0176219D01*
X0202850Y0176817D02*
X0392850Y0176817D01*
X0202850Y0176817D01*
X0202850Y0177416D02*
X0392850Y0177416D01*
X0202850Y0177416D01*
X0202850Y0178014D02*
X0392850Y0178014D01*
X0202850Y0178014D01*
X0202850Y0178612D02*
X0392850Y0178612D01*
X0202850Y0178612D01*
X0202850Y0179211D02*
X0392850Y0179211D01*
X0202850Y0179211D01*
X0202850Y0179810D02*
X0392850Y0179810D01*
X0202850Y0179810D01*
X0202850Y0180408D02*
X0392850Y0180408D01*
X0202850Y0180408D01*
X0202850Y0181007D02*
X0392850Y0181007D01*
X0202850Y0181007D01*
X0202850Y0181605D02*
X0392850Y0181605D01*
X0202850Y0181605D01*
X0202850Y0182204D02*
X0392850Y0182204D01*
X0202850Y0182204D01*
X0202850Y0182803D02*
X0392850Y0182803D01*
X0202850Y0182803D01*
X0202850Y0183401D02*
X0392850Y0183401D01*
X0202850Y0183401D01*
X0202850Y0184000D02*
X0392850Y0184000D01*
X0202850Y0184000D01*
X0202850Y0184598D02*
X0392850Y0184598D01*
X0202850Y0184598D01*
X0202850Y0185197D02*
X0392850Y0185197D01*
X0202850Y0185197D01*
X0202850Y0185795D02*
X0392850Y0185795D01*
X0202850Y0185795D01*
X0202850Y0186394D02*
X0392850Y0186394D01*
X0202850Y0186394D01*
X0202850Y0186992D02*
X0392850Y0186992D01*
X0202850Y0186992D01*
X0202850Y0187591D02*
X0392850Y0187591D01*
X0202850Y0187591D01*
X0202850Y0188189D02*
X0392850Y0188189D01*
X0202850Y0188189D01*
X0202850Y0188788D02*
X0392850Y0188788D01*
X0202850Y0188788D01*
X0202850Y0189386D02*
X0392850Y0189386D01*
X0202850Y0189386D01*
X0202850Y0189985D02*
X0392850Y0189985D01*
X0202850Y0189985D01*
X0202850Y0190583D02*
X0392850Y0190583D01*
X0202850Y0190583D01*
X0202850Y0191182D02*
X0392850Y0191182D01*
X0202850Y0191182D01*
X0202850Y0191780D02*
X0392850Y0191780D01*
X0202850Y0191780D01*
X0202850Y0192379D02*
X0392850Y0192379D01*
X0202850Y0192379D01*
X0202850Y0192977D02*
X0392850Y0192977D01*
X0202850Y0192977D01*
X0202850Y0193575D02*
X0392850Y0193575D01*
X0202850Y0193575D01*
X0202850Y0194174D02*
X0392850Y0194174D01*
X0202850Y0194174D01*
X0202850Y0194773D02*
X0392850Y0194773D01*
X0202850Y0194773D01*
X0202850Y0195371D02*
X0392850Y0195371D01*
X0202850Y0195371D01*
X0202850Y0195970D02*
X0392850Y0195970D01*
X0202850Y0195970D01*
X0202850Y0196568D02*
X0392850Y0196568D01*
X0202850Y0196568D01*
X0202850Y0197166D02*
X0392850Y0197166D01*
X0202850Y0197166D01*
X0202850Y0197765D02*
X0392850Y0197765D01*
X0202850Y0197765D01*
X0202850Y0198364D02*
X0392850Y0198364D01*
X0202850Y0198364D01*
X0202850Y0198962D02*
X0392850Y0198962D01*
X0202850Y0198962D01*
X0202850Y0199561D02*
X0392850Y0199561D01*
X0202850Y0199561D01*
X0202850Y0200159D02*
X0392850Y0200159D01*
X0202850Y0200159D01*
X0202850Y0200758D02*
X0392850Y0200758D01*
X0202850Y0200758D01*
X0202850Y0201356D02*
X0392850Y0201356D01*
X0202850Y0201356D01*
X0202850Y0201955D02*
X0392850Y0201955D01*
X0202850Y0201955D01*
X0202850Y0202552D02*
X0392850Y0202552D01*
X0202850Y0202552D01*
X0202850Y0203152D02*
X0392850Y0203152D01*
X0202850Y0203152D01*
X0202850Y0203750D02*
X0392850Y0203750D01*
X0202850Y0203750D01*
X0202850Y0204348D02*
X0392850Y0204348D01*
X0202850Y0204348D01*
X0202850Y0204947D02*
X0392850Y0204947D01*
X0202850Y0204947D01*
X0202850Y0205546D02*
X0392850Y0205546D01*
X0202850Y0205546D01*
X0202850Y0206144D02*
X0392850Y0206144D01*
X0202850Y0206144D01*
X0202850Y0206743D02*
X0392850Y0206743D01*
X0202850Y0206743D01*
X0202850Y0207341D02*
X0392850Y0207341D01*
X0202850Y0207341D01*
X0202850Y0207940D02*
X0392850Y0207940D01*
X0202850Y0207940D01*
X0202850Y0208537D02*
X0392850Y0208537D01*
X0202850Y0208537D01*
X0202850Y0209137D02*
X0392850Y0209137D01*
X0202850Y0209137D01*
X0202850Y0209736D02*
X0392850Y0209736D01*
X0202850Y0209736D01*
X0202850Y0210334D02*
X0392850Y0210334D01*
X0202850Y0210334D01*
X0202850Y0210933D02*
X0392850Y0210933D01*
X0202850Y0210933D01*
X0202850Y0211531D02*
X0392850Y0211531D01*
X0202850Y0211531D01*
X0202850Y0212130D02*
X0392850Y0212130D01*
X0202850Y0212130D01*
X0202850Y0212727D02*
X0392850Y0212727D01*
X0202850Y0212727D01*
X0202850Y0213327D02*
X0392850Y0213327D01*
X0202850Y0213327D01*
X0202850Y0213925D02*
X0392850Y0213925D01*
X0202850Y0213925D01*
X0202850Y0214523D02*
X0392850Y0214523D01*
X0202850Y0214523D01*
X0202850Y0215122D02*
X0392850Y0215122D01*
X0202850Y0215122D01*
X0202850Y0215721D02*
X0392850Y0215721D01*
X0202850Y0215721D01*
X0202850Y0216319D02*
X0392850Y0216319D01*
X0202850Y0216319D01*
X0202850Y0216918D02*
X0392850Y0216918D01*
X0202850Y0216918D01*
X0202850Y0217516D02*
X0392850Y0217516D01*
X0202850Y0217516D01*
X0202850Y0218115D02*
X0392850Y0218115D01*
X0202850Y0218115D01*
X0202850Y0218712D02*
X0392850Y0218712D01*
X0202850Y0218712D01*
X0202850Y0219312D02*
X0392850Y0219312D01*
X0202850Y0219312D01*
X0202850Y0219910D02*
X0392850Y0219910D01*
X0202850Y0219910D01*
X0202850Y0220509D02*
X0392850Y0220509D01*
X0202850Y0220509D01*
X0202850Y0221107D02*
X0392850Y0221107D01*
X0202850Y0221107D01*
X0202850Y0221706D02*
X0392850Y0221706D01*
X0202850Y0221706D01*
X0202850Y0222304D02*
X0392850Y0222304D01*
X0202850Y0222304D01*
X0202850Y0222902D02*
X0392850Y0222902D01*
X0202850Y0222902D01*
X0202850Y0223501D02*
X0392850Y0223501D01*
X0202850Y0223501D01*
X0202850Y0224100D02*
X0392850Y0224100D01*
X0202850Y0224100D01*
X0202850Y0224698D02*
X0392850Y0224698D01*
X0202850Y0224698D01*
X0202850Y0225297D02*
X0392850Y0225297D01*
X0202850Y0225297D01*
X0202850Y0225895D02*
X0392850Y0225895D01*
X0202850Y0225895D01*
X0202850Y0226494D02*
X0392850Y0226494D01*
X0202850Y0226494D01*
X0202850Y0227091D02*
X0392850Y0227091D01*
X0202850Y0227091D01*
X0202850Y0227691D02*
X0392850Y0227691D01*
X0202850Y0227691D01*
X0202850Y0228289D02*
X0392850Y0228289D01*
X0202850Y0228289D01*
X0202850Y0228887D02*
X0392850Y0228887D01*
X0202850Y0228887D01*
X0202850Y0229486D02*
X0392850Y0229486D01*
X0202850Y0229486D01*
X0202850Y0230085D02*
X0392850Y0230085D01*
X0202850Y0230085D01*
X0202850Y0230683D02*
X0392850Y0230683D01*
X0202850Y0230683D01*
X0202850Y0231282D02*
X0392850Y0231282D01*
X0202850Y0231282D01*
X0202850Y0231880D02*
X0392850Y0231880D01*
X0202850Y0231880D01*
X0202850Y0232479D02*
X0392850Y0232479D01*
X0202850Y0232479D01*
X0202850Y0233076D02*
X0392850Y0233076D01*
X0202850Y0233076D01*
X0202850Y0233676D02*
X0392850Y0233676D01*
X0202850Y0233676D01*
X0202850Y0234274D02*
X0392850Y0234274D01*
X0202850Y0234274D01*
X0202850Y0234873D02*
X0392850Y0234873D01*
X0202850Y0234873D01*
X0202850Y0235471D02*
X0392850Y0235471D01*
X0202850Y0235471D01*
X0202850Y0236070D02*
X0392850Y0236070D01*
X0202850Y0236070D01*
X0202850Y0236669D02*
X0392850Y0236669D01*
X0202850Y0236669D01*
X0202850Y0237266D02*
X0392850Y0237266D01*
X0202850Y0237266D01*
X0202850Y0237866D02*
X0392850Y0237866D01*
X0202850Y0237866D01*
X0202850Y0238464D02*
X0392850Y0238464D01*
X0202850Y0238464D01*
X0202850Y0239062D02*
X0392850Y0239062D01*
X0202850Y0239062D01*
X0202850Y0239661D02*
X0392850Y0239661D01*
X0202850Y0239661D01*
X0202850Y0240260D02*
X0392850Y0240260D01*
X0202850Y0240260D01*
X0202850Y0240858D02*
X0392850Y0240858D01*
X0202850Y0240858D01*
X0202850Y0241457D02*
X0392850Y0241457D01*
X0202850Y0241457D01*
X0202850Y0242055D02*
X0392850Y0242055D01*
X0202850Y0242055D01*
X0202850Y0242654D02*
X0392850Y0242654D01*
X0202850Y0242654D01*
X0202850Y0243251D02*
X0392850Y0243251D01*
X0202850Y0243251D01*
X0202850Y0243851D02*
X0392850Y0243851D01*
X0202850Y0243851D01*
X0202850Y0244449D02*
X0392850Y0244449D01*
X0202850Y0244449D01*
X0202850Y0245048D02*
X0392850Y0245048D01*
X0202850Y0245048D01*
X0202850Y0245646D02*
X0392850Y0245646D01*
X0202850Y0245646D01*
X0202850Y0246245D02*
X0392850Y0246245D01*
X0202850Y0246245D01*
X0202850Y0246843D02*
X0392850Y0246843D01*
X0202850Y0246843D01*
X0202850Y0247441D02*
X0392850Y0247441D01*
X0202850Y0247441D01*
X0202850Y0248040D02*
X0392850Y0248040D01*
X0202850Y0248040D01*
X0202850Y0248639D02*
X0392850Y0248639D01*
X0202850Y0248639D01*
X0202850Y0249237D02*
X0392850Y0249237D01*
X0202850Y0249237D01*
X0202850Y0249836D02*
X0392850Y0249836D01*
X0202850Y0249836D01*
X0202850Y0250434D02*
X0392850Y0250434D01*
X0202850Y0250434D01*
X0202850Y0251033D02*
X0392850Y0251033D01*
X0202850Y0251033D01*
X0202850Y0251630D02*
X0392850Y0251630D01*
X0202850Y0251630D01*
X0202850Y0252230D02*
X0392850Y0252230D01*
X0202850Y0252230D01*
X0202850Y0252828D02*
X0392850Y0252828D01*
X0202850Y0252828D01*
X0202850Y0253426D02*
X0392850Y0253426D01*
X0202850Y0253426D01*
X0202850Y0254025D02*
X0392850Y0254025D01*
X0202850Y0254025D01*
X0202850Y0254624D02*
X0392850Y0254624D01*
X0202850Y0254624D01*
X0202850Y0255221D02*
X0392850Y0255221D01*
X0202850Y0255221D01*
X0202850Y0255821D02*
X0392850Y0255821D01*
X0202850Y0255821D01*
X0202850Y0256419D02*
X0392850Y0256419D01*
X0202850Y0256419D01*
X0202850Y0257018D02*
X0392850Y0257018D01*
X0202850Y0257018D01*
X0202850Y0257615D02*
X0392850Y0257615D01*
X0202850Y0257615D01*
X0202850Y0258215D02*
X0392850Y0258215D01*
X0202850Y0258215D01*
X0202850Y0258813D02*
X0392850Y0258813D01*
X0202850Y0258813D01*
X0202850Y0259412D02*
X0392850Y0259412D01*
X0202850Y0259412D01*
X0202850Y0260010D02*
X0392850Y0260010D01*
X0202850Y0260010D01*
X0202850Y0260608D02*
X0392850Y0260608D01*
X0202850Y0260608D01*
X0202850Y0261207D02*
X0392850Y0261207D01*
X0202850Y0261207D01*
X0202850Y0261805D02*
X0392850Y0261805D01*
X0202850Y0261805D01*
X0202850Y0262405D02*
X0392850Y0262405D01*
X0202850Y0262405D01*
X0202850Y0263003D02*
X0392850Y0263003D01*
X0202850Y0263003D01*
X0202850Y0263602D02*
X0392850Y0263602D01*
X0202850Y0263602D01*
X0202850Y0264200D02*
X0392850Y0264200D01*
X0202850Y0264200D01*
X0202850Y0264799D02*
X0392850Y0264799D01*
X0202850Y0264799D01*
X0202850Y0265397D02*
X0392850Y0265397D01*
X0202850Y0265397D01*
X0202850Y0265996D02*
X0392850Y0265996D01*
X0202850Y0265996D01*
X0202850Y0266593D02*
X0392850Y0266593D01*
X0202850Y0266593D01*
X0202850Y0267193D02*
X0392850Y0267193D01*
X0202850Y0267193D01*
X0202850Y0267791D02*
X0392850Y0267791D01*
X0202850Y0267791D01*
X0202850Y0268390D02*
X0392850Y0268390D01*
X0202850Y0268390D01*
X0202850Y0268988D02*
X0392850Y0268988D01*
X0202850Y0268988D01*
X0202850Y0269587D02*
X0392850Y0269587D01*
X0202850Y0269587D01*
X0202850Y0270185D02*
X0392850Y0270185D01*
X0202850Y0270185D01*
X0202850Y0270784D02*
X0392850Y0270784D01*
X0202850Y0270784D01*
X0202850Y0271382D02*
X0392850Y0271382D01*
X0202850Y0271382D01*
X0202850Y0271980D02*
X0392850Y0271980D01*
X0202850Y0271980D01*
X0202850Y0272579D02*
X0392850Y0272579D01*
X0202850Y0272579D01*
X0202850Y0273178D02*
X0392850Y0273178D01*
X0202850Y0273178D01*
X0202850Y0273776D02*
X0392850Y0273776D01*
X0202850Y0273776D01*
X0202850Y0274375D02*
X0392850Y0274375D01*
X0202850Y0274375D01*
X0202850Y0274973D02*
X0392850Y0274973D01*
X0202850Y0274973D01*
X0202850Y0275572D02*
X0392850Y0275572D01*
X0202850Y0275572D01*
X0202850Y0276170D02*
X0392850Y0276170D01*
X0202850Y0276170D01*
X0202850Y0276769D02*
X0392850Y0276769D01*
X0202850Y0276769D01*
X0202850Y0277367D02*
X0392850Y0277367D01*
X0202850Y0277367D01*
X0202850Y0277965D02*
X0392850Y0277965D01*
X0202850Y0277965D01*
X0202850Y0278564D02*
X0392850Y0278564D01*
X0202850Y0278564D01*
X0202850Y0279162D02*
X0392850Y0279162D01*
X0202850Y0279162D01*
X0202850Y0279760D02*
X0392850Y0279760D01*
X0202850Y0279760D01*
X0202850Y0280360D02*
X0392850Y0280360D01*
X0202850Y0280360D01*
X0202850Y0280958D02*
X0392850Y0280958D01*
X0202850Y0280958D01*
X0202850Y0281557D02*
X0392850Y0281557D01*
X0202850Y0281557D01*
X0202850Y0282155D02*
X0392850Y0282155D01*
X0202850Y0282155D01*
X0202850Y0282754D02*
X0392850Y0282754D01*
X0202850Y0282754D01*
X0202850Y0283352D02*
X0392850Y0283352D01*
X0202850Y0283352D01*
X0202850Y0283951D02*
X0392850Y0283951D01*
X0202850Y0283951D01*
X0202850Y0284549D02*
X0392850Y0284549D01*
X0202850Y0284549D01*
X0202850Y0285147D02*
X0392850Y0285147D01*
X0202850Y0285147D01*
X0202850Y0285746D02*
X0392850Y0285746D01*
X0202850Y0285746D01*
X0202850Y0286345D02*
X0392850Y0286345D01*
X0202850Y0286345D01*
X0202850Y0286943D02*
X0392850Y0286943D01*
X0202850Y0286943D01*
X0202850Y0287542D02*
X0392850Y0287542D01*
X0202850Y0287542D01*
X0202850Y0288140D02*
X0392850Y0288140D01*
X0202850Y0288140D01*
X0202850Y0288739D02*
X0392850Y0288739D01*
X0202850Y0288739D01*
X0202850Y0289338D02*
X0392850Y0289338D01*
X0202850Y0289338D01*
X0202850Y0289936D02*
X0392850Y0289936D01*
X0202850Y0289936D01*
X0202850Y0290534D02*
X0392850Y0290534D01*
X0202850Y0290534D01*
X0202850Y0291132D02*
X0392850Y0291132D01*
X0202850Y0291132D01*
X0202850Y0291732D02*
X0392850Y0291732D01*
X0202850Y0291732D01*
X0202850Y0292330D02*
X0392850Y0292330D01*
X0202850Y0292330D01*
X0202850Y0292929D02*
X0392850Y0292929D01*
X0202850Y0292929D01*
X0202850Y0293527D02*
X0392850Y0293527D01*
X0202850Y0293527D01*
X0202850Y0294126D02*
X0392850Y0294126D01*
X0202850Y0294126D01*
X0202850Y0294724D02*
X0392850Y0294724D01*
X0202850Y0294724D01*
X0202850Y0295323D02*
X0392850Y0295323D01*
X0202850Y0295323D01*
X0202850Y0295921D02*
X0392850Y0295921D01*
X0202850Y0295921D01*
X0202850Y0296519D02*
X0392850Y0296519D01*
X0202850Y0296519D01*
X0202850Y0297118D02*
X0392850Y0297118D01*
X0202850Y0297118D01*
X0202850Y0297717D02*
X0392850Y0297717D01*
X0202850Y0297717D01*
X0202850Y0298315D02*
X0392850Y0298315D01*
X0202850Y0298315D01*
X0202850Y0298914D02*
X0392850Y0298914D01*
X0202850Y0298914D01*
X0202850Y0299512D02*
X0392850Y0299512D01*
X0202850Y0299512D01*
X0202850Y0300111D02*
X0392850Y0300111D01*
X0202850Y0300111D01*
X0202850Y0300709D02*
X0392850Y0300709D01*
X0202850Y0300709D01*
X0202850Y0301308D02*
X0392850Y0301308D01*
X0202850Y0301308D01*
X0202850Y0301906D02*
X0392850Y0301906D01*
X0202850Y0301906D01*
X0202850Y0302504D02*
X0392850Y0302504D01*
X0202850Y0302504D01*
X0202850Y0303103D02*
X0392850Y0303103D01*
X0202850Y0303103D01*
X0202850Y0303701D02*
X0392850Y0303701D01*
X0202850Y0303701D01*
X0202850Y0304300D02*
X0392850Y0304300D01*
X0202850Y0304300D01*
X0202850Y0304899D02*
X0392850Y0304899D01*
X0202850Y0304899D01*
X0202850Y0305497D02*
X0392850Y0305497D01*
X0202850Y0305497D01*
X0202850Y0306096D02*
X0392850Y0306096D01*
X0202850Y0306096D01*
X0202850Y0306694D02*
X0392850Y0306694D01*
X0202850Y0306694D01*
X0202850Y0307293D02*
X0392850Y0307293D01*
X0202850Y0307293D01*
X0202850Y0307891D02*
X0392850Y0307891D01*
X0202850Y0307891D01*
X0202850Y0308490D02*
X0392850Y0308490D01*
X0202850Y0308490D01*
X0202850Y0309088D02*
X0392850Y0309088D01*
X0202850Y0309088D01*
X0202850Y0309686D02*
X0392850Y0309686D01*
X0202850Y0309686D01*
X0202850Y0310285D02*
X0392850Y0310285D01*
X0202850Y0310285D01*
X0202850Y0310884D02*
X0392850Y0310884D01*
X0202850Y0310884D01*
X0202850Y0311482D02*
X0392850Y0311482D01*
X0202850Y0311482D01*
X0202850Y0312081D02*
X0392850Y0312081D01*
X0202850Y0312081D01*
X0202850Y0312679D02*
X0392850Y0312679D01*
X0202850Y0312679D01*
X0202850Y0313278D02*
X0392850Y0313278D01*
X0202850Y0313278D01*
X0202850Y0313876D02*
X0392850Y0313876D01*
X0202850Y0313876D01*
X0202850Y0314475D02*
X0392850Y0314475D01*
X0202850Y0314475D01*
X0202850Y0315073D02*
X0392850Y0315073D01*
X0202850Y0315073D01*
X0202850Y0315672D02*
X0392850Y0315672D01*
X0202850Y0315672D01*
X0202850Y0316271D02*
X0392850Y0316271D01*
X0202850Y0316271D01*
X0202850Y0316869D02*
X0392850Y0316869D01*
X0202850Y0316869D01*
X0202850Y0317468D02*
X0392850Y0317468D01*
X0202850Y0317468D01*
X0202850Y0318066D02*
X0392850Y0318066D01*
X0202850Y0318066D01*
X0202850Y0318665D02*
X0392850Y0318665D01*
X0202850Y0318665D01*
X0202850Y0319263D02*
X0392850Y0319263D01*
X0202850Y0319263D01*
X0202850Y0319862D02*
X0392850Y0319862D01*
X0202850Y0319862D01*
X0202850Y0320460D02*
X0392850Y0320460D01*
X0202850Y0320460D01*
X0202850Y0321058D02*
X0392850Y0321058D01*
X0202850Y0321058D01*
X0202850Y0321657D02*
X0392850Y0321657D01*
X0202850Y0321657D01*
X0202850Y0322255D02*
X0392850Y0322255D01*
X0202850Y0322255D01*
X0202850Y0322854D02*
X0392850Y0322854D01*
X0202850Y0322854D01*
X0202850Y0323453D02*
X0392850Y0323453D01*
X0202850Y0323453D01*
X0202850Y0324051D02*
X0392850Y0324051D01*
X0202850Y0324051D01*
X0202850Y0324650D02*
X0392850Y0324650D01*
X0202850Y0324650D01*
X0202850Y0325248D02*
X0392850Y0325248D01*
X0202850Y0325248D01*
X0202850Y0325847D02*
X0392850Y0325847D01*
X0202850Y0325847D01*
X0202850Y0326445D02*
X0392850Y0326445D01*
X0202850Y0326445D01*
X0202850Y0327044D02*
X0392850Y0327044D01*
X0202850Y0327044D01*
X0202850Y0327642D02*
X0392850Y0327642D01*
X0202850Y0327642D01*
X0202850Y0328240D02*
X0392850Y0328240D01*
X0202850Y0328240D01*
X0202850Y0328839D02*
X0392850Y0328839D01*
X0202850Y0328839D01*
X0202850Y0329438D02*
X0392850Y0329438D01*
X0202850Y0329438D01*
X0202850Y0330036D02*
X0392850Y0330036D01*
X0202850Y0330036D01*
X0202850Y0330635D02*
X0392850Y0330635D01*
X0202850Y0330635D01*
X0202850Y0331233D02*
X0392850Y0331233D01*
X0202850Y0331233D01*
X0202850Y0331832D02*
X0392850Y0331832D01*
X0202850Y0331832D01*
X0202850Y0332430D02*
X0392850Y0332430D01*
X0202850Y0332430D01*
X0202850Y0333029D02*
X0392850Y0333029D01*
X0202850Y0333029D01*
X0202850Y0333627D02*
X0392850Y0333627D01*
X0202850Y0333627D01*
X0202850Y0334225D02*
X0392850Y0334225D01*
X0202850Y0334225D01*
X0202850Y0334824D02*
X0392850Y0334824D01*
X0202850Y0334824D01*
X0202850Y0335423D02*
X0392850Y0335423D01*
X0202850Y0335423D01*
X0202850Y0336021D02*
X0392850Y0336021D01*
X0202850Y0336021D01*
X0202850Y0336620D02*
X0392850Y0336620D01*
X0202850Y0336620D01*
X0202850Y0337218D02*
X0392850Y0337218D01*
X0202850Y0337218D01*
X0202850Y0337817D02*
X0392850Y0337817D01*
X0202850Y0337817D01*
X0202850Y0338415D02*
X0392850Y0338415D01*
X0202850Y0338415D01*
X0202850Y0339014D02*
X0392850Y0339014D01*
X0202850Y0339014D01*
X0202850Y0339612D02*
X0392850Y0339612D01*
X0202850Y0339612D01*
X0202850Y0340211D02*
X0392850Y0340211D01*
X0202850Y0340211D01*
X0202850Y0340809D02*
X0392850Y0340809D01*
X0202850Y0340809D01*
X0202850Y0341408D02*
X0392850Y0341408D01*
X0202850Y0341408D01*
X0202850Y0342007D02*
X0392850Y0342007D01*
X0202850Y0342007D01*
X0202850Y0342605D02*
X0392850Y0342605D01*
X0202850Y0342605D01*
X0202850Y0343204D02*
X0392850Y0343204D01*
X0202850Y0343204D01*
X0202850Y0343802D02*
X0392850Y0343802D01*
X0202850Y0343802D01*
X0202850Y0344401D02*
X0392850Y0344401D01*
X0202850Y0344401D01*
X0202850Y0344999D02*
X0392850Y0344999D01*
X0202850Y0344999D01*
X0202850Y0345597D02*
X0392850Y0345597D01*
X0202850Y0345597D01*
X0202850Y0346196D02*
X0392850Y0346196D01*
X0202850Y0346196D01*
X0202850Y0346794D02*
X0392850Y0346794D01*
X0202850Y0346794D01*
X0202850Y0347393D02*
X0392850Y0347393D01*
X0202850Y0347393D01*
X0202850Y0347992D02*
X0392850Y0347992D01*
X0202850Y0347992D01*
X0202850Y0348590D02*
X0392850Y0348590D01*
X0202850Y0348590D01*
X0202850Y0349189D02*
X0392850Y0349189D01*
X0202850Y0349189D01*
X0202850Y0349787D02*
X0392850Y0349787D01*
X0202850Y0349787D01*
X0202850Y0350386D02*
X0392850Y0350386D01*
X0202850Y0350386D01*
X0202850Y0350984D02*
X0392850Y0350984D01*
X0202850Y0350984D01*
X0202850Y0351583D02*
X0392850Y0351583D01*
X0202850Y0351583D01*
X0202850Y0352181D02*
X0392850Y0352181D01*
X0202850Y0352181D01*
X0202850Y0352779D02*
X0392850Y0352779D01*
X0202850Y0352779D01*
X0202850Y0353378D02*
X0392850Y0353378D01*
X0202850Y0353378D01*
X0202850Y0353977D02*
X0392850Y0353977D01*
X0202850Y0353977D01*
X0202850Y0354575D02*
X0392850Y0354575D01*
X0202850Y0354575D01*
X0202850Y0355174D02*
X0392850Y0355174D01*
X0202850Y0355174D01*
X0202850Y0355772D02*
X0392850Y0355772D01*
X0202850Y0355772D01*
X0202850Y0356371D02*
X0392850Y0356371D01*
X0202850Y0356371D01*
X0202850Y0356969D02*
X0392850Y0356969D01*
X0202850Y0356969D01*
X0202850Y0357568D02*
X0392850Y0357568D01*
X0202850Y0357568D01*
X0202850Y0358166D02*
X0392850Y0358166D01*
X0202850Y0358166D01*
X0202850Y0358765D02*
X0392850Y0358765D01*
X0202850Y0358765D01*
X0202850Y0359363D02*
X0392850Y0359363D01*
X0202850Y0359363D01*
X0202850Y0359962D02*
X0392850Y0359962D01*
X0202850Y0359962D01*
X0202850Y0360560D02*
X0392850Y0360560D01*
X0202850Y0360560D01*
X0202850Y0361159D02*
X0392850Y0361159D01*
X0202850Y0361159D01*
X0202850Y0361757D02*
X0392850Y0361757D01*
X0202850Y0361757D01*
X0202850Y0362356D02*
X0392850Y0362356D01*
X0202850Y0362356D01*
X0202850Y0362954D02*
X0392850Y0362954D01*
X0202850Y0362954D01*
X0202850Y0363553D02*
X0392850Y0363553D01*
X0202850Y0363553D01*
X0202850Y0364151D02*
X0392850Y0364151D01*
X0202850Y0364151D01*
X0202850Y0364750D02*
X0392850Y0364750D01*
X0202850Y0364750D01*
X0202850Y0365348D02*
X0392850Y0365348D01*
X0202850Y0365348D01*
X0202850Y0365947D02*
X0392850Y0365947D01*
X0202850Y0365947D01*
X0202850Y0366545D02*
X0392850Y0366545D01*
X0202850Y0366545D01*
X0202850Y0367144D02*
X0392850Y0367144D01*
X0202850Y0367144D01*
X0202850Y0367743D02*
X0392850Y0367743D01*
X0202850Y0367743D01*
X0202850Y0368341D02*
X0392850Y0368341D01*
X0202850Y0368341D01*
X0202850Y0368940D02*
X0392850Y0368940D01*
X0202850Y0368940D01*
X0202850Y0369538D02*
X0392850Y0369538D01*
X0202850Y0369538D01*
X0202850Y0370137D02*
X0392850Y0370137D01*
X0202850Y0370137D01*
X0202850Y0370735D02*
X0392850Y0370735D01*
X0202850Y0370735D01*
X0202850Y0371333D02*
X0392850Y0371333D01*
X0202850Y0371333D01*
X0202850Y0371932D02*
X0392850Y0371932D01*
X0202850Y0371932D01*
X0202850Y0372531D02*
X0392850Y0372531D01*
X0202850Y0372531D01*
X0202850Y0373129D02*
X0392850Y0373129D01*
X0202850Y0373129D01*
X0202850Y0373728D02*
X0392850Y0373728D01*
X0202850Y0373728D01*
X0202850Y0374326D02*
X0392850Y0374326D01*
X0202850Y0374326D01*
X0202850Y0374925D02*
X0392850Y0374925D01*
X0202850Y0374925D01*
X0202850Y0375523D02*
X0392850Y0375523D01*
X0202850Y0375523D01*
X0202850Y0376122D02*
X0392850Y0376122D01*
X0202850Y0376122D01*
X0202850Y0376720D02*
X0392850Y0376720D01*
X0202850Y0376720D01*
X0202850Y0377318D02*
X0392850Y0377318D01*
X0202850Y0377318D01*
X0202850Y0377917D02*
X0392850Y0377917D01*
X0202850Y0377917D01*
X0202850Y0378516D02*
X0392850Y0378516D01*
X0202850Y0378516D01*
X0202850Y0379114D02*
X0392850Y0379114D01*
X0202850Y0379114D01*
X0202850Y0379713D02*
X0392850Y0379713D01*
X0202850Y0379713D01*
X0202850Y0380311D02*
X0392850Y0380311D01*
X0202850Y0380311D01*
X0202850Y0380910D02*
X0392850Y0380910D01*
X0202850Y0380910D01*
X0202850Y0381508D02*
X0392850Y0381508D01*
X0202850Y0381508D01*
X0202867Y0382107D02*
X0392833Y0382107D01*
X0202867Y0382107D01*
X0202910Y0382705D02*
X0392790Y0382705D01*
X0202910Y0382705D01*
X0202955Y0383304D02*
X0392745Y0383304D01*
X0202955Y0383304D01*
X0203085Y0383902D02*
X0392615Y0383902D01*
X0203085Y0383902D01*
X0203215Y0384501D02*
X0392485Y0384501D01*
X0203215Y0384501D01*
X0203410Y0385099D02*
X0392290Y0385099D01*
X0203410Y0385099D01*
X0203633Y0385698D02*
X0392067Y0385698D01*
X0203633Y0385698D01*
X0203905Y0386296D02*
X0391796Y0386296D01*
X0203905Y0386296D01*
X0204231Y0386895D02*
X0391469Y0386895D01*
X0204231Y0386895D01*
X0204603Y0387493D02*
X0391097Y0387493D01*
X0204603Y0387493D01*
X0205051Y0388092D02*
X0390649Y0388092D01*
X0205051Y0388092D01*
X0205568Y0388690D02*
X0390132Y0388690D01*
X0205568Y0388690D01*
X0206167Y0389289D02*
X0389533Y0389289D01*
X0206167Y0389289D01*
X0206921Y0389887D02*
X0388779Y0389887D01*
X0206921Y0389887D01*
X0207823Y0390486D02*
X0387877Y0390486D01*
X0207823Y0390486D01*
X0209023Y0391084D02*
X0386677Y0391084D01*
X0209023Y0391084D01*
X0211052Y0391683D02*
X0384647Y0391683D01*
X0211052Y0391683D01*
X0205751Y0079859D02*
X0389949Y0079859D01*
X0205751Y0079859D01*
X0206366Y0079259D02*
X0389334Y0079259D01*
X0206366Y0079259D01*
X0207166Y0078662D02*
X0388533Y0078662D01*
X0207166Y0078662D01*
X0208158Y0078063D02*
X0387541Y0078063D01*
X0208158Y0078063D01*
X0209513Y0077465D02*
X0386186Y0077465D01*
X0209513Y0077465D01*
M02*