<svg xmlns="http://www.w3.org/2000/svg" data-name="Layer 1" viewBox="0 0 100 125" x="0px" y="0px"><title>Artboard 10</title><path d="M80.61,34.93a7.55,7.55,0,1,0,12.11-1.31,11.15,11.15,0,0,0-1.39-6.47C88.94,23,83.91,21,77.05,21a47.46,47.46,0,0,0-9.87,1.16C63.83,9.92,58,1.18,50,1.18,39.6,1.18,33,15.51,30.49,33.09c-.3,2.06-.53,4.16-.72,6.29-2.59,1.81-5.06,3.69-7.38,5.62C15.7,38.05,13,32.13,14.5,29.53a2.51,2.51,0,0,1,.32-.41,7.54,7.54,0,1,0-2.23-8,11.15,11.15,0,0,0-4.91,4.43c-3.94,6.83.41,15.93,8.88,24.73C7.5,59.4,2.69,68.9,6.78,76c1.76,3,5.61,6.25,14,6.25a44.23,44.23,0,0,0,7.32-.67,84.36,84.36,0,0,0,19.38-6.08c1.22-.54,2.45-1.11,3.68-1.7C53.9,75,56.59,76,59.24,77c-2.66,8.91-6.35,14-9.29,14a2.48,2.48,0,0,1-.51-.07,7.54,7.54,0,1,0-5.78,5.91,11.14,11.14,0,0,0,6.29,2c7.79,0,13.45-8.12,16.85-19.63a49.22,49.22,0,0,0,11.33,1.51h0c6.47,0,11.55-1.89,14.1-6.3,5.12-8.86-3.72-21.53-17.4-32.43-1.53-1.22-3.13-2.42-4.77-3.58-.28-2.95-.67-5.84-1.17-8.62a39.74,39.74,0,0,1,8.27-1c4,0,6.55.95,7.34,2.32a2.48,2.48,0,0,1,.2.48A7.52,7.52,0,0,0,80.61,34.93ZM38.44,33.09C40.81,18,46,9.06,50,9.06c3.06,0,6.94,5.52,9.62,15.14a102.4,102.4,0,0,0-10,3.92,121.61,121.61,0,0,0-10.82,5.56l-.41.24C38.36,33.64,38.39,33.36,38.44,33.09ZM26.83,73.78a36,36,0,0,1-5.93.55c-4.3,0-6.6-1.1-7.29-2.3C12,69.33,15,63,22.31,55.72A116.06,116.06,0,0,0,39.63,67.89q1.2.69,2.41,1.35A73,73,0,0,1,26.83,73.78Zm34.24-4.53c-1.22-.43-2.48-.92-3.76-1.43L51,65c-2.43-1.18-4.92-2.49-7.48-4A107.14,107.14,0,0,1,28.2,50.41q1.52-1.24,3.18-2.49l6-4.16q2.53-1.65,5.32-3.26a113.38,113.38,0,0,1,10.12-5.2c3-1.36,5.86-2.47,8.5-3.37q.33,1.92.59,4l.64,6.85c.14,2.32.22,4.74.22,7.25A106.36,106.36,0,0,1,61.07,69.25ZM70.61,50c0-.44,0-.88,0-1.32L71,49c11.39,9.38,16.33,18.14,14.41,21.47-.87,1.5-3.39,2.34-7.17,2.34a42.62,42.62,0,0,1-9.59-1.3A115.63,115.63,0,0,0,70.61,50ZM57.25,50A7.25,7.25,0,1,1,50,42.75,7.25,7.25,0,0,1,57.25,50Z"/><text x="0" y="115" fill="#000000" font-size="5px" font-weight="bold" font-family="'Helvetica Neue', Helvetica, Arial-Unicode, Arial, Sans-serif">Created by Gregor Cresnar</text><text x="0" y="120" fill="#000000" font-size="5px" font-weight="bold" font-family="'Helvetica Neue', Helvetica, Arial-Unicode, Arial, Sans-serif">from the Noun Project</text></svg>