<svg xmlns="http://www.w3.org/2000/svg" xmlns:xlink="http://www.w3.org/1999/xlink" version="1.1" x="0px" y="0px" viewBox="0 0 238 313.59749999999997" enable-background="new 0 0 238 250.878" xml:space="preserve"><g><polygon points="75.538,191.867 164.336,191.867 144.759,135.241 95.128,135.241  "/><path d="M146.766,82.486V56.675h4.169c4.454,0,8.058-3.482,8.058-7.934c0-4.45-3.604-7.934-8.058-7.934H88.938   c-4.45,0-8.059,3.483-8.059,7.934c0,4.451,3.608,7.934,8.059,7.934h4.936v25.811l-39.672,113.95v0.412   c0,4.283,2.766,7.676,5.678,9.95c2.951,2.326,7.166,3.271,11.142,3.271h97.84c3.964,0,7.256-0.945,10.192-3.271   c2.925-2.274,4.746-5.667,4.746-9.95v-0.42L146.766,82.486z M68.181,196.848l38.914-114.362V56.675h26.451v25.811l38.609,114.377   L68.181,196.848z"/></g><text x="0" y="265.878" fill="#000000" font-size="5px" font-weight="bold" font-family="'Helvetica Neue', Helvetica, Arial-Unicode, Arial, Sans-serif">Created by Erickson Duverge</text><text x="0" y="270.878" fill="#000000" font-size="5px" font-weight="bold" font-family="'Helvetica Neue', Helvetica, Arial-Unicode, Arial, Sans-serif">from the Noun Project</text></svg>