<svg xmlns:dc="http://purl.org/dc/elements/1.1/" xmlns:cc="http://creativecommons.org/ns#" xmlns:rdf="http://www.w3.org/1999/02/22-rdf-syntax-ns#" xmlns:svg="http://www.w3.org/2000/svg" xmlns="http://www.w3.org/2000/svg" xmlns:sodipodi="http://sodipodi.sourceforge.net/DTD/sodipodi-0.dtd" xmlns:inkscape="http://www.inkscape.org/namespaces/inkscape" viewBox="0 0 462.148 496.1700125" version="1.1" x="0px" y="0px"><g transform="translate(-176.15998,-394.358)"><path style="" d="m 327.05398,394.358 c -49.007,0 -88.838,39.832 -88.838,88.838 0,5.095 0.372,10.079 1.214,14.968 -39.105,23.404 -63.27,65.268 -63.27,111.168 0,48.592 26.863,90.946 66.506,113.191 14.541,41.217 52.852,68.771 96.929,68.771 25.144,0 48.834,-9 67.559,-25.405 18.764,16.405 42.451,25.405 67.639,25.405 44.034,0 82.347,-27.554 96.847,-68.771 39.768,-22.245 66.668,-64.599 66.668,-113.191 0,-45.858 -24.246,-87.764 -63.35,-111.168 0.87,-4.889 1.29,-9.873 1.29,-14.968 0,-49.006 -39.871,-88.838 -88.918,-88.838 -35.418,0 -65.85,20.979 -80.1,51.054 -14.25,-30.075 -44.679,-51.054 -80.18,-51.054 z m 0.07,17.476 c 39.354,0 71.443,32.009 71.443,71.362 l 0,204.213 c -2.488,5.923 -15.336,34.223 -35.924,34.223 l -0.255,0 c -4.805,0 -8.738,3.894 -8.738,8.658 -0.04,4.847 3.811,8.778 8.657,8.819 l 0.328,0 c 15.411,0 27.348,-8.629 35.924,-18.448 l 0,29.613 -0.07,0.07 c -15.949,15.121 -36.699,23.464 -58.821,23.464 -30.322,0 -57.371,-15.842 -72.574,-40.698 12.261,3.854 25.29,5.989 38.836,5.989 4.847,0 8.818,-3.891 8.818,-8.739 0,-4.847 -3.972,-8.738 -8.818,-8.738 -61.89,0 -112.22,-50.33 -112.22,-112.22 0,-38.153 19.366,-73.144 50.891,-93.772 3.147,8.077 7.314,15.815 12.865,22.815 1.738,2.196 4.309,3.318 6.876,3.318 1.908,0 3.808,-0.575 5.421,-1.859 3.812,-3.025 4.482,-8.529 1.46,-12.299 -10.067,-12.717 -15.454,-28.138 -15.454,-44.419 0,-39.353 32.008,-71.361 71.361,-71.361 z m 160.199,0 c 39.354,0 71.442,32.009 71.442,71.362 0,16.322 -5.387,31.62 -15.453,44.338 -3.023,3.77 -2.395,9.273 1.374,12.297 1.615,1.285 3.595,1.944 5.501,1.944 2.568,0 5.138,-1.123 6.878,-3.319 5.551,-7.001 9.714,-14.696 12.945,-22.816 31.483,20.671 50.811,55.581 50.811,93.692 -0.04,61.888 -50.371,112.3 -112.3,112.3 -4.806,0 -8.739,3.932 -8.739,8.739 0,4.805 3.931,8.738 8.739,8.738 13.545,0 26.573,-2.132 38.835,-5.987 -15.203,24.896 -42.212,40.697 -72.494,40.697 -22.121,0 -42.871,-8.383 -58.82,-23.545 l 0,-29.613 c 8.574,9.86 20.433,18.448 35.843,18.448 l 0.327,0 c 4.847,0 8.78,-3.973 8.739,-8.819 -0.04,-4.805 -3.973,-8.658 -8.739,-8.658 l -0.255,0 c -20.671,0 -33.397,-27.929 -35.923,-34.143 l -0.07,-204.293 c 0,-39.353 32.008,-71.362 71.361,-71.362 z m -167.562,44.5 c -2.199,-0.456 -4.544,-0.124 -6.553,1.213 -4.06,2.611 -5.199,8.077 -2.588,12.137 14.664,22.452 17.854,49.735 8.656,74.921 -10.149,27.796 -33.583,47.884 -62.623,53.642 -4.764,0.952 -7.83,5.512 -6.877,10.276 0.828,4.142 4.395,7.039 8.495,7.039 0.62,0 1.2,-0.04 1.779,-0.182 26.844,-5.344 49.615,-20.844 64.404,-42.882 5.8,8.409 10.097,17.809 12.541,27.752 7.084,28.748 -1.167,58.448 -22.088,79.451 -3.398,3.438 -3.438,8.942 0,12.379 1.739,1.699 3.993,2.589 6.23,2.589 2.239,0 4.451,-0.89 6.149,-2.589 25.27,-25.393 35.234,-61.243 26.7,-95.957 -3.647,-14.914 -10.817,-28.771 -20.552,-40.535 0.748,-1.698 1.681,-3.277 2.344,-5.016 11.103,-30.365 7.252,-63.403 -10.436,-90.537 -1.328,-2.03 -3.38,-3.264 -5.583,-3.72 z m 174.925,0 c -2.192,0.46 -4.257,1.773 -5.583,3.802 -17.688,27.134 -21.5,60.092 -10.356,90.456 0.663,1.74 1.521,3.402 2.264,5.098 -9.735,11.764 -16.905,25.541 -20.551,40.453 -8.534,34.714 1.43,70.564 26.7,95.958 1.699,1.739 4.035,2.589 6.231,2.589 2.194,0 4.408,-0.81 6.148,-2.512 3.398,-3.438 3.398,-8.941 0,-12.379 -20.92,-21.002 -29.131,-50.744 -22.089,-79.452 2.488,-9.983 6.742,-19.424 12.541,-27.832 14.748,22.037 37.599,37.537 64.485,42.881 0.579,0.107 1.079,0.182 1.698,0.182 4.102,0 7.79,-2.895 8.577,-7.038 0.912,-4.765 -2.154,-9.323 -6.878,-10.276 -29.038,-5.799 -52.474,-25.846 -62.623,-53.642 -9.196,-25.145 -6.088,-52.428 8.576,-74.922 2.611,-4.059 1.47,-9.526 -2.588,-12.135 -2.049,-1.306 -4.363,-1.674 -6.553,-1.215 z" fill="#000000"/></g><text x="0" y="411.93601" fill="#000000" font-size="5px" font-weight="bold" font-family="'Helvetica Neue', Helvetica, Arial-Unicode, Arial, Sans-serif">Created by Hopkins</text><text x="0" y="416.93601" fill="#000000" font-size="5px" font-weight="bold" font-family="'Helvetica Neue', Helvetica, Arial-Unicode, Arial, Sans-serif">from the Noun Project</text></svg>