<svg xmlns="http://www.w3.org/2000/svg" xmlns:xlink="http://www.w3.org/1999/xlink" version="1.1" x="0px" y="0px" viewBox="0 0 100 125" style="enable-background:new 0 0 100 100;" xml:space="preserve"><style type="text/css">
	.st0{fill-rule:evenodd;clip-rule:evenodd;}
</style><path class="st0" d="M51.202,56.155l-0.302-1.138l-0.442-1.091l-0.575-1.027l-0.699-0.947L48.371,51.1l-0.913-0.743l-0.999-0.623  l-1.069-0.493l-1.123-0.355l-1.158-0.212l-1.176-0.065l-1.174,0.083l-1.155,0.23l-1.117,0.373l-1.061,0.51l-0.989,0.639  l-0.901,0.758l-0.799,0.865l-0.685,0.958l-0.559,1.036l-0.425,1.098L32.785,56.3l-0.138,1.169l0.009,1.177l0.157,1.167l0.302,1.138  l0.442,1.091l0.575,1.027l0.699,0.947l0.813,0.852l0.913,0.743l0.999,0.623l1.069,0.493l1.123,0.355l1.158,0.211l1.175,0.065  l1.174-0.083l1.155-0.23l1.117-0.373l1.061-0.51l0.989-0.639l0.901-0.758l0.799-0.865l0.685-0.958l0.559-1.036l0.425-1.098  l0.284-1.143l0.138-1.169l-0.009-1.177L51.202,56.155 M11.45,61.867l3.35-1.652l-0.081-1.487V57.24l0.081-1.487l-3.35-1.652  l0.346-2.126l0.494-2.097l3.727-0.244l0.494-1.405l0.57-1.376l0.644-1.342l-2.463-2.808l1.133-1.832l1.259-1.748l3.537,1.201  l0.994-1.109l1.053-1.053l1.109-0.994l-1.201-3.537l1.748-1.259l1.832-1.134l2.808,2.463l1.342-0.644l1.376-0.57l1.405-0.494  l0.244-3.727l2.097-0.494l2.126-0.346l1.652,3.35l1.487-0.081h1.489l1.487,0.081l1.652-3.35l2.126,0.346l2.097,0.494l0.244,3.727  l1.405,0.494l1.376,0.57l1.342,0.644l2.808-2.463l1.832,1.134l1.748,1.259l-1.201,3.537l1.109,0.994l1.053,1.053l0.994,1.109  l3.537-1.201l1.259,1.748l1.134,1.832l-2.463,2.808l0.644,1.342l0.57,1.376l0.494,1.405l3.727,0.244l0.494,2.097l0.346,2.126  l-3.35,1.652l0.081,1.487v1.489l-0.081,1.487l3.35,1.652l-0.346,2.126l-0.494,2.097l-3.727,0.244l-0.494,1.405l-0.57,1.376  l-0.644,1.343l2.463,2.808l-1.134,1.832l-1.259,1.748l-3.537-1.201l-0.994,1.109l-1.053,1.053l-1.109,0.994l1.201,3.537  l-1.748,1.259l-1.832,1.134l-2.808-2.463l-1.342,0.644l-1.376,0.57l-1.405,0.494l-0.244,3.727l-2.097,0.494l-2.126,0.346  l-1.652-3.35l-1.487,0.081h-1.489l-1.487-0.081l-1.652,3.35l-2.126-0.346l-2.097-0.494l-0.244-3.727l-1.405-0.494l-1.376-0.57  l-1.342-0.644l-2.808,2.463l-1.832-1.134l-1.748-1.259l1.201-3.537l-1.109-0.994l-1.053-1.053l-0.994-1.109l-3.537,1.201  l-1.259-1.748l-1.133-1.832l2.463-2.808l-0.644-1.343l-0.57-1.376l-0.494-1.405l-3.727-0.244l-0.494-2.097L11.45,61.867"/><path class="st0" d="M67.122,26.843l0.074,0.943l0.221,0.92l0.362,0.874l0.494,0.806l0.614,0.719l0.719,0.614l0.806,0.494  l0.874,0.362l0.92,0.221l0.943,0.074l0.943-0.074l0.92-0.221l0.874-0.362l0.806-0.494l0.719-0.614l0.614-0.719l0.494-0.806  l0.362-0.874l0.221-0.92l0.074-0.943L79.101,25.9l-0.221-0.92l-0.362-0.874L78.024,23.3l-0.614-0.719l-0.719-0.614l-0.806-0.494  l-0.874-0.362l-0.92-0.221l-0.943-0.074l-0.943,0.074l-0.92,0.221l-0.874,0.362l-0.806,0.494l-0.719,0.614L68.273,23.3l-0.494,0.806  l-0.362,0.874l-0.221,0.92L67.122,26.843 M57.764,27.563v-1.44l0.134-1.433l3.608-0.967l0.316-1.003l0.402-0.971l0.486-0.933  l-1.867-3.235l0.918-1.108l1.018-1.018l1.109-0.918l3.235,1.868l0.933-0.486l0.971-0.402l1.003-0.316l0.967-3.608l1.433-0.134h1.44  l1.433,0.134l0.967,3.608l1.003,0.316l0.971,0.402l0.933,0.486l3.235-1.868l1.109,0.918l1.018,1.018l0.918,1.108l-1.867,3.235  l0.486,0.933l0.402,0.971l0.316,1.003l3.608,0.967l0.113,1.074l0.038,1.079l-0.038,1.079l-0.113,1.074l-3.608,0.967l-0.316,1.003  l-0.402,0.972l-0.486,0.933l1.867,3.235l-0.918,1.108l-1.018,1.018l-1.109,0.918l-3.235-1.867l-0.933,0.486l-0.971,0.402  l-1.003,0.316l-0.967,3.608l-1.433,0.134h-1.44l-1.433-0.134l-0.967-3.608l-1.003-0.316l-0.971-0.402l-0.933-0.486l-3.235,1.867  l-1.109-0.918l-1.018-1.018l-0.918-1.108l1.867-3.235l-0.486-0.933l-0.402-0.972l-0.316-1.003l-3.608-0.967L57.764,27.563"/><text x="0" y="115" fill="#000000" font-size="5px" font-weight="bold" font-family="'Helvetica Neue', Helvetica, Arial-Unicode, Arial, Sans-serif">Created by Tresnatiq</text><text x="0" y="120" fill="#000000" font-size="5px" font-weight="bold" font-family="'Helvetica Neue', Helvetica, Arial-Unicode, Arial, Sans-serif">from the Noun Project</text></svg>