<svg xmlns:dc="http://purl.org/dc/elements/1.1/" xmlns:cc="http://creativecommons.org/ns#" xmlns:rdf="http://www.w3.org/1999/02/22-rdf-syntax-ns#" xmlns:svg="http://www.w3.org/2000/svg" xmlns="http://www.w3.org/2000/svg" xmlns:sodipodi="http://sodipodi.sourceforge.net/DTD/sodipodi-0.dtd" xmlns:inkscape="http://www.inkscape.org/namespaces/inkscape" version="1.1" x="0px" y="0px" viewBox="0 0 100 125"><g transform="translate(0,-952.36218)"><path style="text-indent:0;text-transform:none;direction:ltr;block-progression:tb;baseline-shift:baseline;color:#000000;enable-background:accumulate;" d="m 68.9375,957.36231 c -0.5388,-0.01 -0.82099,0.4428 -0.96875,0.7187 l -1.40625,4.8438 c -1.05869,0.3316 -2.06805,0.7737 -3.03125,1.2812 l -4.4375,-2.4687 c -0.37969,-0.2017 -0.88841,-0.1213 -1.1875,0.1875 l -4.34375,4.3125 c -0.31299,0.3107 -0.38073,0.8391 -0.15625,1.2187 l 2.46875,4.4375 c -0.5094,0.9654 -0.94868,1.9698 -1.28125,3.0313 l -4.875,1.375 c -0.41418,0.1214 -0.72265,0.5371 -0.71875,0.9687 l 0,6.1563 c -0.004,0.4316 0.30457,0.8473 0.71875,0.9687 l 4.90625,1.4063 c 0.3308,1.0472 0.74696,2.0465 1.25,3 l -2.46875,4.4687 c -0.20941,0.3734 -0.1426,0.8811 0.15625,1.1875 l 4.34375,4.3438 c 0.30645,0.2988 0.81417,0.3657 1.1875,0.1562 l 4.4375,-2.4687 c 0.95963,0.5057 1.97672,0.9189 3.03125,1.25 l 1.40625,4.87499 c 0.10992,0.4256 0.52922,0.7502 0.96875,0.75 l 6.125,0 c 0.43953,2e-4 0.85883,-0.3244 0.96875,-0.75 l 1.40625,-4.87499 c 1.05452,-0.3311 2.07162,-0.7443 3.03125,-1.25 l 4.4375,2.4687 c 0.37333,0.2095 0.88105,0.1426 1.1875,-0.1562 l 4.34375,-4.3438 c 0.29885,-0.3064 0.36566,-0.8141 0.15625,-1.1875 l -2.46875,-4.4687 c 0.50305,-0.9535 0.9192,-1.9528 1.25,-3 l 4.90625,-1.4063 c 0.41418,-0.1214 0.72265,-0.5371 0.71875,-0.9687 l 0,-6.1563 c 0.004,-0.4316 -0.30457,-0.8473 -0.71875,-0.9687 l -4.875,-1.375 c -0.33257,-1.0615 -0.77184,-2.0659 -1.28125,-3.0313 l 2.46875,-4.4375 c 0.22448,-0.3796 0.15674,-0.908 -0.15625,-1.2187 l -4.34375,-4.3125 c -0.29909,-0.3088 -0.80781,-0.3892 -1.1875,-0.1875 l -4.4375,2.4687 c -0.9632,-0.5075 -1.97256,-0.9496 -3.03125,-1.2812 l -1.40625,-4.8438 c -0.1214,-0.4141 -0.53716,-0.7226 -0.96875,-0.7187 l -6.125,0 z m 0.71875,2 4.6875,0 1.28125,4.5937 c 0.0983,0.3328 0.38193,0.6041 0.71875,0.6875 1.30546,0.3597 2.53002,0.9039 3.6875,1.5625 0.29492,0.1633 0.67383,0.1633 0.96875,0 l 4.21875,-2.3437 3.28125,3.2812 -2.34375,4.1875 c -0.17451,0.3023 -0.17451,0.6977 0,1 0.65853,1.1572 1.1716,2.3821 1.53125,3.6875 0.0928,0.3255 0.36204,0.5947 0.6875,0.6875 l 4.625,1.3125 0,4.6563 -4.625,1.3125 c -0.32546,0.093 -0.59469,0.362 -0.6875,0.6875 -0.35964,1.3055 -0.87264,2.5612 -1.53125,3.7187 -0.16326,0.295 -0.16326,0.6739 0,0.9688 l 2.3125,4.2187 -3.25,3.25 L 81,994.48731 c -0.30015,-0.1539 -0.67912,-0.1416 -0.96875,0.031 -1.15753,0.6587 -2.38215,1.1717 -3.6875,1.5312 -0.33682,0.083 -0.62046,0.3548 -0.71875,0.6875 l -1.3125,4.62499 -4.625,0 -1.3125,-4.62499 c -0.0983,-0.3327 -0.38193,-0.6041 -0.71875,-0.6875 -1.30536,-0.3595 -2.52997,-0.8725 -3.6875,-1.5312 -0.28963,-0.1729 -0.6686,-0.1852 -0.96875,-0.031 l -4.21875,2.3437 -3.25,-3.25 2.3125,-4.2187 c 0.16326,-0.2949 0.16326,-0.6738 0,-0.9688 -0.6586,-1.1576 -1.17163,-2.4132 -1.53125,-3.7187 -0.0928,-0.3255 -0.36204,-0.5947 -0.6875,-0.6875 l -4.625,-1.3125 0,-4.6563 4.625,-1.3125 c 0.32546,-0.093 0.59469,-0.362 0.6875,-0.6875 0.35964,-1.3054 0.87273,-2.5302 1.53125,-3.6875 0.17451,-0.3023 0.17451,-0.6977 0,-1 L 55.5,967.14351 58.78125,963.86231 63,966.20601 c 0.29492,0.1633 0.67383,0.1633 0.96875,0 1.15749,-0.6586 2.38203,-1.2028 3.6875,-1.5625 0.33682,-0.083 0.62046,-0.3547 0.71875,-0.6875 l 1.28125,-4.5937 z m 2.34375,12 c -4.95872,0 -9,4.0413 -9,9 0,4.9587 4.04128,9 9,9 4.95872,0 9,-4.0413 9,-9 0,-4.9587 -4.04128,-9 -9,-9 z m 0,2 c 3.87782,0 7,3.1222 7,7 0,3.8778 -3.12218,7 -7,7 -3.87782,0 -7,-3.1222 -7,-7 0,-3.8778 3.12218,-7 7,-7 z m -43.625,20 c -0.55052,-0.01 -0.84833,0.4155 -0.96875,0.7187 l -1.6875,5.875 c -1.29896,0.40259 -2.54171,0.90319 -3.71875,1.53129 l -5.34375,-2.96879 c -0.37969,-0.2016 -0.88841,-0.1213 -1.1875,0.1875 l -5.125,5.12499 c -0.29885,0.3065 -0.3656599,0.8142 -0.15625,1.1875 l 2.9375,5.3125 c -0.63249,1.1866 -1.15931,2.4396 -1.5625,3.75 l -5.8437498,1.6562 c -0.41418,0.1214 -0.72265,0.5372 -0.71875,0.9688 l 0,7.2812 c -0.004,0.4316 0.30457,0.8474 0.71875,0.9688 l 5.8437498,1.6562 c 0.40438,1.3143 0.95877,2.5603 1.59375,3.75 l -2.96875,5.3125 c -0.2244799,0.3797 -0.15674,0.9081 0.15625,1.2188 l 5.125,5.125 c 0.30645,0.2988 0.81417,0.3657 1.1875,0.1562 L 22,1039.206 c 1.17783,0.6286 2.41882,1.1597 3.71875,1.5625 l 1.6875,5.8437 c 0.10992,0.4256 0.52922,0.7502 0.96875,0.75 l 7.25,0 c 0.43953,2e-4 0.85883,-0.3244 0.96875,-0.75 l 1.6875,-5.8437 c 1.29992,-0.4028 2.54092,-0.9339 3.71875,-1.5625 l 5.34375,2.9687 c 0.37333,0.2095 0.88105,0.1426 1.1875,-0.1562 l 5.125,-5.125 c 0.31299,-0.3107 0.38073,-0.8391 0.15625,-1.2188 l -2.96875,-5.3125 c 0.63498,-1.1897 1.18937,-2.4357 1.59375,-3.75 l 5.84375,-1.6562 c 0.41418,-0.1214 0.72265,-0.5372 0.71875,-0.9688 l 0,-7.2812 c 0.004,-0.4316 -0.30457,-0.8474 -0.71875,-0.9688 l -5.84375,-1.6562 c -0.40319,-1.3104 -0.93001,-2.5634 -1.5625,-3.75 l 2.9375,-5.3125 c 0.20941,-0.3733 0.1426,-0.881 -0.15625,-1.1875 l -5.125,-5.12499 c -0.29909,-0.3088 -0.80781,-0.3891 -1.1875,-0.1875 L 42,1001.4873 c -1.17704,-0.6281 -2.41979,-1.1287 -3.71875,-1.53129 l -1.6875,-5.875 c -0.1214,-0.4141 -0.53716,-0.7226 -0.96875,-0.7187 l -7.25,0 z m 0.71875,2 5.8125,0 1.5625,5.56249 c 0.0928,0.3254 0.36204,0.5947 0.6875,0.6875 1.55802,0.4292 3.05715,1.0584 4.4375,1.8437 0.29492,0.1633 0.67383,0.1633 0.96875,0 l 5.09375,-2.8125 4.0625,4.0625 -2.84375,5.0937 c -0.16326,0.295 -0.16326,0.6739 0,0.9688 0.78537,1.3803 1.41452,2.8482 1.84375,4.4062 0.0928,0.3255 0.36204,0.5947 0.6875,0.6875 L 57,1017.456 l 0,5.7812 -5.59375,1.5938 c -0.32546,0.093 -0.59469,0.362 -0.6875,0.6875 -0.42923,1.558 -1.05838,3.0259 -1.84375,4.4062 -0.17451,0.3024 -0.17451,0.6977 0,1 l 2.8125,5.0938 -4.03125,4.0312 -5.09375,-2.8125 c -0.29492,-0.1632 -0.67383,-0.1632 -0.96875,0 -1.38036,0.7854 -2.87948,1.4146 -4.4375,1.8438 -0.32546,0.093 -0.59469,0.362 -0.6875,0.6875 l -1.59375,5.5937 -5.75,0 -1.59375,-5.5937 c -0.0928,-0.3255 -0.36204,-0.5947 -0.6875,-0.6875 -1.55803,-0.4292 -3.05713,-1.0584 -4.4375,-1.8438 -0.29492,-0.1632 -0.67383,-0.1632 -0.96875,0 l -5.09375,2.8125 -4.03125,-4.0312 2.8125,-5.0938 c 0.17451,-0.3023 0.17451,-0.6976 0,-1 -0.78537,-1.3803 -1.41452,-2.8482 -1.84375,-4.4062 -0.0928,-0.3255 -0.36204,-0.5947 -0.6875,-0.6875 l -5.5937499,-1.5938 0,-5.7812 5.5937499,-1.5938 c 0.32546,-0.093 0.59469,-0.362 0.6875,-0.6875 0.42923,-1.558 1.05838,-3.0259 1.84375,-4.4062 0.16326,-0.2949 0.16326,-0.6738 0,-0.9688 l -2.84375,-5.0937 4.0625,-4.0625 5.09375,2.8125 c 0.29492,0.1633 0.67383,0.1633 0.96875,0 1.38037,-0.7853 2.87947,-1.4145 4.4375,-1.8437 0.32546,-0.093 0.59469,-0.3621 0.6875,-0.6875 l 1.5625,-5.56249 z M 32,1009.3622 c -6.06329,0 -11,4.9368 -11,11 0,6.0633 4.93671,11 11,11 6.06329,0 11,-4.9367 11,-11 0,-6.0632 -4.93671,-11 -11,-11 z m 0,2 c 4.98239,0 9,4.0177 9,9 0,4.9824 -4.01761,9 -9,9 -4.98239,0 -9,-4.0176 -9,-9 0,-4.9823 4.01761,-9 9,-9 z" fill="#000000" fill-opacity="1" stroke="none" marker="none" visibility="visible" display="inline" overflow="visible"/></g><text x="0" y="115" fill="#000000" font-size="5px" font-weight="bold" font-family="'Helvetica Neue', Helvetica, Arial-Unicode, Arial, Sans-serif">Created by il Capitano</text><text x="0" y="120" fill="#000000" font-size="5px" font-weight="bold" font-family="'Helvetica Neue', Helvetica, Arial-Unicode, Arial, Sans-serif">from the Noun Project</text></svg>