<svg xmlns="http://www.w3.org/2000/svg" xmlns:xlink="http://www.w3.org/1999/xlink" viewBox="0 0 24 31.25" version="1.1" x="0px" y="0px"><title>67 -DNA- (Outline)</title><desc>Created with Sketch.</desc><g stroke="none" stroke-width="1" fill="none" fill-rule="evenodd"><g fill="#000000"><path d="M22.2928932,7.29289322 C20.9492809,8.63650554 20.076454,8.68131247 16.3425794,7.84895737 C12.8962727,7.08070691 9.93720279,7.54858365 8.26789322,9.21789322 C6.69097416,10.7948123 6.58430656,12.8638289 7.44895737,16.7425794 C8.14713421,19.8745417 7.8501343,21.7356521 6.34289322,23.2428932 C5.95236893,23.6334175 5.95236893,24.2665825 6.34289322,24.6571068 C6.73341751,25.0476311 7.36658249,25.0476311 7.75710678,24.6571068 C9.82766521,22.5865483 10.2336567,20.0424568 9.40104263,16.3074206 C8.67535004,13.052025 8.75216539,11.5620482 9.68210678,10.6321068 C10.7870617,9.52715187 13.0638522,9.16715453 15.9074206,9.80104263 C20.2648215,10.7723942 21.7163334,10.6978802 23.7071068,8.70710678 C24.0976311,8.31658249 24.0976311,7.68341751 23.7071068,7.29289322 C23.3165825,6.90236893 22.6834175,6.90236893 22.2928932,7.29289322 Z"/><path d="M16.2428932,1.24289322 C14.2460244,3.23976208 14.1740539,4.66924469 15.1489574,9.04257936 C15.7819428,11.8820987 15.4198444,14.165942 14.3178932,15.2678932 C13.3879518,16.1978346 11.897975,16.27465 8.64257936,15.5489574 C4.90754316,14.7163433 2.36345165,15.1223348 0.292893219,17.1928932 C-0.0976310729,17.5834175 -0.0976310729,18.2165825 0.292893219,18.6071068 C0.683417511,18.9976311 1.31658249,18.9976311 1.70710678,18.6071068 C3.21434786,17.0998657 5.07545833,16.8028658 8.20742064,17.5010426 C12.0861711,18.3656934 14.1551877,18.2590258 15.7321068,16.6821068 C17.3981068,15.0161067 17.8684122,12.0497758 17.1010426,8.60742064 C16.2653098,4.85839382 16.3082261,4.00598746 17.6571068,2.65710678 C18.0476311,2.26658249 18.0476311,1.63341751 17.6571068,1.24289322 C17.2665825,0.852368927 16.6334175,0.852368927 16.2428932,1.24289322 Z"/><path d="M15.7259932,3.24020678 L21.7089932,9.22320678 C22.0995175,9.61373107 22.7326825,9.61373107 23.1232068,9.22320678 C23.5137311,8.83268249 23.5137311,8.19951751 23.1232068,7.80899322 L17.1402068,1.82599322 C16.7496825,1.43546893 16.1165175,1.43546893 15.7259932,1.82599322 C15.3354689,2.21651751 15.3354689,2.84968249 15.7259932,3.24020678 Z"/><path d="M1.19199322,17.8562068 L7.09399322,23.7582068 C7.48451751,24.1487311 8.11768249,24.1487311 8.50820678,23.7582068 C8.89873107,23.3676825 8.89873107,22.7345175 8.50820678,22.3439932 L2.60620678,16.4419932 C2.21568249,16.0514689 1.58251751,16.0514689 1.19199322,16.4419932 C0.801468927,16.8325175 0.801468927,17.4656825 1.19199322,17.8562068 Z"/><path d="M8.55709322,10.3713068 L14.5780932,16.3923068 C14.9686175,16.7828311 15.6017825,16.7828311 15.9923068,16.3923068 C16.3828311,16.0017825 16.3828311,15.3686175 15.9923068,14.9780932 L9.97130678,8.95709322 C9.58078249,8.56656893 8.94761751,8.56656893 8.55709322,8.95709322 C8.16656893,9.34761751 8.16656893,9.98078249 8.55709322,10.3713068 Z"/></g></g><text x="0" y="40" fill="#000000" font-size="5px" font-weight="bold" font-family="'Helvetica Neue', Helvetica, Arial-Unicode, Arial, Sans-serif">Created by Ben Davis</text><text x="0" y="45" fill="#000000" font-size="5px" font-weight="bold" font-family="'Helvetica Neue', Helvetica, Arial-Unicode, Arial, Sans-serif">from the Noun Project</text></svg>