<svg xmlns="http://www.w3.org/2000/svg" xmlns:xlink="http://www.w3.org/1999/xlink" version="1.1" x="0px" y="0px" viewBox="0 0 87.3 115.875" enable-background="new 0 0 87.3 92.7" xml:space="preserve"><g><rect x="34.3" y="22.4" width="4.3" height="4.3"/><rect x="34.3" y="31.4" width="4.3" height="4.3"/><rect x="34.3" y="40.4" width="4.3" height="4.3"/><rect x="34.3" y="49.4" width="4.3" height="4.3"/><path d="M63.3,15.5H23.2c-1.7,0-3.1,1.4-3.1,3.1v49.7c0,1.7,1.4,3.1,3.1,3.1h8.2v6.5l4.8-4l4.8,4v-6.5h22.3c1.7,0,3.1-1.4,3.1-3.1   V18.6C66.4,16.9,65,15.5,63.3,15.5z M63.4,68.3c0,0.1-0.1,0.1-0.2,0.1H41v-4.4h-9.7v4.4h-8.2c-0.1,0-0.2-0.1-0.2-0.1v-6.3h40.4   V68.3z M63.4,58.9H31V18.5h32.2c0.1,0,0.2,0.1,0.2,0.1V58.9z"/></g><text x="0" y="107.7" fill="#000000" font-size="5px" font-weight="bold" font-family="'Helvetica Neue', Helvetica, Arial-Unicode, Arial, Sans-serif">Created by Nick Bluth</text><text x="0" y="112.7" fill="#000000" font-size="5px" font-weight="bold" font-family="'Helvetica Neue', Helvetica, Arial-Unicode, Arial, Sans-serif">from the Noun Project</text></svg>