<svg xmlns="http://www.w3.org/2000/svg" xmlns:xlink="http://www.w3.org/1999/xlink" viewBox="0 0 200 250" version="1.1" xml:space="preserve" style="" x="0px" y="0px" fill-rule="evenodd" clip-rule="evenodd" stroke-linejoin="round" stroke-miterlimit="1.41421"><path d="M89.41,80.244L77.658,80.244C77.5,80.244 77.371,80.116 77.371,79.957L77.371,75.275C77.371,75.117 77.5,74.988 77.658,74.988L79.394,74.988C79.424,69.656 79.562,36.952 79.562,36.859C79.562,25.531 88.759,16.334 100.087,16.334C111.415,16.334 120.612,25.531 120.612,36.859C120.612,37.534 120.515,69.719 120.494,74.988L122.342,74.988C122.5,74.988 122.629,75.117 122.629,75.275L122.629,79.957C122.629,80.116 122.5,80.244 122.342,80.244L110.59,80.244L110.59,158.928C110.59,159.806 109.878,160.519 109,160.519C108.122,160.519 107.41,159.806 107.41,158.928L107.41,80.244L92.59,80.244L92.59,178.928C92.59,179.806 91.878,180.519 91,180.519C90.122,180.519 89.41,179.806 89.41,178.928L89.41,80.244Z"/><text x="0" y="215" fill="#000000" font-size="5px" font-weight="bold" font-family="'Helvetica Neue', Helvetica, Arial-Unicode, Arial, Sans-serif">Created by Nick Taras</text><text x="0" y="220" fill="#000000" font-size="5px" font-weight="bold" font-family="'Helvetica Neue', Helvetica, Arial-Unicode, Arial, Sans-serif">from the Noun Project</text></svg>