<svg xmlns="http://www.w3.org/2000/svg" xmlns:xlink="http://www.w3.org/1999/xlink" version="1.1" x="0px" y="0px" viewBox="0 0 100 125" style="enable-background:new 0 0 100 100;" xml:space="preserve"><style type="text/css">
	.st0{fill:none;stroke:#000000;stroke-width:2;stroke-linecap:round;stroke-linejoin:round;stroke-miterlimit:10;}
</style><path d="M67.7,50.7c-0.4-0.4-1-0.4-1.4,0L43.7,73.2c-2,2-4.7,3.1-7.6,3.1s-5.6-1.1-7.6-3.1s-3.1-4.7-3.1-7.6s1.1-5.6,3.1-7.6  L51,35.5c0.4-0.4,0.4-1,0-1.4l-7.3-7.3c-0.4-0.4-1-0.4-1.4,0L19.3,49.9c-4.4,4.4-6.8,10.1-6.8,16.3s2.4,12,6.8,16.3  c4.4,4.4,10.1,6.8,16.3,6.8s12-2.4,16.3-6.8L75,59.4c0.4-0.4,0.4-1,0-1.4L67.7,50.7z M43,28.9l5.9,5.9l-5.3,5.3l-5.9-5.9L43,28.9z   M50.5,81.1c-4,4-9.3,6.2-14.9,6.2c-5.6,0-10.9-2.2-14.9-6.2s-6.2-9.3-6.2-14.9c0-5.6,2.2-10.9,6.2-14.9l15.6-15.6l5.9,5.9  L27.1,56.6c-2.4,2.4-3.7,5.6-3.7,9c0,3.4,1.3,6.6,3.7,9c2.4,2.4,5.6,3.7,9,3.7s6.6-1.3,9-3.7l15-15l5.9,5.9L50.5,81.1z M67.5,64.1  l-5.9-5.9l5.4-5.4l5.9,5.9L67.5,64.1z"/><path d="M53.6,32.3c0.3,0,0.5-0.1,0.7-0.3l11.1-11.1c0.4-0.4,0.4-1,0-1.4s-1-0.4-1.4,0L52.9,30.6c-0.4,0.4-0.4,1,0,1.4  C53.1,32.2,53.3,32.3,53.6,32.3z"/><path d="M50,28.7c0.3,0,0.5-0.1,0.7-0.3l7.1-7.1c0.4-0.4,0.4-1,0-1.4s-1-0.4-1.4,0L49.3,27c-0.4,0.4-0.4,1,0,1.4  C49.5,28.6,49.7,28.7,50,28.7z"/><path d="M59.4,19.3c0.3,0,0.5-0.1,0.7-0.3l1.7-1.7c0.4-0.4,0.4-1,0-1.4c-0.4-0.4-1-0.4-1.4,0l-1.7,1.7c-0.4,0.4-0.4,1,0,1.4  C58.9,19.2,59.2,19.3,59.4,19.3z"/><path d="M51.5,19.1c-0.4-0.4-1-0.4-1.4,0l-4.3,4.3c-0.4,0.4-0.4,1,0,1.4c0.2,0.2,0.5,0.3,0.7,0.3s0.5-0.1,0.7-0.3l4.3-4.3  C51.9,20.1,51.9,19.5,51.5,19.1z"/><path d="M56.8,12.3l-4.3,4.3c-0.4,0.4-0.4,1,0,1.4c0.2,0.2,0.5,0.3,0.7,0.3s0.5-0.1,0.7-0.3l4.3-4.3c0.4-0.4,0.4-1,0-1.4  S57.2,11.9,56.8,12.3z"/><path d="M82.2,36.3c-0.4-0.4-1-0.4-1.4,0L69.7,47.4c-0.4,0.4-0.4,1,0,1.4c0.2,0.2,0.5,0.3,0.7,0.3s0.5-0.1,0.7-0.3l11.1-11.1  C82.6,37.4,82.6,36.7,82.2,36.3z"/><path d="M80.4,43.9L73.3,51c-0.4,0.4-0.4,1,0,1.4c0.2,0.2,0.5,0.3,0.7,0.3s0.5-0.1,0.7-0.3l7.1-7.1c0.4-0.4,0.4-1,0-1.4  S80.8,43.5,80.4,43.9z"/><path d="M84.4,39.9l-1.7,1.7c-0.4,0.4-0.4,1,0,1.4c0.2,0.2,0.5,0.3,0.7,0.3s0.5-0.1,0.7-0.3l1.7-1.7c0.4-0.4,0.4-1,0-1.4  S84.8,39.5,84.4,39.9z"/><path d="M81.2,50.2l-4.3,4.3c-0.4,0.4-0.4,1,0,1.4c0.2,0.2,0.5,0.3,0.7,0.3s0.5-0.1,0.7-0.3l4.3-4.3c0.4-0.4,0.4-1,0-1.4  S81.6,49.9,81.2,50.2z"/><path d="M88,43.5l-4.3,4.3c-0.4,0.4-0.4,1,0,1.4c0.2,0.2,0.5,0.3,0.7,0.3s0.5-0.1,0.7-0.3l4.3-4.3c0.4-0.4,0.4-1,0-1.4  S88.4,43.1,88,43.5z"/><text x="0" y="115" fill="#000000" font-size="5px" font-weight="bold" font-family="'Helvetica Neue', Helvetica, Arial-Unicode, Arial, Sans-serif">Created by Made by Made</text><text x="0" y="120" fill="#000000" font-size="5px" font-weight="bold" font-family="'Helvetica Neue', Helvetica, Arial-Unicode, Arial, Sans-serif">from the Noun Project</text></svg>