<svg xmlns="http://www.w3.org/2000/svg" xmlns:xlink="http://www.w3.org/1999/xlink" version="1.1" x="0px" y="0px" viewBox="0 0 100 125" style="enable-background:new 0 0 100 100;" xml:space="preserve"><style type="text/css">
	.st0{fill:none;stroke:#000000;stroke-width:6;stroke-miterlimit:10;}
</style><g><g><path d="M16.7,69H78V50.7H16.7V69z M22.7,56.7H72V63H22.7V56.7z"/><polygon points="22.7,8.3 38.8,8.3 38.8,15.7 44.8,15.7 44.8,2.3 16.7,2.3 16.7,46.7 22.7,46.7   "/><polygon points="53.2,8.3 60.2,8.3 60.2,38.2 66.2,38.2 66.2,2.3 47.2,2.3 47.2,23.1 53.2,23.1   "/><polygon points="68.5,2.3 68.5,8.3 72,8.3 72,46.7 78,46.7 78,2.3   "/><rect x="27.7" y="10.7" width="6" height="20.3"/><path d="M38.1,88c0,5,4,9,9,9s9-4,9-9V72.3h-18V88z M44.1,78.3h6V88c0,1.6-1.3,3-3,3s-3-1.3-3-3V78.3z"/></g></g><text x="0" y="115" fill="#000000" font-size="5px" font-weight="bold" font-family="'Helvetica Neue', Helvetica, Arial-Unicode, Arial, Sans-serif">Created by Alexander Russell</text><text x="0" y="120" fill="#000000" font-size="5px" font-weight="bold" font-family="'Helvetica Neue', Helvetica, Arial-Unicode, Arial, Sans-serif">from the Noun Project</text></svg>