<svg xmlns="http://www.w3.org/2000/svg" viewBox="0 0 100 125" x="0px" y="0px"><title>Brush</title><path d="M59.89,23.83H48.5a1.5,1.5,0,0,0-1.38.91l-.69,1.6-.89-1.71a1.5,1.5,0,0,0-1.33-.8h-4.1a1.5,1.5,0,0,0-1.5,1.5v15a1.48,1.48,0,0,0,0,.16s0,.06,0,.09v0l0,.07a8.73,8.73,0,0,0,7.64,7.54v.63a50.47,50.47,0,0,1-2.94,17l-.21.6A7.28,7.28,0,0,0,50,76.17a7.28,7.28,0,0,0,6.84-9.78A50.45,50.45,0,0,1,53.77,49v-.84c4-.76,6.64-3.33,7.58-7.54h0a1.5,1.5,0,0,0,0-.32v-15A1.5,1.5,0,0,0,59.89,23.83Zm-18.27,3H43.3l1.93,3.7a1.5,1.5,0,0,0,2.71-.1l1.54-3.59h1.43v1.35a1.5,1.5,0,0,0,3,0V26.83h4.47v12H41.61ZM54,67.42a4.28,4.28,0,1,1-8.06,0l.21-.6a53.46,53.46,0,0,0,3.12-18v-.3h1.47V49A53.44,53.44,0,0,0,54,67.42Zm-1.71-22H47.68C44.8,45.13,43,44,42.09,41.83H57.82C56.83,44,55,45.13,52.32,45.4ZM50,67.85a1.5,1.5,0,1,1-1.5,1.5A1.5,1.5,0,0,1,50,67.85Z"/><text x="0" y="115" fill="#000000" font-size="5px" font-weight="bold" font-family="'Helvetica Neue', Helvetica, Arial-Unicode, Arial, Sans-serif">Created by Paul</text><text x="0" y="120" fill="#000000" font-size="5px" font-weight="bold" font-family="'Helvetica Neue', Helvetica, Arial-Unicode, Arial, Sans-serif">from the Noun Project</text></svg>