<?xml version="1.0" encoding="utf-8"?><!DOCTYPE svg PUBLIC "-//W3C//DTD SVG 1.1//EN" "http://www.w3.org/Graphics/SVG/1.1/DTD/svg11.dtd"><svg version="1.1" xmlns="http://www.w3.org/2000/svg" xmlns:xlink="http://www.w3.org/1999/xlink" x="0px" y="0px" viewBox="0 0 100 125" enable-background="new 0 0 100 100" xml:space="preserve"><path fill="#010101" d="M37.388,95.787c-1.672,0.086-2.405-0.729-2.405-0.729l-8.318-8.316L43.993,68.21l-18.66,17.197
	L10.067,70.142l7.849-8.878l-9.22,7.506l-2.382-2.383c0,0-1.435-1.182-1.306-2.833c0.129-1.649,1.032-2.591,1.032-2.591
	l22.502-22.504l33.815,33.817L39.684,94.949C39.683,94.949,39.06,95.702,37.388,95.787z"/><rect x="26.213" y="47.476" transform="matrix(0.7071 0.7071 -0.7071 0.7071 50.6154 -20.5583)" fill="#010101" width="47.823" height="6.69"/><path fill="#010101" d="M66.709,42.975c0.101-4.143,9.396-3.003,14.208-7.815c4.812-4.813,13.695-16.5,13.849-17.871
	c0.155-1.371,1.124-4.834-2.477-8.566c-3.604-3.732-8.76-2.67-8.76-2.67s-12.263,8.035-18.182,13.951
	c-5.337,5.338-3.144,14.452-6.888,14.517s-14.904-11.072-17.376-8.601c-2.472,2.469-3.822,3.82-3.822,3.82l33.813,33.817
	c0,0,0.442-0.438,3.823-3.821C78.282,56.351,66.605,47.116,66.709,42.975z"/><text x="0" y="115" fill="#000000" font-size="5px" font-weight="bold" font-family="'Helvetica Neue', Helvetica, Arial-Unicode, Arial, Sans-serif">Created by Drew Ellis</text><text x="0" y="120" fill="#000000" font-size="5px" font-weight="bold" font-family="'Helvetica Neue', Helvetica, Arial-Unicode, Arial, Sans-serif">from the Noun Project</text></svg>