<svg xmlns="http://www.w3.org/2000/svg" xmlns:xlink="http://www.w3.org/1999/xlink" version="1.1" x="0px" y="0px" viewBox="0 0 91 113.75" enable-background="new 0 0 91 91" xml:space="preserve"><g><path d="M26.709,89c8.094,0,14.079-1.581,17.787-5.454c2.839-2.965,4.175-6.694,3.97-11.462c-0.073-1.663-0.557-3.148-1.317-4.619   c18.043-4.694,35.63-47.316,38.713-58.695c0.644-2.374,1.522-5.601-0.997-7.073c-0.47-0.275-1.115-0.431-1.658-0.431   c-5.081,0-44.422,30.222-50.516,49.513c-0.915,2.891-1.051,5.318-0.711,7.358c-0.371-0.026-0.739-0.054-1.102-0.054   c-3.45,0-6.46,1.13-8.709,3.267c-3.119,2.964-4.661,5.994-6.019,8.668c-2.06,4.053-3.688,7.254-10.565,10.06   c-1.141,0.466-1.893,1.572-1.906,2.805c-0.013,1.233,0.713,1.973,1.843,2.464C9.993,87.289,18.528,89,26.706,89   C26.708,89,26.708,89,26.709,89z M79.166,10.189C76.1,19.641,67.819,38.215,58.857,50.331c-0.563-1.07-1.317-2.11-2.26-3.099   c-2.96-3.092-7.285-5.208-11.564-5.82C54.453,29.343,70.861,15.979,79.166,10.189z M38.025,54.844   c0.305-2.264,1.356-4.805,2.928-7.499c0.252,0.042,0.511,0.063,0.778,0.038c3.489-0.29,7.876,1.414,10.436,4.088   c1.238,1.296,1.869,2.644,1.729,3.698c-0.045,0.351-0.019,0.692,0.051,1.02c-3.426,3.501-6.833,5.685-9.974,5.685   c-1.241,0-2.398-0.392-3.545-1.196C38.414,59.263,37.673,57.463,38.025,54.844z M17.929,82.443c-0.202,0.082-0.389,0.184-0.563,0.3   c-1.006-0.182-1.987-0.386-2.924-0.604c3.938-2.979,5.628-6.302,7.173-9.342c1.246-2.451,2.421-4.765,4.776-7.001   c1.102-1.048,2.612-1.579,4.486-1.579c5.291,0,11.291,4.357,11.463,8.326c0.133,3.071-0.61,5.41-2.271,7.145   c-2.78,2.903-7.729,3.759-11.867,3.914c1.555-1.205,2.999-2.617,3.961-4.202c0.877-1.446,0.415-3.332-1.031-4.211   c-1.446-0.876-3.332-0.416-4.211,1.028C25.402,78.722,20.601,81.366,17.929,82.443z"/></g><text x="0" y="106" fill="#000000" font-size="5px" font-weight="bold" font-family="'Helvetica Neue', Helvetica, Arial-Unicode, Arial, Sans-serif">Created by IconsGhost </text><text x="0" y="111" fill="#000000" font-size="5px" font-weight="bold" font-family="'Helvetica Neue', Helvetica, Arial-Unicode, Arial, Sans-serif">from the Noun Project</text></svg>