<svg xmlns="http://www.w3.org/2000/svg" xmlns:xlink="http://www.w3.org/1999/xlink" version="1.1" x="0px" y="0px" viewBox="0 0 100 125" enable-background="new 0 0 100 100" xml:space="preserve"><path d="M70.205,48.76h5.59v11.18h-5.59V48.76z M64.605,65.54h5.6v-5.6h-5.6V65.54z M70.205,43.16h-5.6v5.6h5.6V43.16z   M59.016,65.54h5.59v5.59h-5.59v5.59h-5.59v5.6H31.045v-5.6h-5.59V43.16h33.561v5.6h5.59v5.59h-5.59V65.54z M47.825,76.72V48.76  h-5.59v27.96H47.825z M59.016,37.57v-5.6h-5.59v5.6H59.016z M59.016,15.19h-5.59v11.19h5.59V15.19z M53.426,31.97v-5.59h-5.601v5.59  H53.426z M42.235,37.57h5.59v-5.6h-5.59V37.57z M47.825,15.19h-5.59v11.19h5.59V15.19z M42.235,31.97v-5.59h-5.59v5.59H42.235z   M31.045,37.57h5.601v-5.6h-5.601V37.57z M36.646,15.19h-5.601v11.19h5.601V15.19z M25.455,26.38v5.59h5.59v-5.59H25.455z"/><text x="0" y="115" fill="#000000" font-size="5px" font-weight="bold" font-family="'Helvetica Neue', Helvetica, Arial-Unicode, Arial, Sans-serif">Created by Lisa Krymova</text><text x="0" y="120" fill="#000000" font-size="5px" font-weight="bold" font-family="'Helvetica Neue', Helvetica, Arial-Unicode, Arial, Sans-serif">from the Noun Project</text></svg>