<svg xmlns:x="http://ns.adobe.com/Extensibility/1.0/" xmlns:i="http://ns.adobe.com/AdobeIllustrator/10.0/" xmlns:graph="http://ns.adobe.com/Graphs/1.0/" xmlns="http://www.w3.org/2000/svg" xmlns:xlink="http://www.w3.org/1999/xlink" version="1.1" x="0px" y="0px" viewBox="0 0 64 80" enable-background="new 0 0 64 64" xml:space="preserve"><metadata><sfw xmlns="http://ns.adobe.com/SaveForWeb/1.0/"><slices/><sliceSourceBounds height="16384" width="16389" x="-8165" y="-8160" bottomLeftOrigin="true"/></sfw></metadata><g><g><path d="M15.752,18.55l7.484-7.484l-4.949-4.949c-0.391-0.391-1.023-0.391-1.414,0l-6.07,6.069    c-0.188,0.188-0.293,0.442-0.293,0.707s0.105,0.52,0.293,0.707L15.752,18.55z"/><path d="M46.57,34.4c-0.391-0.391-1.023-0.391-1.414,0l-2.535,2.535l-2.828-2.829l4.95-4.949c0.188-0.188,0.293-0.442,0.293-0.707    s-0.105-0.52-0.293-0.707l-8.485-8.485c-0.375-0.375-1.039-0.375-1.414,0l-4.95,4.95l-2.829-2.829l2.535-2.535    c0.188-0.188,0.293-0.442,0.293-0.707s-0.105-0.52-0.293-0.707l-4.951-4.95l-7.484,7.484l4.95,4.95    c0.188,0.188,0.442,0.293,0.707,0.293s0.52-0.105,0.707-0.293l2.121-2.121l2.829,2.829l-4.95,4.95    c-0.188,0.188-0.293,0.442-0.293,0.707s0.105,0.52,0.293,0.707l3.535,3.535l-1.485,1.485c-0.811-0.538-1.761-0.828-2.757-0.828    c-1.336,0-2.591,0.52-3.536,1.464c-1.949,1.949-1.949,5.122,0,7.071c0.944,0.944,2.2,1.464,3.536,1.464    c1.335,0,2.591-0.52,3.535-1.464c1.708-1.707,1.919-4.353,0.636-6.293l1.486-1.485l3.536,3.535    c0.195,0.195,0.451,0.293,0.707,0.293s0.512-0.098,0.707-0.293l4.949-4.949l2.828,2.829l-2.12,2.12    c-0.391,0.391-0.391,1.023,0,1.414l4.949,4.95l7.484-7.483L46.57,34.4z"/><path d="M57.884,45.714l-4.949-4.949l-7.484,7.483l4.95,4.95c0.188,0.188,0.441,0.293,0.707,0.293s0.52-0.105,0.707-0.293    l6.069-6.07C58.274,46.737,58.274,46.104,57.884,45.714z"/><path d="M22.823,50.178c-4.963,0-9-4.038-9-9.001c0-0.553-0.448-1-1-1s-1,0.447-1,1c0,6.066,4.935,11.001,11,11.001    c0.552,0,1-0.447,1-1S23.375,50.178,22.823,50.178z"/><path d="M22.823,56.177c-4.007,0-7.774-1.561-10.607-4.394c-2.833-2.833-4.394-6.6-4.393-10.606c0-0.552-0.448-1-1-1s-1,0.447-1,1    c0,4.541,1.768,8.81,4.979,12.021c3.211,3.211,7.48,4.979,12.021,4.979c0.552,0,1-0.447,1-1S23.375,56.177,22.823,56.177z"/></g></g><text x="0" y="79" fill="#000000" font-size="5px" font-weight="bold" font-family="'Helvetica Neue', Helvetica, Arial-Unicode, Arial, Sans-serif">Created by Ralf Schmitzer</text><text x="0" y="84" fill="#000000" font-size="5px" font-weight="bold" font-family="'Helvetica Neue', Helvetica, Arial-Unicode, Arial, Sans-serif">from the Noun Project</text></svg>