<svg xmlns:dc="http://purl.org/dc/elements/1.1/" xmlns:cc="http://creativecommons.org/ns#" xmlns:rdf="http://www.w3.org/1999/02/22-rdf-syntax-ns#" xmlns:svg="http://www.w3.org/2000/svg" xmlns="http://www.w3.org/2000/svg" xmlns:sodipodi="http://sodipodi.sourceforge.net/DTD/sodipodi-0.dtd" xmlns:inkscape="http://www.inkscape.org/namespaces/inkscape" viewBox="0 0 16 20" version="1.1" x="0px" y="0px"><g transform="translate(0,-1036.3622)"><path style="color:#000000;font-style:normal;font-variant:normal;font-weight:normal;font-stretch:normal;font-size:medium;line-height:normal;font-family:sans-serif;text-indent:0;text-align:start;text-decoration:none;text-decoration-line:none;text-decoration-style:solid;text-decoration-color:#000000;letter-spacing:normal;word-spacing:normal;text-transform:none;direction:ltr;block-progression:tb;writing-mode:lr-tb;baseline-shift:baseline;text-anchor:start;white-space:normal;clip-rule:nonzero;display:inline;overflow:visible;visibility:visible;opacity:1;isolation:auto;mix-blend-mode:normal;color-interpolation:sRGB;color-interpolation-filters:linearRGB;solid-color:#000000;solid-opacity:1;fill:#000000;fill-opacity:1;fill-rule:nonzero;stroke:none;stroke-width:1.5;stroke-linecap:butt;stroke-linejoin:miter;stroke-miterlimit:4;stroke-dasharray:none;stroke-dashoffset:0;stroke-opacity:1;color-rendering:auto;image-rendering:auto;shape-rendering:auto;text-rendering:auto;enable-background:accumulate" d="m 7.9970705,1038.3622 c -2.558975,0 -4.938919,0.7645 -6.9375,2.0664 l 0.93164,1.1797 c 1.738341,-1.0995 3.792951,-1.7461 6.00586,-1.7461 2.2159215,0 4.2738475,0.6458 6.0136715,1.748 l 0.929688,-1.1777 c -1.999815,-1.3043 -4.381806,-2.0703 -6.9433595,-2.0703 z m 0,3 c -1.845384,0 -3.557574,0.5769 -4.970704,1.5566 l 0.925782,1.1719 c 1.154563,-0.7758 2.545113,-1.2285 4.044922,-1.2285 1.502328,0 2.8950765,0.4522 4.0507815,1.2305 l 0.925781,-1.17 c -1.414234,-0.9821 -3.1286605,-1.5605 -4.9765625,-1.5605 z m 0,3 c -1.138371,0 -2.193221,0.3626 -3.064454,0.9707 l 0.925782,1.1719 c 0.612684,-0.4045 1.345671,-0.6426 2.138672,-0.6426 0.795183,0 1.53084,0.238 2.1445315,0.6445 l 0.925781,-1.1699 c -0.872505,-0.6109 -1.9290215,-0.9746 -3.0703125,-0.9746 z m 0,3 a 1.5,1.5000087 0 0 0 -1.5,1.5 1.5,1.5000087 0 0 0 1.5,1.5 1.5,1.5000087 0 0 0 1.5,-1.5 1.5,1.5000087 0 0 0 -1.5,-1.5 z"/></g><text x="0" y="31" fill="#000000" font-size="5px" font-weight="bold" font-family="'Helvetica Neue', Helvetica, Arial-Unicode, Arial, Sans-serif">Created by Dev Patel</text><text x="0" y="36" fill="#000000" font-size="5px" font-weight="bold" font-family="'Helvetica Neue', Helvetica, Arial-Unicode, Arial, Sans-serif">from the Noun Project</text></svg>